<?xml version="1.0" encoding="utf-8"?>
<!-- Generator: Adobe Illustrator 26.1.0, SVG Export Plug-In . SVG Version: 6.00 Build 0)  -->
<svg version="1.1" id="Capa_1" xmlns="http://www.w3.org/2000/svg" xmlns:xlink="http://www.w3.org/1999/xlink" x="0px" y="0px"
	 viewBox="0 0 1200 908.8" style="enable-background:new 0 0 1200 908.8;" xml:space="preserve">
<style type="text/css">
	.st0{clip-path:url(#SVGID_00000178203992976548749940000011237540218300892331_);fill:#F2F8F9;}
	.st1{clip-path:url(#SVGID_00000136402835153021562270000017515409192939850681_);fill:#E8F4F7;}
	.st2{clip-path:url(#SVGID_00000134252230149197055160000005123998087675263658_);fill:#F1F9FB;}
	.st3{clip-path:url(#SVGID_00000106116368606643474190000015316254468452700854_);fill:#E8F4F7;}
	.st4{clip-path:url(#SVGID_00000145039592962927324620000009526278684931191980_);fill:#009CCA;}
	.st5{clip-path:url(#SVGID_00000044153998836665212600000015574471466050812296_);fill:#009CCA;}
	.st6{clip-path:url(#SVGID_00000060710923690551361400000010413313764279376024_);fill:#D3EDF3;}
	.st7{clip-path:url(#SVGID_00000136369809217850026840000001401294344695594935_);fill:#009DCA;}
	.st8{clip-path:url(#SVGID_00000155145328014220126990000004306214536303045249_);fill:#009DCA;}
	.st9{clip-path:url(#SVGID_00000113313986585975985510000008962647982168126100_);fill:#313E50;}
	.st10{clip-path:url(#SVGID_00000132062537124906599590000011662057561534134676_);fill:#313E50;}
	.st11{clip-path:url(#SVGID_00000116943337530581709550000010036828289516811665_);fill:#313E50;}
	.st12{clip-path:url(#SVGID_00000017511096575587848260000013904039806780504981_);fill:#313E50;}
	.st13{clip-path:url(#SVGID_00000067215924242157304070000002966544274807581840_);fill:#D3EDF3;}
	.st14{clip-path:url(#SVGID_00000004536062511351454840000014551067723525713066_);fill:#EB7631;}
	.st15{clip-path:url(#SVGID_00000167384042919743107220000012366760127365991576_);fill:#EB7631;}
	.st16{clip-path:url(#SVGID_00000181082214325615431520000012956741745152975004_);fill:#EB7631;}
	.st17{clip-path:url(#SVGID_00000122000372652119098850000005072029473251203464_);fill:#FCCEAF;}
	.st18{clip-path:url(#SVGID_00000116198895594462894830000012740473391254045095_);fill:#FCCEAF;}
	.st19{clip-path:url(#SVGID_00000175315440067700559300000008840936925760723357_);fill:#364A5B;}
	.st20{clip-path:url(#SVGID_00000132077378037197815370000004449917598134897851_);fill:#FCCEAF;}
	.st21{clip-path:url(#SVGID_00000082365339748949448160000006463483971704116896_);fill:#FCCEAF;}
	.st22{clip-path:url(#SVGID_00000149381528482787781930000007520321711139726747_);fill:#19A7CA;}
	.st23{clip-path:url(#SVGID_00000118368221641777189150000007734583622923805631_);fill:#2C3E4F;}
	.st24{clip-path:url(#SVGID_00000096776703441296707420000008557701745358522016_);fill:#2C3E4F;}
	.st25{clip-path:url(#SVGID_00000142877383362603163440000010183857841828098198_);fill:#FCCEAF;}
	.st26{clip-path:url(#SVGID_00000018952760292356732340000003305598275877990292_);fill:#FCCEAF;}
	.st27{clip-path:url(#SVGID_00000081611479361295310720000014257722788818734750_);fill:#21313F;}
	.st28{clip-path:url(#SVGID_00000018232901030170641310000005545559912161480337_);fill:#1A3644;}
	.st29{clip-path:url(#SVGID_00000081612401013559888960000016080162752283410583_);fill:#1A3644;}
	.st30{clip-path:url(#SVGID_00000121262702447738173760000016619030795033908657_);fill:#1A3644;}
	.st31{clip-path:url(#SVGID_00000008830992701673193110000007832693222858593983_);fill:#1A3644;}
	.st32{clip-path:url(#SVGID_00000156559417099853368970000000017052566615286196_);fill:#EB7631;}
	.st33{clip-path:url(#SVGID_00000150807930596306460190000013117771620425149824_);fill:#EAAC81;}
	.st34{clip-path:url(#SVGID_00000116204675474852083640000015294649739658401455_);fill:#EAAC81;}
	.st35{clip-path:url(#SVGID_00000080187783576466046220000001654417613133603465_);fill:#21313F;}
	.st36{clip-path:url(#SVGID_00000069394112392398383820000006058705348383305865_);fill:#21313F;}
	.st37{clip-path:url(#SVGID_00000090262538197700606880000012636010595651709863_);fill:#21313F;}
	.st38{clip-path:url(#SVGID_00000001648843458588455940000013963520180104304043_);fill:#21313F;}
</style>
<g>
	<g>
		<defs>
			<rect id="SVGID_1_" width="1200" height="908.8"/>
		</defs>
		<clipPath id="SVGID_00000164490584987781136830000017717988471633759124_">
			<use xlink:href="#SVGID_1_"  style="overflow:visible;"/>
		</clipPath>
		<path style="clip-path:url(#SVGID_00000164490584987781136830000017717988471633759124_);fill:#F2F8F9;" d="M1221.7,991.7
			c-86.1,69.6-190.7,102.1-285.6,98.5C668,1080,408.1,950.6,140.7,984.9c-53.8,6.9-109.2,20.6-155.2,69.7V-13.9h1236.2V991.7"/>
	</g>
	<g>
		<defs>
			<rect id="SVGID_00000085212076221474544130000004751907570412565402_" width="1200" height="908.8"/>
		</defs>
		<clipPath id="SVGID_00000017488286982294704770000007814231441038149795_">
			<use xlink:href="#SVGID_00000085212076221474544130000004751907570412565402_"  style="overflow:visible;"/>
		</clipPath>
		<path style="clip-path:url(#SVGID_00000017488286982294704770000007814231441038149795_);fill:#E8F4F7;" d="M-1.7,396.4
			c-4.3,0-8.5,0.2-12.8,0.7v516.8l718.9,24.7c-26.6-82.9-78-141.9-133.7-174.5s-116.1-41.6-175.6-45c-59.9-3.5-124.4-3.8-173.2-58
			c-49.5-54.9-71.9-153.8-119.5-212.8C76.8,416.6,44.6,399,12,396.9C8,396.6,3.3,396.4-1.7,396.4"/>
	</g>
	<g>
		<defs>
			<rect id="SVGID_00000178892852615690270820000005340546853091926161_" width="1200" height="908.8"/>
		</defs>
		<clipPath id="SVGID_00000003070979374665602730000006000012008913423803_">
			<use xlink:href="#SVGID_00000178892852615690270820000005340546853091926161_"  style="overflow:visible;"/>
		</clipPath>
		<path style="clip-path:url(#SVGID_00000003070979374665602730000006000012008913423803_);fill:#F1F9FB;" d="M982.1-152.9
			c-6.8,0-13.7,0-20.5,0.1c-49.5,0.5-102.2,3.4-142.5,32.1c-11.8,8.4-22.5,19.3-27.7,32.8c-4.5,11.8-4.5,24.7-4,37.2
			c0.4,12.3,1.5,24.5,3.3,36.7h431v202.7c25.3-8,48.9-23.4,62.2-46.2c14.8-25.6,15.1-56.8,14.9-86.3c-0.2-41.6,1.6-89.5-14.7-128.6
			c-12.1-29-43.2-38.2-71.2-48.4C1139.4-147.7,1060-152.9,982.1-152.9"/>
	</g>
	<g>
		<defs>
			<rect id="SVGID_00000075132913239803937240000000036570777777997987_" width="1200" height="908.8"/>
		</defs>
		<clipPath id="SVGID_00000166653765698723660310000012293179405585127300_">
			<use xlink:href="#SVGID_00000075132913239803937240000000036570777777997987_"  style="overflow:visible;"/>
		</clipPath>
		<path style="clip-path:url(#SVGID_00000166653765698723660310000012293179405585127300_);fill:#E8F4F7;" d="M1221.7-13.9h-431
			c2,14.3,5.5,28.4,10.3,42.1c22,61.1,75.8,106.9,135.6,132.2s125.6,32.5,190.5,35.7c10.3,0.5,20.7,0.9,31,0.9
			c18.8,0,37.6-1.4,55.8-6c2.6-0.7,5.2-1.4,7.8-2.2L1221.7-13.9"/>
	</g>
	<g>
		<defs>
			<rect id="SVGID_00000142140604131779849860000012872028519722238861_" width="1200" height="908.8"/>
		</defs>
		<clipPath id="SVGID_00000054230975568928130290000010205380483786719123_">
			<use xlink:href="#SVGID_00000142140604131779849860000012872028519722238861_"  style="overflow:visible;"/>
		</clipPath>
	</g>
	<g>
		<defs>
			<rect id="SVGID_00000034088385897600518250000001233003920921839274_" width="1200" height="908.8"/>
		</defs>
		<clipPath id="SVGID_00000056417536543343598590000014131996846336039820_">
			<use xlink:href="#SVGID_00000034088385897600518250000001233003920921839274_"  style="overflow:visible;"/>
		</clipPath>
		<path style="clip-path:url(#SVGID_00000056417536543343598590000014131996846336039820_);fill:#009CCA;" d="M263.9,185
			c0.5,0.5,1,1.1,1.5,1.6s1.3,0.6,1.8,0.1s0.6-1.3,0.1-1.8c-0.5-0.6-1.1-1.1-1.6-1.7c-0.5-0.5-1.3-0.5-1.8,0S263.4,184.5,263.9,185
			 M258.1,179.7c0.6,0.5,1.2,1,1.7,1.4c0.6,0.5,1.4,0.4,1.9-0.1c0.5-0.6,0.4-1.4-0.1-1.9c-0.6-0.5-1.2-1-1.8-1.5
			c-0.5-0.5-1.4-0.4-1.8,0.1C257.4,178.3,257.5,179.1,258.1,179.7C258,179.6,258.1,179.6,258.1,179.7 M251.7,175
			c0.6,0.4,1.2,0.8,1.9,1.3c0.6,0.4,1.4,0.3,1.8-0.3s0.3-1.4-0.3-1.8c-0.6-0.4-1.3-0.9-1.9-1.3c-0.6-0.4-1.4-0.1-1.8,0.5
			C251.1,173.9,251.2,174.6,251.7,175 M245,170.9c0.7,0.4,1.3,0.7,2,1.1c0.6,0.4,1.4,0.1,1.8-0.5s0.1-1.4-0.5-1.8
			c-0.7-0.4-1.4-0.8-2-1.1s-1.4-0.1-1.8,0.5S244.4,170.6,245,170.9L245,170.9 M237.9,167.5c0.7,0.3,1.4,0.6,2.1,0.9
			c0.7,0.2,1.4-0.2,1.6-0.9c0.2-0.6-0.1-1.3-0.6-1.5l-2.1-0.9c-0.6-0.3-1.4-0.1-1.8,0.6c-0.3,0.6-0.1,1.4,0.6,1.8
			C237.7,167.4,237.8,167.4,237.9,167.5 M230.5,164.5c0.7,0.2,1.4,0.5,2.1,0.8c0.7,0.3,1.4-0.1,1.7-0.8s-0.1-1.4-0.8-1.7l-2.2-0.8
			c-0.7-0.2-1.4,0.1-1.7,0.8C229.5,163.6,229.8,164.3,230.5,164.5 M222.9,162.2l2.2,0.6c0.7,0.2,1.4-0.2,1.6-0.9
			c0.2-0.7-0.2-1.4-0.9-1.6l0,0c-0.7-0.2-1.5-0.4-2.2-0.6c-0.7-0.2-1.4,0.2-1.6,0.9C221.8,161.3,222.2,162,222.9,162.2L222.9,162.2
			 M215.2,160.4l2.2,0.5c0.7,0.2,1.4-0.3,1.6-1c0.2-0.7-0.3-1.4-1-1.6c-0.8-0.2-1.5-0.3-2.3-0.5c-0.7-0.1-1.4,0.3-1.5,1
			S214.5,160.2,215.2,160.4L215.2,160.4 M207.4,159l2.2,0.3c0.7,0.1,1.4-0.4,1.5-1.1s-0.4-1.4-1.1-1.5c-0.8-0.1-1.5-0.2-2.3-0.3
			c-0.7-0.1-1.4,0.4-1.5,1.1C206.2,158.3,206.7,158.9,207.4,159 M199.6,158.4c0.8,0,1.5,0,2.2,0.1c0.7,0,1.3-0.5,1.4-1.2
			s-0.5-1.3-1.2-1.4c-0.8-0.1-1.6-0.1-2.3-0.1s-1.3,0.6-1.3,1.3C198.3,157.8,198.8,158.4,199.6,158.4L199.6,158.4 M191.8,158.8
			c0.7-0.1,1.5-0.2,2.2-0.2c0.7-0.1,1.3-0.7,1.2-1.4s-0.7-1.3-1.4-1.2l0,0c-0.8,0.1-1.6,0.2-2.3,0.3s-1.2,0.8-1.1,1.5
			C190.4,158.4,191.1,158.9,191.8,158.8 M184.3,160.6c0.7-0.2,1.4-0.5,2.1-0.7c0.7-0.2,1.1-0.9,0.9-1.6c-0.2-0.7-0.9-1.1-1.6-0.9
			c-0.8,0.2-1.5,0.5-2.3,0.8c-0.7,0.2-1,1-0.8,1.6C182.8,160.5,183.5,160.9,184.3,160.6C184.2,160.7,184.3,160.7,184.3,160.6
			L184.3,160.6 M177.7,164.3c0.6-0.5,1.2-0.9,1.8-1.3c0.6-0.4,0.8-1.2,0.4-1.8c-0.4-0.6-1.2-0.8-1.8-0.4c-0.7,0.4-1.3,0.9-2,1.4
			c-0.6,0.4-0.8,1.2-0.4,1.8c0.4,0.6,1.2,0.8,1.8,0.4C177.4,164.5,177.5,164.4,177.7,164.3 M172.6,169.9c0.4-0.6,0.8-1.2,1.2-1.8
			s0.3-1.4-0.2-1.8s-1.4-0.3-1.8,0.2c-0.5,0.6-1,1.3-1.4,2c-0.4,0.6-0.2,1.4,0.4,1.8l0,0C171.4,170.7,172.2,170.5,172.6,169.9
			 M169.4,176.9c0.2-0.7,0.5-1.4,0.8-2.1c0.3-0.7,0-1.4-0.7-1.7s-1.4,0-1.7,0.7s-0.6,1.5-0.8,2.2s0.1,1.4,0.8,1.6
			C168.4,178,169.1,177.6,169.4,176.9L169.4,176.9 M167.5,184.5c0.1-0.7,0.3-1.5,0.4-2.2c0.2-0.7-0.2-1.4-0.9-1.6
			c-0.7-0.2-1.4,0.2-1.6,0.9c0,0.1,0,0.1,0,0.2c-0.2,0.8-0.3,1.5-0.4,2.3c-0.1,0.7,0.4,1.4,1.1,1.5S167.4,185.2,167.5,184.5
			 M166.5,192.3c0.1-0.7,0.1-1.5,0.2-2.2c0.1-0.7-0.4-1.4-1.2-1.4l0,0c-0.7-0.1-1.3,0.4-1.4,1.1l0,0c-0.1,0.8-0.1,1.6-0.2,2.3
			c-0.1,0.7,0.4,1.4,1.1,1.5c0.7,0.1,1.4-0.4,1.5-1.1C166.5,192.4,166.5,192.4,166.5,192.3 M166.7,200.1c-0.1-0.7-0.2-1.5-0.2-2.2
			s-0.7-1.3-1.4-1.2s-1.3,0.7-1.2,1.4c0.1,0.8,0.1,1.6,0.2,2.4c0.1,0.7,0.7,1.2,1.5,1.1S166.8,200.8,166.7,200.1L166.7,200.1
			 M168.8,207.3c-0.3-0.6-0.6-1.3-0.9-2c-0.2-0.7-1-1-1.7-0.8s-1,1-0.8,1.7l0,0c0.3,0.8,0.6,1.5,1,2.2c0.4,0.6,1.2,0.8,1.8,0.4
			C168.9,208.6,169.1,207.9,168.8,207.3 M173.6,212.7c-0.6-0.4-1.2-0.8-1.7-1.2c-0.6-0.5-1.4-0.4-1.9,0.1s-0.4,1.4,0.1,1.9
			c0.6,0.6,1.3,1.1,2,1.5c0.6,0.4,1.4,0.2,1.8-0.4C174.4,213.9,174.2,213.1,173.6,212.7L173.6,212.7 M180.5,214.8
			c-0.7,0-1.4-0.1-2.1-0.2c-0.7-0.1-1.4,0.5-1.4,1.2c-0.1,0.6,0.3,1.2,1,1.4c0.8,0.1,1.6,0.2,2.5,0.2c0.7,0,1.3-0.7,1.2-1.4
			C181.6,215.4,181.1,214.9,180.5,214.8 M186.9,212.6c-0.5,0.4-1,0.8-1.6,1.1s-0.9,1.1-0.5,1.8s1.1,0.9,1.8,0.5l0,0
			c0.8-0.4,1.5-0.9,2.1-1.5c0.5-0.5,0.5-1.3,0-1.9C188.2,212.1,187.4,212.1,186.9,212.6L186.9,212.6 M189.3,206.3c0,0.1,0,0.2,0,0.4
			c0,0.6,0,1.1-0.1,1.6c-0.1,0.7,0.5,1.4,1.2,1.4c0.6,0.1,1.2-0.3,1.4-1c0.1-0.7,0.2-1.4,0.2-2.1c0-0.1,0-0.3,0-0.4
			c0-0.7-0.6-1.3-1.3-1.3l0,0C189.8,205,189.3,205.6,189.3,206.3 M186.8,199.7c0.4,0.5,0.8,1.1,1.1,1.7c0.3,0.6,1.1,0.9,1.8,0.6
			c0.6-0.3,0.9-1.1,0.5-1.8s-0.8-1.5-1.4-2.1c-0.4-0.6-1.3-0.7-1.8-0.2S186.4,199.1,186.8,199.7L186.8,199.7 M180.9,195.4
			c0.7,0.3,1.3,0.6,1.9,0.9c0.6,0.4,1.4,0.2,1.8-0.4c0.4-0.6,0.2-1.4-0.4-1.8c0,0-0.1,0-0.1-0.1c-0.7-0.4-1.4-0.7-2.2-1.1
			c-0.6-0.3-1.4-0.1-1.8,0.6c-0.3,0.6-0.1,1.4,0.6,1.8C180.8,195.4,180.9,195.4,180.9,195.4 M173.5,192.9c0.3,0.1,0.7,0.2,1,0.3
			l1.1,0.4c0.7,0.2,1.4-0.2,1.6-0.8s-0.2-1.4-0.8-1.6l-1.1-0.4l-1.1-0.3c-0.7-0.2-1.4,0.2-1.6,0.9S172.8,192.7,173.5,192.9
			L173.5,192.9 M165.9,191.2c0.7,0.1,1.5,0.2,2.2,0.3s1.4-0.3,1.5-1s-0.3-1.4-1-1.5l0,0c-0.8-0.1-1.6-0.3-2.3-0.4
			c-0.7,0-1.3,0.5-1.4,1.2S165.2,191.1,165.9,191.2 M158.1,190.8h2.2c0.7,0,1.3-0.6,1.3-1.3s-0.6-1.3-1.3-1.3l0,0H158
			c-0.7,0-1.3,0.6-1.3,1.3S157.3,190.8,158.1,190.8 M150.3,191.5c0.7-0.1,1.5-0.2,2.2-0.3c0.7-0.2,1.2-0.8,1-1.6
			c-0.1-0.6-0.7-1.1-1.3-1c-0.8,0.1-1.6,0.2-2.3,0.4c-0.7,0.1-1.2,0.7-1.1,1.4c0.1,0.7,0.7,1.2,1.4,1.1
			C150.2,191.5,150.2,191.5,150.3,191.5L150.3,191.5 M142.7,193.4c0.7-0.2,1.4-0.4,2.1-0.6c0.7-0.2,1.1-0.9,0.9-1.6
			c-0.2-0.7-0.9-1.1-1.6-0.9c-0.8,0.2-1.5,0.4-2.2,0.7c-0.7,0.2-1.1,1-0.8,1.6S142,193.6,142.7,193.4L142.7,193.4L142.7,193.4
			 M135.4,196.2c0.7-0.3,1.4-0.6,2.1-0.9c0.6-0.3,0.9-1.1,0.6-1.8c-0.3-0.6-0.9-0.8-1.6-0.6c-0.7,0.3-1.4,0.6-2.1,1
			c-0.6,0.4-0.8,1.2-0.5,1.8C134.1,196.3,134.8,196.5,135.4,196.2 M128.6,200.1c0.6-0.4,1.2-0.8,1.9-1.2c0.6-0.4,0.8-1.2,0.4-1.8
			c-0.4-0.6-1.2-0.8-1.8-0.4c-0.7,0.4-1.3,0.8-2,1.2c-0.6,0.4-0.7,1.2-0.3,1.8C127.2,200.3,128,200.5,128.6,200.1L128.6,200.1
			 M122.4,204.9c0.5-0.5,1.1-1,1.7-1.5c0.5-0.5,0.6-1.3,0.1-1.8s-1.2-0.6-1.8-0.2c-0.6,0.5-1.2,1-1.8,1.5c-0.5,0.5-0.6,1.3-0.1,1.8
			S121.9,205.4,122.4,204.9L122.4,204.9 M117.1,210.6c0.4-0.6,0.9-1.1,1.4-1.7c0.5-0.6,0.4-1.4-0.1-1.9c-0.6-0.5-1.4-0.4-1.9,0.1
			c-0.5,0.6-1,1.2-1.5,1.8c-0.4,0.6-0.3,1.4,0.2,1.8S116.6,211.2,117.1,210.6L117.1,210.6 M113,217.2c0.3-0.6,0.6-1.1,0.9-1.7
			l0.2-0.3c0.3-0.7,0-1.4-0.6-1.7s-1.3-0.1-1.7,0.5l-0.2,0.3c-0.3,0.6-0.6,1.2-0.9,1.8s-0.1,1.4,0.6,1.8
			C111.9,218.1,112.7,217.8,113,217.2 M109.8,224.4c0.3-0.7,0.6-1.4,0.9-2.1c0.3-0.6,0.1-1.4-0.6-1.8c-0.6-0.3-1.4-0.1-1.8,0.6
			c0,0.1-0.1,0.1-0.1,0.2c-0.3,0.7-0.6,1.4-0.9,2.1c-0.3,0.7,0,1.4,0.7,1.7S109.5,225.1,109.8,224.4L109.8,224.4 M107.2,231.9
			c0.2-0.7,0.4-1.4,0.7-2.2c0.2-0.7-0.2-1.4-0.8-1.6c-0.7-0.2-1.4,0.2-1.6,0.8c-0.2,0.7-0.5,1.5-0.7,2.2s0.2,1.4,0.9,1.6
			C106.2,233,106.9,232.6,107.2,231.9 M105.2,239.6c0.2-0.7,0.3-1.5,0.5-2.2c0.1-0.7-0.3-1.4-1-1.5s-1.3,0.3-1.5,0.9
			c-0.2,0.8-0.3,1.5-0.5,2.3c-0.1,0.7,0.3,1.4,1,1.5C104.4,240.7,105.1,240.3,105.2,239.6 M104,247.4c0.1-0.7,0.2-1.5,0.3-2.2
			c0.1-0.7-0.3-1.4-1-1.5s-1.4,0.3-1.5,1v0.1c-0.1,0.8-0.2,1.5-0.3,2.3c-0.1,0.7,0.4,1.4,1.1,1.4S103.9,248.1,104,247.4
			 M103.3,255.2c0-0.8,0.1-1.5,0.1-2.3c0-0.7-0.5-1.3-1.2-1.4c-0.7,0-1.3,0.5-1.4,1.2c-0.1,0.8-0.1,1.6-0.1,2.3s0.5,1.3,1.2,1.4
			C102.7,256.5,103.3,256,103.3,255.2L103.3,255.2 M103.3,263.2c0-0.8,0-1.5-0.1-2.3c-0.1-0.7-0.7-1.3-1.4-1.2
			c-0.6,0.1-1.1,0.6-1.2,1.2c0,0.8,0,1.5,0.1,2.3c0,0.7,0.6,1.3,1.4,1.2C102.8,264.4,103.3,263.8,103.3,263.2 M103.9,271
			c-0.1-0.8-0.2-1.5-0.2-2.3c-0.1-0.7-0.8-1.2-1.5-1.1c-0.6,0.1-1.1,0.7-1.1,1.3c0.1,0.8,0.1,1.5,0.2,2.3c0.1,0.7,0.8,1.3,1.5,1.2
			C103.6,272.4,104.1,271.7,103.9,271L103.9,271"/>
	</g>
	<g>
		<defs>
			<rect id="SVGID_00000085218174319532480820000012979426662738294941_" width="1200" height="908.8"/>
		</defs>
		<clipPath id="SVGID_00000169525964305171773430000007626704957077053358_">
			<use xlink:href="#SVGID_00000085218174319532480820000012979426662738294941_"  style="overflow:visible;"/>
		</clipPath>
		<path style="clip-path:url(#SVGID_00000169525964305171773430000007626704957077053358_);fill:#009CCA;" d="M254.7,190.1l15.1,0.9
			c0.6,0,1.1-0.4,1.2-0.9l2.5-14.2c0.1-0.6-0.4-1.2-1-1.3s-1.1,0.3-1.3,0.9l-2.4,13.2l-14.1-0.9c-0.6,0-1.2,0.4-1.2,1.1
			C253.6,189.6,254.1,190.1,254.7,190.1"/>
	</g>
	<g>
		<defs>
			<rect id="SVGID_00000178205941519151062730000014082118935453823404_" width="1200" height="908.8"/>
		</defs>
		<clipPath id="SVGID_00000078031597698136031450000010547855382094313646_">
			<use xlink:href="#SVGID_00000178205941519151062730000014082118935453823404_"  style="overflow:visible;"/>
		</clipPath>
		<path style="clip-path:url(#SVGID_00000078031597698136031450000010547855382094313646_);fill:#D3EDF3;" d="M266.4,187.1
			c-0.4,0-0.7-0.1-1-0.4c-0.5-0.6-1-1.1-1.5-1.6s-0.5-1.3,0-1.9c0.5-0.5,1.3-0.5,1.8,0l0,0c0.5,0.6,1.1,1.1,1.6,1.7
			c0.5,0.5,0.4,1.4-0.1,1.8C267,186.9,266.7,187,266.4,187.1 M260.6,181.4c-0.3,0-0.6-0.1-0.9-0.3c-0.6-0.5-1.1-1-1.7-1.4
			c-0.5-0.5-0.6-1.3-0.2-1.8c0.2-0.3,0.6-0.5,1-0.5c0.3,0,0.6,0.1,0.8,0.3c0.6,0.5,1.2,1,1.8,1.5c0.5,0.5,0.6,1.3,0.1,1.8
			C261.3,181.3,261,181.4,260.6,181.4 M268.9,188.7l2.4-13.2c0.1-0.5,0.6-0.9,1.1-0.9h0.2c0.6,0.1,1,0.7,0.9,1.3l-2.5,14.3
			c-0.1,0.5-0.6,0.9-1.1,0.9h-0.1l-15.1-0.9c-0.6-0.1-1.1-0.6-1-1.3c0.1-0.6,0.5-1,1.1-1h0.1L268.9,188.7 M254.4,176.5
			c-0.3,0-0.5-0.1-0.8-0.2c-0.6-0.4-1.2-0.9-1.9-1.3c-0.6-0.4-0.8-1.2-0.4-1.8l0,0c0.2-0.4,0.6-0.6,1.1-0.6c0.3,0,0.5,0.1,0.7,0.2
			c0.6,0.4,1.3,0.9,1.9,1.3c0.6,0.4,0.7,1.2,0.3,1.8C255.2,176.3,254.8,176.5,254.4,176.5 M335.6,157.7c-0.8,0-1.6,0.1-2.4,0.2
			L248,169.6l0.2,0.1c0.6,0.4,0.8,1.1,0.5,1.8c-0.2,0.4-0.7,0.7-1.1,0.7c-0.2,0-0.4-0.1-0.6-0.2c-0.6-0.4-1.3-0.7-2-1.1
			c-0.3-0.2-0.5-0.4-0.6-0.8l-5.6,0.8c-9.5,1.3-16.1,10.1-14.9,19.6l6.5,47c1.3,9.5,10.1,16.1,19.6,14.8l5.8-0.8l2.6,19l14.4-21.4
			l71.6-9.9c9.5-1.3,16.1-10.1,14.9-19.6l-6.5-47C351.6,164.1,344.3,157.7,335.6,157.7"/>
	</g>
	<g>
		<defs>
			<rect id="SVGID_00000018932026132536123220000016281355589054156958_" width="1200" height="908.8"/>
		</defs>
		<clipPath id="SVGID_00000108297699376776090050000004140099581592198272_">
			<use xlink:href="#SVGID_00000018932026132536123220000016281355589054156958_"  style="overflow:visible;"/>
		</clipPath>
		<path style="clip-path:url(#SVGID_00000108297699376776090050000004140099581592198272_);fill:#009DCA;" d="M264.8,182.8
			c-0.3,0-0.7,0.1-0.9,0.4c-0.5,0.5-0.5,1.3,0,1.9c0.5,0.5,1,1.1,1.5,1.6c0.3,0.3,0.6,0.4,1,0.4c0.3,0,0.6-0.1,0.9-0.3
			c0.5-0.5,0.6-1.3,0.1-1.8c-0.5-0.6-1.1-1.1-1.6-1.7C265.6,182.9,265.2,182.8,264.8,182.8 M259,177.4c-0.4,0-0.8,0.2-1,0.5
			c-0.5,0.6-0.4,1.4,0.2,1.8c0.6,0.5,1.2,1,1.7,1.4c0.2,0.2,0.5,0.3,0.9,0.3c0.7,0,1.3-0.6,1.3-1.3c0-0.4-0.2-0.7-0.4-1
			c-0.6-0.5-1.2-1-1.8-1.5C259.6,177.5,259.3,177.4,259,177.4 M252.5,172.6c-0.4,0-0.8,0.2-1.1,0.6c-0.4,0.6-0.2,1.4,0.4,1.8l0,0
			c0.6,0.4,1.2,0.8,1.9,1.3c0.2,0.2,0.5,0.2,0.8,0.2c0.4,0,0.8-0.2,1.1-0.6c0.4-0.6,0.3-1.4-0.3-1.8c-0.6-0.4-1.3-0.9-1.9-1.3
			C253,172.7,252.8,172.6,252.5,172.6 M248.1,169.6l-3.7,0.5c0.1,0.3,0.3,0.6,0.6,0.8c0.7,0.4,1.3,0.7,2,1.1
			c0.2,0.1,0.4,0.2,0.6,0.2c0.7,0,1.3-0.6,1.3-1.3c0-0.5-0.2-0.9-0.7-1.1L248.1,169.6"/>
	</g>
	<g>
		<defs>
			<rect id="SVGID_00000072959557592240015900000003412034931327072402_" width="1200" height="908.8"/>
		</defs>
		<clipPath id="SVGID_00000056422560909314287910000009731915417519234966_">
			<use xlink:href="#SVGID_00000072959557592240015900000003412034931327072402_"  style="overflow:visible;"/>
		</clipPath>
		<path style="clip-path:url(#SVGID_00000056422560909314287910000009731915417519234966_);fill:#009DCA;" d="M272.4,174.6
			c-0.6,0-1,0.4-1.1,0.9l-2.4,13.2l-14.1-0.9h-0.1c-0.6,0-1.1,0.6-1.1,1.2c0,0.6,0.5,1,1,1.1l15.1,0.9h0.1c0.6,0,1-0.4,1.1-0.9
			l2.5-14.2c0.1-0.6-0.3-1.2-0.9-1.3H272.4"/>
	</g>
	<g>
		<defs>
			<rect id="SVGID_00000042738273255997812280000008435415366395725728_" width="1200" height="908.8"/>
		</defs>
		<clipPath id="SVGID_00000069382652259042192990000016695133282549212597_">
			<use xlink:href="#SVGID_00000042738273255997812280000008435415366395725728_"  style="overflow:visible;"/>
		</clipPath>
		<path style="clip-path:url(#SVGID_00000069382652259042192990000016695133282549212597_);fill:#313E50;" d="M202.6,244.6
			L163,266.1c-0.1,0.1-0.2,0.1-0.3,0.1c-0.2,0-0.4,0-0.6,0l-0.5-0.1l10.1,18.6c-0.1-0.2-0.2-0.4-0.2-0.6v-4.8l-7.5-13.8L202.6,244.6
			L202.6,244.6z M181.2,253.4l-18.9,10.3L181.2,253.4z"/>
	</g>
	<g>
		<defs>
			<rect id="SVGID_00000067235201124344094470000013230378788588313745_" width="1200" height="908.8"/>
		</defs>
		<clipPath id="SVGID_00000131333504037059582300000014971340946403494812_">
			<use xlink:href="#SVGID_00000067235201124344094470000013230378788588313745_"  style="overflow:visible;"/>
		</clipPath>
		<path style="clip-path:url(#SVGID_00000131333504037059582300000014971340946403494812_);fill:#313E50;" d="M224,230.2
			c0.4-0.1,0.8,0.1,1.1,0.4l0.1,0.1C224.9,230.3,224.4,230.2,224,230.2 M223.7,230.3L142,257.9c-0.5,0.2-0.8,0.7-0.8,1.2
			s0.4,1,0.9,1.2l19.6,5.7l0.5,0.1c0.2,0,0.4,0,0.6,0c0.1,0,0.2-0.1,0.3-0.1l39.5-21.5l20.9-14.2L223.7,230.3 M162.3,263.7
			l-15.8-4.7l64.5-21.8l-29.7,16.2L162.3,263.7z M225.1,230.7L225.1,230.7z M225.4,231.2L225.4,231.2L225.4,231.2c0,0.2,0,0.3,0,0.4
			C225.4,231.4,225.4,231.3,225.4,231.2 M225.4,231.5L225.4,231.5 M225.4,231.5L225.4,231.5 M225.2,232L225.2,232 M225.2,232
			L225.2,232 M225.2,232L225.2,232L225.2,232L225.2,232"/>
	</g>
	<g>
		<defs>
			<rect id="SVGID_00000106852506008758109200000012574559093144796820_" width="1200" height="908.8"/>
		</defs>
		<clipPath id="SVGID_00000025405592439296116930000009581633081982821023_">
			<use xlink:href="#SVGID_00000106852506008758109200000012574559093144796820_"  style="overflow:visible;"/>
		</clipPath>
		<path style="clip-path:url(#SVGID_00000025405592439296116930000009581633081982821023_);fill:#313E50;" d="M225.3,230.9
			c0.1,0.1,0.1,0.3,0.1,0.4v-0.1C225.4,231.1,225.3,231,225.3,230.9 M225.4,231.3L225.4,231.3 M225.4,231.3L225.4,231.3 M225.3,232
			L225.3,232 M225.3,232L225.3,232 M225.3,232L225.3,232 M225.3,232l-0.1,0.1l0,0L225.3,232L225.3,232L225.3,232 M219.1,236.3
			l-37,25.1L219.1,236.3L219.1,236.3z M172.2,265.1L172.2,265.1 M172.2,265.1L172.2,265.1 M172.2,265.1L172.2,265.1z M171.8,265.6
			L171.8,265.6 M171.8,265.6L171.8,265.6 M171.8,265.6L171.8,265.6 M171.8,265.6c-0.1,0.2-0.1,0.3-0.1,0.5l-0.1,13.2v4.8
			c0,0.2,0.1,0.4,0.2,0.6c0.1,0.2,0.3,0.4,0.6,0.6c0.2,0.1,0.5,0.1,0.7,0.1c0.2-0.1,0.5-0.2,0.6-0.4l13.5-13.9l-2.8-0.7L174,281
			l0.1-13.3l-1.5-0.4c-0.5-0.1-0.8-0.5-0.9-1C171.6,266.1,171.7,265.9,171.8,265.6"/>
	</g>
	<g>
		<defs>
			<rect id="SVGID_00000146484010903109735240000006108217317201557164_" width="1200" height="908.8"/>
		</defs>
		<clipPath id="SVGID_00000013168146852474243430000014100417627466019767_">
			<use xlink:href="#SVGID_00000146484010903109735240000006108217317201557164_"  style="overflow:visible;"/>
		</clipPath>
		<path style="clip-path:url(#SVGID_00000013168146852474243430000014100417627466019767_);fill:#313E50;" d="M223.9,230.2l-0.2,0.1
			l-0.3,0.1l-20.9,14.2l0,0l-30.3,20.5l0,0c-0.2,0.1-0.3,0.3-0.4,0.5l0,0c-0.1,0.2-0.1,0.5-0.1,0.7c0.1,0.5,0.4,0.9,0.9,1l1.5,0.4
			l10.3,2.6l2.8,0.7l7.7,2c0.2,0,0.4,0,0.6,0c0.3-0.1,0.6-0.2,0.7-0.5l29-40.4l0,0l0.1-0.1l0,0c0.1-0.1,0.1-0.2,0.1-0.4l0,0
			c0-0.1,0-0.2,0-0.3l0,0c0-0.1-0.1-0.3-0.1-0.4l-0.1-0.2l0,0l-0.1-0.1C224.8,230.3,224.4,230.2,223.9,230.2L223.9,230.2
			 M182.1,261.5l37-25.1l-24.5,34.1l-18.8-4.8L182.1,261.5z"/>
	</g>
	<g>
		<defs>
			<rect id="SVGID_00000017478122900034326630000006254886328594142905_" width="1200" height="908.8"/>
		</defs>
		<clipPath id="SVGID_00000155837080774837422550000012828137110640435097_">
			<use xlink:href="#SVGID_00000017478122900034326630000006254886328594142905_"  style="overflow:visible;"/>
		</clipPath>
		<path style="clip-path:url(#SVGID_00000155837080774837422550000012828137110640435097_);fill:#D3EDF3;" d="M1013.4,822.3
			c-43.4,0-78.6,4.4-78.6,9.9s35.2,9.9,78.6,9.9c43.4,0,78.6-4.4,78.6-9.9S1056.8,822.3,1013.4,822.3"/>
	</g>
	<g>
		<defs>
			<rect id="SVGID_00000119822077932801783050000009954635621574266811_" width="1200" height="908.8"/>
		</defs>
		<clipPath id="SVGID_00000049917612673350365730000012264437156492757925_">
			<use xlink:href="#SVGID_00000119822077932801783050000009954635621574266811_"  style="overflow:visible;"/>
		</clipPath>
		<path style="clip-path:url(#SVGID_00000049917612673350365730000012264437156492757925_);fill:#EB7631;" d="M977.8,573.3
			c-2.8,5.6-3,12.4-3.2,18.8c-0.1,2.5,0,5.1,0.2,7.6c1.2,8.1,6.5,14.7,8.7,22.6c-3.7,1.8-8.1-0.9-10.3-4.6
			c-2.3-3.7-3.8-7.9-4.4-12.2c-0.8-6.6-1-13.2-0.8-19.8c-0.1-6,2-11.8,5.8-16.4c1.7-2.1,3.8-3.7,6.3-4.8c1.7-0.7,10.3-2.2,12-0.8
			s-7.5,1.7-8.8,2.7C981,568.3,979.1,570.6,977.8,573.3z"/>
	</g>
	<g>
		<defs>
			<rect id="SVGID_00000081615644575653896510000004890625607811171979_" width="1200" height="908.8"/>
		</defs>
		<clipPath id="SVGID_00000013167182858847222000000014869765829821965740_">
			<use xlink:href="#SVGID_00000081615644575653896510000004890625607811171979_"  style="overflow:visible;"/>
		</clipPath>
		<path style="clip-path:url(#SVGID_00000013167182858847222000000014869765829821965740_);fill:#EB7631;" d="M1007.8,577.1
			c2.8,6.8,5.1,16.1,4.9,23.5c-0.1,4.6-1,9.2-2.7,13.5c-1.8,4.3-6.8,6.6-11,7.4c0.5-3.8,2.5-7,3.9-10.5c2.2-5.6,3.4-11.5,3.6-17.5
			c0.4-4.1,0.1-8.2-0.8-12.2c-1.1-3.5-3-6.8-5.4-9.6c-2.2-2.6-5.5-4.8-7.4-7.5C999.4,564,1005.4,571.1,1007.8,577.1z"/>
	</g>
	<g>
		<defs>
			<rect id="SVGID_00000005252051715503654450000011275540888779818121_" width="1200" height="908.8"/>
		</defs>
		<clipPath id="SVGID_00000140699975008401585760000008859398473730375338_">
			<use xlink:href="#SVGID_00000005252051715503654450000011275540888779818121_"  style="overflow:visible;"/>
		</clipPath>
		<path style="clip-path:url(#SVGID_00000140699975008401585760000008859398473730375338_);fill:#EB7631;" d="M996.7,621.6
			c0.8,0,1.7-0.2,2.5-0.5c2-0.8,3-2.8,3.8-4.8c2.4-5.9,3.6-12.1,4.7-18.4c0.3-1.5,0.5-3,0.6-4.6c0-1.6-0.2-3.2-0.8-4.8
			c-0.1-0.4-0.3-0.7-0.6-1c-0.5-0.4-1.1-0.6-1.7-0.6c-8.2-0.6-16.4,0.5-24.6,1.5c-1.4,0.1-2.8,0.4-4.1,0.9c-2.4,1-4.1,3.2-4.5,5.7
			c-0.2,1.6-0.1,3.1,0.2,4.7c0.8,4.1,1.8,8.1,3.1,12c0.6,2.3,1.5,4.6,2.8,6.6c0.8,1.2,2.1,3.1,3.4,3.8c1,0.6,2.1,0.3,3.2,0.2
			C988.6,622.2,992.6,621.9,996.7,621.6z"/>
	</g>
	<g>
		<defs>
			<rect id="SVGID_00000147207766359233184820000000641228238338373302_" width="1200" height="908.8"/>
		</defs>
		<clipPath id="SVGID_00000121271290307653617260000007062551966836944573_">
			<use xlink:href="#SVGID_00000147207766359233184820000000641228238338373302_"  style="overflow:visible;"/>
		</clipPath>
		<path style="clip-path:url(#SVGID_00000121271290307653617260000007062551966836944573_);fill:#FCCEAF;" d="M973.8,657.3
			c0.5,1.2,1.3,2.2,2.3,3c3.6,3.2,7.4,6,11.6,8.3c0.9,0.4,1.7,1.1,2.4,1.9c0.4,0.7,0.7,1.5,0.8,2.3c0.5,2.2,0.4,4.5-0.3,6.6
			c-0.9,2.1-3.1,3.7-5.3,3.2c-1.4-0.5-2.6-1.3-3.5-2.4c-3.2-3.1-6.9-5.6-10.9-7.5c-2.9-1.4-6.1-2.4-8.3-4.8
			c-4.2-4.5-3.2-11.7-1.3-17.5c2.9-8.9,7.2-17.3,12.7-24.8c-0.3,0.4,2.7,7.6,2.9,8.7c0.6,2.8,1.3,6,0.9,8.9
			C977.1,647.8,972.4,652.8,973.8,657.3z"/>
	</g>
	<g>
		<defs>
			<rect id="SVGID_00000077319612890636283180000013515845581046478232_" width="1200" height="908.8"/>
		</defs>
		<clipPath id="SVGID_00000065792581507037716080000017718820607321562264_">
			<use xlink:href="#SVGID_00000077319612890636283180000013515845581046478232_"  style="overflow:visible;"/>
		</clipPath>
		<path style="clip-path:url(#SVGID_00000065792581507037716080000017718820607321562264_);fill:#FCCEAF;" d="M1020.2,611.6
			c5.1-0.2,10.3,0.2,15.4,1.1c-2-8.5-5.6-16.1-7.5-24.6c-0.3-1.8-1-3.5-2-4.9c-1.7-2.1-4.2-2.9-6.7-3.8c-1.8-0.6-6.1-1.9-6.1-4.3
			c0-0.4,0.2-0.7,0.5-0.8c0.2-0.1,0.5-0.1,0.7,0c0.8,0.2,1.6,0.3,2.5,0.4c0.5,0.1,1,0,1.5-0.3c0.2-0.2,0.4-0.5,0.5-0.8
			c0.4-1.3-0.1-2.5-0.2-3.8c-0.2-1.5-0.5-2.9-0.8-4.4c-0.5-2.7-0.2-6.2,2.2-7.4c2.3-1.2,5.2,0.3,6.6,2.5s1.7,4.8,2.3,7.3
			c2.1,8.9,7.8,16.4,12.7,24s9.3,16.4,8.3,25.5c-0.1,1.4-0.5,2.7-1.3,3.9c-1.4,1.8-3.9,2.4-6.2,2.7c-7.9,1.2-15.9,1.5-23.9,1.1"/>
	</g>
	<g>
		<defs>
			<rect id="SVGID_00000016050993869364112380000016885543119589377194_" width="1200" height="908.8"/>
		</defs>
		<clipPath id="SVGID_00000178169540333027368830000001379634543421096331_">
			<use xlink:href="#SVGID_00000016050993869364112380000016885543119589377194_"  style="overflow:visible;"/>
		</clipPath>
		<path style="clip-path:url(#SVGID_00000178169540333027368830000001379634543421096331_);fill:#364A5B;" d="M986.3,673
			c0.2,0.6,0.6,1.2,1.1,1.5c0.5,0.2,1.1,0.2,1.7,0c7.4-1.7,14.7-3.5,22-5.3c4.8-1.2,19.8-5.4,19.8-5.4s-7.1-32.4-7.7-37.2
			c-0.2-1.6,0.2-19.1-0.2-19.2c-5.1-0.4-19.9-0.1-19.9-0.1s-4.3,12.8-5.5,17.2c-3.6-5-7.4-9.9-11.2-14.8
			c-1.2-1.5-13.2,9.5-14.2,10.7c-1.5,1.7-3.5,3.5-3.2,5.8s7.8,12,8.8,14.2C983.3,653,981.4,660.3,986.3,673z"/>
	</g>
	<g>
		<defs>
			<rect id="SVGID_00000112612889356240117440000017842899157283694464_" width="1200" height="908.8"/>
		</defs>
		<clipPath id="SVGID_00000089561307025619027700000004945051799402966704_">
			<use xlink:href="#SVGID_00000112612889356240117440000017842899157283694464_"  style="overflow:visible;"/>
		</clipPath>
		<path style="clip-path:url(#SVGID_00000089561307025619027700000004945051799402966704_);fill:#FCCEAF;" d="M983.7,817.1l11.5,0.6
			c0.9-8.7,3.4-17.1,5.4-25.6s3.7-28.7,2.3-37.4l-19,1.5c-0.4,16.2-0.8,43.8-0.5,60C983.4,816.5,983.5,816.9,983.7,817.1
			L983.7,817.1z"/>
	</g>
	<g>
		<defs>
			<rect id="SVGID_00000071534679949472635150000000311911135336591759_" width="1200" height="908.8"/>
		</defs>
		<clipPath id="SVGID_00000068656152579314102810000005475974925656562620_">
			<use xlink:href="#SVGID_00000071534679949472635150000000311911135336591759_"  style="overflow:visible;"/>
		</clipPath>
		<path style="clip-path:url(#SVGID_00000068656152579314102810000005475974925656562620_);fill:#FCCEAF;" d="M1047,809.2
			L1047,809.2l10.4-5c-3.3-8.1-5.1-16.6-7.5-25c-1.7-6.5-4.2-12.8-7.4-18.8c-2.4-4-3.2-4.7-2.4-9.4c0.6-3.5,0.8-7.1,0.7-10.7
			c-5-0.1-9.9,0.4-14.8,1.4c-1.8,0.2-3.4,0.9-4.8,2.1c-1.4,1.4-1.8,3.6-2.2,5.6c-1.8,10.9,5.6,20.1,10.6,29.3
			c5.5,10,11,19.9,16.7,29.8C1046.5,808.9,1046.8,809.3,1047,809.2z"/>
	</g>
	<g>
		<defs>
			<rect id="SVGID_00000025416548474988877040000005704664872653748649_" width="1200" height="908.8"/>
		</defs>
		<clipPath id="SVGID_00000168097267452974478950000004846010941273472138_">
			<use xlink:href="#SVGID_00000025416548474988877040000005704664872653748649_"  style="overflow:visible;"/>
		</clipPath>
		<path style="clip-path:url(#SVGID_00000168097267452974478950000004846010941273472138_);fill:#19A7CA;" d="M989.1,672.7
			c-6.7,12.9-10.4,28.7-12,43.2s-1.3,29.1-0.7,43.7c15.2-2.5,30.7-2.3,45.5-6.8c5-1.7,10-3,15.2-4c5.6-0.8,11.3-1,17-0.8
			c-3.5-3.9-4.5-13.2-5.3-18.4c-1.4-8-3.3-15.9-5.7-23.7c-4.1-14.4-8.2-28.7-12.3-43.1"/>
	</g>
	<g>
		<defs>
			<rect id="SVGID_00000034050632732674013910000007630224255446491017_" width="1200" height="908.8"/>
		</defs>
		<clipPath id="SVGID_00000067218128342686954420000014732600720891178934_">
			<use xlink:href="#SVGID_00000034050632732674013910000007630224255446491017_"  style="overflow:visible;"/>
		</clipPath>
		<path style="clip-path:url(#SVGID_00000067218128342686954420000014732600720891178934_);fill:#2C3E4F;" d="M975.9,821.3
			c-3.8,2.1-8.2,3.1-12.2,5c-2.2,1-4.4,2.9-4.1,5.2c6.1,1,12.2,0.9,18.3-0.3c1.6-0.3,3.2-0.8,4.8-0.9c3.6-0.4,7.2,0.3,10.9,0.2
			c0.8,0.1,1.7-0.2,2.3-0.8c0.2-0.4,0.3-0.9,0.3-1.3l0.3-13.4c0.1-0.4,0-0.9-0.2-1.3c-0.4-0.6-1.3-0.7-2-0.7
			c-3.1-0.1-8.5-1.4-11.2,0.5S979.5,819.3,975.9,821.3z"/>
	</g>
	<g>
		<defs>
			<rect id="SVGID_00000081630307179069696100000006352125251764979876_" width="1200" height="908.8"/>
		</defs>
		<clipPath id="SVGID_00000081639167562991240670000004091291334607531415_">
			<use xlink:href="#SVGID_00000081630307179069696100000006352125251764979876_"  style="overflow:visible;"/>
		</clipPath>
		<path style="clip-path:url(#SVGID_00000081639167562991240670000004091291334607531415_);fill:#2C3E4F;" d="M1045.1,820
			c-2,3.7-5.2,6.7-7.4,10.3c-1.2,2-2.1,4.7-0.7,6.5c5.5-2.1,10.5-5.3,14.8-9.3c1.2-1.1,2.2-2.2,3.5-3.2c2.8-2.1,6.1-3.3,9.1-5.2
			c0.7-0.4,1.4-1,1.4-1.8c0-0.5-0.2-0.9-0.5-1.3l-6.6-11.6c-0.2-0.4-0.5-0.8-0.8-1c-0.7-0.2-1.5-0.1-2.1,0.4c-2.6,1.5-7.7,3-8.9,6
			S1046.9,816.5,1045.1,820z"/>
	</g>
	<g>
		<defs>
			<rect id="SVGID_00000014602491467617815520000001948997801079234460_" width="1200" height="908.8"/>
		</defs>
		<clipPath id="SVGID_00000050652972069536602300000011703729047642066336_">
			<use xlink:href="#SVGID_00000014602491467617815520000001948997801079234460_"  style="overflow:visible;"/>
		</clipPath>
		<path style="clip-path:url(#SVGID_00000050652972069536602300000011703729047642066336_);fill:#FCCEAF;" d="M989.8,604.5
			c1.3-1.9,4.1-2.1,6.4-2c0.6,0,1.2,0.1,1.8,0.3c1.6,0.8,1.5,3.2,2.8,4.4c0.7,0.6,1.6,0.8,2.2,1.4c0.6,0.8,0.9,1.9,0.8,2.9
			c0,3.9-0.7,7.8-2.2,11.5c-0.7,1.7-1.7,3.4-3.4,4c-1.7,0.5-3.6,0-4.9-1.2c-1.3-1.3-2.2-2.8-2.9-4.4c-1-2.2-1.9-4.4-2.7-6.6
			c-0.3-1-1-2.5-0.9-3.5c0.1-0.8,0.8-1,1.2-1.7C988.8,608,988.8,606,989.8,604.5z"/>
	</g>
	<g>
		<defs>
			<rect id="SVGID_00000085232950747246256660000007321058484906795708_" width="1200" height="908.8"/>
		</defs>
		<clipPath id="SVGID_00000007393052294377157020000004600096465850236568_">
			<use xlink:href="#SVGID_00000085232950747246256660000007321058484906795708_"  style="overflow:visible;"/>
		</clipPath>
		<path style="clip-path:url(#SVGID_00000007393052294377157020000004600096465850236568_);fill:#FCCEAF;" d="M974.5,575.7
			c-1.3,3.1-1.2,6.5-0.6,10.5c0.7,4.6,1.7,9.3,4.1,13.3c2.8,4.8,5.9,6.7,11,8.3c4.1,1.3,9.2,0.8,12.3-2.2c6.3-5.9,7-15.4,4.7-23.1
			c-2.5-8.5-10.2-16-18.5-15.7c-4,0.1-7.8,1.8-10.5,4.8C975.9,572.8,975.1,574.2,974.5,575.7z"/>
	</g>
	<g>
		<defs>
			<rect id="SVGID_00000121277089685165170590000005497915952709480115_" width="1200" height="908.8"/>
		</defs>
		<clipPath id="SVGID_00000031915872923824691170000008132975383766657950_">
			<use xlink:href="#SVGID_00000121277089685165170590000005497915952709480115_"  style="overflow:visible;"/>
		</clipPath>
		<path style="clip-path:url(#SVGID_00000031915872923824691170000008132975383766657950_);fill:#21313F;" d="M988.8,600.3
			c0.9,0,1.7,0,2.6,0.1c0.8,0,1.6-0.1,2.4-0.3c0.8-0.2,1.6-0.4,2.4-0.7c0.7-0.3,2.6-1.1,2.7-1.1c0.4,0.2-0.5,1.4-0.8,1.8
			c-0.8,1-1.9,1.8-3.1,2.1C993.1,602.8,990,602,988.8,600.3z"/>
	</g>
	<g>
		<defs>
			<rect id="SVGID_00000171699500879816904670000017524375743033031089_" width="1200" height="908.8"/>
		</defs>
		<clipPath id="SVGID_00000177470008109605660140000005916720499741348240_">
			<use xlink:href="#SVGID_00000171699500879816904670000017524375743033031089_"  style="overflow:visible;"/>
		</clipPath>
		<path style="clip-path:url(#SVGID_00000177470008109605660140000005916720499741348240_);fill:#1A3644;" d="M986.4,588.9
			c-0.4-0.4-1-0.3-1.4,0.1c0,0,0,0.1-0.1,0.1c-0.2,0.5-0.2,1,0,1.5c0.1,0.3,0.3,0.6,0.5,0.8c0.5,0.2,1,0,1.2-0.4
			c0-0.1,0.1-0.2,0.1-0.3C986.9,590.1,986.7,589.5,986.4,588.9"/>
	</g>
	<g>
		<defs>
			<rect id="SVGID_00000047777326785070024720000007377724984789047184_" width="1200" height="908.8"/>
		</defs>
		<clipPath id="SVGID_00000017494707523079495080000012524356781718182807_">
			<use xlink:href="#SVGID_00000047777326785070024720000007377724984789047184_"  style="overflow:visible;"/>
		</clipPath>
		<path style="clip-path:url(#SVGID_00000017494707523079495080000012524356781718182807_);fill:#1A3644;" d="M995.8,586.6
			c-0.6,0.3-0.6,1.5-0.2,2.1c0.4,0.5,1.2,0.6,1.7,0.2l0.1-0.1c0.4-0.5,0.4-1.3,0-1.8C997.1,586.4,996.4,586.3,995.8,586.6"/>
	</g>
	<g>
		<defs>
			<rect id="SVGID_00000027604888161423689620000007471510823235198373_" width="1200" height="908.8"/>
		</defs>
		<clipPath id="SVGID_00000029044023063393311920000001978511537651223703_">
			<use xlink:href="#SVGID_00000027604888161423689620000007471510823235198373_"  style="overflow:visible;"/>
		</clipPath>
		<path style="clip-path:url(#SVGID_00000029044023063393311920000001978511537651223703_);fill:#1A3644;" d="M987.7,585.2
			c-1.5,0-3,0.3-4.2,1.1c-1.3,0.6-2.3,1.7-2.8,3.1c0,0.2,0.1,0.3,0.3,0.3c0.1,0,0.3-0.1,0.3-0.2c0.5-1.2,1.4-2.2,2.7-2.8
			c1.2-0.7,2.5-1,3.9-1C988.1,585.9,988.1,585.3,987.7,585.2z"/>
	</g>
	<g>
		<defs>
			<rect id="SVGID_00000106836025770260731150000000517335889587520937_" width="1200" height="908.8"/>
		</defs>
		<clipPath id="SVGID_00000165222398028652892130000011554297965406127247_">
			<use xlink:href="#SVGID_00000106836025770260731150000000517335889587520937_"  style="overflow:visible;"/>
		</clipPath>
		<path style="clip-path:url(#SVGID_00000165222398028652892130000011554297965406127247_);fill:#1A3644;" d="M994.3,584.7
			c2.1-1,5.1-0.7,6.6,1.2c0.2,0.3,0.7-0.1,0.4-0.4c-1.7-2.1-5-2.3-7.3-1.3C993.7,584.3,994,584.8,994.3,584.7z"/>
	</g>
	<g>
		<defs>
			<rect id="SVGID_00000091017048810333400920000007355086155814081466_" width="1200" height="908.8"/>
		</defs>
		<clipPath id="SVGID_00000024719462873287989110000004721084440046731947_">
			<use xlink:href="#SVGID_00000091017048810333400920000007355086155814081466_"  style="overflow:visible;"/>
		</clipPath>
		<path style="clip-path:url(#SVGID_00000024719462873287989110000004721084440046731947_);fill:#EB7631;" d="M989.9,576.2
			c-0.4,1.7-0.7,3.3-1.1,5c-2.1-2.1-5.4-2.1-7.5,0c-0.4,0.4-0.8,0.9-1.1,1.5c-0.6-0.3-1.1-0.8-1.6-1.3c-2,1.9-3.1,4.5-3.2,7.3
			c-0.1,2.7,0.2,5.4,0.8,8.1c-0.2-1-2.3-2.9-2.9-3.9c-0.9-1.5-1.6-3.1-2.2-4.8c-1.1-3.4-0.5-5.8-0.2-9.3c0.3-2.9,0.6-5.8,2.1-8.1
			c2-3.2,5.8-4.6,9.3-5.5c3.9-1,8-1.8,11.9-0.4s6.7,4.8,8.8,8.2s4.8,7.7,2.8,12c-1.5-3.7-4-6.8-7.3-8.9c-0.1-0.2-0.4-0.2-0.6-0.1
			c-0.1,0.1-0.1,0.1-0.1,0.2l-1.3,2.2c-0.9-2.3-2.2-4.5-3.8-6.5c-1.5-1.8-1.8-0.5-2.2,1.4C990.3,574.2,990.1,575.2,989.9,576.2z"/>
	</g>
	<g>
		<defs>
			<rect id="SVGID_00000085935781636869629350000007710913251331519892_" width="1200" height="908.8"/>
		</defs>
		<clipPath id="SVGID_00000068653609317357993740000000239634304650099360_">
			<use xlink:href="#SVGID_00000085935781636869629350000007710913251331519892_"  style="overflow:visible;"/>
		</clipPath>
		<path style="clip-path:url(#SVGID_00000068653609317357993740000000239634304650099360_);fill:#EAAC81;" d="M988.4,608.1
			c3.3,0.8,6.9,1.6,10.1-0.1c0.2-0.1,0.3-0.5,0.2-0.7s-0.5-0.3-0.7-0.2c-2.9,1.6-6.3,0.8-9.2,0c-0.3-0.1-0.6,0.1-0.7,0.4
			C988,607.7,988.2,608,988.4,608.1L988.4,608.1z"/>
	</g>
	<g>
		<defs>
			<rect id="SVGID_00000036966797610352703540000012112096041346784685_" width="1200" height="908.8"/>
		</defs>
		<clipPath id="SVGID_00000054980204565594868830000014010726304574069902_">
			<use xlink:href="#SVGID_00000036966797610352703540000012112096041346784685_"  style="overflow:visible;"/>
		</clipPath>
		<path style="clip-path:url(#SVGID_00000054980204565594868830000014010726304574069902_);fill:#EAAC81;" d="M990.8,593.6
			c-0.1,0.4-0.1,0.9,0.1,1.3c0.3,0.2,0.6,0.4,0.9,0.4c0.9,0.1,1.8,0,2.6-0.3c0.2,0,0.3-0.1,0.5-0.2c0.2-0.3,0.3-0.7,0.2-1
			c-0.2-1.1-1.4-3.3-2.5-3.6C991.3,589.9,991,592.8,990.8,593.6z"/>
	</g>
	<g>
		<defs>
			<rect id="SVGID_00000019650746963573822370000010278400004166782373_" width="1200" height="908.8"/>
		</defs>
		<clipPath id="SVGID_00000060735715271338537290000008070338236430969750_">
			<use xlink:href="#SVGID_00000019650746963573822370000010278400004166782373_"  style="overflow:visible;"/>
		</clipPath>
		<path style="clip-path:url(#SVGID_00000060735715271338537290000008070338236430969750_);fill:#21313F;" d="M1029.3,608.2
			c4.1,2.4,2.3,12.7,1.8,16.6c0,0.7-0.3,1.4-0.9,1.9c-0.4,0.2-0.8,0.2-1.3,0.2c-5.1-0.2-9.2-0.8-12.5-4.9c-3.4-4-5.5-9.1-5.7-14.4
			c3.3,0,6.5,0,9.8,0c2.4,0,6.4-0.6,8.6,0.6L1029.3,608.2z"/>
	</g>
	<g>
		<defs>
			<rect id="SVGID_00000080927796081270101130000002873980137705899173_" width="1200" height="908.8"/>
		</defs>
		<clipPath id="SVGID_00000152984940877514156730000007297100230017664172_">
			<use xlink:href="#SVGID_00000080927796081270101130000002873980137705899173_"  style="overflow:visible;"/>
		</clipPath>
		<path style="clip-path:url(#SVGID_00000152984940877514156730000007297100230017664172_);fill:#21313F;" d="M982.7,622.1
			c-0.5-2.7-1.8-5.2-3.5-7.3c-0.1-0.1-0.2-0.2-0.3-0.3c-0.2,0-0.4,0-0.5,0.1c-8.4,4.5-11.3,10.5-13.7,19.5c-0.7,1.2-0.2,2.7,0.9,3.3
			c0.1,0.1,0.2,0.1,0.3,0.1c4,2.4,8.2,5.5,12.5,7.2c2.4-2.9,3.4-6.7,4.1-10.3c0.7-3.4,0.9-6.9,0.6-10.3
			C983,623.5,982.9,622.8,982.7,622.1z"/>
	</g>
	<g>
		<defs>
			<rect id="SVGID_00000179609492692720290630000003187237763387908278_" width="1200" height="908.8"/>
		</defs>
		<clipPath id="SVGID_00000149355418351081078780000006218384169430527137_">
			<use xlink:href="#SVGID_00000179609492692720290630000003187237763387908278_"  style="overflow:visible;"/>
		</clipPath>
		<path style="clip-path:url(#SVGID_00000149355418351081078780000006218384169430527137_);fill:#21313F;" d="M985.8,616.2
			c0.9,0.2,2.2,0.4,2.4,1.3c0,0.5,0,1-0.2,1.4c-0.8,2.6,0.9,5.5,3.2,6.9s5.2,1.7,7.9,1.9c-1.8-0.1-8.8-14.7-10.5-16.7
			C983.1,604.5,979.5,614.8,985.8,616.2z"/>
	</g>
	<g>
		<defs>
			<rect id="SVGID_00000042001609796042099180000005996011183914855356_" width="1200" height="908.8"/>
		</defs>
		<clipPath id="SVGID_00000062885161408848823710000012617323116505536677_">
			<use xlink:href="#SVGID_00000042001609796042099180000005996011183914855356_"  style="overflow:visible;"/>
		</clipPath>
		<path style="clip-path:url(#SVGID_00000062885161408848823710000012617323116505536677_);fill:#21313F;" d="M1006.3,611.1
			c0.1,1.9-1.3,3.3-2,5c-0.1,0.1-0.1,0.3-0.1,0.4c0,0.2,0.2,0.3,0.4,0.5c0.6,0.3,1.1,0.8,1.3,1.3c0.6,1.4-0.6,2.8-1.6,3.9l-5.8,5.5
			l3.1-14.9c0.3-1.4,0.4-5.5,2-5.5C1004.9,607.3,1006.3,610,1006.3,611.1z"/>
	</g>
</g>
</svg>
