<svg width="235" height="80" viewBox="0 0 235 80" xmlns="http://www.w3.org/2000/svg"><g fill="none" fill-rule="evenodd"><g fill="#A6AAB8"><path d="M103.29 55.683a.542.542 0 0 1-.373-.936c2.531-2.798 3.798-6.25 3.798-10.362 0-4.12-1.283-7.628-3.8-10.459l-.062-.069a.557.557 0 0 1 .057-.725.584.584 0 0 1 .809.006c2.912 3.218 6.601 4.703 9.65 3.474 4.348-1.759 5.777-8.397 3.315-14.998a.525.525 0 0 1-.018-.152c0-.298.244-.54.545-.54.156 0 .322.081.418.188 3.341 3.72 4.904 8.406 4.904 13.868 0 5.986-1.99 10.948-5.965 14.874-3.58 3.536-8.02 5.48-13.279 5.831zM54.867 42.278c-.513.25-1.656.376-3.038.376h-1.037v-6.378h.82c1.334 0 2.49.106 3.067.318a2.584 2.584 0 0 1 1.34 1.093c.318.516.479 1.092.479 1.73 0 .644-.144 1.22-.428 1.725-.287.506-.69.886-1.203 1.136zm7.672 11.566c-.44-.635-1.023-1.579-1.753-2.84-1.155-1.998-2.051-3.4-2.69-4.204-.64-.801-1.292-1.436-1.961-1.905 1.138-.463 2.207-1.164 2.815-2.107.606-.942.914-2.057.914-3.346 0-1.891-.623-3.395-1.864-4.506-1.243-1.11-3.117-1.665-5.23-1.665h-5.238v22.16h3.26v-9.646h.231c.981 0 1.674.119 2.09.359.416.237.877.624 1.394 1.166.513.532 1.08 1.26 1.695 2.168l1.003 1.731.927 1.62.583.874c.092.124.15.216.18.27l.91 1.459h3.84l-1.106-1.588zm3.82-20.574h11.144v3.13h-7.842v5.588h7.842v3.118h-7.842v10.327h-3.302zM38.426 50.358c-1.497 1.626-3.366 2.436-5.606 2.436-2.23 0-4.087-.796-5.572-2.39-1.484-1.59-2.225-3.584-2.225-5.984 0-2.468.738-4.502 2.216-6.095 1.479-1.59 3.369-2.386 5.668-2.386 2.181 0 4.022.804 5.52 2.41 1.5 1.61 2.25 3.59 2.25 5.947 0 2.418-.75 4.438-2.25 6.062m2.428-14.153c-2.15-2.166-4.836-3.252-8.066-3.252-3.234 0-5.902 1.086-8.014 3.252-2.113 2.17-3.169 4.91-3.169 8.215 0 3.23 1.047 5.912 3.147 8.053 2.096 2.143 4.72 3.215 7.872 3.215 3.299 0 6.033-1.072 8.199-3.215 2.169-2.14 3.253-4.847 3.253-8.113 0-3.27-1.075-5.986-3.222-8.155"/><path d="M97.33 50.358c-1.5 1.626-3.367 2.436-5.61 2.436-2.229 0-4.086-.796-5.57-2.39-1.483-1.59-2.225-3.584-2.225-5.984 0-2.468.739-4.502 2.219-6.095 1.479-1.59 3.367-2.386 5.663-2.386 2.185 0 4.023.804 5.523 2.41 1.498 1.61 2.247 3.59 2.247 5.947 0 2.418-.749 4.438-2.247 6.062m2.427-14.153c-2.148-2.166-4.838-3.252-8.065-3.252-3.232 0-5.9 1.086-8.015 3.252-2.111 2.17-3.17 4.91-3.17 8.215 0 3.23 1.05 5.912 3.148 8.053 2.098 2.143 4.723 3.215 7.872 3.215 3.298 0 6.032-1.072 8.202-3.215 2.164-2.14 3.253-4.847 3.253-8.113 0-3.27-1.076-5.986-3.225-8.155M18.541 50.358c-1.7 1.626-3.826 2.436-6.37 2.436-2.536 0-4.648-.796-6.333-2.39-1.688-1.59-2.53-3.584-2.53-5.984 0-2.468.84-4.502 2.521-6.095 1.682-1.59 3.827-2.386 6.438-2.386 2.483 0 4.574.804 6.274 2.41l.056.055V34.81c-2.685-1.217-5.123-1.826-7.314-1.826-3.186 0-5.86 1.099-8.03 3.302C1.084 38.486 0 41.196 0 44.42c0 2.034.472 3.919 1.421 5.665.947 1.746 2.233 3.115 3.86 4.11 1.625.993 3.605 1.493 5.939 1.493 2.875 0 5.407-.635 7.598-1.905V50.09c-.006.008-.015.01-.026.018a5.81 5.81 0 0 1-.25.249m95.61-22.087c-.764-.77-1.72-1.158-2.87-1.158-1.15 0-2.101.388-2.85 1.158-.752.773-1.129 1.748-1.129 2.926 0 1.146.371 2.099 1.12 2.863.746.761 1.68 1.142 2.802 1.142 1.173 0 2.147-.381 2.917-1.142.77-.764 1.157-1.725 1.157-2.887s-.38-2.13-1.147-2.902"/></g><path d="M1.617 5.846c.246.064.558.09.934.09 1.363 0 2.193-.653 2.193-1.844 0-1.14-.817-1.692-2.063-1.692-.493 0-.87.039-1.064.09v3.356zM.487 1.683c.546-.09 1.26-.166 2.168-.166 1.116 0 1.933.256 2.453.717.48.41.765 1.038.765 1.806 0 .782-.234 1.396-.675 1.845-.597.627-1.57.948-2.673.948-.337 0-.649-.013-.908-.077v3.458H.487v-8.53zm6.656 4.266c0-.73-.013-1.358-.052-1.935h1l.038 1.218h.052c.286-.833.974-1.358 1.74-1.358.129 0 .22.013.324.038v1.064a1.708 1.708 0 0 0-.39-.04c-.804 0-1.375.603-1.53 1.448a3.144 3.144 0 0 0-.053.526v3.305H7.143V5.949zm4.814 1.178c0 1.358.791 2.383 1.907 2.383 1.09 0 1.908-1.012 1.908-2.408 0-1.05-.532-2.383-1.882-2.383-1.35 0-1.933 1.23-1.933 2.408m4.983-.063c0 2.292-1.61 3.291-3.128 3.291-1.7 0-3.01-1.23-3.01-3.19 0-2.074 1.375-3.291 3.114-3.291 1.804 0 3.024 1.293 3.024 3.19m1.763-3.049l1.375 3.663c.143.41.299.897.403 1.268h.026c.116-.371.246-.845.402-1.293l1.246-3.638h1.206l-1.713 4.42c-.817 2.125-1.375 3.214-2.154 3.88-.558.487-1.115.68-1.401.73l-.286-.948c.286-.09.662-.268 1-.55.31-.243.7-.68.96-1.255.052-.116.09-.205.09-.27a.966.966 0 0 0-.077-.294l-2.323-5.713h1.246zm9.549 2.498c.013-.717-.298-1.832-1.583-1.832-1.155 0-1.661 1.05-1.752 1.832h3.335zm-3.348.807c.026 1.524 1.012 2.152 2.154 2.152.818 0 1.31-.142 1.74-.32l.194.806c-.403.18-1.09.384-2.09.384-1.933 0-3.088-1.255-3.088-3.125s1.116-3.343 2.946-3.343c2.05 0 2.595 1.78 2.595 2.92 0 .23-.026.41-.04.526h-4.411zm10.341 2.664c-.299.154-.96.359-1.804.359-1.895 0-3.128-1.268-3.128-3.165 0-1.908 1.324-3.291 3.375-3.291.674 0 1.27.166 1.583.32l-.26.871c-.273-.154-.7-.295-1.323-.295-1.441 0-2.22 1.05-2.22 2.344 0 1.435.935 2.32 2.18 2.32.65 0 1.078-.167 1.402-.308l.195.845zm2.879-7.75v1.78h1.635v.859h-1.635v3.343c0 .769.22 1.204.856 1.204.299 0 .52-.038.662-.077l.052.846c-.221.09-.571.154-1.012.154-.532 0-.96-.167-1.233-.474-.325-.334-.441-.884-.441-1.614V4.873h-.973v-.858h.973V2.529l1.116-.295zm3.541 4.893c0 1.358.792 2.383 1.908 2.383 1.09 0 1.907-1.012 1.907-2.408 0-1.05-.532-2.383-1.881-2.383-1.35 0-1.934 1.23-1.934 2.408m4.984-.063c0 2.292-1.61 3.291-3.128 3.291-1.7 0-3.01-1.23-3.01-3.19 0-2.074 1.375-3.291 3.114-3.291 1.804 0 3.024 1.293 3.024 3.19m7.497-.014c-1.246-.025-2.66.193-2.66 1.397 0 .73.493 1.076 1.077 1.076.817 0 1.337-.512 1.519-1.038.038-.115.064-.243.064-.359V7.05zm.169 3.164l-.091-.78h-.039c-.35.486-1.025.921-1.92.921-1.272 0-1.92-.883-1.92-1.78 0-1.499 1.349-2.319 3.775-2.306V6.14c0-.512-.143-1.435-1.427-1.435a3.16 3.16 0 0 0-1.635.461l-.26-.743c.52-.332 1.272-.55 2.064-.55 1.92 0 2.387 1.293 2.387 2.536v2.318c0 .539.026 1.064.104 1.486h-1.038zm3.905-2.523c0 .167.025.32.051.461.208.782.895 1.32 1.713 1.32 1.207 0 1.907-.974 1.907-2.396 0-1.242-.661-2.306-1.868-2.306-.778 0-1.505.551-1.726 1.397a1.81 1.81 0 0 0-.078.46v1.064zm-1.13-1.652c0-.795-.025-1.435-.052-2.025h1.026l.052 1.064h.026c.467-.756 1.207-1.205 2.231-1.205 1.518 0 2.66 1.269 2.66 3.152 0 2.229-1.375 3.33-2.854 3.33-.83 0-1.557-.358-1.934-.973h-.026v3.369H57.09V6.039zm8.083 1.088c0 1.358.792 2.383 1.907 2.383 1.09 0 1.908-1.012 1.908-2.408 0-1.05-.532-2.383-1.882-2.383-1.35 0-1.933 1.23-1.933 2.408m4.983-.063c0 2.292-1.61 3.291-3.127 3.291-1.7 0-3.011-1.23-3.011-3.19 0-2.074 1.375-3.291 3.114-3.291 1.804 0 3.024 1.293 3.024 3.19m1.763-3.049l1.376 3.663c.142.41.298.897.402 1.268h.026c.116-.371.246-.845.402-1.293l1.246-3.638h1.206l-1.712 4.42c-.818 2.125-1.376 3.214-2.154 3.88-.559.487-1.116.68-1.402.73l-.285-.948c.285-.09.661-.268.998-.55a3.42 3.42 0 0 0 .961-1.255c.052-.116.091-.205.091-.27a.966.966 0 0 0-.078-.294l-2.323-5.713h1.246zm8.952 3.035c-1.245-.025-2.66.193-2.66 1.397 0 .73.493 1.076 1.077 1.076.818 0 1.337-.512 1.519-1.038.038-.115.064-.243.064-.359V7.05zm.17 3.164l-.092-.78h-.039c-.35.486-1.025.921-1.92.921-1.272 0-1.92-.883-1.92-1.78 0-1.499 1.349-2.319 3.775-2.306V6.14c0-.512-.142-1.435-1.427-1.435a3.16 3.16 0 0 0-1.635.461l-.26-.743c.52-.332 1.272-.55 2.064-.55 1.92 0 2.387 1.293 2.387 2.536v2.318c0 .539.027 1.064.104 1.486H81.04zm7.057-3.676c0-.141-.013-.333-.052-.474a1.675 1.675 0 0 0-1.648-1.307c-1.181 0-1.882 1.025-1.882 2.396 0 1.255.623 2.293 1.856 2.293.765 0 1.466-.5 1.674-1.345.039-.154.052-.308.052-.487V6.538zm1.141-5.418v7.493c0 .551.013 1.179.053 1.602h-1.026l-.052-1.076h-.025c-.35.691-1.117 1.217-2.142 1.217-1.518 0-2.686-1.268-2.686-3.152-.013-2.062 1.285-3.33 2.816-3.33.96 0 1.61.448 1.895.948h.026V1.12h1.141zm2.594 6.007c0 1.358.791 2.383 1.908 2.383 1.09 0 1.907-1.012 1.907-2.408 0-1.05-.532-2.383-1.882-2.383-1.35 0-1.933 1.23-1.933 2.408m4.983-.063c0 2.292-1.61 3.291-3.127 3.291-1.7 0-3.011-1.23-3.011-3.19 0-2.074 1.376-3.291 3.114-3.291 1.804 0 3.024 1.293 3.024 3.19m5.318.627c0 .167.026.32.052.461.207.782.895 1.32 1.712 1.32 1.207 0 1.908-.974 1.908-2.396 0-1.242-.662-2.306-1.868-2.306-.78 0-1.506.551-1.727 1.397a1.81 1.81 0 0 0-.077.46v1.064zm-1.13-1.652c0-.795-.025-1.435-.051-2.025h1.025l.052 1.064h.026c.467-.756 1.207-1.205 2.232-1.205 1.518 0 2.66 1.269 2.66 3.152 0 2.229-1.376 3.33-2.854 3.33-.831 0-1.558-.358-1.934-.973h-.026v3.369h-1.13V6.039zm8.083 1.088c0 1.358.792 2.383 1.908 2.383 1.09 0 1.907-1.012 1.907-2.408 0-1.05-.531-2.383-1.881-2.383s-1.934 1.23-1.934 2.408m4.983-.063c0 2.292-1.609 3.291-3.127 3.291-1.7 0-3.01-1.23-3.01-3.19 0-2.074 1.375-3.291 3.114-3.291 1.804 0 3.023 1.293 3.023 3.19m1.655-.75c0-.653-.012-1.215-.046-1.73h.884l.035 1.088h.046c.253-.745.862-1.215 1.54-1.215.115 0 .195.012.287.035v.951a1.5 1.5 0 0 0-.345-.035c-.712 0-1.218.54-1.356 1.295a2.794 2.794 0 0 0-.045.47v2.957h-1V6.314z" fill="#A6AAB8"/><path fill="#0061AC" d="M155.183 79.653h35.773V.44h-35.773z"/><path fill="#E3473D" d="M190.956 79.653h43.734V.44h-43.734z"/><path d="M199.978 12.697c-.821.37-1.454.541-2.203.541-1.816 0-2.747-1.262-2.747-3.19 0-1.847.93-3.073 2.827-3.073.922 0 1.527.226 2.006.531l-.497.902c-.343-.233-.875-.387-1.49-.387-1.101 0-1.599.802-1.599 2.01 0 1.432.533 2.198 1.58 2.198.389 0 .741-.054 1.03-.19v-1.126h-.83l-.072-.874h1.995v2.658zm4.943-1.766c0 1.504-.759 2.306-2.078 2.306-1.327 0-2.077-.793-2.077-2.306 0-1.298.722-2.288 2.077-2.288 1.338 0 2.078.99 2.078 2.288m-1.21 0c0-1.063-.316-1.432-.868-1.432-.55 0-.858.378-.858 1.432 0 1.027.28 1.442.858 1.442.579 0 .868-.387.868-1.442m3.189-1.748c.2-.27.679-.54 1.176-.54 1.038 0 1.787.738 1.787 2.288 0 1.523-.903 2.307-1.932 2.307-.632 0-1.004-.243-1.283-.622l-.217.532h-.632V6.93h1.183v1.541l-.081.71zm.082 2.74c.181.243.488.45.804.45.515 0 .894-.378.894-1.442 0-1.054-.334-1.424-.876-1.424a1.24 1.24 0 0 0-.822.352v2.063zm4.139 1.225V9.58l-.515-.109v-.738h1.69v4.415h-1.175zm-.036-5.145h1.192V6.93h-1.192v1.072zm3.298 3.252c0 .704.397 1.09 1.137 1.09.453 0 .912-.17 1.301-.369l.226.829c-.37.199-.975.433-1.67.433-1.364 0-2.177-.848-2.177-2.307 0-1.36.66-2.288 2.077-2.288 1.337 0 1.86.99 1.86 2.1v.512h-2.754zm.83-1.748c-.587 0-.83.532-.83 1.055H216c0-.568-.172-1.055-.786-1.055zm5.332.207a2.01 2.01 0 0 0-.551-.072 1.28 1.28 0 0 0-.796.298v3.207h-1.174V8.733h.822l.127.594h.026a1.185 1.185 0 0 1 1.057-.676c.236 0 .417.036.515.064l-.026 1zm3.461 3.434v-2.623c0-.666-.253-.981-.796-.981-.307 0-.568.135-.777.27v3.334h-1.182V8.733h.812l.18.505c.254-.298.742-.595 1.4-.595 1.121 0 1.564.657 1.564 1.775v2.73h-1.201zm6.143-2.217c0 1.504-.759 2.306-2.078 2.306-1.327 0-2.077-.793-2.077-2.306 0-1.298.722-2.288 2.077-2.288 1.337 0 2.078.99 2.078 2.288m-1.21 0c0-1.063-.317-1.432-.868-1.432-.551 0-.858.378-.858 1.432 0 1.027.28 1.442.858 1.442s.868-.387.868-1.442m-30.912 6.153a2.721 2.721 0 0 1-.108-.81v-1.333h1.174v6.216h-.957l-.135-.487c-.181.27-.606.577-1.175.577-1.002 0-1.806-.72-1.806-2.297 0-1.46.83-2.297 1.905-2.297.479 0 .858.16 1.102.431zm-.108.668a1.56 1.56 0 0 0-.804-.217c-.56 0-.912.378-.912 1.406 0 1.054.333 1.45.895 1.45.297 0 .595-.144.821-.378v-2.26zm3.254 1.513c0 .703.397 1.09 1.138 1.09.452 0 .911-.17 1.3-.37l.227.83a3.635 3.635 0 0 1-1.672.433c-1.364 0-2.177-.848-2.177-2.307 0-1.36.66-2.288 2.077-2.288 1.338 0 1.862.99 1.862 2.1v.512h-2.755zm.83-1.748c-.587 0-.83.532-.83 1.055h1.617c0-.569-.172-1.055-.786-1.055zm7.31 3.73c-1.716 0-2.637-1.135-2.637-3.162 0-1.892.912-3.1 2.637-3.1.831 0 1.581.18 2.078.514l-.451.955c-.317-.243-.868-.423-1.5-.423-1.012 0-1.518.712-1.518 2.045 0 1.405.506 2.127 1.5 2.127.596 0 1.192-.254 1.607-.56l.38.956a3.612 3.612 0 0 1-2.096.648m2.893-.09v-6.216h1.183v1.63c0 .306-.063.55-.117.685.243-.305.65-.604 1.273-.604 1.265 0 1.618.658 1.618 1.775v2.73h-1.202v-2.63c0-.631-.253-.974-.786-.974-.307 0-.587.126-.786.27v3.334h-1.183zm5.277 0V17.59l-.516-.108v-.738h1.69v4.414h-1.174zm-.037-5.145h1.193V14.94h-1.193v1.07zm2.295 3.974V14.94h1.166v4.981c0 .37.226.424.714.424v.83s-.344.072-.65.072c-.904 0-1.23-.479-1.23-1.262m3.659-.72c0 .703.398 1.09 1.14 1.09.451 0 .91-.17 1.3-.37l.226.83a3.63 3.63 0 0 1-1.671.433c-1.364 0-2.177-.848-2.177-2.307 0-1.36.659-2.288 2.076-2.288 1.338 0 1.862.99 1.862 2.1v.512H223.4zm.832-1.748c-.587 0-.831.532-.831 1.055h1.617c0-.569-.172-1.055-.786-1.055zm-26.034 54.821l-.013.665a2.557 2.557 0 0 1-.633-.117c.152.137.31.308.338.527 0 .822-.818 1.15-1.388 1.15-.13 0-.288-.027-.432-.06-.103.033-.165.095-.165.184 0 .363 2.136-.062 2.136 1.198 0 .787-.755 1.218-1.6 1.218-.707 0-1.422-.307-1.422-.924 0-.43.344-.657.893-.739-.418-.048-.838-.179-.838-.569 0-.28.261-.486.639-.513-.336-.185-.604-.465-.604-.945 0-.89.844-1.143 1.386-1.143.364 0 1.12.061 1.703.068m-1.832 3.164c-.316.027-.515.206-.515.492 0 .295.267.508.631.508.405 0 .673-.206.673-.555 0-.295-.262-.404-.79-.445m.727-2.095c0-.398-.336-.5-.597-.5-.26 0-.603.102-.603.5 0 .424.322.527.603.527.275 0 .597-.103.597-.527m4.71.601c0 1.144-.576 1.753-1.578 1.753-1.01 0-1.579-.602-1.579-1.753 0-.985.549-1.738 1.58-1.738 1.015 0 1.577.753 1.577 1.738m-.92 0c0-.807-.24-1.088-.658-1.088-.419 0-.653.288-.653 1.088 0 .782.214 1.097.653 1.097.44 0 .659-.295.659-1.097m2.424-1.328c.151-.205.514-.41.892-.41.79 0 1.36.562 1.36 1.738 0 1.158-.687 1.753-1.47 1.753-.48 0-.762-.184-.974-.471l-.166.403h-.48V70.97h.9v1.171l-.062.54zm.062 2.082c.136.184.37.343.61.343.392 0 .68-.288.68-1.097 0-.8-.255-1.08-.665-1.08a.944.944 0 0 0-.625.266v1.568zm2.76.931h.906v-.965h-.906zm4.291-.226a2.627 2.627 0 0 1-1.154.294c-1.002 0-1.607-.568-1.607-1.746 0-1.095.605-1.746 1.6-1.746.446 0 .83.09 1.153.274l-.233.61c-.24-.144-.55-.205-.845-.205-.467 0-.762.315-.762 1.067 0 .76.282 1.07.77 1.07.35 0 .693-.131.912-.254l.166.636zm.603-.664v-3.834h.886v3.787c0 .28.171.321.542.321v.631s-.26.053-.494.053c-.687 0-.934-.362-.934-.958M176.35 16.198v1.233a1.37 1.37 0 0 0 0-1.233m2.428-6.696c.033-.01-.016-.173.144-.184.146-.008.364.119.39.255.034.158-.097.539.406.595l-.01.159h-.002a.767.767 0 0 1-.073.265.962.962 0 0 1 .093-.001c.671.032 1.05-.02 1.242-.221 0 0 .116-.123.174-.243.171-.352.196-.667.105-.925h-.001l-.018-.051a.685.685 0 0 0-.043-.089c-.152-.266-.542-.606-1.028-.768a.506.506 0 0 0-.1-.013c-.004.002-.008-.002-.008-.005 0 0 .008-.007.02-.009l-.002-.001h.003c.012-.003.105.003.105.003.361.043.97.4 1.094.762.117-.07.222-.274.24-.449.01-.034-.015-.251.079-.445a.114.114 0 0 0-.05-.15.114.114 0 0 0-.145.056c-.09.185-.302.084-.212-.103a.115.115 0 0 0-.05-.15.115.115 0 0 0-.146.054c-.086.18-.29.08-.207-.1a.112.112 0 0 0-.048-.148.115.115 0 0 0-.148.055c-.087.187-.3.082-.21-.103a.115.115 0 0 0-.05-.15.111.111 0 0 0-.145.055c-.067.137-.12.218-.179.281.404.081.826.299 1.099.582a1.884 1.884 0 0 0 .125.148h-.002c.01.02.014.036.012.04-.004.005-.012.002-.014-.002a.695.695 0 0 0-.127-.125c-.45-.375-.843-.53-1.166-.575-.218.025-.154.268-.13.426-.365-.08-.64.19-.664.44a.7.7 0 0 0 .069.297c.004.005.003.016-.004.018-.014.008-.067-.036-.097-.11a.8.8 0 0 1-.045-.185c-.297.018-.57.174-.548.447.011.162.201.361.272.367m1.045-.415c.076-.091.102.304.412.19-.222.266-.519-.009-.412-.19m-.023-.197c.118-.07.225-.306.405-.19.084.046.168.132.262.2s.2.126.242.212c.055.108-.088.363-.25.135-.106-.17-.257-.477-.495-.357-.194.099-.327.239-.377.107-.015-.066.139-.065.213-.107m-.848.05c-.05.112-.211.112-.233.253-.133-.12.115-.393.233-.252m7.956 13.122c-.208-.248-.752-.125-.752-.125.293-.87-.514-1.103-.514-1.103-.288-.076-.478-.021-.6.063l-.006.003-.008.007c-.022.017-.041.03-.058.048a.418.418 0 1 0 .71.383c.112.072.154.197.154.197.235.74-.603 1.008-.603 1.008-1.844.552-2.975-.397-2.975-.397l.322-.174a.723.723 0 0 1 .292-.064c-.001.017-.003.035-.003.054 0 .2.163.363.364.363a.363.363 0 0 0 .317-.543l.004-.003a.444.444 0 0 0-.028-.038c-.218-.326-.962-.111-.962-.111.25-.61.027-1.05.027-1.05-.136-.226-.112-.31-.112-.31 0-.216-.052-.237-.052-.237-.111-.154-.313-.07-.313-.07-.3.064-.366-.057-.366-.057-.247-.174-.357-.07-.357-.07-.107.074.042.259.042.259-.265 0-.343.338-.343.338-.11.558.354.606.354.606.332.017.337-.253.337-.253.042-.259-.327-.273-.327-.273.064-.153.174-.15.174-.15.387-.096.565.34.565.34.308.489-.089.948-.089.948-.063.068-.128.027-.128.027-.216-.09-.532-.323-.532-.323l-.028-.02h-.13c-.143 0-.299.048-.403.088.15.157.636.565.636.565-.367.284-.576.087-.576.087-.176-.187-.134-.507-.108-.635l-.04.018c-.167.074-.338.142-.51.21.174.297.447.75.447.75-.422.155-.513-.41-.533-.717-.082.03-.165.063-.247.094.02.068.021.12.021.12.03.312.313.685.313.685a.542.542 0 0 0-.487.13.518.518 0 0 0-.174.47.215.215 0 0 0 .213.202.215.215 0 0 0 .01-.43c.093-.23.316-.045.316-.045.326.293-.185.622-.185.622-.365.242-.712-.222-.712-.222.385-.68.457-1.155.442-1.449-.132.046-.265.09-.399.132.184.612-.244.963-.244.963-.124-.083-.14-.412-.14-.412a3.943 3.943 0 0 0-.128-.401l-.347.092c.13.384.186.947.186.947-.068.08-.276.102-.276.102-.3.026-.143-.142-.143-.142.15-.127.118-.217.118-.217-.09-.206-.417-.015-.417-.015-.439.243-.308.5-.308.5.054.157.498.312.498.312-.24.182-.699.107-.755.095a.305.305 0 0 0-.228-.263c-.017-.006-.028-.007-.028-.007-.16-.017-.242.05-.284.115a.316.316 0 0 0-.053.094l-.27-.056c-.189-.029-.295-.567-.353-1.037-.075.01-.15.02-.226.027.073.502.166.948.166.948-.093 0-.49-.276-.49-.276-.495-.299-.834-.204-.846-.198a.528.528 0 0 0 .093 1.05.53.53 0 0 0 .53-.515c.189.09.36.195.36.195a2.04 2.04 0 0 0 1.044.353c.033.178.19.31.377.31.144 0 .273-.08.335-.2 1.017-.034 1.39-.482 1.39-.482.107-.14.13-.058.13-.058.374.538 1.094.21 1.094.21.139-.069.17.023.17.023.145.23.369.108.369.108.286-.147.117-.326.117-.326-.095-.099.022-.094.022-.094.338.048.405-.146.405-.146.07-.153-.173-.287-.173-.287-.067-.085.064-.152.064-.152.2-.117.168-.232.168-.232.254.004.234-.111.234-.111.006-.101-.312-.096-.312-.096-.25-.026-.197-.154-.197-.154.372-.014.931-.178.931-.178.818.666 2.033.825 2.033.825a.826.826 0 0 1-.023.31c-.007-.002-.015-.002-.022-.002a.194.194 0 0 0-.194.193c0 .104.088.19.194.19.02 0 .056-.008.056-.008.389-.104.419-.674.419-.674 1.11.106 1.865-.728 1.865-.728.11-.093.164-.066.187-.036l.003.004a.318.318 0 0 0 .505-.02.445.445 0 0 0 .058-.177v-.007c.004-.129-.064-.207-.064-.207m-13.357 1.422c.105-.051.127-.173.127-.173a.485.485 0 0 0-.205-.442l-.397.008h-.001a29.057 29.057 0 0 1-.398-.008.483.483 0 0 0-.204.442s.02.122.126.173c0 0-.28.118-.284.312 0 0-.032.143.215.343 0 0 .181.2.234.354 0 0 .015.215.31.215.298 0 .313-.215.313-.215.053-.153.232-.354.232-.354.249-.2.218-.343.218-.343-.006-.194-.286-.312-.286-.312m2.072-1.205l.16-.018-.102-.188zm-4.903.005l.162.016-.063-.205zm-.564-.419c-.007-.004-.016-.004-.027-.005l-.034.249a.437.437 0 0 0 .112.004.083.083 0 0 0 .05-.034.154.154 0 0 0 .028-.074c.006-.046 0-.079-.02-.1-.02-.022-.055-.036-.11-.04m2.12.171a.143.143 0 0 0-.126.055c-.03.038-.046.1-.048.185-.004.094.006.16.032.2.025.04.067.065.12.065.057.001.1-.014.13-.05.03-.038.046-.102.051-.195a.357.357 0 0 0-.031-.191c-.026-.044-.068-.067-.128-.07m1.836-.001a.14.14 0 0 0-.121.064c-.025.04-.036.102-.032.187.004.09.02.158.05.196.03.04.07.06.124.058a.157.157 0 0 0 .126-.061c.027-.038.038-.105.034-.197a.365.365 0 0 0-.05-.19.145.145 0 0 0-.13-.057m-5.035.01l.158.03-.046-.21z" fill="#FEFEFE"/><path d="M166.284 20.922l-.089.243.03.01c.05.02.087.02.11.003a.142.142 0 0 0 .056-.076.163.163 0 0 0 .012-.084.092.092 0 0 0-.033-.054.293.293 0 0 0-.086-.042m.723.238a.157.157 0 0 0-.14.023.362.362 0 0 0-.1.166.395.395 0 0 0-.029.202c.014.045.047.075.099.091.053.015.1.008.14-.02.04-.027.074-.084.106-.175.03-.08.038-.145.025-.19-.012-.049-.045-.08-.101-.098m.662.207l-.027-.007-.064.242a.356.356 0 0 0 .11.02.1.1 0 0 0 .055-.026.154.154 0 0 0 .035-.072c.012-.045.01-.08-.006-.1-.017-.026-.052-.042-.103-.057m10.99.008c-.025-.011-.064-.009-.116.005l-.025.008.066.241a.336.336 0 0 0 .105-.04.09.09 0 0 0 .034-.049.144.144 0 0 0-.005-.079c-.013-.046-.032-.073-.06-.086m1.208-.047l.151-.058-.147-.155z" fill="#FEFEFE"/><path d="M180.425 20.55a.346.346 0 0 0-.206-.063.391.391 0 0 0-.136.024c-.274.073-2.81 1.188-7.008 1.19-4.198-.002-6.734-1.117-7.008-1.19 0 0-.059-.024-.137-.024a.344.344 0 0 0-.205.062l-.86.674h.005c.25 0 .53.13.537.134 2.238.978 4.802 1.38 7.668 1.406 2.867-.026 5.43-.428 7.666-1.406.01-.004.29-.134.54-.134h.002l-.858-.674zm-8.176 1.253l.18.008-.21.133h-.039l.07-.14zm-5.718-.664a.147.147 0 0 1-.068.082.175.175 0 0 1-.104.02.61.61 0 0 1-.14-.036l-.042-.014-.05.133c-.007.025-.01.044-.005.058.005.012.021.024.048.036l.013.003-.016.046-.304-.111.015-.046.01.003c.028.011.049.013.06.006.013-.008.024-.024.034-.05l.121-.332a.092.092 0 0 0 .007-.059c-.006-.012-.023-.023-.05-.033l-.012-.007.016-.044.23.077c.057.022.1.04.13.054.03.013.055.034.076.055.021.025.034.05.038.078a.141.141 0 0 1-.007.081zm.692.367a.3.3 0 0 1-.15.179.332.332 0 0 1-.26.013.38.38 0 0 1-.165-.098.257.257 0 0 1-.074-.15.353.353 0 0 1 .012-.152.29.29 0 0 1 .09-.136.287.287 0 0 1 .151-.072.373.373 0 0 1 .168.016c.1.03.171.085.21.16a.319.319 0 0 1 .018.24zm.605.296c.019.063.035.1.046.115a.088.088 0 0 0 .044.029l-.013.047-.18-.049a1.014 1.014 0 0 1-.053-.173.684.684 0 0 0-.026-.09.077.077 0 0 0-.021-.03.227.227 0 0 0-.062-.021l-.037.136c-.006.026-.007.047 0 .059.005.013.023.024.053.03l.007.004-.011.047-.312-.084.013-.048.012.005c.029.007.048.007.06-.002.012-.008.022-.024.028-.052l.091-.34c.007-.028.009-.045.002-.06-.007-.012-.025-.02-.052-.028l-.011-.005.012-.048.232.064.052.013c.052.013.09.024.112.032a.296.296 0 0 1 .063.044c.02.02.033.042.04.068a.159.159 0 0 1 .001.077c-.019.07-.07.107-.156.11.018.02.04.068.066.15zm.981.392l-.534-.115.011-.046h.009c.03.006.05.006.06-.003.01-.008.018-.026.025-.053l.074-.345a.108.108 0 0 0-.001-.06c-.008-.012-.026-.021-.055-.028l-.008-.002.01-.045.313.065-.01.046h-.011c-.03-.006-.05-.006-.062.004-.01.008-.017.026-.023.052l-.07.333a.21.21 0 0 0-.008.053c.001.006.008.015.018.022.01.01.031.018.062.024.051.011.092.006.123-.014a.19.19 0 0 0 .074-.093l.048.01-.045.195zm.657.12l-.294-.055.011-.048c.026.005.042.005.049.002.007-.005.012-.01.013-.017a.074.074 0 0 0-.003-.03l-.003-.014-.01-.045-.18-.035-.016.029c-.012.02-.02.032-.02.04-.004.015 0 .025.009.033.008.007.023.012.045.015l-.009.05-.195-.035.01-.048c.036.008.073-.019.11-.079l.263-.422.05.01.103.487c.01.05.023.08.035.092.013.01.027.018.04.02l-.008.05zm1.008.14l-.185-.024a1.177 1.177 0 0 1-.074-.167.502.502 0 0 0-.038-.084.066.066 0 0 0-.026-.027.234.234 0 0 0-.063-.015l-.018.14c-.003.028 0 .047.007.058.007.013.026.022.054.027h.012l-.008.047-.32-.04.007-.051h.011c.031.006.05 0 .061-.007.01-.01.017-.029.02-.053l.048-.35c.002-.028 0-.047-.007-.06-.008-.011-.026-.019-.054-.023l-.013-.002.006-.049.24.032.052.007a.664.664 0 0 1 .116.021.199.199 0 0 1 .068.034.14.14 0 0 1 .05.062.167.167 0 0 1 .009.078c-.01.069-.056.112-.14.128.02.016.047.062.082.137.03.06.05.098.062.11.014.012.03.02.047.022l-.006.05zm.658.065l-.297-.027.006-.048c.026.001.043.001.05-.003a.023.023 0 0 0 .01-.02c.002-.007 0-.016-.004-.03l-.005-.013-.012-.044-.183-.019-.016.028a.21.21 0 0 0-.016.044.04.04 0 0 0 .012.03c.009.006.024.01.048.013l-.006.049-.196-.019.005-.05c.037.004.072-.023.103-.085l.23-.444.052.006.14.482c.013.045.027.075.041.085a.066.066 0 0 0 .043.018l-.005.047zm.643-.51l-.376.479.139.01a.296.296 0 0 0 .085-.004.159.159 0 0 0 .052-.036.22.22 0 0 0 .041-.074l.051.004-.024.177-.535-.039.001-.038.371-.48-.096-.008a.26.26 0 0 0-.125.011c-.02.011-.039.04-.058.084l-.045-.005.02-.158.503.037-.004.04zm.712.51a.334.334 0 0 1-.247.08.389.389 0 0 1-.186-.05.265.265 0 0 1-.109-.126.329.329 0 0 1-.028-.147.291.291 0 0 1 .05-.156.259.259 0 0 1 .127-.109.378.378 0 0 1 .164-.032c.107.006.188.038.245.101a.31.31 0 0 1-.016.44zm.877-.46a.106.106 0 0 0-.042.009.066.066 0 0 0-.026.033.16.16 0 0 0-.008.057l-.002.457h-.056l-.388-.438v.273c0 .045.007.073.023.086a.097.097 0 0 0 .062.019v.048h-.224v-.048a.099.099 0 0 0 .049-.013.058.058 0 0 0 .026-.033.232.232 0 0 0 .008-.06l.001-.302c0-.062-.029-.093-.085-.093v-.05l.202.004.327.364.002-.218c0-.064-.029-.097-.084-.098v-.048h.215v.05zm.997.437a.33.33 0 0 1-.239.1.38.38 0 0 1-.188-.036.257.257 0 0 1-.12-.115.355.355 0 0 1-.043-.148c0-.052.01-.105.04-.159a.263.263 0 0 1 .117-.116.339.339 0 0 1 .163-.045.326.326 0 0 1 .252.082.3.3 0 0 1 .099.219.292.292 0 0 1-.08.218zm.509.048l-.004-.05h.007c.03-.002.05-.01.058-.02.008-.014.01-.033.008-.06l-.03-.351c-.003-.028-.01-.046-.02-.055-.01-.011-.03-.015-.06-.013l-.007.002-.005-.048.32-.029.005.05h-.012c-.03.002-.05.01-.058.021a.111.111 0 0 0-.008.06l.03.337c.003.026.004.044.008.052a.046.046 0 0 0 .026.018.168.168 0 0 0 .066.004c.052-.004.09-.02.114-.05a.222.222 0 0 0 .044-.109l.047-.004.014.197-.543.048zm.914-.09l-.006-.047c.027-.003.044-.008.05-.015a.03.03 0 0 0 .007-.02.084.084 0 0 0-.012-.025l-.007-.013-.02-.042-.184.021-.008.03a.124.124 0 0 0-.008.045c.002.016.008.025.018.028.009.006.025.006.047.004l.008.048-.197.024-.005-.048c.038-.006.064-.04.08-.108l.133-.48.05-.007.24.439c.024.04.043.07.06.076a.1.1 0 0 0 .044.008l.006.048-.296.034zm1.029-.587a.246.246 0 0 0-.038-.062c-.014-.014-.028-.025-.04-.026-.014-.005-.033-.002-.058.001l-.095.015.031.205.048-.009c.022-.004.038-.01.044-.022.009-.01.01-.03.008-.06l.047-.007.033.201-.047.01c-.006-.033-.016-.053-.027-.06-.01-.01-.028-.012-.05-.008l-.045.008.025.16c.005.025.012.045.022.054.012.009.032.012.062.006l.013-.002.007.048-.319.053-.007-.05.008-.003c.03-.002.048-.012.055-.023.007-.014.008-.033.004-.058l-.056-.35c-.004-.027-.011-.044-.022-.054-.01-.01-.031-.012-.06-.008l-.012.003-.007-.049.496-.078.03.157-.05.008zm.694-.147l.038.195c.01.042.013.076.013.104a.196.196 0 0 1-.093.16.3.3 0 0 1-.117.047.3.3 0 0 1-.125 0 .192.192 0 0 1-.093-.04.233.233 0 0 1-.054-.066.441.441 0 0 1-.029-.091l-.045-.233c-.004-.027-.013-.045-.025-.054-.01-.01-.033-.01-.065-.003l-.01-.046.312-.062.008.048-.01.002c-.029.006-.046.015-.053.026-.009.013-.009.032-.002.059l.045.231a.415.415 0 0 0 .03.098c.012.022.03.04.057.052a.128.128 0 0 0 .09.01.147.147 0 0 0 .086-.045.126.126 0 0 0 .035-.077.452.452 0 0 0-.008-.111l-.04-.196c-.011-.06-.048-.084-.105-.073l-.01-.048.219-.042.01.047a.089.089 0 0 0-.038.018.054.054 0 0 0-.023.035.165.165 0 0 0 .002.055zm.272.406l-.012-.047.012-.003c.028-.008.045-.016.052-.03.008-.013.008-.03.002-.06l-.082-.342c-.007-.029-.016-.044-.028-.053-.01-.008-.03-.008-.06-.003l-.011.003-.01-.047.497-.115.044.148-.048.011a.39.39 0 0 0-.043-.057c-.015-.012-.028-.02-.04-.021a.14.14 0 0 0-.056.006l-.11.024.048.202.054-.012c.025-.008.041-.016.048-.026a.108.108 0 0 0 .001-.062l.048-.012.047.199-.047.01-.002-.007a.083.083 0 0 0-.021-.043c-.012-.012-.03-.016-.06-.009l-.056.014.033.144c.008.028.012.044.018.05.005.009.015.016.03.016a.21.21 0 0 0 .067-.004.246.246 0 0 0 .079-.034.14.14 0 0 0 .037-.062.264.264 0 0 0 .013-.082l.048-.014.04.193-.532.125zm1.112-.28a1.464 1.464 0 0 1-.133-.126.821.821 0 0 0-.069-.063.09.09 0 0 0-.033-.015.243.243 0 0 0-.064.013l.04.136c.005.025.014.043.027.05.012.008.031.008.06 0l.01-.003.014.048-.311.085-.013-.047.01-.002c.029-.008.046-.018.053-.032.005-.013.004-.031-.001-.058l-.096-.34c-.009-.027-.016-.043-.03-.051-.01-.008-.03-.008-.058 0l-.013.002-.013-.048.23-.063.053-.015c.051-.013.09-.023.114-.027a.22.22 0 0 1 .076.007.14.14 0 0 1 .108.103c.02.068-.006.127-.076.172a.55.55 0 0 1 .13.097c.05.044.083.068.1.076a.078.078 0 0 0 .052.001l.013.048-.18.052zm.28-.084l-.01-.037.16-.584-.092.03a.285.285 0 0 0-.11.055c-.016.018-.022.052-.022.1l-.046.016-.04-.156.48-.155.01.038-.164.586.13-.045a.218.218 0 0 0 .078-.035.13.13 0 0 0 .036-.052.282.282 0 0 0 .01-.084l.047-.014.047.171-.514.166zm.898-.307l-.019-.045a.134.134 0 0 0 .046-.024c.003-.008.005-.017 0-.024a.066.066 0 0 0-.016-.022l-.01-.011-.031-.035-.172.063-.001.033c0 .023 0 .039.003.045.006.015.014.022.025.026a.169.169 0 0 0 .049-.01l.016.046-.185.07-.016-.046c.034-.014.052-.056.053-.124l.01-.497.048-.019.34.366c.031.037.058.057.074.061a.11.11 0 0 0 .048-.004l.016.046-.278.105zm-9.669-9.196a3.397 3.397 0 0 1-.335-.221c-.073.053-.196.136-.313.22h.647zm1.518-.148a3.226 3.226 0 0 0-.266.138.632.632 0 0 0-.039.019h2.704a.256.256 0 0 1-.037-.02c-.097-.055-.214-.11-.27-.137-.016-.007-.025-.014-.032-.018a3.065 3.065 0 0 0-.353-.132h-1.322c-.11.034-.23.076-.353.132l-.032.018m4.067-.071l-.009.007c-.055.046-.148.13-.278.21h.566c-.101-.076-.201-.151-.266-.206-.004-.004-.01-.006-.013-.01m-6.261 5.386v-1.396c-.122.269-.305.845 0 1.396m3.239-2.341l-2.591-.83h2.023z" fill="#FEFEFE"/><g fill="#FEFEFE"><path d="M172.952 12.42h-3.448l-.002.008c-.003.037.02.075.04.1.018.023.068.092.138.2h3.188l.084-.308zm-.139.46h-3.015c.049.09.1.192.149.307h2.782l.084-.307zm-.14.459h-2.646c.035.096.067.199.095.307h2.467l.084-.307zm-.141.461h-2.366c.019.1.033.202.041.308h2.243l.082-.307zm-1.51.92h-.817c-.012.09-.03.193-.057.306h1.26l-.386-.307zm-.255-.153l-.39-.308h-.16v.028c.005.039.014.136.007.28h.543zm2.209-2.147l-.013-.04v2.707l2.593-.83h-2.023l-.054-.178h2.28c.011-.094.027-.187.05-.277h-2.414l-.056-.185h2.522c.03-.096.065-.19.101-.277h-2.708l-.056-.183h2.85c.05-.101.1-.193.152-.276h-3.084l-.056-.183h3.258c.092-.132.163-.219.184-.241a.102.102 0 0 0 .02-.036h-3.546zm.609 4.14v2.071c.098-.058.203-.106.309-.144V16.77l-.309-.21zm-.468-.355v2.994c.047-.068.09-.134.116-.169l.015-.023a.983.983 0 0 1 .177-.218v-2.374l-.308-.21zm-.462.119v2.407c.096.077.183.168.25.277l.014.022.043.063v-2.98l-.307.21zm-.461.347v1.795c.106.034.21.078.308.132v-2.136l-.308.21zm1.852 1.753c.109-.028.212-.049.309-.063v-1.242l-.309-.21v1.515zm-2.312-.072c.093.012.2.03.307.057V16.81l-.307.211v1.33z"/><path d="M172.963 15.085l-.946.345-.353-.252h-1.569a4.217 4.217 0 0 1-.204.488v2.047c.057.068.147.16.276.253v-2.511h.183v2.625c.082.043.174.085.277.122v-2.747h.184v2.802c.086.02.178.037.277.048v-2.85h.185v2.865c.04.001.077.004.118.004.022 0 .08.001.16.007v-1.17l-.161.12 1.573-2.196zm-1.412.37h.183v.81l-.183.541v-1.351zm4.403 0a3.11 3.11 0 0 1-.107-.277h-1.583l-.354.252-.692-.252-.255-.094 1.543 2.174v1.078c.108-.01.188-.012.216-.012.022 0 .041-.003.062-.003v-2.866h.185v2.857c.099-.01.193-.022.278-.041v-2.816h.183v2.767a2.02 2.02 0 0 0 .277-.11v-2.657h.183v2.552a1.63 1.63 0 0 0 .258-.209l.02-.03v-1.891a4.12 4.12 0 0 1-.214-.422zm-1.448 1.732l-.182-.538v-1.194h.182v1.732zm.012-2.161h1.277a2.559 2.559 0 0 1-.053-.307h-.837l-.387.307zm1.03-.767l-.388.308h.57c-.003-.103.005-.175.009-.213 0-.032.003-.064.005-.095h-.196zm1.517-5.447a1.26 1.26 0 0 0 .224-.011c.862-.224.896-1.283.754-1.352-.006.01-.009.007-.013-.009-.02.065-.045.128-.073.184-.052.11-.121.177-.141.17-.008-.006-.009-.02-.005-.026.19-.33.183-.59.087-.91a.98.98 0 0 0-.335-.462c-.435-.303-1.308-.356-1.779.01a1.637 1.637 0 0 0-.618-.374c-.058.265-.352.62-.61.802-.051.033-.198.133-.259.133 0 0-.058-.011-.006-.058.462-.286.69-.636.695-1.071V5.83c-.013-.22-.07-.628-.337-.918-.42-.457-1.554-.519-2.073-.086a1.068 1.068 0 0 0-.268.532.616.616 0 0 1 .419-.394c.23-.07.67-.022.734.244-.388-.4-1.096-.105-1.194.572v-.007c-.01.044-.034.047-.034.047h-.003c-.019-.002-.045-.004-.034-.305a1.86 1.86 0 0 1 .152-.618c-.871-.157-1.914.267-1.896 1.558.013.182.078.35.245.544.032.036.006.052.006.052-.024.013-.133-.06-.197-.147a1.24 1.24 0 0 1-.2-.426c-.546-.195-.884-.199-1.194-.17-.32.03-.743.313-.89.508a2.163 2.163 0 0 0-.196.313 1.382 1.382 0 0 0-.156.77c.048.505.298.93.666 1.13.505.28 1.15.242 1.379.205a1.042 1.042 0 0 0 .442-.2l.023-.017c.202-.176.324-.446.309-.8 0-.006.006-.019.015-.019.023 0 .053.092.052.214a1.288 1.288 0 0 1-.09.435.285.285 0 0 0 .06.205c.095.107.334.141.522.066.007-.004.021-.002.021.006.002.025-.125.156-.355.156a.65.65 0 0 1-.141-.014c.128.215.488.367.858.345.006-.002.02.006.02.014 0 .021-.091.054-.213.054-.17 0-.375-.041-.528-.12.177.213.48.405 1 .477.014.06-.392.013-.508-.026.24.937.743.828.752.893-.149.049-.252.23-.148.432.536-.19.933-.206 1.05-.206.121 0 .532.017 1.079.217a.244.244 0 0 0 .03-.244c-.08-.234-.803-.415-1.48-.218a.385.385 0 0 0-.09.048c-.001 0-.006 0-.007-.003-.003-.002.001-.008.008-.018l-.001.002a.882.882 0 0 1 .09-.058c.297-.157.913-.216 1.25-.048.002 0 .002-.002.005 0 .289.125.545-.226.454-.41.214.014.375-.118.388-.331-.044.023-.079.04-.111.055v.001c-.076.038-.149.04-.156.03-.003-.003-.001-.007 0-.01h-.003l.004-.001.006-.004c.033-.015.061-.03.091-.046.396-.227.587-.673.549-.81-.035.078-.159.146-.276.147-.064.006-.1-.007-.103-.018-.002-.006.006-.012.012-.012a.304.304 0 0 0 .134-.055c.139-.1.267-.283.327-.433-.246-.234-.333-.51-.474-.875-.053-.135-.169-.276-.339-.29h-.071a.3.3 0 0 0-.062.012c-.003.002-.01 0-.013-.004.188-.157.396.013.518.083.022-.35.145-.437.156-.433.006.003.007.015.004.017-.242.712.232 1.387.607 1.605.497.268 1.4.307 2.001-.202a1.27 1.27 0 0 1-.325.053c-.12.003-.214-.026-.215-.048 0-.01.014-.018.022-.016m-8.095-.042c.32-.08.6-.25.517-.55-.022-.084-.097-.154-.218-.164-.178-.017-.298.113-.388.247.021-.279.197-.46.48-.43.149.017.35.155.381.313.088.442-.316.623-.772.584m1.132-.314c.135-.367.203-.922-.378-1.066-.453-.114-.861.225-1.07.413.135-.415.588-.725 1.189-.594-.125-.347-.572-.492-1.09-.206-.128.068-.218.15-.304.224a.917.917 0 0 1 .557-.546.991.991 0 0 1 1 .21c.642.63.29 1.518.096 1.565m2.971 1.903c-.265.01-.297-.18-.346-.38.118.093.28.219.268.007-.098-.085-.693-.24-.538-.498.098-.142.418.426.51.236.053-.382-1.14-.5-1.106-.83.007-.177.94.455 1.076.44-.012-.203-1.392-.763-1.813-1.514-.03-.054-.046-.101-.037-.107.004-.004.011 0 .013.004.26.408.933.958 1.779 1.187.287.08.427.998.194 1.455m.314.232c-.09-.025-.04-.184-.04-.254 0-.394-.01-.774-.108-1.103-.047-.163-.18-.684-.528-1.346.134.154.66.971.736 1.592.043.345.108.808-.06 1.111m.43-2.352c.251.104-.127.611-.158.706.06-.027.262-.245.345-.179.13.108-.269.627-.373.664-.562-.73.157-.947.186-1.19m-.069 2.138c-.075-.035-.079-.186-.068-.255.029-.184.244-.27.342-.37.024-.003.01.295-.274.625m-.068-.518c-.108-.19.18-.428.244-.616.35-.054-.091.56-.244.616m.315-4.997c-.017-.024.506.1.6.564.018.289-.142.375-.172.361-.012-.003-.015-.023-.01-.033a.717.717 0 0 0-.102-.675c-.107-.128-.301-.198-.316-.217m2.948 2.854c-.005.002-.01.002-.012 0-.004-.004-.006-.008-.006-.012 0-.043.006-.09.012-.132a1.06 1.06 0 0 0-.016-.334c-.132-.564-.599-.763-.934-.43 0 0 .363-.674 1.178-.427.2.063.354.226.466.474a.683.683 0 0 1-.01.567c-.003.004-.006.004-.012.003-.004-.003-.008-.008-.006-.012.024-.127-.012-.343-.088-.513-.041-.094-.13-.252-.266-.29.083.121.14.219.177.302.051.115.052.182.054.236.007.254-.115.538-.233.644-.003 0-.01 0-.014-.003-.005-.003-.005-.009-.004-.013.13-.305.141-.57.033-.813a.788.788 0 0 0-.037-.075c-.095-.171-.26-.368-.504-.36a.84.84 0 0 1 .283.356c.142.321.114.685-.061.832"/><path d="M184.83 14.803c-.08-1.345-.187-2.548-.514-3.656-.2-.68-.585-2.073-1.488-2.264-.423-.09-.745.304-.737.658.006.304.219.451.125.753a2.544 2.544 0 0 0-.28.63c-.056.219.139.307.077.539-.272-.039-.417.187-.821.105-.371.151-.743.085-.746.074-.001-.006.01-.01.019-.01.404-.01.77-.143.846-.32.082-.271.033-.675-.17-.825-.23.05-.346.246-1.153.199-.663-.039-.828.085-.92.486a.27.27 0 0 1-.035-.19c.025-.22.246-.356.514-.385a.477.477 0 0 0 .065-.275 1.163 1.163 0 0 0-.331.012c-.316.048-.752.228-.862.542a.597.597 0 0 0-.022.165.757.757 0 0 0 .022.141c.013.033.027.066.036.1.1.218.35.34.882.364.01-.002.023.008.021.018-.003.022-.107.043-.242.028 0 0-.495.004-.716-.256a.906.906 0 0 1-.04.046 1 1 0 0 1-.597.282.807.807 0 0 1-.603-.272c-.32-.43.094-1.172.087-1.448-.019-.738-1.025-.406-1.395-.213-.44.23-.79.602-1.085.966-.158.195-.333.436-.425.643.128.06.512.228.803.232l.017.002c.016.001.051.004.101.004.152 0 .44-.025.652-.202a.364.364 0 0 1 .232-.087.36.36 0 0 1 .253.106c.053.043.687.55.896.69a.24.24 0 0 1 .102.16c.008.052-.002.133-.08.222a3.684 3.684 0 0 0-.575.935c-.03.075-.06.15-.083.23-.077.27-.131.7.246.834 0 0 .417.107.384-.58 0 0 .068.44.391.426.139-.006.263-.143.238-.44h.002a3.791 3.791 0 0 1 .037-1.006.673.673 0 0 1 .032.177c.02.18-.107 1.776 1.206 2.858 0 0-.553-.271-.937-.95-.222.131-.525.414-.386 1.013.072.204.213.397.324.457a.043.043 0 0 1 .014.028c.002.028-.071.08-.19-.04v-.001a1.005 1.005 0 0 1-.055-.064 1.194 1.194 0 0 1-.106-.2 6.689 6.689 0 0 1-.428-.413v-.003c-.106-.213-.049-.852-.673-.854h-.061a.657.657 0 0 0-.106.014c-.007.001-.016.001-.022.003-.164-.559-.12-.914-.11-.969.128-.806.7-1.476.765-1.551.024-.025.05-.067.045-.106a.089.089 0 0 0-.034-.056l-.003-.003c-.216-.143-.839-.64-.91-.697l-.005-.006a.22.22 0 0 0-.152-.067c-.078 0-.136.05-.136.05-.252.21-.576.241-.748.241a.747.747 0 0 1-.12-.008h-.01c-.361-.01-.814-.224-.902-.268-.62-.258-1.098-.27-1.188-.27-.089 0-.566.012-1.187.27-.088.044-.542.259-.902.268h-.007a.908.908 0 0 1-.123.008c-.171 0-.498-.031-.746-.238l-.003-.004s-.057-.049-.135-.049a.218.218 0 0 0-.151.067l-.006.006c-.07.056-.695.554-.91.697l-.003.003a.082.082 0 0 0-.034.056c-.004.04.022.081.044.106.066.075.638.745.766 1.551.006.03.021.153.007.35a9.364 9.364 0 0 0-.143-.428.681.681 0 0 0-.09-.234l-.001-.002a.97.97 0 0 0-.356-.317c-.113-.062-.237-.08-.343-.155-.165-.115-.341-.235-.45-.449a1.416 1.416 0 0 0-.22-.723c.06-.029.313.154.333.602.296-.31.445-.765.554-1.264.224-.31.855-.187 1.094-.146a.541.541 0 0 1 .214.069c.068.048.082.153.177.194.099.04.212.01.334 0 .038.044.061.103.088.159.04 0 .069-.003.081-.004l.005-.002h.01c.34-.004.808-.23.85-.252l.01-.007.05-.019c-.134-.167-.343-.215-.528-.246-.235-.038-.364-.236-.587-.282-.059-.014-.257-.045-.322-.02-.497.064-.848-.123-1.312-.156-.442-.032-.457.269-.615.517-.062.093-.133.202-.206.272-.122.118-.264.122-.41.235l-.022-.013c-.028-.154-.092-.399-.205-.568l-.006-.006-.031-.056c-.242-.377-.515-.665-1.048-.79a.592.592 0 0 1-.187-.1c-.085-.07-.023-.147 0-.156.154-.086.415-.056.589-.136.424-.197.276-.555.108-.585-.215-.038-.6-.14-.677-.186-.102-.064-.165-.242-.332-.302a.762.762 0 0 0-.352-.02c-.102.014-.169.09-.245.078.098-.136.264-.205.48-.224-.187-.051-.123-.353-.295-.42-.073-.013-.182.02-.303.08-.013-.093-.067-.412-.244-.517-.143-.082-.193.046-.187.127.007.074.219.164.255.492a2.788 2.788 0 0 0-.11.076c-.028-.137-.091-.344-.23-.425-.141-.082-.193.043-.185.127.006.07.19.15.246.428-.05.04-.096.081-.141.123-.287-.079-.351-.28-.42-.293-.083-.016-.214.024-.147.173s.281.234.412.273c-.03.034-.061.066-.088.1-.334-.066-.4-.29-.474-.304-.081-.017-.214.023-.146.171.089.193.416.278.5.297-.054.092-.082.173-.07.233-.257-.03-.713.108-.627.41.086.062.39-.187.669-.048.184.285.48.297.55.35.1.081.12.228.164.363.083.244.257.444.401.662.157.241.322.494.489.702a.4.4 0 0 1 .029.205c-.19.302-.755.652-.987.869-.235.219-2.452 1.902-2.73 2.635a1.545 1.545 0 0 0-.088.595c-.135.073-.373.029-.44-.048-.147-.173.151-.338.078-.566-.033-.09-.15-.121-.245-.09-.164.059-.198.388-.117.587.024.056.11.128.046.17-.081.034-.134-.05-.134-.168a.191.191 0 0 0-.068.192c.043.161.24.164.304.206-.008.071-.118.106-.192.038-.123.18.015.248.044.254.134.024.278-.097.362-.107.038.09-.027.12-.166.157.221.268.42-.192.666-.137.077.016.773.666.655 1.16a.501.501 0 0 1-.049.118c-.155.19-.41.338-.587.518-.364.231.347 1.686.29 2.431-.045.292.25.238.418.712-.177.004-.354.047-.444.18l-.027.04.004.002a.363.363 0 0 0 .317.543c.2 0 .365-.162.365-.363 0-.019-.004-.038-.006-.054.082 0 .182.014.295.064l.321.174s-1.13.949-2.975.397c0 0-.838-.267-.603-1.008 0 0 .043-.125.154-.197a.424.424 0 0 0 .409.325.418.418 0 0 0 .3-.708c-.017-.018-.035-.031-.056-.047-.001-.003-.004-.004-.007-.006l-.006-.005c-.125-.084-.315-.139-.603-.063 0 0-.806.233-.513 1.103 0 0-.544-.124-.75.125 0 0-.071.078-.065.207v.007a.46.46 0 0 0 .056.177.32.32 0 0 0 .26.136c.1 0 .188-.045.246-.116l.003-.004c.023-.03.076-.057.187.036 0 0 .756.834 1.865.728 0 0 .031.57.419.674 0 0 .038.009.056.009a.192.192 0 0 0 0-.384l-.022.001a.852.852 0 0 1-.025-.31s1.215-.158 2.035-.824c0 0 .56.164.931.179 0 0 .052.127-.197.153 0 0-.318-.005-.311.096 0 0-.022.115.232.11 0 0-.032.116.17.232 0 0 .13.069.062.153 0 0-.241.134-.17.287 0 0 .064.194.404.146 0 0 .115-.005.021.095 0 0-.169.178.116.325 0 0 .225.121.37-.109 0 0 .031-.091.17-.022 0 0 .72.328 1.094-.21 0 0 .023-.082.132.058 0 0 .372.448 1.387.482.064.121.192.2.335.2a.38.38 0 0 0 .376-.31 2.055 2.055 0 0 0 1.046-.352s.171-.106.359-.196a.532.532 0 0 0 1.063-.015c0-.26-.19-.478-.439-.52-.011-.005-.35-.1-.845.198 0 0-.397.276-.492.276 0 0 .094-.446.166-.948a5.478 5.478 0 0 1-.224-.027c-.06.47-.165 1.008-.354 1.037l-.27.056a.326.326 0 0 0-.052-.094c-.042-.065-.126-.132-.285-.115 0 0-.013.002-.03.007a.306.306 0 0 0-.226.263c-.056.011-.517.087-.754-.095 0 0 .444-.155.497-.312 0 0 .132-.258-.307-.5 0 0-.328-.191-.417.015 0 0-.032.09.115.217 0 0 .159.168-.142.142 0 0-.207-.022-.274-.102 0 0 .053-.563.183-.948-.116-.03-.23-.06-.346-.092a4.695 4.695 0 0 0-.127.402s-.017.329-.139.412c0 0-.428-.35-.245-.963a19.235 19.235 0 0 1-.4-.13c-.013.293.059.768.444 1.447 0 0-.35.464-.712.222 0 0-.512-.33-.186-.621 0 0 .222-.186.317.045a.216.216 0 0 0-.205.214.214.214 0 1 0 .427.012.52.52 0 0 0-.175-.468s-.185-.194-.486-.131c0 0 .284-.373.312-.685 0 0 .002-.052.022-.12-.083-.03-.165-.062-.247-.094-.019.307-.112.872-.533.716 0 0 .272-.452.447-.75a11.613 11.613 0 0 1-.55-.225c.026.128.066.446-.106.633 0 0-.212.197-.577-.087 0 0 .485-.407.635-.565a1.2 1.2 0 0 0-.4-.088h-.132l-.029.02s-.316.232-.533.323c0 0-.065.041-.127-.027 0 0-.397-.46-.09-.949 0 0 .18-.435.566-.339 0 0 .11-.003.175.15 0 0-.37.014-.329.272 0 0 .005.27.338.254 0 0 .465-.047.355-.606 0 0-.08-.338-.344-.338 0 0 .149-.185.042-.259 0 0-.11-.104-.36.07 0 0-.063.121-.364.056 0 0-.2-.082-.311.071 0 0-.052.02-.052.237 0 0 .022.084-.113.31 0 0-.074.15-.088.395a.688.688 0 0 0-.308-.142c-.152-.16-.165-.898-.323-1.258-.036-.084.072-.459.075-.86a2.166 2.166 0 0 0 1.655-1.466c.172-.615-.06-1.242-.086-1.41-.002-.02.018-.02.028 0 .05.093.089.19.122.29.539.04.91-.043 1.169-.139.013-.006.027-.01.04-.017.02-.007.037-.015.054-.02l.134-.062.045-.024c.781-.401 1.136-1.047 1.35-1.413-.11-.024-.446-.13-.557-.301.287.023.505.143.792.146.423.003.707-.233 1.173-.177 0 .025.063.221.363.343.008.265.025.492.108.702a.377.377 0 0 0 .04.087s-.351.27-.26.496l.071.175a.122.122 0 0 1-.049-.008c-.051-.024-.114.068-.191.19-.04.063-.227.445-.086.478a.49.49 0 0 0 .087.008c-.075.395-.068.911.258 1.389l.002.006c.02.033.526.857 1.885.857h.02c.135 0 1.33.024 1.756.816.024.047.118.18.222.18.105 0 .199-.133.223-.178.427-.794 1.62-.818 1.756-.818h.02c1.359 0 1.864-.824 1.885-.857l.002-.006a1.68 1.68 0 0 0 .28-.734c.266-.146.252-.745.254-.852.075.107.233.406.564.483-.053.283-.036.75.269.811.092.01.17-.128.147-.234.263.749.044 1.21.241 1.265.254.004.265-.442.288-.454.022.04.103.173.108.375.006.234-.03.465.076.504.35.058.183-.965.456-.862-.067.453-.002.708.187.783-.008.205-.03.408-.117.408-.502.112-.962-.285-1.402-.166l-.048-.03c-.808-.434-1.317-.103-1.369-.148-.227-.208-.314.105-.38.068-.423-.238-.657.167-.767.185-.098.015-.28-.212-.474.265-.089.21-.56.3-.598.312-.188.021-.232-.107-.232-.107a.965.965 0 0 0-.056-.138.319.319 0 0 0-.069-.094.23.23 0 0 0-.192-.063.266.266 0 0 0-.194.427c.014.012.057-.048.118-.044.104.006.188.084.188.187v.004c.014.214-.314.43-.314.43-.19.17-.428-.066-.428-.066-.137-.106-.226-.117-.226-.117-.138.005-.201.152-.201.152s-.063-.147-.203-.152c0 0-.09.011-.226.117 0 0-.237.236-.427.067 0 0-.328-.217-.314-.43v-.005c0-.103.084-.18.186-.187.064-.004.106.056.12.044a.27.27 0 0 0 .055-.162.268.268 0 0 0-.251-.265.228.228 0 0 0-.19.063.295.295 0 0 0-.068.094.866.866 0 0 0-.057.138s-.044.128-.234.107c-.038-.011-.508-.102-.596-.312-.196-.477-.378-.25-.475-.265-.11-.018-.343-.423-.767-.185-.067.037-.153-.276-.38-.068-.045.04-.445-.21-1.09.024-.039-.076-.243-.114-.3-.137-.133-.037-.25-.14-.332-.182-.182-.092-.477-.034-.685-.058a.85.85 0 0 1-.264-.097c-.268-.164-.575-.368-.744-.606a5.592 5.592 0 0 0-.108-.145 1.083 1.083 0 0 1-.185-.353c-.094-.33.048-.681.098-1.014.022-.159.027-.223.033-.318-.258.066-.596.072-1.013-.043a2.5 2.5 0 0 1 .085 1.017.73.73 0 0 1 .268.416c.02.168-.06.343.04.478.145.2.466.385.664.519.067.043.977.745 1.096.77.129.026.21-.069.324-.05.039.008.068.038.099.062 0 0 .076.083.19.156-.277.171-.622.38-.876.505 0 0-.41.222-.216.227 0 0 .286-.01.311.052 0 0-.121.048-.306.13.43.153.869.29 1.317.41.285-.278.652-.58 1.007-.713 0 0 .514.02.682-.354.052-.115.268.217.72-.032.04-.022.108.098.237.133.042.01-.185.044-.14.24.01.026-.366.005-.489.212-.036.06-.832.043-1.537.64.133.03.266.062.4.091.235-.176.519-.296.845-.277 0 0 .433.027.616.54.27.04.546.072.821.1-.003 0-.004-.002-.004-.002.072-.034.451-.22.28-.444 0 0-.09-.114-.248.037 0 0-.1.09-.143-.052 0 0-.01-.079-.053-.148 0 0-.075-.11.075-.059 0 0 .138.042.265.024a.255.255 0 0 0 .242-.256c0-.141-.1-.277-.243-.277-.005 0-.03.008-.03.021.02.017.035.043.035.073 0 .052-.043.106-.094.093-.155-.043-.11-.345.103-.355 0 0 .187.01.345.199 0 0 .36.539.693.653.023.008-.059.195.152.259.025.007-.005.168.212.153.006 0 .048.073.1.186.19.004.38.008.572.008.19 0 .382-.004.572-.008a.924.924 0 0 1 .098-.186c.218.015.188-.146.212-.153.212-.064.13-.25.153-.259.332-.114.693-.653.693-.653a.525.525 0 0 1 .344-.199c.214.01.26.312.102.355-.05.013-.093-.04-.093-.093 0-.03.016-.056.036-.073-.002-.013-.026-.021-.032-.021-.14 0-.24.136-.24.277 0 .138.106.25.238.256.13.018.268-.024.268-.024.15-.05.074.06.074.06a.414.414 0 0 0-.052.147c-.042.143-.143.052-.143.052-.158-.151-.25-.037-.25-.037-.17.225.21.41.285.444l-.008.002c.278-.028.552-.06.822-.1.182-.513.615-.54.615-.54.327-.019.61.1.845.277.135-.03.268-.06.402-.092-.707-.596-1.504-.579-1.539-.64-.12-.206-.497-.185-.491-.21.047-.197-.179-.23-.138-.241.128-.035.198-.155.24-.133.45.249.667-.083.718.032.168.374.68.354.68.354.356.132.723.435 1.009.714.41-.11.812-.237 1.205-.375 0-.004-.003-.01-.005-.014a.668.668 0 0 0-.024-.066c-.003-.007-.004-.014-.008-.02l-.002-.002a.88.88 0 0 0-.057-.105h.001c-.104-.171-.254-.342-.303-.4h-.003l-.015-.018c-.003 0 .295-.451.481-.145.016.04-.017.147-.203.148 0 .001.217.336.27.57l.007-.001c.092-.034.156-.055.189-.066.017-.006.035-.007.053-.011-.116-.229-.29-.357-.24-.432.044-.02.207.061.299-.075.022-.032.045-.197.067-.373.115.063.25.066.294.069.304-.008.42-.466.336-.616.044-.029.224-.176.24-.137.096.217.593.45.549-.039.078.237.138.508.415.486.201-.047.07-.39.142-.39.06.1.143.49.44.396.09-.035.161-.101.163-.233.016-.374-1.064-2.344-1.16-3.198a.297.297 0 0 1-.052-.018c-.104-.054-.115-.224-.097-.347 0-.01.004-.016.005-.023-.13-.024-.334-.137-.367-.497 0-.322.142-.482.172-.482.013 0 .016.02.011.032-.082.253-.14.556.045.726a.354.354 0 0 0 .189.072c.055-.11.131-.163.147-.161.011.002.01.017.004.025-.1.174-.098.415-.004.525.044.05.132.085.198.087.3-.107.454-.681.52-.858.2.043-.324 1.197.08 1.445.166-.014.262-.205.322-.373.13.34-.427 1.057-.026 1.218.246.062.334-.565.339-.485.07.958-.432 1.42-.11 1.569.272.127.365-.654.365-.555-.01 1.02-.523 1.305-.305 1.483.254.102.435-.516.432-.37-.023.915-.481 1.156-.277 1.446.235.333.675-.596.698-.422.026.214-.499 1.272-.198 1.345.257.063.343-.3.367-.376.788-2.631.815-5.19.764-6.052m-7.841-4.82c-.012.012-.036.012-.047.006-.205-.106-.6-.098-.881.05-.206.108-.372.316-.405.33-.035.017.338-.548.953-.608.368.003.408.19.38.221m1.33 1.703c-.085.15-.21.324-.4.372-.35.083-.7-.203-.71-.244-.02-.04.287.142.579.122.22-.016.392-.168.517-.27.013-.018.029 0 .013.02m-14.836 9.542c0 .002 0 .002.002.002v.001c.045.036.104.069.149.11a.35.35 0 0 1 .038.043c-.027.056-.085.051-.158.022a1.156 1.156 0 0 1-.185-.107c-.056.084.049.17.102.24-.01.028-.037.04-.07.045l-.003-.001a.24.24 0 0 1-.116-.014h-.002l-.006-.002c-.105-.049-.122-.2-.124-.285a.35.35 0 0 0-.178-.278c.206-.133.52.197.551.224m1.885-11.371c.309.115.336-.28.41-.186.108.179-.188.453-.41.186m.389-.318c-.125-.01-.219-.09-.333 0-.011.008-.171.13-.137.283.012.103-.137.15-.186.087-.114-.256.3-.61.401-.642.235-.086.41.058.664.096.15.022.31-.002.431.009.277.025.204.225.156.256-.23.065-.36-.112-.557-.14-.142-.016-.297.064-.44.05m1.056 1.63c-.333-.116-.718-.171-.86-.44.485.038.964.045 1.27.216.015.007.024.016.038.024.094.064.348.264.458.639a3.626 3.626 0 0 0-.906-.438m2.495 2.878c-.095.023-.113-.397-.62-.296-.275.121-.48.045-.652-.026.722-.405 1.325.004 1.272.322m7.443 1.077a.476.476 0 0 1 .102-.009h.006a.51.51 0 0 1 .109.014c.021.003.093.134.125.266.008.032.066.233.135.3.068.068.04.2-.124.18h-.01c-.176-.03-.377-.304-.294-.578a.404.404 0 0 0-.126-.004h-.003a.272.272 0 0 0-.064.017c-.007.001-.011.004-.017.007-.013.005-.023.011-.034.017-.01.006-.019.01-.028.017-.042.036-.058.1-.118.102a.328.328 0 0 1 .153-.252l.004-.003a.523.523 0 0 1 .184-.074m-7.338.96l-.015.04c-.009.023-.02.045-.03.066l-.017.03a.899.899 0 0 1-.025.042l-.018.026a.513.513 0 0 1-.043.057.07.07 0 0 1-.014.012.328.328 0 0 1-.058.052.394.394 0 0 1-.06.036l-.006.003a.32.32 0 0 1-.064.02c-.004.002-.01.002-.016.003a.367.367 0 0 1-.076.007.104.104 0 0 1-.012-.053v.002c0-.076.08-.144.113-.23.033-.08.026-.134.073-.192.079-.01.144.018.167-.054-.117-.095-.126-.287.025-.44.217-.22-.001-.685.04-.742.064.055.112.21.132.404l.004.047c0 .02.003.041.004.063l.002.053a.612.612 0 0 1 .002.048v.044l-.003.08-.002.048c-.003.018-.003.036-.005.055-.002.013-.002.026-.003.04a1.586 1.586 0 0 1-.018.13l-.01.053a.259.259 0 0 1-.008.04l-.01.05-.021.075-.013.042-.015.042m6.995 1.585c-.047.077-.5.776-1.684.776-.108 0-1.058.018-1.382.622l-.018.026c-.039.066-.159.258-.211.364a.062.062 0 0 1-.054.032.058.058 0 0 1-.054-.032c-.052-.106-.173-.298-.212-.364l-.019-.026c-.323-.604-1.273-.622-1.38-.622-1.187 0-1.64-.7-1.687-.778-.59-.864-.036-1.842-.03-1.85.486-.838.437-1.413.423-1.519 0-.923-.58-1.623-.647-1.699-.065-.074-.072-.142-.066-.184a.195.195 0 0 1 .097-.143c.13-.09.412-.265.533-.34l.054-.035a.093.093 0 0 1 .042-.014c.037 0 .066.024.12.064.115.09.33.255.703.255.066 0 .134-.004.204-.015.197-.029.517-.193.52-.193.1-.054.222-.106.279-.131l.027-.013a2.959 2.959 0 0 1 1.093-.232c.122 0 .566.014 1.088.231l.029.012c.054.024.18.079.282.133 0 0 .323.164.518.193.07.01.138.015.204.015.374 0 .588-.165.704-.255.053-.04.084-.064.12-.064.015 0 .04.01.052.02l.056.035c.127.08.394.25.535.342.006 0 .073.05.083.133.006.044 0 .112-.066.186-.067.076-.647.776-.646 1.687-.015.118-.064.693.422 1.53.024.043.544 1.01-.032 1.853m.84-.714a.519.519 0 0 1-.03.04l-.032.03-.003.001a.181.181 0 0 1-.033.02c-.003.001-.004.003-.007.003-.01.004-.022.006-.032.009l-.01.001a.16.16 0 0 1-.034-.001h-.015l-.033-.011-.019-.007a.442.442 0 0 1-.035-.019c-.006-.004-.014-.007-.021-.013-.014-.009-.028-.021-.042-.033l-.018-.014s-.078-.133.041-.148a.459.459 0 0 0 .048.044l.011.008a.19.19 0 0 0 .03.016l.007.003a.08.08 0 0 0 .032 0l.004-.003a.048.048 0 0 0 .019-.016c.004-.003.005-.007.007-.01a.092.092 0 0 0 .012-.024l.005-.012a.285.285 0 0 0 .015-.063l.006-.038a.418.418 0 0 0 .005-.064c.016-.208.002-.494.065-.59a.055.055 0 0 1 .022-.023.045.045 0 0 1 .024-.01h.003c.014 0 .024.003.033.009a.096.096 0 0 1 .02.026l.007.017.005.026a.314.314 0 0 1 .004.063v.02c0 .057-.003.126 0 .206v.037c.002.048.005.098.012.15a.608.608 0 0 1-.074.37m2.19.425c-.62.046-1.026-.517-.992-.505.034.01.213.212.425.294.293.113.689.051.89-.108.01-.008.034-.011.047 0 .03.03.002.244-.37.32m-11.416 1.828a.054.054 0 0 1-.01.029.031.031 0 0 1-.014.011c-.004.004-.009.01-.015.013a.305.305 0 0 1-.104.019c-.07 0-.147-.012-.197-.021-.008.047.018.08.055.104v.001a.68.68 0 0 0 .056.03l.084.042c.004.066-.112.108-.167.108-.117 0-.196-.13-.235-.208a.307.307 0 0 0-.033-.024c-.01-.006-.017-.012-.027-.017-.102-.057-.255-.076-.405-.085.028-.265.764-.082.783-.077.075.02.172.02.233.06 0 .005-.002.01-.004.015m11.144.638h-.002a.164.164 0 0 0-.012.04c-.14-.003-.435-.208-.44-.21-.04-.027-.17-.1-.28-.06h-.002c-.12.053-.175.175-.24.235a.355.355 0 0 1-.02-.068l-.003-.008a.384.384 0 0 1-.005-.057v-.023a.23.23 0 0 1 .005-.045l.008-.023a.202.202 0 0 1 .027-.054c.007-.008.012-.019.02-.028l.02-.017a.213.213 0 0 1 .036-.026.108.108 0 0 1 .014-.01.449.449 0 0 1 .227-.04v-.002a.537.537 0 0 1 .31.12c.1.088.3.115.423.12 0 0-.062.086-.086.156m2.704-8.081c-.08.068-.276.171-.408.201-.254.063-.492-.027-.6-.183.19-.06.355.07.611.039a1.74 1.74 0 0 0 .243-.047c.077-.024.133-.099.213-.099.03.031-.032.066-.059.089m2.418 6.936c-.051.255-.175.902-.199.847.543-4.881.244-6.09.152-6.073-.076.028-.164.602-.436.427-.265-.17.61-1.248.26-1.841-.079-.095-.152.134-.292.093-.361-.12.198-1.048.092-1.145-.078-.07-.35-.125-.358-.472-.002-.155.104-.282-.024-.413-.1-.096-.082.091-.187.045-.17-.18-.014-.381-.096-.515-.048-.034-.164.11-.255.037-.1-.081.055-.238-.068-.294-.158.022-.394.196-.347.455.024.135.184.224.173.376-.007.132-.17.288-.2.357-.234.526.158.635.104.82-.025.09-.192.142-.3.1-.143-.06-.174-.531-.127-.726.054-.22.36-.489.36-.61-.002-.134-.149-.29-.165-.472-.026-.286.19-.562.474-.503.183.037.304.195.416.329.046.052.107.098.145.144.33.404.589 1.123.748 1.7.469 1.702.687 4.378.13 7.334"/></g></g></svg>