<?xml version="1.0" encoding="utf-8"?>
<!-- Generator: Adobe Illustrator 26.1.0, SVG Export Plug-In . SVG Version: 6.00 Build 0)  -->
<svg version="1.1" id="Capa_1" xmlns="http://www.w3.org/2000/svg" xmlns:xlink="http://www.w3.org/1999/xlink" x="0px" y="0px"
	 viewBox="0 0 75 95" style="enable-background:new 0 0 75 95;" xml:space="preserve">
<style type="text/css">
	.st0{fill-rule:evenodd;clip-rule:evenodd;fill:#FFFFFF;}
</style>
<g>
	<path class="st0" d="M39.9,61.4c2.8,0,4.8-0.8,6-2.4c0.8-1,1.1-2.3,1.1-3.7c0-2.4-1.1-4.1-3.3-5c-1.2-0.5-2.7-0.7-4.6-0.7H30v11.9
		C30,61.4,39.9,61.4,39.9,61.4z M38.4,45.9c1.9,0,3.4-0.3,4.5-0.8c1.7-0.8,2.5-2.4,2.5-4.5c0-2.2-0.9-3.7-2.7-4.5
		c-1-0.4-2.5-0.6-4.5-0.6H30v10.4H38.4L38.4,45.9z M25.6,31.6h14.5c4,0,6.8,1.2,8.4,3.5c1,1.4,1.5,3,1.5,4.8c0,2.1-0.6,3.9-1.8,5.2
		c-0.6,0.7-1.5,1.4-2.7,2c1.7,0.7,3,1.4,3.9,2.2c1.5,1.5,2.3,3.5,2.3,6.1c0,2.2-0.7,4.1-2,5.9c-2,2.6-5.3,3.9-9.7,3.9H25.6V31.6z"/>
	<path class="st0" d="M37.3,21.3c-14.8,0-26.9,12.1-26.9,27s12.1,27,26.9,27c14.8,0,26.9-12.1,26.9-27S52.1,21.3,37.3,21.3
		 M37.3,79.4c-17.1,0-31-14-31-31.1c0-17.1,13.9-31.1,31-31.1c17.1,0,31,14,31,31.1C68.3,65.4,54.4,79.4,37.3,79.4 M12.6,2.3H6.3
		v2.5h5.7v2.1H6.3v3.1h6.5V12h-9V0.2h8.7V2.3z M25.5,3.3c0.4,0.2,0.7,0.4,1,0.8C26.8,4.4,27,4.8,27,5.2c0.1,0.3,0.1,0.7,0.1,1.3
		l0,5.5h-2.3V6.4c0-0.3-0.1-0.6-0.2-0.8C24.4,5.2,24,5,23.5,5c-0.6,0-1.1,0.3-1.3,0.8c-0.1,0.3-0.2,0.6-0.2,1V12h-2.3V6.8
		c0-0.5-0.1-0.9-0.2-1.1C19.3,5.2,19,5,18.4,5c-0.7,0-1.1,0.2-1.3,0.6c-0.1,0.2-0.2,0.6-0.2,1.1V12h-2.3V3.3h2.2v1.3
		c0.3-0.5,0.6-0.8,0.8-1c0.4-0.3,1-0.5,1.7-0.5c0.7,0,1.2,0.1,1.6,0.4c0.3,0.3,0.6,0.6,0.8,1.1C22,4,22.4,3.7,22.8,3.4
		c0.5-0.2,1-0.4,1.6-0.4C24.8,3.1,25.2,3.1,25.5,3.3 M34.8,5.8c-0.3-0.5-0.8-0.8-1.5-0.8c-0.8,0-1.4,0.4-1.7,1.2
		c-0.2,0.4-0.2,0.9-0.2,1.6c0,1,0.3,1.7,0.8,2.2c0.3,0.2,0.7,0.4,1.2,0.4c0.6,0,1.1-0.2,1.5-0.7c0.3-0.5,0.5-1.2,0.5-2
		C35.3,7,35.1,6.4,34.8,5.8 M36.6,4.2c0.7,0.8,1.1,1.9,1.1,3.3c0,1.5-0.3,2.7-1,3.5c-0.7,0.8-1.6,1.2-2.7,1.2
		c-0.7,0-1.3-0.2-1.7-0.5c-0.3-0.2-0.5-0.5-0.7-0.8v4.6h-2.3V3.2h2.2v1.3c0.2-0.4,0.5-0.7,0.8-0.9c0.5-0.4,1.1-0.6,1.8-0.6
		C35,3.1,35.9,3.4,36.6,4.2 M44.1,3c0,0,0.1,0,0.2,0v2.4c-0.2,0-0.4,0-0.7,0c-0.9,0-1.5,0.3-1.9,0.9c-0.2,0.3-0.3,0.9-0.3,1.6V12
		h-2.3V3.2h2.2v1.5c0.4-0.6,0.7-1,0.9-1.2C42.8,3.2,43.3,3,44,3C44,3,44.1,3,44.1,3 M47.9,5.4c-0.3,0.3-0.5,0.8-0.6,1.4h3.9
		c0-0.6-0.2-1.1-0.6-1.4c-0.4-0.3-0.8-0.5-1.4-0.5C48.7,4.9,48.2,5.1,47.9,5.4 M51.3,3.4c0.6,0.3,1.1,0.7,1.5,1.3
		c0.4,0.5,0.6,1.1,0.7,1.8c0.1,0.4,0.1,1,0.1,1.7h-6.4c0,0.9,0.3,1.5,0.9,1.9c0.3,0.2,0.8,0.3,1.3,0.3c0.5,0,0.9-0.1,1.3-0.4
		c0.2-0.2,0.4-0.4,0.5-0.6h2.3c-0.1,0.5-0.3,1.1-0.8,1.6c-0.8,0.9-1.9,1.3-3.3,1.3c-1.2,0-2.2-0.4-3.1-1.1C45.4,10.5,45,9.3,45,7.7
		c0-1.5,0.4-2.7,1.2-3.5C47,3.4,48,3,49.3,3C50,3,50.7,3.1,51.3,3.4 M56.5,9.2c0,0.4,0.2,0.7,0.3,0.9c0.3,0.3,0.8,0.5,1.6,0.5
		c0.5,0,0.8-0.1,1.1-0.2c0.3-0.1,0.4-0.3,0.4-0.6c0-0.2-0.1-0.5-0.3-0.6c-0.2-0.1-1-0.4-2.4-0.7c-1-0.2-1.7-0.6-2.1-0.9
		c-0.4-0.4-0.6-0.9-0.6-1.6c0-0.8,0.3-1.5,1-2.1C56.1,3.3,57,3,58.1,3c1.1,0,2,0.2,2.7,0.7c0.7,0.4,1.1,1.2,1.2,2.3h-2.3
		c0-0.3-0.1-0.5-0.2-0.7c-0.3-0.3-0.7-0.5-1.3-0.5c-0.5,0-0.9,0.1-1.1,0.2c-0.2,0.2-0.3,0.3-0.3,0.5c0,0.2,0.1,0.5,0.3,0.6
		c0.2,0.1,1,0.3,2.4,0.6c0.9,0.2,1.6,0.5,2,1c0.4,0.4,0.7,1,0.7,1.7c0,0.9-0.3,1.6-1,2.1c-0.6,0.6-1.6,0.8-3,0.8
		c-1.4,0-2.4-0.3-3-0.9c-0.7-0.6-1-1.3-1-2.2L56.5,9.2L56.5,9.2z M68.8,7.8c-0.1,0.1-0.3,0.2-0.4,0.2c-0.2,0.1-0.4,0.1-0.6,0.2
		l-0.5,0.1c-0.5,0.1-0.8,0.2-1.1,0.3c-0.4,0.2-0.5,0.5-0.5,1c0,0.4,0.1,0.7,0.3,0.9c0.2,0.2,0.5,0.3,0.8,0.3c0.5,0,1-0.1,1.4-0.4
		s0.6-0.8,0.7-1.6C68.8,8.6,68.8,7.8,68.8,7.8z M67.4,6.7c0.4-0.1,0.7-0.1,0.9-0.2c0.3-0.1,0.5-0.4,0.5-0.7c0-0.4-0.1-0.6-0.4-0.7
		c-0.3-0.1-0.6-0.2-1.1-0.2c-0.5,0-0.9,0.1-1.2,0.4c-0.2,0.2-0.3,0.5-0.3,0.8h-2.2c0-0.8,0.3-1.4,0.6-1.9C64.8,3.4,65.9,3,67.4,3
		c1,0,1.8,0.2,2.6,0.6C70.7,4,71,4.7,71,5.8v4c0,0.3,0,0.6,0,1c0,0.3,0.1,0.5,0.1,0.6c0.1,0.1,0.2,0.2,0.3,0.3V12H69
		c-0.1-0.2-0.1-0.3-0.1-0.5c0-0.2-0.1-0.4-0.1-0.5c-0.3,0.3-0.7,0.6-1.1,0.9c-0.5,0.3-1.1,0.4-1.7,0.4c-0.8,0-1.5-0.2-2-0.7
		c-0.5-0.5-0.8-1.1-0.8-1.9c0-1.1,0.4-1.9,1.3-2.3c0.5-0.3,1.1-0.5,2-0.6L67.4,6.7L67.4,6.7z M1.5,85.1c0.9-0.9,1.9-1.3,3.2-1.3
		c1.8,0,3,0.6,3.9,1.8c0.4,0.7,0.7,1.3,0.7,2H7.1C7,87,6.8,86.6,6.6,86.4c-0.4-0.5-1-0.7-1.8-0.7c-0.8,0-1.4,0.3-1.9,1
		c-0.5,0.7-0.7,1.6-0.7,2.8c0,1.2,0.2,2.1,0.7,2.7S4.1,93,4.8,93c0.8,0,1.3-0.3,1.7-0.8c0.2-0.3,0.4-0.7,0.5-1.2h2.2
		c-0.2,1.2-0.7,2.1-1.5,2.8c-0.8,0.7-1.8,1.1-3,1.1c-1.5,0-2.7-0.5-3.5-1.5c-0.9-1-1.3-2.3-1.3-4C0,87.5,0.5,86.1,1.5,85.1
		 M12.9,88.7c-0.3,0.3-0.5,0.7-0.5,1.2h3.5c0-0.5-0.2-1-0.5-1.2c-0.3-0.3-0.7-0.4-1.2-0.4C13.6,88.2,13.2,88.4,12.9,88.7 M16,86.9
		c0.6,0.3,1,0.7,1.4,1.2c0.3,0.5,0.5,1,0.6,1.6c0.1,0.4,0.1,0.9,0.1,1.6h-5.7c0,0.8,0.3,1.3,0.8,1.7c0.3,0.2,0.7,0.3,1.1,0.3
		c0.5,0,0.8-0.1,1.1-0.4c0.2-0.1,0.3-0.3,0.4-0.5h2.1c-0.1,0.5-0.3,0.9-0.8,1.4c-0.7,0.8-1.7,1.1-2.9,1.1c-1,0-2-0.3-2.8-1
		c-0.8-0.6-1.2-1.7-1.2-3.1c0-1.4,0.4-2.4,1.1-3.1c0.7-0.7,1.6-1.1,2.8-1.1C14.8,86.5,15.4,86.7,16,86.9 M23.4,86.6c0,0,0.1,0,0.2,0
		v2.1c-0.2,0-0.4,0-0.6,0c-0.8,0-1.4,0.3-1.7,0.8c-0.2,0.3-0.2,0.8-0.2,1.4v3.8H19v-7.8h2v1.4c0.3-0.5,0.6-0.9,0.8-1.1
		C22.2,86.7,22.7,86.6,23.4,86.6C23.4,86.6,23.4,86.6,23.4,86.6 M24,88.3v-1.5h1.1v-2.2h2v2.2h1.3v1.5h-1.3v4.1c0,0.3,0,0.5,0.1,0.6
		c0.1,0.1,0.3,0.1,0.7,0.1c0.1,0,0.3,0,0.4,0v1.5l-1,0c-1,0-1.6-0.1-2-0.5c-0.2-0.2-0.3-0.6-0.3-1.1v-4.8C25.1,88.3,24,88.3,24,88.3
		z M29.7,94.6h2.1v-7.8h-2.1C29.7,86.8,29.7,94.6,29.7,94.6z M29.7,85.8h2.1v-1.9h-2.1C29.7,83.9,29.7,85.8,29.7,85.8z M37,83.9
		c0.1,0,0.2,0,0.4,0v1.7c-0.2,0-0.4,0-0.6,0c-0.3,0-0.5,0.1-0.6,0.2c-0.1,0.1-0.2,0.3-0.2,0.4v0.7h1.3v1.4h-1.3v6.3h-2v-6.3H33v-1.4
		h1.1v-0.5c0-0.8,0.1-1.4,0.4-1.7c0.3-0.5,1-0.7,2.1-0.7C36.8,83.9,36.9,83.9,37,83.9 M38.7,94.6h2.1v-7.8h-2.1L38.7,94.6L38.7,94.6
		z M38.7,85.8h2.1v-1.9h-2.1L38.7,85.8L38.7,85.8z M47.4,89.6c0-0.3-0.1-0.6-0.3-0.8c-0.2-0.3-0.6-0.5-1.1-0.5c-0.7,0-1.2,0.3-1.4,1
		c-0.1,0.4-0.2,0.8-0.2,1.4c0,0.6,0.1,1,0.2,1.4c0.2,0.7,0.7,1,1.4,1c0.5,0,0.8-0.1,1-0.4c0.2-0.3,0.3-0.6,0.4-1h2.1
		c0,0.6-0.3,1.2-0.7,1.8c-0.6,0.9-1.6,1.3-2.8,1.3c-1.3,0-2.2-0.4-2.8-1.1c-0.6-0.8-0.9-1.7-0.9-2.9c0-1.3,0.3-2.4,1-3.1
		c0.7-0.8,1.6-1.1,2.7-1.1c1,0,1.8,0.2,2.4,0.7c0.6,0.4,1,1.2,1.1,2.3C49.5,89.6,47.4,89.6,47.4,89.6z M55.2,90.8
		c-0.1,0.1-0.3,0.1-0.4,0.2c-0.1,0.1-0.3,0.1-0.5,0.1l-0.5,0.1c-0.4,0.1-0.8,0.2-0.9,0.3c-0.3,0.2-0.5,0.5-0.5,0.9
		c0,0.3,0.1,0.6,0.3,0.8c0.2,0.2,0.4,0.2,0.7,0.2c0.4,0,0.9-0.1,1.2-0.4c0.4-0.3,0.6-0.7,0.6-1.4V90.8z M54,89.8
		c0.4,0,0.7-0.1,0.8-0.2c0.3-0.1,0.4-0.3,0.4-0.6c0-0.3-0.1-0.5-0.3-0.7c-0.2-0.1-0.6-0.2-1-0.2c-0.5,0-0.8,0.1-1,0.4
		c-0.1,0.2-0.2,0.4-0.3,0.7h-2c0-0.7,0.2-1.2,0.6-1.7c0.5-0.7,1.5-1,2.8-1c0.9,0,1.6,0.2,2.3,0.5c0.7,0.3,1,1,1,1.9v3.6
		c0,0.2,0,0.6,0,0.9c0,0.3,0.1,0.5,0.1,0.5c0.1,0.1,0.2,0.2,0.3,0.2v0.3h-2.2c-0.1-0.1-0.1-0.3-0.1-0.4c0-0.2,0-0.3-0.1-0.5
		c-0.3,0.3-0.6,0.6-1,0.8c-0.5,0.3-1,0.4-1.5,0.4c-0.7,0-1.3-0.2-1.8-0.6c-0.5-0.4-0.7-1-0.7-1.7c0-1,0.4-1.7,1.1-2.1
		c0.4-0.2,1-0.4,1.8-0.5L54,89.8z M63.7,92.5c0.3-0.4,0.5-1,0.5-1.7c0-1-0.2-1.6-0.7-2.1c-0.3-0.2-0.7-0.4-1-0.4
		c-0.6,0-1,0.2-1.3,0.7c-0.3,0.5-0.4,1-0.4,1.7c0,0.7,0.1,1.3,0.4,1.7c0.3,0.4,0.7,0.7,1.3,0.7C63,93.1,63.4,92.9,63.7,92.5
		 M63.2,86.9c0.4,0.2,0.7,0.5,0.9,0.9V84h2.1v10.6h-2v-1.1c-0.3,0.5-0.6,0.8-1,1c-0.4,0.2-0.8,0.3-1.4,0.3c-0.9,0-1.7-0.4-2.3-1.1
		c-0.6-0.7-0.9-1.7-0.9-2.9c0-1.3,0.3-2.4,0.9-3.2c0.6-0.8,1.4-1.2,2.5-1.2C62.4,86.6,62.8,86.7,63.2,86.9 M72.4,90.8
		c-0.1,0.1-0.3,0.1-0.4,0.2c-0.2,0.1-0.4,0.1-0.5,0.1L71,91.2c-0.4,0.1-0.7,0.2-0.9,0.3c-0.3,0.2-0.5,0.5-0.5,0.9
		c0,0.3,0.1,0.6,0.3,0.8c0.2,0.2,0.4,0.2,0.7,0.2c0.4,0,0.9-0.1,1.2-0.4c0.4-0.3,0.6-0.7,0.6-1.4C72.4,91.6,72.4,90.8,72.4,90.8z
		 M71.1,89.8c0.4,0,0.7-0.1,0.8-0.2c0.3-0.1,0.4-0.3,0.4-0.6c0-0.3-0.1-0.5-0.3-0.7c-0.2-0.1-0.6-0.2-1-0.2c-0.5,0-0.8,0.1-1,0.4
		c-0.1,0.2-0.2,0.4-0.3,0.7h-2c0-0.7,0.2-1.2,0.6-1.7c0.5-0.7,1.5-1,2.8-1c0.9,0,1.6,0.2,2.3,0.5c0.7,0.3,1,1,1,1.9v3.6
		c0,0.2,0,0.6,0,0.9c0,0.3,0.1,0.5,0.1,0.5c0.1,0.1,0.2,0.2,0.3,0.2v0.3h-2.2c-0.1-0.1-0.1-0.3-0.1-0.4c0-0.2,0-0.3-0.1-0.5
		c-0.3,0.3-0.6,0.6-1,0.8c-0.5,0.3-1,0.4-1.5,0.4c-0.7,0-1.3-0.2-1.8-0.6c-0.5-0.4-0.7-1-0.7-1.7c0-1,0.4-1.7,1.1-2.1
		c0.4-0.2,1-0.4,1.8-0.5C70.4,89.9,71.1,89.8,71.1,89.8z"/>
</g>
</svg>
