<svg id="Layer_1" data-name="Layer 1" xmlns="http://www.w3.org/2000/svg" viewBox="0 0 87.02 74.4"><defs><style>.cls-1,.cls-2{fill:none;stroke-width:3.26px;}.cls-1{stroke:#416582;}.cls-2{stroke:#2da6cd;}</style></defs><path class="cls-1" d="M46.24,42.69,19,45.51A6.44,6.44,0,0,1,11.9,39.1V13a6.45,6.45,0,0,1,7-6.42L46.12,8.87A6.45,6.45,0,0,1,52,15.3v21A6.45,6.45,0,0,1,46.24,42.69Z"/><path class="cls-1" d="M43.5,66.79l27.23,2.82a6.44,6.44,0,0,0,7.11-6.41V37.07a6.45,6.45,0,0,0-7-6.42L43.61,33a6.46,6.46,0,0,0-5.9,6.43v21A6.45,6.45,0,0,0,43.5,66.79Z"/><path class="cls-2" d="M60.05,20.71l10.68,1.11a2.54,2.54,0,0,0,2.79-2.52V9.05a2.54,2.54,0,0,0-2.75-2.52l-10.68.91A2.54,2.54,0,0,0,57.78,10v8.22A2.53,2.53,0,0,0,60.05,20.71Z"/><path class="cls-2" d="M27.5,68.53l-10.68,1.1A2.52,2.52,0,0,1,14,67.12V56.87a2.53,2.53,0,0,1,2.75-2.52l10.68.91a2.53,2.53,0,0,1,2.31,2.52V66A2.54,2.54,0,0,1,27.5,68.53Z"/></svg>