<svg id="Capa_1" data-name="Capa 1" xmlns="http://www.w3.org/2000/svg" xmlns:xlink="http://www.w3.org/1999/xlink" viewBox="0 0 1200 622.87"><defs><style>.cls-1,.cls-6{fill:none;}.cls-2{clip-path:url(#clip-path);}.cls-3{clip-path:url(#clip-path-2);}.cls-4{fill:#365870;}.cls-5{fill:#2f495f;}.cls-6{stroke:#009cca;stroke-miterlimit:10;}</style><clipPath id="clip-path"><rect class="cls-1" width="1200" height="622.87"/></clipPath><clipPath id="clip-path-2"><path class="cls-1" d="M1221.71,561.65c-86.14,39.85-184,45.34-278.89,43.25C674.77,599,408.13,538.08,140.73,557.73c-53.79,3.95-109.15,11.78-155.18,39.88V-13.95H1221.71Z"/></clipPath></defs><g class="cls-2"><g class="cls-3"><path class="cls-4" d="M1221.71,561.65c-86.14,39.85-184,45.34-278.89,43.25C674.77,599,408.13,538.08,140.73,557.73c-53.79,3.95-109.15,11.78-155.18,39.88V-13.95H1221.71Z"/><path class="cls-5" d="M125.69,426c-36.4.18-73.27,3.52-107.46,16a210,210,0,0,0-58.86,33C-55,486.47-68.08,500.13-76.2,516.66-84.1,532.77-87,551-86.79,568.93-86,644-29.31,712.49,41.86,736.45c30.81,10.36,63.55,13.38,96,15.54,86.5,5.74,173.83,5.8,259.37-8.34,20.5-3.38,41.23-7.71,59.43-17.74s33.77-26.61,38-46.95C508.13,614.47,431,533.59,381.89,499.38,306.43,446.83,217,425.49,125.69,426Z"/><path class="cls-5" d="M951.87,82.06c3.54,41.53,29.64,79.25,64.4,102.24s77.3,32.3,119,32.1c31.46-.16,64.61-6.28,88.36-26.91C1238,177,1247.81,160.18,1256,143c10.5-22,18.83-45.54,19.92-69.91s-5.75-49.8-22.33-67.69c-21.84-23.55-56-30.38-88-33.42a616.44,616.44,0,0,0-82.32-2.32c-23.17.89-53-.36-74.78,8.27C969.47-6.64,948.51,42.69,951.87,82.06Z"/></g></g><path class="cls-6" d="M-12.06,559.65a1210.9,1210.9,0,0,1,331.69-8.87c111.26,12.36,220.93,35.52,332,47.81,101.05,11.17,203.43,13.57,304.71,3.89,95.46-9.12,187.92-29.14,274.59-71.38"/></svg>