<svg id="Capa_1" data-name="Capa 1" xmlns="http://www.w3.org/2000/svg" viewBox="0 0 23 23"><defs><style>.cls-1,.cls-2{fill:#00a6cf;}.cls-1{opacity:0.3;}</style></defs><path class="cls-1" d="M12.6,1.71,15,6.64a1.21,1.21,0,0,0,.92.67l5.44.79a1.22,1.22,0,0,1,.68,2.09L18.14,14a1.26,1.26,0,0,0-.35,1.09l.93,5.42a1.22,1.22,0,0,1-1.78,1.29l-4.87-2.55a1.21,1.21,0,0,0-1.14,0L6.06,21.83a1.22,1.22,0,0,1-1.78-1.29l.93-5.42A1.26,1.26,0,0,0,4.86,14L.92,10.19A1.22,1.22,0,0,1,1.6,8.1L7,7.31A1.21,1.21,0,0,0,8,6.64L10.4,1.71A1.22,1.22,0,0,1,12.6,1.71Z"/><path class="cls-2" d="M16,7.31A1.21,1.21,0,0,1,15,6.64L12.6,1.71a1.22,1.22,0,0,0-2.2,0L8,6.64A1.21,1.21,0,0,1,7,7.31L1.6,8.1a1.22,1.22,0,0,0-.68,2.09L4.86,14a1.26,1.26,0,0,1,.35,1.09l-.93,5.42a1.22,1.22,0,0,0,1.78,1.29l4.87-2.55a1.21,1.21,0,0,1,1.14,0l4.07,2.13V7.33Z"/></svg>