<svg id="Capa_1" data-name="Capa 1" xmlns="http://www.w3.org/2000/svg" xmlns:xlink="http://www.w3.org/1999/xlink" viewBox="0 0 1200 799.69"><defs><style>.cls-1{fill:none;}.cls-2{clip-path:url(#clip-path);}.cls-3{fill:#e0f2f6;}.cls-4{fill:#f2f8f9;}.cls-5{fill:#00a7cc;}.cls-6{fill:#224559;}.cls-7{fill:#f3a51a;}.cls-8{fill:#2f495f;}</style><clipPath id="clip-path"><rect class="cls-1" width="1200" height="799.69"/></clipPath></defs><g class="cls-2"><path class="cls-3" d="M213.3,16.75a130.79,130.79,0,0,0-21.23,1.75C142.46,26.71,90.35,31.89,44.22,53.26c-30.2,14-57.7,36-72.48,65.84-5.11,10.31-8.66,21.64-8.33,33.14.51,18,10.72,34.84,24.51,46.47s30.89,18.67,48.2,23.76A268.77,268.77,0,0,0,112,233.32a270.74,270.74,0,0,0,101.59-19.65c32.31-13.12,63-33.6,80.57-63.73s19.21-71.07-2.4-98.44c-19.24-24.37-48.88-34.75-78.46-34.75"/><path class="cls-4" d="M905.56,395.26c-35.21,28.95-56.2,72.9-62.69,118s.61,91.36,14.35,134.81c6.72,21.27,15.22,42.38,29.12,59.82C897,721.34,910.62,732.2,925,741.63c88.44,58.18,210.85,60.33,300.64,4.25,16.62-10.38,32.35-22.77,43.68-38.75,9.37-13.21,15.46-28.5,19.75-44.11,12.73-46.28,10-95.69-.18-142.59-7.65-35.11-20-70.25-43.65-97.3-22.14-25.32-53-42-85.34-51.18-42.3-12-82.37-7.55-125.11-9.49C987.17,360.3,944.13,363.56,905.56,395.26Z"/><path class="cls-4" d="M1083.76,255.29c-5.48,8.19-5.36,19.32-1.25,28.29s11.73,15.94,20.18,21c6.31,3.79,13.58,6.73,20.87,5.75,12.19-1.64,20.54-13.82,22.83-25.91C1152.9,250.08,1104.76,224,1083.76,255.29Z"/><path class="cls-5" d="M218.2,48.57l-47.85,15a6.14,6.14,0,0,0-4,7.7l8.83,28.22a6.15,6.15,0,0,0,7.71,4l4.63-1.45-1.74,8.29a1.44,1.44,0,0,0,2.46,1.29l13.28-14,29.21-9.14a6.16,6.16,0,0,0,4-7.71L225.9,52.6A6.14,6.14,0,0,0,218.2,48.57Z"/><path class="cls-6" d="M136.52,77.41a59,59,0,0,1-9.62-1.63c-2.82-.73-5.88-1.51-8.33-3.13-2.2-1.45-3.87-4.35-1.23-6.34s6.06-.58,8.75.55c.52.22.86-.39.81-.81a17.58,17.58,0,0,1,1.34-9.71c.57-1.21,1.72-2.58,3.1-1.51a5.91,5.91,0,0,1,1.71,3.28,87.92,87.92,0,0,1,2.39,20.12.66.66,0,0,0,1.31,0,95.83,95.83,0,0,0-1-13q-.45-3.06-1.1-6.09a11.21,11.21,0,0,0-1.68-4.52c-1.75-2.32-4.42-1.64-5.68.75a18.68,18.68,0,0,0-1.63,11l.81-.81c-3.1-1.3-6.82-2.59-9.84-.37a4.55,4.55,0,0,0-.79,6.72c2.06,2.56,5.55,3.58,8.56,4.49a59.75,59.75,0,0,0,12.15,2.29c.84.07.84-1.24,0-1.31Z"/><circle class="cls-7" cx="1122.68" cy="374.2" r="17.4"/><path class="cls-8" d="M1132,374.84a1.74,1.74,0,0,1-3.1,1.35,1.46,1.46,0,0,1-.31-.71,1.74,1.74,0,0,1,3.1-1.35A1.39,1.39,0,0,1,1132,374.84Z"/><path class="cls-8" d="M1118.15,369.41a1.74,1.74,0,0,1-3.09,1.35,1.37,1.37,0,0,1-.31-.72,1.74,1.74,0,0,1,3.09-1.35A1.37,1.37,0,0,1,1118.15,369.41Z"/><path class="cls-8" d="M1129.37,380.61l-16-6.3s-1.11,6.21,5.78,8.88S1129.37,380.61,1129.37,380.61Z"/></g></svg>