<svg id="Capa_1" data-name="Capa 1" xmlns="http://www.w3.org/2000/svg" xmlns:xlink="http://www.w3.org/1999/xlink" viewBox="0 0 278.21 315.96"><defs><style>.cls-1{fill:none;}.cls-2{clip-path:url(#clip-path);}.cls-3{fill:#216b8f;}.cls-4{fill:#00a6cc;}.cls-5{fill:#8bd2e4;}.cls-6{fill:#fccdab;}.cls-7{fill:#efa233;}.cls-8{fill:#355871;}.cls-9{fill:#eeba92;}.cls-10{fill:#f6a766;}.cls-11{fill:#1f4559;}</style><clipPath id="clip-path"><path class="cls-1" d="M20.58,126.77c-4.76,10.65-7.35,22.14-9.24,33.66-2.8,16.94-4.12,34.63,1,51,4.87,15.53,15.22,28.79,26.83,40.2,39.92,39.28,97.52,59.85,153.29,54.76,19.51-1.78,39.71-7.07,53.78-20.69,19.73-19.11,22.68-49.43,22.16-76.9-.22-11.34-.83-22.76-3.48-33.79-6.56-27.31-34.77-162-58.08-177.67C152.68-39,53.83,52.48,20.58,126.77Z"/></clipPath></defs><g class="cls-2"><path class="cls-3" d="M20.58,126.77c-4.76,10.65-7.35,22.14-9.24,33.66-2.8,16.94-4.12,34.63,1,51,4.87,15.53,15.22,28.79,26.83,40.2,39.92,39.28,97.52,59.85,153.29,54.76,19.51-1.78,39.71-7.07,53.78-20.69,19.73-19.11,22.68-49.43,22.16-76.9-.22-11.34-.83-22.76-3.48-33.79-6.56-27.31-25.47-50.64-48.78-66.29C162,72.37,53.83,52.48,20.58,126.77Z"/><path class="cls-4" d="M183.81,197.85s25.17,83.23-46.25,83.23-70.72-55.2-56.62-101.3S167.85,164.51,183.81,197.85Z"/><path class="cls-4" d="M94.46,170.76s-21-64.61,38.6-61.82,59,41,47.24,75.25S107.78,195.53,94.46,170.76Z"/><path class="cls-5" d="M94.06,200.43s-1.92,25.9-3.75,56.17c-1,17.31-.11,35.52-2.25,48.35a16.65,16.65,0,0,0,13.78,19.2c17.62,2.8,45.85,5.5,67.7-.88,7.71-2.25,11.24-9.79,11.7-17.82.9-15.95.42-34,.46-52.6.06-27.39-.44-53-.44-53,7.11,40.37,7.67,125.58,7.67,125.58,9.24,4.61,22-.66,22-.66,2.19-20.66,4.7-127.49-4.91-168.93-7.18-30.95-39.86-34.13-39.86-34.13l-57.38,3.12c-10.07.54-19.25,1.33-27.28,8.45-7.41,6.58-10.39,16.93-15.13,25.35L43.71,198.87c-1.45,2.58-2.94,5.3-3,8.26,0,3.9,2.53,7.47,5.79,9.61s7.13,3.11,10.94,4a259.29,259.29,0,0,0,42.08,5.8A86.15,86.15,0,0,0,104,199.3a6.88,6.88,0,0,0-.48-3.09,6.65,6.65,0,0,0-2.64-2.51,43.84,43.84,0,0,0-20.37-6.59,57,57,0,0,1,15.6-21"/><path class="cls-6" d="M128.48,34.94c1.6-16.94,25.94-21.29,37.14-15,6.85,3.87,13.21,10.71,15.17,22.75,4.85,29.66-.58,59.44-23.75,60.59C131.23,104.61,123.82,84.26,128.48,34.94Z"/><path class="cls-6" d="M157.3,92.85s-3.36,13.24,5.55,31.69c0,0,2.86,11.32-11.21,15.67s-36.47-15.38-36.47-15.38,14.87-15.25,12.5-53.74C127.67,71.09,148.82,70.42,157.3,92.85Z"/><path class="cls-6" d="M130.86,54.34s-.33-7.16-6.25-1.8c-7.56,6.86-1.1,19.73,4.55,19.71S130.86,54.34,130.86,54.34Z"/><path class="cls-7" d="M192.13,34.85c-.43-1.83,2.06-3.68,1.12-5.31-.78-1.33-3-.78-4.16-1.75-1.85-1.5.16-4.68-.86-6.82s-3.77-1.93-6-2.13C179,18.56,176,17,173,15.9c-14.44-5.42-32.58-3.36-43.07,8.58-9,10.21-13.08,25.53-9.9,38.81.63,2.65,1.79,5.53,4.3,6.6-1.54-3-3.12-6.26-3-9.67s3.22-9.81,7.8-8.62c3.92,1,2.05,7.58,2.52,10.35,1.23,6.86,5.3-2.9,5.67-4.1,1.25-4.17,2.73-8.67,6.34-11.11,4-2.72,9.37-2,14.19-1.39,10.56,1.35,22.23,2.93,32.41-.72a10.22,10.22,0,0,0,4.22-2.35,3.63,3.63,0,0,0,.59-4.45C194.18,36.7,192.45,36.22,192.13,34.85Z"/><path class="cls-8" d="M162.68,89.67a13.13,13.13,0,0,1-5-4.08,9.5,9.5,0,0,1-.84-1.48c-.11-.23-.1-.49.21-.58s.54.16.69.38.33.53.5.79a12.85,12.85,0,0,0,4.07,3.8,6.08,6.08,0,0,0,8.06-2.3c.24-.47.32-1.39,1.37-.85s-.07.93-.26,1.37a5.81,5.81,0,0,1-4,3.12A8.13,8.13,0,0,1,162.68,89.67Z"/><path class="cls-8" d="M150.43,58.8c.7-.33,1.85-.35,1.82-1.61,0-.72-.64-1-1.29-.95a2,2,0,0,0-1.77,1.85C149.24,58.63,149.64,58.89,150.43,58.8Z"/><path class="cls-8" d="M176,57.88a.85.85,0,0,0,.81-.8c.09-.86-1.13-1.82-2.17-1.74a.71.71,0,0,0-.73.85A2.68,2.68,0,0,0,176,57.88Z"/><path class="cls-9" d="M157.22,103a24.29,24.29,0,0,1-14.28-6.64,27.19,27.19,0,0,1-6.8-13.41c-.19-.86-1.52-.5-1.32.36a28.29,28.29,0,0,0,7.34,14.2,25.83,25.83,0,0,0,15.06,6.87c.87.11.86-1.26,0-1.38Z"/><path class="cls-10" d="M165.87,67.28a10.08,10.08,0,0,0-2.73,6.24,6.06,6.06,0,0,0,.91,3.87,3.47,3.47,0,0,0,3.5,1.52A3.55,3.55,0,0,0,170,76.2a7,7,0,0,0-.35-3.78,14.16,14.16,0,0,0-3.48-5.6"/><path class="cls-11" d="M132.54,167.63a.86.86,0,0,1,1.13.75A56.33,56.33,0,0,1,135.35,183a12.53,12.53,0,0,1-1,5.43,9.28,9.28,0,0,1-6.36,4.52,24,24,0,0,1-8,.06,10.14,10.14,0,0,1-4.73-1.39,8.1,8.1,0,0,1-1.94-2c-3.45-4.82-2.31-21-2.31-21S127.14,167.84,132.54,167.63Z"/><path class="cls-8" d="M155.76,60.25h0a6.28,6.28,0,0,0,.39,4.49,1.57,1.57,0,0,0,.86.89,1.23,1.23,0,0,0,1.34-.7,3.67,3.67,0,0,0,.27-1.61,4.68,4.68,0,0,0-.52-2.7,1.55,1.55,0,0,0-2.34-.37"/><path class="cls-8" d="M172.08,59.92h0a6.23,6.23,0,0,0,.38,4.49,1.57,1.57,0,0,0,.86.89,1.23,1.23,0,0,0,1.35-.71,3.46,3.46,0,0,0,.26-1.6,4.68,4.68,0,0,0-.52-2.7,1.54,1.54,0,0,0-2.33-.37"/><path class="cls-4" d="M100.77,135.31c4.76,12.11,5.67,25.27,6.52,38.2.64,9.73,1.24,19.79-2.15,29S94.45,219.4,90.89,228.67c-.45,1.17-.68,2.79.45,3.39a2.35,2.35,0,0,0,1.55.13c3.37-.61,5.65-3.59,7.49-6.4,7.15-10.9,13-22.89,14.72-35.69a114.27,114.27,0,0,0,.8-12.81q.28-11.73.37-23.47c.06-7.89,0-15.85-1.62-23.57-.3-1.37-.76-5-1.58-6.18-1.27-1.78-3.41-.46-5.64-.72a24.07,24.07,0,0,0-6.66.45c-2.53.4-4,1.42-3.21,3.85C98.41,130.26,99.76,132.75,100.77,135.31Z"/><path class="cls-6" d="M95.48,197.63c3.48-2.62,7.75-5.39,11.87-4,.24,1.39-.24,2.78-.38,4.17s.27,3.07,1.56,3.6a7.09,7.09,0,0,0,2.06.24,6.42,6.42,0,0,1,4.81,3.14,10.77,10.77,0,0,1,1.41,5.71,10.27,10.27,0,0,1-2.78,7.43c-2.08,2-5.11,2.6-8,2.77a35.7,35.7,0,0,1-15.23-2.43"/><path class="cls-4" d="M178.61,193.51c1,10.84,1.42,21.81,4.15,32.34,3-29.34,5.89-59.24-.14-88.1-1-4.64-2.25-9.4-5.25-13.06S161.88,112.5,161.53,120c-.31,6.73,8.15,20.06,9.67,26.73A347.33,347.33,0,0,1,178.61,193.51Z"/></g></svg>