<svg id="Capa_1" data-name="Capa 1" xmlns="http://www.w3.org/2000/svg" xmlns:xlink="http://www.w3.org/1999/xlink" viewBox="0 0 278.21 315.96"><defs><style>.cls-1,.cls-11,.cls-7,.cls-9{fill:none;}.cls-2{fill:#1d828d;}.cls-3{clip-path:url(#clip-path);}.cls-4{fill:#fccdab;}.cls-5{fill:#8bd2e4;}.cls-6{fill:#133442;}.cls-7{stroke:#355871;stroke-width:0.34px;}.cls-11,.cls-7,.cls-9{stroke-miterlimit:10;}.cls-8{fill:#355871;}.cls-9{stroke:#f6a766;stroke-width:0.76px;}.cls-10{fill:#f6a766;}.cls-11{stroke:#183b62;stroke-width:0.47px;}</style><clipPath id="clip-path"><path class="cls-1" d="M20.58,126.77c-4.76,10.65-7.35,22.14-9.24,33.66-2.8,16.94-4.12,34.63,1,51,4.87,15.53,15.22,28.79,26.83,40.2,39.92,39.28,97.52,59.85,153.29,54.76,19.51-1.78,39.71-7.07,53.78-20.69,19.73-19.11,22.68-49.43,22.16-76.9-.22-11.34-.83-22.76-3.48-33.79-6.56-27.31-34.77-162-58.08-177.67C152.68-39,53.83,52.48,20.58,126.77Z"/></clipPath></defs><path class="cls-2" d="M20.58,126.77c-4.76,10.65-7.35,22.14-9.24,33.66-2.8,16.94-4.12,34.63,1,51,4.87,15.53,15.22,28.79,26.83,40.2,39.92,39.28,97.52,59.85,153.29,54.76,19.51-1.78,39.71-7.07,53.78-20.69,19.73-19.11,22.68-49.43,22.16-76.9-.22-11.34-.83-22.76-3.48-33.79-6.56-27.31-25.47-50.64-48.78-66.29C162,72.37,53.83,52.48,20.58,126.77Z"/><g class="cls-3"><path class="cls-4" d="M115.24,156.85s13-29.77,10.78-71.18c0,0,19.6-.72,27.45,23.41,0,0-3.11,27.64,5.15,47.48,0,0,0,.26.1.68,2.62,16.48-16.3,30.63-16.3,30.63-9.11-10-17.15-20.91-23.41-26.76A17,17,0,0,1,115.24,156.85Z"/><path class="cls-5" d="M206.31,222.08c-5.07-57.62-50.35-73-50.35-73-19.27,19.86-38.59-.37-38.59-.37S69.55,160,68.89,219.44L61.1,306.52l155,.65Z"/><path class="cls-6" d="M112.13,149.51c3.7-.62,6.09-.95,6.09-.95s19.8,18.58,37.74.52a23.84,23.84,0,0,1,3.09,1.29c-1,4.46-5.39,16.79-21.59,16.79S114.09,154,112.13,149.51Z"/><path class="cls-6" d="M167.15,131.6c6-.65,12.17-3.54,14.7-8.41,8.18,1,17-4,19.21-11,1.31-4.08.28-9-3.59-11.39,8.1-7.62,9.75-19.86,3.86-28.66-2.31-3.44-5.94-6.48-10.49-7,1.82-3.08,3.68-6.26,4-9.69s-1.12-7.21-4.58-8.79a16.65,16.65,0,0,0-6.56-1A12,12,0,0,0,176,47.82c-1.13-3.63-2.09-6.91-5-10-3.6-3.8-9-5.53-14.91-6-4.72-.37-11.35-.67-15.74,1.13-2.74,1.13-4.11,3.18-4.09,5.5,0-1-4.36-2.74-5.38-3.12A27.55,27.55,0,0,0,124.42,34a50.37,50.37,0,0,0-16.61.39c-7,1.54-10.33,6.28-9.9,11.91-3.43-.22-6.2-1-9.78-.2A16.66,16.66,0,0,0,80,50.55,18.34,18.34,0,0,0,75.58,67.2c-6.69,8.4-9.18,17.78-3,26.25,1.25,1.73,6.14,5.83,7.76,4.3-4.75,9.87-.6,20.2,8.5,25.43,4.2,2.41,16.23,2.68,20.84.74,3.1,5.54,10.85,7.23,17.94,7.69,7.54.49,13.27-1.64,20.45-1.82C154.49,129.63,160.43,132.31,167.15,131.6Z"/><path class="cls-4" d="M116.44,60.76h37.75a29.33,29.33,0,0,1,12.14,17.83c6.89,28-5.76,57.73-23.1,58.79-22.45,1.38-37.67-16.68-35.08-63.88C108.46,68,111.74,63.75,116.44,60.76Z"/><path class="cls-4" d="M112.55,93.59s-.61-6.07-7-1.17c-8.11,6.26-.53,16.83,5.7,16.49S112.55,93.59,112.55,93.59Z"/><path class="cls-4" d="M165.41,90.12s0-6.5,6.81-1.92c8.68,5.84,2.14,17.8-4.11,18S165.41,90.12,165.41,90.12Z"/><path class="cls-6" d="M166.12,53.62c10.67,11.64,7,32.7,7,32.7-28,10.21-34.92-11.55-34.92-11.55-1,21-33.92,15.12-33.92,15.12s-8.56-23.9,1-36.27Z"/><path class="cls-7" d="M145.21,119.12a6.87,6.87,0,0,1-2.8,4.38,5.28,5.28,0,0,1-3.8,1,9.12,9.12,0,0,1-4.52-3.11,9.64,9.64,0,0,1-.87-1.37"/><path class="cls-8" d="M151.23,94c-.77-.36-2-.39-2-1.8,0-.79.72-1.07,1.44-1a2.18,2.18,0,0,1,2,2.06C152.56,93.8,152.12,94.09,151.23,94Z"/><path class="cls-8" d="M128.32,94.08a.94.94,0,0,1-.9-.89c-.1-1,1.25-2,2.41-1.93a.78.78,0,0,1,.81.94A3,3,0,0,1,128.32,94.08Z"/><path class="cls-8" d="M149.83,99.4a10.53,10.53,0,0,1-.54,1.67c-.73,1.4-2.16,1.51-3,.23a3.6,3.6,0,0,1-.4-3.6,2.05,2.05,0,0,1,2.22-1.5c1.21.13,1.57,1,1.65,2C149.79,98.63,149.81,99,149.83,99.4Z"/><path class="cls-8" d="M132.82,99.84a7,7,0,0,1-.39,1.33,1.77,1.77,0,0,1-1.56,1.07,1.56,1.56,0,0,1-1.5-1.09,5.44,5.44,0,0,1-.46-1.57c-.11-1.22,0-2.45,1.09-3.26a1.47,1.47,0,0,1,1.84,0C132.94,97.16,133,98.36,132.82,99.84Z"/><path class="cls-9" d="M152.39,133.56c-4.83,2.81-11,4.69-16.59,4.1-4.48-.48-9.29-2.37-12.4-5.63"/><path class="cls-10" d="M140.74,106.84a10.09,10.09,0,0,0,2.42.6c1.57.33,4.35,1.7,3.67,3.79a1.82,1.82,0,0,1-1.13,1.07,7.81,7.81,0,0,1-4.46-.21,4,4,0,0,1-3.44-3.89c0-.56,0-3.12.78-3.22.55-.08,1.29,1.26,1.67,1.56A2.48,2.48,0,0,0,140.74,106.84Z"/><line class="cls-11" x1="100.17" y1="201.68" x2="93.66" y2="302.61"/><line class="cls-11" x1="175.52" y1="201.68" x2="182.04" y2="302.61"/></g></svg>