<svg id="Capa_1" data-name="Capa 1" xmlns="http://www.w3.org/2000/svg" xmlns:xlink="http://www.w3.org/1999/xlink" viewBox="0 0 278.21 315.96"><defs><style>.cls-1,.cls-11{fill:none;}.cls-2{fill:#8bc8d4;}.cls-3{clip-path:url(#clip-path);}.cls-4{clip-path:url(#clip-path-2);}.cls-5{fill:#f1a33d;}.cls-6{fill:#ea7632;}.cls-7{fill:#fccdab;}.cls-8{fill:#0fa5cf;}.cls-9{fill:#355871;}.cls-10{fill:#eeba92;}.cls-11{stroke:#355871;stroke-linecap:round;stroke-linejoin:round;stroke-width:0.9px;}.cls-12{fill:#f6a766;}</style><clipPath id="clip-path"><path class="cls-1" d="M20.58,126.77c-4.76,10.65-7.35,22.14-9.24,33.66-2.8,16.94-4.12,34.63,1,51,4.87,15.53,15.22,28.79,26.83,40.2,39.92,39.28,97.52,59.85,153.29,54.76,19.51-1.78,39.71-7.07,53.78-20.69,19.73-19.11,22.68-49.43,22.16-76.9-.22-11.34-.83-22.76-3.48-33.79-6.56-27.31-34.77-162-58.08-177.67C152.68-39,53.83,52.48,20.58,126.77Z"/></clipPath><clipPath id="clip-path-2"><rect class="cls-1" x="49.83" y="14.43" width="178.56" height="292.74"/></clipPath></defs><path class="cls-2" d="M20.58,126.77c-4.76,10.65-7.35,22.14-9.24,33.66-2.8,16.94-4.12,34.63,1,51,4.87,15.53,15.22,28.79,26.83,40.2,39.92,39.28,97.52,59.85,153.29,54.76,19.51-1.78,39.71-7.07,53.78-20.69,19.73-19.11,22.68-49.43,22.16-76.9-.22-11.34-.83-22.76-3.48-33.79-6.56-27.31-25.47-50.64-48.78-66.29C162,72.37,53.83,52.48,20.58,126.77Z"/><g class="cls-3"><g class="cls-4"><path class="cls-5" d="M174.85,346c7.62-2.22,11.11-9.67,11.56-17.59.41-7.17,1.25-14.95.69-22.09-.6-7.76-2.73-15.32-3.07-23.19-.65-15.33,1.52-30.61,4.88-45.53,2.9-12.89,3-24.66-3.37-36.43,2.68,16.25,3.82,32.77,4.86,49.19,2,32.54,3.13,65.16,3.61,97.76,9.12,4.54,21.7-.66,21.7-.66,1-.41.79-11.12.85-12.3.34-6.59.56-13.18.73-19.77.45-17.42-4.38-33.2-4.66-50.61C212,225,204.49,164.45,174.45,147.68c-4.55-2.53-10.07-2.63-15.21-3.53-11.75-2.06-23.87-3.85-35.53-1.33-8.08,1.74-15.58,5.49-22.78,9.54-8.85,5-17,12.07-21.16,21.72-1.87,4.31-3.42,8.09-4.12,12.7C70.78,218.56,69.18,251,67.17,283q-2,31.77-3.51,63.58s13.11,5.94,21.66.7c0,0,17.64-99.71,16.86-145.85,0,0,2.25,48.85.45,78.76-1,17.09-6.14,35-8.25,47.68a16.43,16.43,0,0,0,13.61,19C125.4,349.63,153.27,352.29,174.85,346Z"/><path class="cls-6" d="M114,147.08a47.11,47.11,0,0,0,24.72,33.5c6.74-5.17,12.69-11.37,13.07-20,3.94,7.23,15.56,11.91,23.71,13.12a1.63,1.63,0,0,0,1.54-.31,1.61,1.61,0,0,0,.27-.95,29.6,29.6,0,0,0-14.51-27.61"/><path class="cls-7" d="M125.1,52.46C127,32.67,155.39,27.59,168.48,35c8,4.52,15.42,12.5,17.72,26.57,5.66,34.64-.69,69.43-27.75,70.77C128.31,133.83,119.66,110.07,125.1,52.46Z"/><path class="cls-7" d="M156.64,114s-3.15,13.08,6.12,30.81c0,0,3.06,11-11,15.75s-36.93-13.74-36.93-13.74,14.7-15.46,11.66-53.05C126.48,93.78,147.74,92.36,156.64,114Z"/><path class="cls-7" d="M127.88,75.12s-.38-8.37-7.3-2.1c-8.83,8-1.29,23,5.32,23S127.88,75.12,127.88,75.12Z"/><path class="cls-8" d="M187.76,53.9c-.69-5.33-.55-7.6-3.48-12.12-9-13.94-46.19-14.45-57.54-1.54-10.49,11.93-15.28,29.82-11.56,45.33.74,3.1,2.09,6.46,5,7.72-1.8-3.57-3.64-7.32-3.52-11.31s3.76-11.45,9.11-10.07c4.57,1.19,2.39,8.87,2.94,12.1,1.17,6.82,5.28-1.55,6.29-3.9,2.9-6.73,6.53-11.83,14.12-14.15,3.65-1.11,7.53-1.29,11.2-2.35s7.34-3.33,8.53-7c2.49,8,16.75,7.21,18.7,15.36A64.63,64.63,0,0,0,187.76,53.9Z"/><path class="cls-9" d="M165.05,116.38a15.19,15.19,0,0,1-5.84-4.77,9.86,9.86,0,0,1-1-1.72c-.14-.27-.12-.58.24-.67s.63.18.8.43.39.62.59.93a14.85,14.85,0,0,0,4.76,4.43,6.14,6.14,0,0,0,4.82.64,6.21,6.21,0,0,0,4.59-3.32c.27-.54.37-1.62,1.59-1,1.07.55-.08,1.08-.3,1.6a6.88,6.88,0,0,1-4.73,3.65A9.49,9.49,0,0,1,165.05,116.38Z"/><path class="cls-9" d="M150.74,80.33c.81-.38,2.16-.41,2.12-1.88,0-.84-.75-1.13-1.51-1.11a2.26,2.26,0,0,0-2.06,2.16C149.34,80.13,149.81,80.44,150.74,80.33Z"/><path class="cls-9" d="M180.58,79.25a1,1,0,0,0,.94-.94c.1-1-1.32-2.12-2.53-2a.82.82,0,0,0-.85,1A3.1,3.1,0,0,0,180.58,79.25Z"/><path class="cls-10" d="M157.08,131.42a28.31,28.31,0,0,1-16.67-7.76c-4.22-4.26-6.66-9.86-7.95-15.66-.22-1-1.77-.58-1.55.43,1.37,6.15,4.05,12.1,8.58,16.58,4.76,4.7,11,7.15,17.59,8,1,.13,1-1.47,0-1.61Z"/><path class="cls-11" d="M154.41,84.84c.45,1.53.61,2.15,2,2.71,2.62,1.06,4.11-2,4-4.17"/><path class="cls-11" d="M176.17,83.16a5,5,0,0,0,3.23,4.68,2.81,2.81,0,0,0,1.49.13c1.83-.43,1.41-3,1.33-4.37"/><path class="cls-8" d="M101.81,36C91.39,41.7,83.87,51.24,78.05,61.84,71.89,73.05,66.85,86,64.86,98.67c-.22,1.47-1.86,17-.7,17.12l15.1,1.12c2.61.19,5.22.4,7.83.58,3.23.23,3.07-.23,3.3-3.42.6-8.25-1.07-16.5-.37-24.75A79.66,79.66,0,0,1,94,70c4-11.47,11.12-23.21,22.79-28,3.68-1.52,13.82-1.58,15.39-6,3.14-8.89-18.57-4.49-22.09-3.43A43.88,43.88,0,0,0,101.81,36Z"/><polygon class="cls-6" points="132.08 29.78 136.13 34.05 127.13 43.28 122.4 42.38 132.08 29.78"/><circle class="cls-12" cx="148.36" cy="95.42" r="1.18"/><circle class="cls-12" cx="153.86" cy="92.93" r="0.92"/><circle class="cls-12" cx="153.07" cy="99.08" r="1.05"/><circle class="cls-12" cx="178.71" cy="94.24" r="0.92"/><circle class="cls-12" cx="178.71" cy="99.08" r="0.78"/><circle class="cls-12" cx="182.24" cy="97.12" r="0.65"/><path class="cls-12" d="M165.54,100.05c-.17.63-.29,1.42.23,1.8a1.58,1.58,0,0,0,.8.23,50.59,50.59,0,0,0,5.22.19,1.56,1.56,0,0,0,.61-.09c.53-.25.57-1,.52-1.58-.29-4.09-.65-8.36-2.8-11.85-.67-1.08-1.19-.78-1.45.23-.32,1.26-.71,2.5-1.06,3.75Z"/></g></g></svg>