<svg id="Layer_1" data-name="Layer 1" xmlns="http://www.w3.org/2000/svg" viewBox="0 0 59 57"><defs><style>.cls-1{fill:#00a7ce;}</style></defs><path class="cls-1" d="M37.17,31c4.84-1.13,8-3.33,8-6s-3.17-4.86-8-6c2.48-.88,4.22-2.23,4.22-4,0-3.38-6.1-5.21-11.84-5.21S17.66,11.63,17.66,15c0,1.8,1.74,3.15,4.22,4-4.86,1.13-8,3.34-8,6s3.14,4.85,8,6C14.81,32.28,10,35.24,10,38.78c0,4.72,8.56,8.42,19.5,8.42S49,43.5,49,38.78C49,35.24,44.19,32.28,37.17,31ZM19.62,15c0-1.32,3.85-3.24,9.88-3.24s9.88,1.92,9.88,3.24S35.73,18.14,30,18.24H29C23.27,18.14,19.62,16.3,19.62,15Zm-3.8,10c0-2.23,5.61-4.72,13.2-4.83h1c7.59.11,13.2,2.6,13.2,4.83s-5.85,4.84-13.68,4.84S15.82,27.32,15.82,25ZM29.5,45.23C19.16,45.23,12,41.83,12,38.78s7.2-6.46,17.54-6.46S47,35.72,47,38.78,39.84,45.23,29.5,45.23Z"/></svg>