<svg id="Capa_1" data-name="Capa 1" xmlns="http://www.w3.org/2000/svg" xmlns:xlink="http://www.w3.org/1999/xlink" viewBox="0 0 223.99 222.22"><defs><style>.cls-1{fill:none;}.cls-2{clip-path:url(#clip-path);}.cls-3{fill:#36a7cb;}.cls-4{opacity:0.23;}.cls-5,.cls-8{fill:#fff;}.cls-6{opacity:0.26;}.cls-7{fill:#193a62;}.cls-8{opacity:0.21;}.cls-9{fill:#86d1dc;}.cls-10{clip-path:url(#clip-path-2);}.cls-11{fill:#eaf6f8;}.cls-12{fill:#2b3d4f;}.cls-13{clip-path:url(#clip-path-3);}.cls-14{fill:#4a7595;}.cls-15{fill:#daecf8;}</style><clipPath id="clip-path"><rect class="cls-1" width="223.99" height="222.3" rx="25.94"/></clipPath><clipPath id="clip-path-2"><rect class="cls-1" x="-16.49" y="65.05" width="102.22" height="92.49"/></clipPath><clipPath id="clip-path-3"><rect class="cls-1" x="-13.44" y="65.05" width="102.22" height="92.49"/></clipPath></defs><g class="cls-2"><rect class="cls-3" width="223.99" height="222.22"/><g class="cls-4"><path class="cls-5" d="M11.92,163.75l14.84,2a.3.3,0,0,0,.29-.48l-12.8-16.89a.3.3,0,0,0-.54.14L11.66,163.4a.31.31,0,0,0,.26.35Zm2.29-14.38,2.09,2.77-.73.55a.3.3,0,0,0,.37.48l.73-.55,1.1,1.46-.72.55a.3.3,0,0,0-.06.43.29.29,0,0,0,.42.05l.73-.55,1.1,1.46-.72.55a.3.3,0,0,0,.36.49l.73-.56L20.72,158l-.73.55a.3.3,0,0,0-.06.43.31.31,0,0,0,.43.06l.72-.55,1.11,1.45-.73.55a.31.31,0,0,0-.06.43.31.31,0,0,0,.43.06l.72-.55,1.11,1.45-.73.56a.3.3,0,1,0,.37.48l.73-.55,2.09,2.76-13.81-1.9Zm0,0"/><path class="cls-5" d="M16,155a.3.3,0,0,0-.32-.11.31.31,0,0,0-.22.25l-.84,6.07a.31.31,0,0,0,.26.34l6.07.84a.31.31,0,0,0,.28-.49Zm-.73,6,.69-5,4.34,5.72Zm0,0"/></g><g class="cls-6"><path class="cls-7" d="M21.49,49.32c-.69.14-2.78-.6-4.34-1.72a5.12,5.12,0,0,1-2.34-3.29c-.2-1,.11-3.43,2.33-3.87a3,3,0,0,1,2.66.62,3.12,3.12,0,0,1,2.33-1.62,2.77,2.77,0,0,1,2.06.5,3.92,3.92,0,0,1,1.5,2.11,5,5,0,0,1-.85,4C23.83,47.68,22.18,49.19,21.49,49.32Z"/></g><path class="cls-8" d="M80,57.51A19.06,19.06,0,0,0,77.73,52l1.89-3.5-4.83-4.83L71.3,45.56a19.33,19.33,0,0,0-5.51-2.28l-1.14-3.8H57.82l-1.14,3.81a19,19,0,0,0-5.49,2.28l-3.51-1.89-4.84,4.83L44.75,52a19.05,19.05,0,0,0-2.24,5.46l-3.86,1.15v6.84l3.88,1.16a19.22,19.22,0,0,0,2.24,5.4l-1.93,3.57,4.84,4.84,3.66-2a35.49,35.49,0,0,0,5.35,2.25l1.11,3.93h6.85l1.17-3.9a19.32,19.32,0,0,0,5.4-2.23l3.57,1.93,4.83-4.84-1.91-3.55A18.92,18.92,0,0,0,80,66.64l3.85-1.15V58.65ZM61.25,54a8,8,0,1,1-8,8,8,8,0,0,1,8-8"/><path class="cls-5" d="M99.67,106.46v4.15h-.83v-10h3a2.59,2.59,0,0,1,2,.81,3.53,3.53,0,0,1,0,4.27,2.61,2.61,0,0,1-2,.8Zm0-.72h2.14a1.73,1.73,0,0,0,1.45-.63,2.86,2.86,0,0,0,0-3.17,1.73,1.73,0,0,0-1.45-.63H99.67Z"/><path class="cls-5" d="M111.05,105.76h-3.94v4.15h4.52v.7h-5.35v-10h5.31v.73h-4.48v3.75h3.94Z"/><path class="cls-5" d="M114,106.07v4.54h-.83v-10H116a2.84,2.84,0,0,1,2.07.71,2.76,2.76,0,0,1,.71,2.06,2.66,2.66,0,0,1-.37,1.42,2.26,2.26,0,0,1-1.08.92,1.81,1.81,0,0,1,1.1.84,3.15,3.15,0,0,1,.33,1.51v1a3.61,3.61,0,0,0,.09.84,1.31,1.31,0,0,0,.31.61v.16h-.85a1.37,1.37,0,0,1-.29-.69A4.64,4.64,0,0,1,118,109v-.92a2.21,2.21,0,0,0-.46-1.45,1.58,1.58,0,0,0-1.27-.54Zm0-.7h2a2,2,0,0,0,1.56-.54,2.09,2.09,0,0,0,.49-1.47,2.2,2.2,0,0,0-.48-1.52,1.9,1.9,0,0,0-1.47-.53H114Z"/><path class="cls-5" d="M125.8,105.94h-4v4.67H121v-10h5.37v.73h-4.55v3.9h4Z"/><path class="cls-5" d="M128.85,110.61H128v-10h.84Z"/><path class="cls-5" d="M132.06,109.91h4.06v.7h-4.89v-10h.83Z"/><path class="cls-5" d="M101.24,128.27l.16.62h0l.18-.62L104,120h.9l-3.09,10H101L98,120h.9Z"/><path class="cls-5" d="M112.06,126.41a4.06,4.06,0,0,1-.85,2.78,3,3,0,0,1-2.33,1,2.88,2.88,0,0,1-2.29-1,4.16,4.16,0,0,1-.83-2.78V123.6a4.21,4.21,0,0,1,.83-2.8,2.85,2.85,0,0,1,2.28-1,3,3,0,0,1,2.34,1,4.12,4.12,0,0,1,.85,2.79Zm-.82-2.83a3.46,3.46,0,0,0-.61-2.24,2.15,2.15,0,0,0-1.76-.75,2,2,0,0,0-1.7.75,3.52,3.52,0,0,0-.59,2.24v2.83a3.59,3.59,0,0,0,.59,2.26,2,2,0,0,0,1.71.75,2.13,2.13,0,0,0,1.75-.75,3.52,3.52,0,0,0,.61-2.26Z"/><path class="cls-5" d="M119.39,127.1l0,0a3.14,3.14,0,0,1-.77,2.24,2.78,2.78,0,0,1-2.09.77,2.73,2.73,0,0,1-2.2-1,4.29,4.29,0,0,1-.81-2.79v-2.78a4.24,4.24,0,0,1,.82-2.79,2.68,2.68,0,0,1,2.19-1,2.86,2.86,0,0,1,2.1.76,3.14,3.14,0,0,1,.76,2.26l0,0h-.77a2.64,2.64,0,0,0-.55-1.76,1.94,1.94,0,0,0-1.52-.56,1.91,1.91,0,0,0-1.61.77,3.7,3.7,0,0,0-.58,2.25v2.8a3.76,3.76,0,0,0,.58,2.28,1.89,1.89,0,0,0,1.61.78,1.94,1.94,0,0,0,1.52-.56,2.65,2.65,0,0,0,.55-1.79Z"/><path class="cls-5" d="M125.71,127.23h-3.66l-.86,2.78h-.85l3.18-10h.75l3.14,10h-.86Zm-3.43-.76h3.2l-1.57-5.16h0Z"/><path class="cls-5" d="M134.18,127.1l0,0a3.14,3.14,0,0,1-.77,2.24,2.78,2.78,0,0,1-2.09.77,2.73,2.73,0,0,1-2.2-1,4.29,4.29,0,0,1-.81-2.79v-2.78a4.24,4.24,0,0,1,.82-2.79,2.68,2.68,0,0,1,2.19-1,2.86,2.86,0,0,1,2.1.76,3.14,3.14,0,0,1,.76,2.26l0,0h-.77a2.64,2.64,0,0,0-.55-1.76,1.94,1.94,0,0,0-1.52-.56,1.91,1.91,0,0,0-1.61.77,3.7,3.7,0,0,0-.58,2.25v2.8a3.76,3.76,0,0,0,.58,2.28,1.89,1.89,0,0,0,1.61.78,1.94,1.94,0,0,0,1.52-.56,2.65,2.65,0,0,0,.55-1.79Z"/><path class="cls-5" d="M137,130h-.83V120H137Z"/><path class="cls-5" d="M145.24,126.41a4.06,4.06,0,0,1-.85,2.78,3,3,0,0,1-2.33,1,2.85,2.85,0,0,1-2.28-1,4.1,4.1,0,0,1-.83-2.78V123.6a4.21,4.21,0,0,1,.82-2.8,2.85,2.85,0,0,1,2.28-1,3,3,0,0,1,2.34,1,4.07,4.07,0,0,1,.85,2.79Zm-.82-2.83a3.46,3.46,0,0,0-.61-2.24,2.14,2.14,0,0,0-1.76-.75,2,2,0,0,0-1.7.75,3.59,3.59,0,0,0-.59,2.24v2.83a3.65,3.65,0,0,0,.59,2.26,2.06,2.06,0,0,0,1.71.75,2.12,2.12,0,0,0,1.75-.75,3.52,3.52,0,0,0,.61-2.26Z"/><path class="cls-5" d="M153.28,130h-.83l-4.48-8.4h0V130h-.83V120h.83l4.48,8.4h0V120h.83Z"/><path class="cls-5" d="M160.14,127.23h-3.66l-.86,2.78h-.85L158,120h.75l3.14,10H161Zm-3.43-.76h3.2l-1.57-5.16h0Z"/><path class="cls-5" d="M164,129.31h4.05v.7h-4.88V120H164Z"/><path class="cls-7" d="M75,59.62v.06s0,.07,0,.09v0l8.23,11.37a.28.28,0,0,0,.31.1l2.14-.67,3.83,3.88a.28.28,0,0,0,.15.08.27.27,0,0,0,.17,0,.26.26,0,0,0,.13-.14l0,0h0l2.65-5.47v0L98.11,67a.32.32,0,0,0,.21-.3.3.3,0,0,0-.2-.29L75.4,59.34h-.14a.28.28,0,0,0-.15.08h0l0,0,0,.05v.1ZM92.56,68.3,79,61.2l0-.1,17.91,5.57.15,0ZM81.32,63.23l.05-.09L92.1,68.75l0,0L90,73.09l-.11-4s0,0,0,0V69a.25.25,0,0,0-.1-.12Zm5.08,7.19,3-.93.11,3.92v.12Zm-9.88-9.63L88.94,69l-5.29,1.65Z"/><circle class="cls-9" cx="87.94" cy="151.26" r="8.05"/><path class="cls-5" d="M89.33,154.65l-.39-.44a2.42,2.42,0,0,0,.52-1.47,2.93,2.93,0,0,1,.75-1.63,2.78,2.78,0,0,0,.76-2.47c-.4-1.5-2.26-1.67-3-1.67h0c-.78,0-2.64.17-3,1.67a2.78,2.78,0,0,0,.76,2.47,2.88,2.88,0,0,1,.76,1.63,2.42,2.42,0,0,0,.52,1.47l-.39.44a3.06,3.06,0,0,1-.72-1.89h0a2.57,2.57,0,0,0-.64-1.3,3.28,3.28,0,0,1-.85-3c.51-1.9,2.69-2.1,3.61-2.1h0a5.66,5.66,0,0,1,1.85.29,2.66,2.66,0,0,1,1.76,1.81,3.33,3.33,0,0,1-.85,3,2.5,2.5,0,0,0-.64,1.3h0A3.13,3.13,0,0,1,89.33,154.65Z"/><path class="cls-5" d="M88.24,154.34h-.58c0-.12,0-.29,0-.51a17.13,17.13,0,0,0,0-2.57,1.52,1.52,0,0,1-1.3-.4A1.41,1.41,0,0,1,86,149.3a.81.81,0,0,1,.92-.41,1.34,1.34,0,0,1,.94.82A1.5,1.5,0,0,1,89,148.65a.74.74,0,0,1,.82.51c.07.21.17,1-1.27,1.77a2,2,0,0,1-.36.17,17.3,17.3,0,0,1,0,2.76C88.25,154.07,88.24,154.23,88.24,154.34Zm-1.51-4.88a.19.19,0,0,0-.2.11.84.84,0,0,0,.23.87.93.93,0,0,0,.8.24c-.12-.64-.35-1.14-.74-1.21Zm2.39-.23h0c-.22,0-.64.32-.83,1.21l0,0c.83-.46,1-.9,1-1.09A.18.18,0,0,0,89.12,149.23Z"/><path class="cls-5" d="M89.59,154.66a.31.31,0,0,1-.33.29H86.58a.31.31,0,0,1-.33-.29v-.15a.31.31,0,0,1,.33-.3h2.68a.31.31,0,0,1,.33.3Z"/><path class="cls-5" d="M89.59,155.33a.31.31,0,0,1-.33.29H86.58a.31.31,0,0,1-.33-.29v-.16a.31.31,0,0,1,.33-.29h2.68a.31.31,0,0,1,.33.29Z"/><path class="cls-5" d="M88.87,155.59c0,.35-.42.64-1,.64s-1-.29-1-.64"/><g class="cls-10"><path class="cls-11" d="M57.76,153.48C79.55,144.33,91.42,116.62,83,94.53S47.32,59.63,25,67.27a77.9,77.9,0,0,0-14.78,7.32c-8.46,5.1-16.87,11-21.91,19.47C-20,108-17,127-6.52,139.33s27.2,18.4,43.4,18.21a55.84,55.84,0,0,0,20.88-4.06"/></g><polygon class="cls-12" points="31.85 74.25 27.97 77.29 38.35 149.23 46.08 147.78 36.18 76.32 31.85 74.25"/><g class="cls-13"><path class="cls-12" d="M18.27,148.89l.7,4.53a1.2,1.2,0,0,0,1.38,1l45.38-7.31a1.21,1.21,0,0,0,1-1.4l-.89-4.8a1.2,1.2,0,0,0-1.38-1l-45.19,7.58a1.2,1.2,0,0,0-1,1.37"/></g><polygon class="cls-14" points="8.21 88.11 52.56 78.71 62.67 84.18 55.98 93.71 11.13 102.9 8.21 88.11"/><polygon class="cls-14" points="56.51 116.72 10.44 120.22 0.97 113.33 9.02 104.6 55.58 101.32 56.51 116.72"/><g class="cls-13"><path class="cls-15" d="M34.18,90.81a.48.48,0,0,1-.48.49.49.49,0,1,1,0-1,.48.48,0,0,1,.48.48"/><path class="cls-15" d="M36.89,110.52a.49.49,0,1,1-.49-.48.48.48,0,0,1,.49.48"/></g></g></svg>