<svg id="Layer_1" data-name="Layer 1" xmlns="http://www.w3.org/2000/svg" viewBox="0 0 59 57"><defs><style>.cls-1{fill:#ef7622;}</style></defs><path class="cls-1" d="M48.84,23.9a8.17,8.17,0,0,1-2.21-2.69A8.49,8.49,0,0,1,46.41,18a9.05,9.05,0,0,0-.67-4.66,10.39,10.39,0,0,0-7.17-6.2l-1-.34c-1.16-.27-4.63-1.27-4.41.43.14,1,2.92,1.19,4.42,1.72a.68.68,0,0,0,.2.07h0c.77.18,4.65,1.26,6.06,5a7.12,7.12,0,0,1,.55,3.78,10.55,10.55,0,0,0,.27,3.88c.33,1.33,1.57,2.52,2.77,3.67.92.87,2.06,2,2.08,2.59A1.44,1.44,0,0,1,49,29a9,9,0,0,1-.82.72,6.21,6.21,0,0,0-.92.84,2.09,2.09,0,0,0-.35.58,9.27,9.27,0,0,0-.3,2.46c-.1,1.75-.3,5-1.06,5.89a2,2,0,0,1-.65.46c-1.65.8-4.95,1-6.31.91a2.34,2.34,0,0,0-.92.23l.35.7-.35-.7a15.76,15.76,0,0,0-3.84,3.43A17.78,17.78,0,0,0,31,49.46a1,1,0,0,0,.67,1.26,1,1,0,0,0,.3,0,1,1,0,0,0,1-.72,15.94,15.94,0,0,1,2.44-4.21,14,14,0,0,1,3.18-2.9l0,0c.64,0,4.76.06,7.18-1.12a3.93,3.93,0,0,0,1.3-1c1.1-1.29,1.35-4,1.54-7.08a11.6,11.6,0,0,1,.18-1.87,5.88,5.88,0,0,1,.64-.56,9,9,0,0,0,1-.9,3.38,3.38,0,0,0,1.09-2.54C51.49,26.44,50.2,25.2,48.84,23.9Z"/><path class="cls-1" d="M17.82,22v-.89a.5.5,0,0,0-.5-.51H11.53a2.17,2.17,0,1,1,0-4.33h0a.93.93,0,0,0,.69-.31,1,1,0,0,0,.24-.76c0-.11,0-.22,0-.33a2.62,2.62,0,0,1,2.61-2.62,2.66,2.66,0,0,1,1.4.41.94.94,0,0,0,1.44-.6,4.84,4.84,0,0,1,9.58,1v.15A1,1,0,0,0,28,14a1,1,0,0,0,1,0,3.5,3.5,0,1,1,1.75,6.53h-4a.51.51,0,0,0-.5.51V22a.5.5,0,0,0,.5.5h4a5.41,5.41,0,1,0,0-10.81,5.33,5.33,0,0,0-1.38.18A6.74,6.74,0,0,0,16.42,10.5a4.61,4.61,0,0,0-1.33-.2,4.51,4.51,0,0,0-4.49,4.12,4.07,4.07,0,0,0,.93,8h5.79A.5.5,0,0,0,17.82,22Z"/><path class="cls-1" d="M26.54,23.42H24l2.15-3.86a.81.81,0,0,0,0-.81.83.83,0,0,0-.7-.41H20.34a.83.83,0,0,0-.76.51l-2.82,6.77a.82.82,0,0,0,.08.76.81.81,0,0,0,.68.37h1.85l-1,5.82a.83.83,0,0,0,.46.87.85.85,0,0,0,.35.08.82.82,0,0,0,.62-.28l7.33-8.47a.81.81,0,0,0,.13-.87A.83.83,0,0,0,26.54,23.42Zm-5.4,2.65A.82.82,0,0,0,21,25.4a.8.8,0,0,0-.62-.28h-1.6L20.88,20H24l-2.15,3.86a.82.82,0,0,0,.72,1.22h2.16L20.49,30Z"/><path class="cls-1" d="M32.4,26.16a.34.34,0,0,0-.37-.09L31,26.43l.36-1.93a.36.36,0,0,0-.47-.4l-2.13.71a.37.37,0,0,0-.25.32l-.23,3.23a.4.4,0,0,0,.14.31.35.35,0,0,0,.34.06l.78-.26.41,2.58a.37.37,0,0,0,.32.3.39.39,0,0,0,.15,0,.36.36,0,0,0,.22-.2l1.88-4.59A.34.34,0,0,0,32.4,26.16Z"/><path class="cls-1" d="M15.13,25.37h-.82l.7-1.23a.3.3,0,0,0,0-.26.28.28,0,0,0-.23-.13l-1.62,0a.27.27,0,0,0-.25.16L12,26a.28.28,0,0,0,0,.25.27.27,0,0,0,.22.11h.59l-.32,1.86a.27.27,0,0,0,.14.28l.11,0a.29.29,0,0,0,.2-.09l2.37-2.69a.24.24,0,0,0,0-.28A.25.25,0,0,0,15.13,25.37Z"/></svg>