<?xml version="1.0" encoding="utf-8"?>
<!-- Generator: Adobe Illustrator 26.1.0, SVG Export Plug-In . SVG Version: 6.00 Build 0)  -->
<svg version="1.1" id="Capa_1" xmlns="http://www.w3.org/2000/svg" xmlns:xlink="http://www.w3.org/1999/xlink" x="0px" y="0px"
	 viewBox="0 0 150 162.5" style="enable-background:new 0 0 150 162.5;" xml:space="preserve">
<style type="text/css">
	.st0{fill:#775F40;}
	.st1{fill:#00A7CE;}
	.st2{fill:#EAC4B0;}
	.st3{clip-path:url(#SVGID_00000172437007382484068290000017633027605150574734_);}
	.st4{fill:#E9F5F7;}
	.st5{fill:#1A3744;}
	.st6{fill:#BC948E;}
	.st7{fill:#FFFFFF;}
	.st8{fill:#CD9993;}
</style>
<path class="st0" d="M48.6,114.8c0.4,1.4,1.2,2.7,2.2,3.7c1.1,0.8,2.5,1.2,3.8,1.1c11.4,0.7,23,1.4,34.1-2.1c2.5-0.7,4.8-2,6.7-3.7
	c2.1-2.2,3.4-5.3,4.4-8.5c2.2-7,3.3-14.3,3.3-21.6c0-4.1-0.5-8.5-2.9-11.3c-2.8-3.3-7.2-3.2-11-2.8l-21.9,1.9
	C61.5,71.8,43.4,71,42,78.6C39.9,89.1,45.1,105.4,48.6,114.8z"/>
<path class="st1" d="M99,108.6c-9.2,0.1-18.4,0.2-27.7,0.5c-10.3,0.3-20.8,0.7-30.5,3.4C28.7,115.8,18.4,123,13,131.8
	c-1.6,2.6-2.8,5.7-1.5,8.4s5.1,4.5,8.7,5.8c9.3,3.1,19.7,4.2,29.9,4.8c11.5,0.7,23.1,0.9,34.6,0.5c14.4-0.4,29.7-1.8,41.2-8.3
	c3.4-1.9,6.5-4.4,8.2-7.3C143.5,118.5,115.8,108.4,99,108.6z"/>
<path class="st1" d="M20.1,146c9.3,3.1,19.7,4.2,29.9,4.8c11.5,0.7,23.1,0.9,34.6,0.5c10.1-0.3,20.4-0.9,30.2-3.8
	c9.3-2.7,18.2-7.3,27.1-11.4c0.5-0.2,1.1-0.6,1.3-1.1c0.1-0.5,0-1-0.3-1.4c-8.3-16.5-25.8-25.2-43.9-25c-9.2,0.1-18.4,0.2-27.7,0.5
	c-10.3,0.3-20.8,0.7-30.5,3.4c-12.2,3.4-22.5,10.6-27.9,19.4C11,135,8.6,137,7,140.2c-0.2,0.2-0.2,0.5-0.2,0.8
	c0.1,0.3,0.3,0.5,0.6,0.6C11.7,143.9,15.5,144.4,20.1,146z"/>
<path class="st2" d="M52.5,119.8c-2.4,2-5.1,3.6-6.9,6.2c-3.3,5-1.5,12.3,2.7,16.5s10.3,5.8,16.1,6.3c6.3,0.6,12.6,0.3,18.7-1
	c2.8-0.5,5.4-1.5,7.8-3.1c2.6-2,4.2-4.9,5.7-7.8c1.8-3.2,3.5-6.6,4.1-10.2s-0.3-7.8-3.2-10.1c-1.5-1.2-3.3-1.8-4.6-3.3
	c-3-3.6-0.2-14-1.5-18.5c-1-2.9-3.5-0.4-6.5-1.4c-5.8-2.2-18.9-3.7-22.4,3.2c-1.8,3.6-1.3,8.3-2.7,12.2
	C58.6,113,56,116.8,52.5,119.8z"/>
<g>
	<defs>
		<path id="SVGID_1_" d="M99,108.6c-9.2,0.1-18.4,0.2-27.7,0.5c-10.3,0.3-20.8,0.7-30.5,3.4C28.7,115.8,18.4,123,13,131.8
			c-1.6,2.6-2.8,5.7-1.5,8.4s5.1,4.5,8.7,5.8c9.3,3.1,19.7,4.6,29.9,5.2c11.5,0.7,23,0.9,34.5,0.5c14.4-0.4,29.8-2.2,41.3-8.7
			c3.4-1.9,6.5-4.4,8.2-7.3C143.5,118.5,115.8,108.4,99,108.6z"/>
	</defs>
	<clipPath id="SVGID_00000025415890136323182930000010642200705364196782_">
		<use xlink:href="#SVGID_1_"  style="overflow:visible;"/>
	</clipPath>
	<g style="clip-path:url(#SVGID_00000025415890136323182930000010642200705364196782_);">
		<path class="st4" d="M62.4,129.5c4.8,4.5,10.8,6.2,16,3.4c7.9-4.1,12-7.3,17.7-17c1.3-2.2,3.3-4.3,4.8-2.6c0.9,1.1,1.1,3,1.2,4.8
			c0.7,10.4,1.1,22.2-3.3,30c-3.6,6.4-9.3,8.2-14.7,9.1c-8.8,1.5-17.8,1.4-26.6-0.2c-3.2-0.6-6.4-1.4-9.1-4.1
			c-3.7-3.6-6-10.8-5.5-17.6c0.3-4.7,4-17.3,8-15.1c1.4,0.8,1,1.8,2.1,3.7C54.8,127.3,60,127.2,62.4,129.5z"/>
	</g>
</g>
<path class="st2" d="M43.4,51.4c-1.1,8.3-0.3,16.7,0.5,25c0.9,9.1,6.5,15.5,13,21.6c6.3,6,14.2,13.4,22.8,9.2
	c2.9-1.6,5.5-3.5,7.8-5.8c5.6-5.9,8.2-9,11-16.4c5-13.1,4.2-29,0.8-42.4c-1.8-7-4.1-14.4-10-19.1c-4.9-3.9-11.8-5.3-18.3-4.6
	C53.2,20.9,45.4,36.4,43.4,51.4z"/>
<path class="st5" d="M62.2,55.1c-1.2,0.1-2,2.6-1.5,4.1s2,2.3,3,1.5c1-0.9,1.4-2.3,1-3.6C64.5,55.9,63.4,55,62.2,55.1"/>
<path class="st5" d="M84.2,55.2c-1.2,0.1-2,2.6-1.5,4.1s2,2.3,3,1.5c1-0.9,1.4-2.3,1-3.6C86.5,56,85.4,55.2,84.2,55.2"/>
<path class="st6" d="M81.8,75.3c-3.4,1.5-7.1,2.1-10.8,1.7c-0.5,0-1-0.2-1.3-0.6c-0.3-0.5-0.3-1.2-0.2-1.8l2.4-14.3
	c0.9-5.3,3.5-1.9,4.6,0.9C78.4,65.9,80.1,70.7,81.8,75.3z"/>
<path class="st7" d="M65.2,84.4c3.2,0.7,6.6,1,9.9,0.7c3.7-0.2,7.3-1.1,10.6-2.7c-1,4.5-4.6,8-9.2,8.6
	C68.6,92.1,65.2,84.4,65.2,84.4z"/>
<path class="st8" d="M50.4,68.6c-1.5,3.6-0.1,7.7,3.2,9.7c3.4,1.6,7.5,0.4,9.5-2.9C68,66.4,54.5,59.6,50.4,68.6z"/>
<path class="st8" d="M84.2,68.6c-1.5,3.6-0.1,7.7,3.2,9.7c3.4,1.7,7.6,0.4,9.5-2.9C101.8,66.4,88.3,59.6,84.2,68.6z"/>
<path class="st5" d="M65.7,50c-3.6-0.3-7.3,0.5-10.5,2.2c-0.7,0.4-0.1,1.5,0.7,1.1c3-1.6,6.5-2.3,9.9-2C66.5,51.4,66.5,50.1,65.7,50
	L65.7,50z"/>
<path class="st5" d="M93.3,51.4c-3.4-1.5-7.1-2-10.8-1.5C82.2,50,82,50.3,82,50.7c0,0,0,0,0,0c0.1,0.3,0.4,0.5,0.8,0.5
	c3.3-0.5,6.7,0,9.8,1.4C93.4,52.8,94.1,51.7,93.3,51.4z"/>
<path class="st6" d="M61.2,102.6c5.1,3.8,12.1,7.8,18.4,4.3c0.3-0.2,0.4-0.6,0.2-0.9c-0.2-0.3-0.5-0.3-0.8-0.2
	c-5.8,3.3-12.4-0.8-17.1-4.3C61.2,101,60.6,102.1,61.2,102.6z"/>
<path class="st0" d="M83.6,36.9c2,1.1,3.9,2.2,5.6,3.3c2.3,1.5,5.4,3.2,7.1,5.4c2.4,3.2,1.5,4.9,2,8.9c0.3,3.1,1.1,5.7,1.6,8.6
	c1.3,6.7,1.1,13.7,0.5,20.6c-0.6,7.4-8.1,12.5-8.1,13c-1.3,10.1-1.9,43.9-5.4,53.3l7.6-4.5c1.5-0.8,2.9-1.8,4.1-2.9
	c2.6-2.5,4.3-8.8,5.6-12.4c2.3-6.8,4.2-13.7,5.7-20.8c2-9.7,1.2-21,1.4-31.1c0.2-11.8,1.5-23.5-1.4-34.6
	C107,32.5,94.9,16.3,86.9,11.5c-7.8-4.6-19.5-3.8-27.1,0.7c-0.4,0.2-0.8,0.5-1.1,0.9c-0.5,0.7-0.3,1.7-0.1,2.5
	C61.4,25.9,73.8,31.6,83.6,36.9z"/>
<path class="st0" d="M48,50c-2.4,4.2-4.8,8.6-4.8,13.1c-0.1,6.8,0.5,11.3,2.1,19.4c2.5,12.9,15.1,18,15.7,19.3
	c1.5,3.4-1.4,19.9-2,23.6c-0.6,4-1.2,7.9-0.9,12c0.3,4.2,1.2,8.5,2,12.6c-3.4-0.3-6.6-1.7-9.5-3.6c-2.5-1.6-4.9-3.5-7-5.6
	c-1.9-1.9-2.9-4.5-4.2-6.9c-2.6-5-5-10.1-6-15.6c-1.5-8.2-2.2-16.4-2.1-24.7c-0.8-15.6-1.5-32.3,1-47.8c1-6.4,2.8-12.8,6.2-18
	c2.7-4.3,12.7-15,18.2-12.8c1.4,0.6,2,1.5,3.1,2.6c0.8,0.7,1.5,1.5,2.1,2.4c5.2,7.8-2.7,13.8-7,19.7C52.7,42.7,50.2,46.2,48,50z"/>
</svg>
