<svg id="Layer_1" data-name="Layer 1" xmlns="http://www.w3.org/2000/svg" viewBox="0 0 59 57"><defs><style>.cls-1{fill:#00a7ce;}</style></defs><path class="cls-1" d="M50.22,22.68A8,8,0,0,1,48,20a8.76,8.76,0,0,1-.22-3.2,8.77,8.77,0,0,0-.64-4.49C45.49,7.82,41,6.5,40,6.26L39.8,6.2a22.69,22.69,0,0,0-10.55-.14c-2.2.53-13.17,3.67-12.46,13a.87.87,0,1,0,1.74-.13C17.93,11,27.7,8.23,29.66,7.76a21.36,21.36,0,0,1,9.51.08,1.06,1.06,0,0,0,.25.09l.12,0c.78.18,4.6,1.26,6,5a7.06,7.06,0,0,1,.54,3.73,10.12,10.12,0,0,0,.27,3.76c.31,1.27,1.51,2.42,2.67,3.53.91.87,2.05,1.95,2.07,2.61a1.58,1.58,0,0,1-.55,1.13,6.64,6.64,0,0,1-.81.71,7.57,7.57,0,0,0-.87.8,2,2,0,0,0-.33.54,9.21,9.21,0,0,0-.29,2.38c-.1,1.72-.29,4.92-1.06,5.81a2,2,0,0,1-.67.48c-1.75.85-5.14.94-6.21.9a1.59,1.59,0,0,0-.64.12.9.9,0,0,0-.61.32,18.59,18.59,0,0,0-3.31,3.08A17.06,17.06,0,0,0,33,47.58a.86.86,0,0,0,.58,1.09.73.73,0,0,0,.25,0,.88.88,0,0,0,.84-.62,15.56,15.56,0,0,1,2.4-4.15,14.15,14.15,0,0,1,3.14-2.86h0l.08,0c.5,0,4.61.07,7-1.08a3.76,3.76,0,0,0,1.23-.91c1.06-1.24,1.3-3.83,1.48-6.85a9.72,9.72,0,0,1,.21-1.89,4.93,4.93,0,0,1,.64-.57,10.46,10.46,0,0,0,1-.86,3.24,3.24,0,0,0,1-2.4C52.78,25.12,51.53,23.93,50.22,22.68Z"/><path class="cls-1" d="M24.9,37.63a4.37,4.37,0,0,0-3-1.42A5.1,5.1,0,0,0,17.78,38l-.24.31L17.3,38a4.77,4.77,0,0,0-3.94-1.79c-3.55,0-4.77,3.64-4.78,5.3h0c-.12,1.9.8,4,2.66,6,2.26,2.41,5.36,4.16,6.35,4.16S21.71,49.86,24,47.4c1.87-2,2.77-4.11,2.61-6A6.21,6.21,0,0,0,24.9,37.63Zm-1.39,9c-2.21,2.47-5.23,4.11-5.91,4.13h0c-.69,0-3.73-1.67-5.93-4.13-1.1-1.22-2.37-3.1-2.24-5.12v0c0-1.41,1-4.49,4-4.49a3.9,3.9,0,0,1,3.83,2.39.42.42,0,0,0,.39.27h0a.41.41,0,0,0,.39-.31c0-.1.62-2.35,3.91-2.35,2.23,0,3.7,2.61,3.86,4.42C25.93,43.5,24.63,45.42,23.51,46.68Z"/><path class="cls-1" d="M17.59,52c-1.18,0-4.39-1.91-6.61-4.28C9.05,45.65,8.09,43.5,8.22,41.5c0-1.77,1.32-5.65,5.14-5.65a5.18,5.18,0,0,1,4.18,1.86,5.47,5.47,0,0,1,4.36-1.86,4.68,4.68,0,0,1,3.25,1.52h0a6.51,6.51,0,0,1,1.79,4c.17,2-.77,4.18-2.71,6.29C22,50.06,18.78,52,17.59,52ZM13.36,36.57C10.08,36.57,9,40,8.94,41.51c-.12,1.83.77,3.8,2.57,5.72,2.31,2.47,5.29,4.05,6.08,4.05s3.8-1.61,6.11-4.12c1.8-2,2.67-3.94,2.52-5.74a5.78,5.78,0,0,0-1.58-3.54h0a4,4,0,0,0-2.74-1.31,4.73,4.73,0,0,0-3.83,1.64l-.52.68L17,38.22A4.47,4.47,0,0,0,13.36,36.57Zm4.25,14.6c-.93,0-4.07-1.82-6.24-4.25C10.23,45.65,8.9,43.68,9,41.54c0-1.53,1.09-4.87,4.32-4.87a4.28,4.28,0,0,1,4.18,2.64h.1c0-.11.72-2.63,4.26-2.63,2.44,0,4,2.82,4.22,4.76.18,2.16-1.17,4.18-2.34,5.49h0C21.59,49.36,18.47,51.14,17.61,51.17ZM13.36,37.4c-2.69,0-3.6,2.83-3.6,4.13a7.17,7.17,0,0,0,2.15,4.91,14.55,14.55,0,0,0,5.68,4,14.46,14.46,0,0,0,5.65-4c1.07-1.21,2.32-3,2.16-4.95-.15-1.7-1.56-4.09-3.5-4.09-3,0-3.54,2-3.56,2.08a.77.77,0,0,1-.72.58h0a.79.79,0,0,1-.77-.52A3.54,3.54,0,0,0,13.36,37.4Z"/></svg>