<svg id="Capa_1" data-name="Capa 1" xmlns="http://www.w3.org/2000/svg" xmlns:xlink="http://www.w3.org/1999/xlink" viewBox="0 0 278.21 315.96"><defs><style>.cls-1{fill:none;}.cls-2{clip-path:url(#clip-path);}.cls-3{fill:#00a6cc;}.cls-4{fill:#355871;}.cls-5{fill:#ea7632;}.cls-6{fill:#d27733;}.cls-7{fill:#fccdab;}.cls-8{fill:#1f4559;}.cls-9{fill:#efa233;}.cls-10{fill:#fff;}.cls-11{fill:#f6a766;}.cls-12{fill:#eeba92;}</style><clipPath id="clip-path"><path class="cls-1" d="M20.58,126.77c-4.76,10.65-7.35,22.14-9.24,33.66-2.8,16.94-4.12,34.63,1,51,4.87,15.53,15.22,28.79,26.83,40.2,39.92,39.28,97.52,59.85,153.29,54.76,19.51-1.78,39.71-7.07,53.78-20.69,19.73-19.11,22.68-49.43,22.16-76.9-.22-11.34-.83-22.76-3.48-33.79-6.56-27.31-34.77-162-58.08-177.67C152.68-39,53.83,52.48,20.58,126.77Z"/></clipPath></defs><g class="cls-2"><path class="cls-3" d="M20.58,126.77c-4.76,10.65-7.35,22.14-9.24,33.66-2.8,16.94-4.12,34.63,1,51,4.87,15.53,15.22,28.79,26.83,40.2,39.92,39.28,97.52,59.85,153.29,54.76,19.51-1.78,39.71-7.07,53.78-20.69,19.73-19.11,22.68-49.43,22.16-76.9-.22-11.34-.83-22.76-3.48-33.79-6.56-27.31-25.47-50.64-48.78-66.29C162,72.37,53.83,52.48,20.58,126.77Z"/><path class="cls-4" d="M189,222.31s25.27,62.81-46.45,62.81-71-41.66-56.86-76.45S172.92,197.15,189,222.31Z"/><path class="cls-4" d="M99.21,173S78.11,107.4,138,110.23s59.27,41.66,47.45,76.45S112.59,198.21,99.21,173Z"/><path class="cls-5" d="M171,327.2c7.84-2.29,11.42-9.95,11.89-18.1.92-16.21.43-34.54.47-53.44.06-27.83-.45-53.87-.45-53.87,7.22,41,7.79,127.59,7.79,127.59,9.39,4.67,22.33-.68,22.33-.68,2.22-21,4.78-129.52-5-171.62-7.29-31.44-40.49-34.68-40.49-34.68l-58.3,3.17S79,122.14,71.21,151.86s-14.55,176-14.55,176,13.49,6.11,22.28.71c0,0,6.3-87.7,15.42-126.15,0,0-2,26.31-3.81,57.07-1.06,17.58-.12,36.08-2.29,49.12a16.91,16.91,0,0,0,14,19.5C120.17,330.94,148.84,333.68,171,327.2Z"/><path class="cls-6" d="M113.72,125.33l53.87-2.93.69,0c3,7.71,9.91,37.57-17.81,19.27C150.47,141.71,118.81,170.28,113.72,125.33Z"/><path class="cls-7" d="M129.33,34.27c1.63-17.22,26.35-21.63,37.73-15.2C174,23,180.48,30,182.48,42.19c4.92,30.12-.6,60.38-24.14,61.55C132.12,105.05,124.6,84.38,129.33,34.27Z"/><path class="cls-7" d="M158.61,93.1s-3.41,13.46,5.64,32.19c0,0,2.9,11.51-11.39,15.92s-37.06-15.62-37.06-15.62S130.92,110.1,128.5,71C128.5,71,150,70.32,158.61,93.1Z"/><path class="cls-7" d="M131.75,54s-.33-7.28-6.35-1.83c-7.68,7-1.12,20.05,4.62,20S131.75,54,131.75,54Z"/><path class="cls-8" d="M187.54,35.18s-1.27-21.81-33-23c-15.12-.55-25.55,10-26.9,15.59a5.47,5.47,0,0,1-.39,1.13c-.26.49-.34,2.34-1.47,2.24-7.26-.7-10,17.24-.45,20.81l.07.17s7.54-5.72,6.52,5.8c-1.35,15.23,6,6.78,7.38-13.3C139.3,44.65,187.6,53.8,187.54,35.18Z"/><path class="cls-9" d="M70.31,155.89c34.58,4.59,115.18-1.48,136.5-3.22.48,1.41.91,2.87,1.27,4.41.24,1,.45,2.09.67,3.16-48,7.95-123.7,4.86-139.77,4.09C69.4,161.15,69.84,158.31,70.31,155.89Z"/><path class="cls-9" d="M67.56,177.07c36.37,1.59,121.75-3.69,143.07-5.07.41,3.25.77,6.67,1.08,10.24-39.25,6-123.17,4.32-144.92,3.77C67,182.91,67.29,179.92,67.56,177.07Z"/><path class="cls-4" d="M182.86,202s4.8-57.22-1-75.51c0,0,9.24-4,11.63,4.63,0,0,10.84,73.58-10.36,85.22l-.27-4Z"/><path class="cls-4" d="M94.36,202.4s1.84-47.7,7.93-76.88c0,0-6.43-4.92-12.65,2.5,0,0-11.81,86.29,5.15,84.67Z"/><path class="cls-6" d="M107.2,175.77l22.19-.44s3.29,25.6-10.58,25.88S107.2,175.77,107.2,175.77Z"/><path class="cls-4" d="M116.41,162l.18,9.09a1.6,1.6,0,0,1-1.64,1.64l.06,2.87-2.23,0-.33-16.53,2.75,0,0,1.51A1.38,1.38,0,0,1,116.41,162Z"/><path class="cls-10" d="M115.2,159.08s0-1.84-1.43-1.81-1.32,1.86-1.32,1.86Z"/><path class="cls-4" d="M164.08,89.87A13.22,13.22,0,0,1,159,85.72a9.36,9.36,0,0,1-.86-1.5c-.11-.23-.1-.5.21-.58s.55.16.7.38.34.54.51.81a13.14,13.14,0,0,0,4.14,3.85,5.37,5.37,0,0,0,4.2.56,5.44,5.44,0,0,0,4-2.89c.24-.48.32-1.41,1.39-.86.92.47-.07.94-.27,1.39a6,6,0,0,1-4.11,3.17A8.29,8.29,0,0,1,164.08,89.87Z"/><path class="cls-4" d="M151.63,58.51c.71-.33,1.88-.35,1.85-1.64,0-.72-.66-1-1.31-1a2,2,0,0,0-1.8,1.88C150.42,58.34,150.82,58.6,151.63,58.51Z"/><path class="cls-4" d="M177.59,57.57a.86.86,0,0,0,.82-.81c.09-.87-1.15-1.85-2.21-1.76a.7.7,0,0,0-.73.85A2.68,2.68,0,0,0,177.59,57.57Z"/><path class="cls-4" d="M152.91,63.45a10.15,10.15,0,0,0,.5,1.53,1.49,1.49,0,0,0,2.74.2,3.29,3.29,0,0,0,.36-3.28,1.86,1.86,0,0,0-2-1.37c-1.1.11-1.43.9-1.5,1.87C153,62.75,152.94,63.1,152.91,63.45Z"/><path class="cls-4" d="M173.43,62.42a5.15,5.15,0,0,0,.32,1.06,1.41,1.41,0,0,0,1.24.86,1.29,1.29,0,0,0,1.2-.87,4,4,0,0,0,.36-1.26,2.55,2.55,0,0,0-.87-2.6,1.15,1.15,0,0,0-1.46,0C173.33,60.27,173.31,61.23,173.43,62.42Z"/><path class="cls-11" d="M166,73.11a8.49,8.49,0,0,1,1.74-.18c1.18,0,2.36-.12,3.53-.21q3.54-.3,7-.89a2.8,2.8,0,0,1,2.26.25,2,2,0,0,1,.63,1.3,4.7,4.7,0,0,1-2.83,4.47,13.79,13.79,0,0,1-5.5,1l-3.55.16a7.37,7.37,0,0,1-2.48-.16c-1.91-.58-3.68-3.52-1.91-5.19A2.46,2.46,0,0,1,166,73.11Z"/><path class="cls-12" d="M158.52,103.13a24.3,24.3,0,0,1-14.33-6.68,27.3,27.3,0,0,1-6.86-13.52c-.26-1.17-2.05-.67-1.79.49A29,29,0,0,0,143.06,98c4.19,4.14,9.7,6.28,15.46,7,1.19.16,1.17-1.7,0-1.86Z"/></g></svg>