<svg id="Capa_1" data-name="Capa 1" xmlns="http://www.w3.org/2000/svg" viewBox="0 0 23 23"><defs><style>.cls-1{fill:#00a6cf;}.cls-2{fill:#fff;}</style></defs><circle class="cls-1" cx="11.5" cy="11.5" r="10.19"/><path class="cls-2" d="M16.08,14.93a6.19,6.19,0,0,1-9.25,0Z"/><path class="cls-2" d="M17.32,11.2a.39.39,0,0,1-.39-.39,1.2,1.2,0,0,0-2.39,0,.38.38,0,0,1-.39.39.39.39,0,0,1-.39-.39,2,2,0,0,1,4,0A.39.39,0,0,1,17.32,11.2Z"/><path class="cls-2" d="M8.85,11.2a.38.38,0,0,1-.39-.39,1.2,1.2,0,0,0-2.39,0,.4.4,0,0,1-.79,0,2,2,0,0,1,4,0A.39.39,0,0,1,8.85,11.2Z"/></svg>