<svg id="Capa_1" data-name="Capa 1" xmlns="http://www.w3.org/2000/svg" viewBox="0 0 594.87 448.11"><defs><style>.cls-1{fill:#365870;}.cls-2{fill:#d86a31;}.cls-3{fill:#fcceaf;}.cls-4{fill:#2c3e4f;}.cls-5{fill:#00a6cc;}.cls-6{fill:#ea7632;}.cls-7{fill:#224559;}.cls-8{fill:#f2c362;}.cls-10,.cls-11,.cls-12,.cls-13,.cls-8,.cls-9{fill-rule:evenodd;}.cls-14,.cls-9{fill:#ee9b35;}.cls-10{fill:#2e4050;}.cls-11{fill:#16354a;}.cls-12{fill:#94a4a2;}.cls-13{fill:#ea7732;}.cls-15,.cls-16,.cls-19{fill:#ceebf1;}.cls-15{opacity:0.77;}.cls-17,.cls-24{fill:none;stroke-linecap:round;}.cls-17{stroke:#2c4a5e;stroke-linejoin:round;stroke-width:2.55px;}.cls-18{fill:#8dd1e4;stroke:#8dd1e4;stroke-width:2.9px;}.cls-18,.cls-24{stroke-miterlimit:10;}.cls-19{opacity:0.52;}.cls-20{fill:#fff;}.cls-21{opacity:0.62;}.cls-22{fill:#345470;}.cls-23{fill:#c4753f;}.cls-24{stroke:#224559;stroke-width:0.5px;}</style></defs><path class="cls-1" d="M60.65,297.15v0c.09-.51.16-1,.21-1.52.77-7.4-2.5-21.36-18.76-20.74,0,0-13.46.25-16.22,13.12,0,0-1.21,5.94-2,10.25,0,0,.53,8.47-6.92,11.12S6,316,8.12,321.46s.77,4.87-3.31,11S3,345.83,10.4,348c9.31,2.72,14.54-8.32,27-4.87s30.37-3,30.26-12.39-10.12-13.06-10.81-17.67S60.36,301.8,60.65,297.15Z"/><path class="cls-2" d="M95.41,387.56c-24.3-32.66-38.74-69.38-38.74-69.38l2.23,31.65s20.72,34.71,27.94,42.44C89.72,392.27,95.41,391.3,95.41,387.56Z"/><polygon class="cls-3" points="146.59 419.32 153.38 424.14 148.87 430.28 141.39 425.58 146.59 419.32"/><path class="cls-4" d="M152,424.77s-.94-3,0-4.15,15.16-5.09,18.09-7.84,4.84-.43,5.62,1-19,25.18-19,25.18-7.91-4.7-9.59-7.16S150.7,427.67,152,424.77Z"/><path class="cls-5" d="M145.43,426a12.25,12.25,0,0,1-1,.77,15.07,15.07,0,0,1-2.51,1.45s-28-16.78-45.27-33.33c0,0-29.56,16-45.83,10.92a2.36,2.36,0,0,1-1-.88h0a9.82,9.82,0,0,1-.73-1.18c-1.59-3-2.95-8.41.05-11.61,0,0,34.05-15.14,49.5-11.4s50.14,38.19,50.14,38.19C149.11,421.59,147.71,424.06,145.43,426Z"/><polygon class="cls-3" points="132.75 428.44 139.54 433.26 135.04 439.4 127.55 434.7 132.75 428.44"/><path class="cls-1" d="M138.15,433.89s-.94-3,0-4.15,15.16-5.09,18.1-7.85,4.84-.42,5.61,1-19,25.18-19,25.18-7.92-4.7-9.59-7.17S136.87,436.78,138.15,433.89Z"/><path class="cls-5" d="M130.39,433.94a8.46,8.46,0,0,1-1,.82,18.48,18.48,0,0,1-2,1.39s-29.64-13.8-48.49-28.48c0,0-32.58,16.76-49.54,14.81-13.35-1.51-11.74-22.05-8.16-27.61,0,0,42.51-3.61,58.26-1.48S132.82,427,132.82,427C133.42,429.74,132.45,432,130.39,433.94Z"/><path class="cls-6" d="M57.84,370.86C57.2,382,56.78,382,60,391.59c-18.78,6.67-25.21,8-40.36,7.44-.55-9.13-1.14-19.87-.88-29.44.8-28.48,3-46.26,3-46.26l7.82-3,8-3.1,13.59.69,2.86.15,2.67.13a212.73,212.73,0,0,0,7.12,25.89c3.5,9.68-.52,11.62-2.71,13.93l-.25.27a4.37,4.37,0,0,0-.74,1.14c-.06.13-.11.26-.16.4-.14.37-.27.78-.39,1.22A75.24,75.24,0,0,0,57.84,370.86Z"/><path class="cls-3" d="M50.17,317.85c1,4.31,3.1,13-3.36,13.19-7.77.2-15.54-7.45-17.27-10.73l8-3.1Z"/><path class="cls-2" d="M67.7,386.93c-11-7-25.79-20.79-25.79-20.79s-6.51-7.77-20.19-42.81c0,0-7.34,8.46-2.25,27.41,5,18.46,12.94,25.08,12.94,25.08S52.8,390.43,63.6,394.05C65.3,391.2,66.14,389.85,67.7,386.93Z"/><rect class="cls-4" x="48.62" y="389.37" width="61.41" height="4.64" rx="0.4" transform="matrix(1, -0.1, 0.1, 1, -38.6, 9.84)"/><polygon class="cls-1" points="110.11 390.94 60.12 395.78 72.58 367.13 122.58 362.3 110.11 390.94"/><polygon class="cls-4" points="107 391.24 107 391.25 57 396.09 69.47 367.45 72.58 367.14 60.12 395.78 107 391.24"/><path class="cls-4" d="M95.16,378.66a3.2,3.2,0,1,1-3.5-2.87A3.2,3.2,0,0,1,95.16,378.66Z"/><path class="cls-3" d="M55.12,297.48s2.57-2.68,4.05-.12-1.62,9.43-5.62,7.3Z"/><path class="cls-3" d="M36,310.63l-.83,8.71s3.75,3.5,6.88,4.08,4.57-3,4.57-3l.77-8.1Z"/><path class="cls-3" d="M56.18,300.92c-.18.83-.38,1.68-.61,2.51C54,309,49.87,314.77,45.25,315.36c-10,1.29-13.29-6.77-14.32-12.57-.11-.65.28-1.34.22-2.09a55.35,55.35,0,0,1-.65-5.85c0-1.38.07-2.74.13-4a8,8,0,0,1,5.69-7.36C41,282.17,47.93,281.4,54,285.8A8.1,8.1,0,0,1,57.3,293,60.81,60.81,0,0,1,56.18,300.92Z"/><path class="cls-1" d="M53.33,291c3.65,2.1,2,6.52,3.08,8.92.07.15.15.19.25.12A60.33,60.33,0,0,0,57.82,292a8.22,8.22,0,0,0-3.49-7.35c-6.43-4.51-13.75-3.75-18.65-2.39a8.18,8.18,0,0,0-6,7.49c-.06,1.25-.11,2.63-.12,4,.59.44,2.12.76,2.09,1.78-.08,2.71-.13,4.56.45,4.46,1-.18,1.87-3.39,1-5.6,0,0,1-1.34,4.69-2.37a69.05,69.05,0,0,0,9.37-3.5,8.27,8.27,0,0,0,2.6-1.95A8.15,8.15,0,0,0,53.33,291Z"/><path class="cls-7" d="M48.55,298.69c-.08.83.28,1.55.81,1.6s1-.59,1.11-1.42-.29-1.55-.82-1.6S48.63,297.85,48.55,298.69Z"/><path class="cls-7" d="M39,297.52c-.08.84.29,1.55.82,1.6s1-.58,1.1-1.42-.28-1.55-.81-1.6S39.12,296.69,39,297.52Z"/><path class="cls-4" d="M47.84,306.82a4.33,4.33,0,0,1-4.72,3.36c-3.15-.3-3.83-2.62-4-4.19Z"/><path class="cls-3" d="M31.61,295.21s-2.35-3.49-4.15-1.3-.23,9.28,3.78,8Z"/><path class="cls-4" d="M11.71,437.88c0-9.12,14.79-16.51,33-16.51s33,7.39,33,16.51"/><path class="cls-8" d="M514.12,33.9a3,3,0,0,1,.46-1.39Z"/><path class="cls-9" d="M514.72,32.09A3.37,3.37,0,0,1,515,31a22.37,22.37,0,0,0,.1-9.67,21.73,21.73,0,0,0-9.52-14.07A17.91,17.91,0,0,0,502,5.42c-.08,0-.18,0-.2-.14l-1.11-.37-1.18-.39s0,0,0,.06a19.63,19.63,0,0,0-7.54-.64c-9,1.1-15.16,6-18.71,14.24-.25.75-.5,1.49-.74,2.24a19,19,0,0,0-.42,6.46,47.11,47.11,0,0,0,2,9.32c1,3.41,2.32,6.74,2.86,10.29l4.94,1.63V30.82q0-4.32,0-8.66a.55.55,0,0,1,.34-.57q1.64-.78,3.24-1.62c.28-.14.41-.13.55.17.53,1.11,1.11,2.21,1.65,3.32.11.23.2.26.43.14,1.1-.57,2.23-1.11,3.33-1.68.27-.14.37-.08.5.17.52,1.08,1.06,2.15,1.6,3.21.06.13.09.29.25.35a.85.85,0,0,0,.37-.15c1.06-.53,2.13-1.05,3.18-1.59.29-.15.43-.14.58.18.53,1.1,1.09,2.18,1.63,3.28.12.27.24.3.5.17,1.1-.57,2.21-1.1,3.3-1.67.25-.13.35-.09.47.15.52,1.08,1.05,2.16,1.61,3.22a.65.65,0,0,1-.07.81c-1.8,2.38-3.58,4.78-5.37,7.17l-10,13.38-.13.17,4.39,1.48.48.19s0,0,.05,0c.73-.67,1.45-1.36,2.24-2,1.79-1.41,3.67-2.7,5.52-4A51.25,51.25,0,0,0,510.12,40a20.63,20.63,0,0,0,3.29-4.58,6.83,6.83,0,0,1,.59-1.14l.12-.35a3,3,0,0,1,.46-1.39Z"/><path class="cls-10" d="M490.77,64.3l-8.37-2.78-.53-.17h0l-8.9-3c-.29.87-.58,1.76-.89,2.62-.1.29-.05.4.24.49,1.32.43,2.63.88,3.95,1.32l4.62,1.52c.16-.5.32-1,.49-1.49-.17.5-.33,1-.49,1.49l4.59,1.54,4,1.33c.23.07.34.07.42-.19C490.17,66.1,490.47,65.2,490.77,64.3Z"/><path class="cls-11" d="M491.76,61.32l-8.89-3h0l-1,3h0l.53.17,8.37,2.78Z"/><path class="cls-11" d="M474,55.4c-.33,1-.66,2-1,3l8.89,3,1-3Z"/><path class="cls-11" d="M485.46,52.65l-.62-.22h0l-8.89-3-1,3,8.88,3h0l8.9,3,1-3Z"/><path class="cls-10" d="M484.83,52.44l-8.89-3,1-3,4.94,1.63,1.25.41.37.14,2.33.8c-.32,1-.65,2-1,3Z"/><path class="cls-10" d="M484.84,52.43c.33-1,.66-2,1-3v0c.89.33,1.79.63,2.71.9l1.26.42,4.39,1.48.48.19,0,0c-.32,1-.65,2-1,2.94l-8.27-2.76Z"/><path class="cls-10" d="M483.84,55.43h0l-8.88-3-1,2.93,8.88,3h0l8.89,3,1-2.94Z"/><path class="cls-11" d="M476.27,62.81l4.62,1.52,4.59,1.54a6.17,6.17,0,0,1-5,1.56,4.27,4.27,0,0,1-2.28-1.14A6.72,6.72,0,0,1,476.27,62.81Z"/><path class="cls-12" d="M494.7,52.47l0,0s0,0,.05,0A.05.05,0,0,1,494.7,52.47Z"/><path class="cls-13" d="M489.8,50.77l-1.26-.42c.07-.11.13-.23.21-.34l10.32-13.75c1.41-1.88,2.82-3.76,4.25-5.64a.51.51,0,0,0,.05-.66c-.2-.32-.39-.65-.56-1s-.21-.29-.48-.14c-1.1.59-2.22,1.13-3.33,1.69-.25.12-.38.07-.5-.19-.53-1.09-1.09-2.16-1.61-3.25-.15-.32-.29-.34-.58-.19-1.18.6-2.37,1.18-3.55,1.76-.06-.12-.14-.23-.2-.35-.54-1.08-1.09-2.15-1.62-3.24-.13-.29-.25-.3-.51-.16-1.07.55-2.16,1.08-3.24,1.63-.28.15-.4.13-.54-.17-.54-1.13-1.12-2.23-1.66-3.35-.12-.23-.22-.28-.45-.15a4.14,4.14,0,0,1-1,.43c-.36.1-.47.34-.47.72,0,1.71,0,3.43,0,5.15,0,5.4,0,10.8,0,16.2,0,1,0,2.11,0,3.17l-1.25-.41V30.82q0-4.32,0-8.66a.55.55,0,0,1,.34-.57q1.64-.78,3.24-1.62c.28-.14.41-.13.55.17.53,1.11,1.11,2.21,1.65,3.32.11.23.2.26.43.14,1.1-.57,2.23-1.11,3.33-1.68.27-.14.37-.08.5.17.52,1.08,1.06,2.15,1.6,3.21.06.13.09.29.25.35a.85.85,0,0,0,.37-.15c1.06-.53,2.13-1.05,3.18-1.59.29-.15.43-.14.58.18.53,1.1,1.09,2.18,1.63,3.28.12.27.24.3.5.17,1.1-.57,2.21-1.1,3.3-1.67.25-.13.35-.09.47.15.52,1.08,1.05,2.16,1.61,3.22a.65.65,0,0,1-.07.81c-1.8,2.38-3.58,4.78-5.37,7.17l-10,13.38Z"/><path class="cls-14" d="M503.37,30c-.2-.32-.39-.65-.56-1s-.21-.29-.48-.14c-1.1.59-2.22,1.13-3.33,1.69-.25.12-.38.07-.5-.19-.53-1.09-1.09-2.16-1.61-3.25-.15-.32-.29-.34-.58-.19-1.18.6-2.37,1.18-3.55,1.76-.06-.12-.14-.23-.2-.35-.54-1.08-1.09-2.15-1.62-3.24-.13-.29-.25-.3-.51-.16-1.07.55-2.16,1.08-3.24,1.63-.28.15-.4.13-.54-.17-.54-1.13-1.12-2.23-1.66-3.35-.12-.23-.22-.28-.45-.15a4.14,4.14,0,0,1-1,.43c-.36.1-.47.34-.47.72,0,1.71,0,3.43,0,5.15,0,5.4,0,10.8,0,16.2,0,1,0,2.11,0,3.17l.37.14,2.33.8v0c.89.33,1.79.63,2.71.9.07-.11.13-.23.21-.34l10.32-13.75c1.41-1.88,2.82-3.76,4.25-5.64A.51.51,0,0,0,503.37,30Z"/><path class="cls-15" d="M241.6,13.59C212.41,5.26,179,5,154.8,7.44,109.07,12.09,70.57,36.4,44,73.64,16.11,112.81,2.41,200.15,46.56,233c26,19.34,61.84,15,86.65-4.06,7-5.42,13.42-12,21.59-15.52,17.17-7.39,36.79-1.31,54.37-8.06,19.87-7.63,39.37-17.28,55.9-30.84C296.32,148.88,313,106.87,302.63,67,295.09,37.9,270.42,21.82,241.6,13.59Z"/><path class="cls-16" d="M540.94,345.92l-8.54-1.44A48,48,0,0,0,529,336.2l5-7a7.48,7.48,0,0,0-.81-9.68l-7.56-7.56a7.49,7.49,0,0,0-5.31-2.21,7.32,7.32,0,0,0-4.34,1.4l-7.06,5a48.24,48.24,0,0,0-8.58-3.53l-1.42-8.43a7.51,7.51,0,0,0-7.42-6.27H480.81a7.5,7.5,0,0,0-7.41,6.27l-1.47,8.64a46.3,46.3,0,0,0-8.26,3.47l-7-5a7.49,7.49,0,0,0-9.67.81l-7.59,7.57a7.51,7.51,0,0,0-.82,9.67l5.08,7.13a47.44,47.44,0,0,0-3.37,8.31l-8.43,1.42a7.5,7.5,0,0,0-6.28,7.41v10.69a7.51,7.51,0,0,0,6.28,7.42l8.63,1.47a46.56,46.56,0,0,0,3.48,8.25l-5,7a7.48,7.48,0,0,0,.82,9.67l7.56,7.57a7.46,7.46,0,0,0,9.65.81l7.14-5.08a47.13,47.13,0,0,0,8,3.3l1.42,8.53a7.5,7.5,0,0,0,7.42,6.27h10.71a7.5,7.5,0,0,0,7.41-6.27l1.45-8.53a48,48,0,0,0,8.28-3.43l7,5a7.49,7.49,0,0,0,9.67-.81l7.57-7.57a7.5,7.5,0,0,0,.81-9.67l-5-7.06a48,48,0,0,0,3.42-8.28l8.54-1.42a7.5,7.5,0,0,0,6.27-7.41V353.34A7.42,7.42,0,0,0,540.94,345.92ZM486.4,383.59a24.92,24.92,0,1,1,24.92-24.92A24.94,24.94,0,0,1,486.4,383.59Z"/><path class="cls-16" d="M586.74,248.93l-6.35-1.07a35.78,35.78,0,0,0-2.55-6.17l3.74-5.24a5.56,5.56,0,0,0-.61-7.2l-5.63-5.64a5.54,5.54,0,0,0-4-1.64,5.44,5.44,0,0,0-3.24,1l-5.26,3.74a35.21,35.21,0,0,0-6.39-2.63l-1.06-6.28a5.59,5.59,0,0,0-5.52-4.67h-8a5.59,5.59,0,0,0-5.52,4.67l-1.1,6.43a34.85,34.85,0,0,0-6.15,2.59l-5.2-3.74a5.59,5.59,0,0,0-7.2.6l-5.66,5.64a5.6,5.6,0,0,0-.6,7.21l3.78,5.31a35.94,35.94,0,0,0-2.52,6.18l-6.28,1.06a5.6,5.6,0,0,0-4.67,5.53v8a5.59,5.59,0,0,0,4.67,5.52l6.43,1.1a36,36,0,0,0,2.59,6.14l-3.72,5.19a5.58,5.58,0,0,0,.6,7.2l5.64,5.64a5.57,5.57,0,0,0,7.19.6l5.31-3.78a35.81,35.81,0,0,0,6,2.46l1.06,6.35a5.59,5.59,0,0,0,5.52,4.68h8a5.59,5.59,0,0,0,5.52-4.68l1.08-6.35a35.78,35.78,0,0,0,6.17-2.55l5.24,3.74a5.59,5.59,0,0,0,7.2-.6l5.64-5.64a5.6,5.6,0,0,0,.6-7.21l-3.74-5.25a35.51,35.51,0,0,0,2.55-6.17l6.36-1.06a5.59,5.59,0,0,0,4.67-5.52v-8A5.53,5.53,0,0,0,586.74,248.93ZM546.12,277a18.56,18.56,0,1,1,18.56-18.56A18.57,18.57,0,0,1,546.12,277Z"/><path class="cls-17" d="M524,72.28a20.32,20.32,0,0,0,11.81,10.26,20.85,20.85,0,0,0,5.68,1,20.26,20.26,0,0,0,8.07-1.35l2.23,4.35A2.84,2.84,0,0,0,551,90l7.49,14.5a3,3,0,0,0,4.14.94l3.41-1.76a3,3,0,0,0,1.62-3.92l-7.49-14.5a2.93,2.93,0,0,0-3.68-1.15l-2.23-4.36a20.41,20.41,0,0,0-5.43-36,20.12,20.12,0,0,0-5.68-1,20.55,20.55,0,0,0-20.19,14A20.27,20.27,0,0,0,524,72.28Zm5-13.58a14.12,14.12,0,0,1,13.87-9.6,13.77,13.77,0,0,1,3.9.72A14,14,0,1,1,529,58.7Zm0,0a14.12,14.12,0,0,1,13.87-9.6,13.77,13.77,0,0,1,3.9.72A14,14,0,1,1,529,58.7Z"/><path class="cls-18" d="M554.12,79.59m-2.49,7.11a3,3,0,0,0-.9,3.54l7.8,15.08a3.13,3.13,0,0,0,4.3,1l3.55-1.82a3.15,3.15,0,0,0,1.69-4.08l-7.79-15.09a3.05,3.05,0,0,0-3.83-1.19Z"/><path class="cls-19" d="M327.3,33.24c-2.82-2.1-7-.39-9.36,2.19-5.95,6.42-4.85,18.11,2.41,23s18.82,1.19,21.55-7.14S337.05,33,328.32,33.69"/><path id="path4109" class="cls-20" d="M292,359.64c0,.65,0,1.29,0,1.94v.27h-.28l-1.94,0c0,6.57,0,13.15,0,19.73v.28h-.28l-1.65,0h-.3v-.3c0-.64,0-1.29,0-1.92-2.23,0-4.46,0-6.7,0,0,2.23,0,4.45,0,6.67.65,0,1.31,0,2,0l.36,0-.05.36a11.31,11.31,0,0,0,0,1.93c.61,0,1.24,0,1.86,0h.26l0,.27c.1,1.37.05,2.75.07,4.13.64,0,1.29,0,1.93,0h.28v.28c0,1.38,0,2.75,0,4.13.65,0,1.3.05,2,0l.33,0,0,.32c-.11,1.38,0,2.77,0,4.15.63,0,1.26,0,1.89,0h.28v.28c0,2.13,0,4.26,0,6.39,3.67,0,7.35.06,11,0s7.52,0,11.29-.06c-.06-2.12.13-4.25,0-6.37V402h.3c.64,0,1.27,0,1.9,0,0-2.11,0-4.23,0-6.34v-.26l.26,0a17.88,17.88,0,0,1,1.94-.07c0-2.36,0-4.73,0-7.09h0c-.07-2.85,0-5.69-.05-8.53h-2.19v-.27c0-.63,0-1.26,0-1.89-.66,0-1.31,0-2,0h-.25v-.25c-.05-.65,0-1.31,0-2-1.38,0-2.77,0-4.15,0h-.28V375c0-.63,0-1.25,0-1.88-2.12-.11-4.26,0-6.39-.07h-.27v-.27c0-.64,0-1.29,0-1.94-1.38,0-2.77,0-4.15,0h-.27v-.28c0-2.86,0-5.73,0-8.59h-2.22v-.29a18.44,18.44,0,0,0-.05-2Z"/><path id="path3016" class="cls-1" d="M292,359.64h4.39a20.32,20.32,0,0,1,.05,2.21c-1.49,0-3,0-4.46,0C291.93,361.12,291.93,360.38,292,359.64Z"/><path id="path3018" class="cls-1" d="M289.71,361.9c.74,0,1.48,0,2.22,0q0,12.27,0,24.55c-.74,0-1.49,0-2.23,0,0-.73,0-1.47,0-2.2-.74,0-1.48,0-2.22,0,0-.75,0-1.5,0-2.25.74,0,1.48,0,2.22,0,0-6.67,0-13.34,0-20Z"/><path id="path3020" class="cls-1" d="M296.4,361.9h2.21c0,3,0,5.92,0,8.88,1.48,0,3,0,4.43,0,0,.74,0,1.48,0,2.21,2.23,0,4.45-.05,6.67.07,0,.72,0,1.44,0,2.16,1.48,0,3,0,4.44,0,0,.74,0,1.48,0,2.22.73.07,1.47,0,2.21,0,0,.72,0,1.44,0,2.17h2.19c0,2.84,0,5.69.05,8.53-.07,2.37,0,4.74,0,7.11a16.18,16.18,0,0,0-2.2.08c0,2.2,0,4.4,0,6.6-.74,0-1.47.05-2.2,0-.08-2.24,0-4.48,0-6.72h2.21q0-7.8,0-15.61h-2.21c0-.72,0-1.45-.05-2.17a12.56,12.56,0,0,0-2.21-.06c0,2.23,0,4.47,0,6.7h-2.19c-.05-3,0-5.95,0-8.93H305.3c0,2.23,0,4.46,0,6.69q-1.11,0-2.22,0c0-3,0-5.95,0-8.92-1.49,0-3,0-4.48,0,0,3,0,5.94,0,8.91-.75,0-1.49,0-2.24,0q0-10,0-20Z"/><path id="path3026" class="cls-1" d="M280.76,379.73c2.24,0,4.47,0,6.7,0,0,.74,0,1.48,0,2.22-1.48,0-3,0-4.44,0-.06,1.48.08,3,0,4.42a16.9,16.9,0,0,1-2.25,0C280.76,384.18,280.77,382,280.76,379.73Z"/><path id="path3030" class="cls-1" d="M283.07,386.44a11.13,11.13,0,0,1,2.16-.05c0,.74,0,1.49,0,2.23h2.24c0,1.49,0,3,0,4.45h2.21c0,1.49.09,3-.06,4.47-.73.06-1.45,0-2.18,0,0-1.47,0-2.94,0-4.41-.74,0-1.47,0-2.21,0,0-1.46,0-2.93-.09-4.39-.71,0-1.42,0-2.13,0a9.69,9.69,0,0,1,.07-2.22Z"/><path id="path3038" class="cls-1" d="M289.74,397.57c.73-.06,1.46,0,2.19,0,0,1.48,0,3,0,4.44.74,0,1.49,0,2.23,0,0,1.48,0,3,0,4.45q8.9,0,17.8,0c0-1.48,0-3,0-4.44.76,0,1.52,0,2.28,0,.12,2.22-.09,4.44,0,6.67-3.77.09-7.53.06-11.29.06s-7.36,0-11,0c0-2.22,0-4.45-.05-6.67-.72,0-1.45,0-2.17,0,0-1.48-.11-3,0-4.45Z"/><g class="cls-21"><path class="cls-22" d="M412,375.38a46.72,46.72,0,0,1,9.47,4.44"/><path class="cls-22" d="M411.8,376.25a46,46,0,0,1,9.26,4.35c1,.6,1.9-1,.91-1.56a48.6,48.6,0,0,0-9.69-4.53c-1.1-.37-1.57,1.37-.48,1.74Z"/><path class="cls-22" d="M432.9,307.66a46.15,46.15,0,0,1,9.47,4.43"/><path class="cls-22" d="M432.66,308.53a45.9,45.9,0,0,1,9.25,4.34c1,.6,1.9-1,.91-1.56a48.18,48.18,0,0,0-9.68-4.52c-1.1-.38-1.58,1.36-.48,1.74Z"/><path class="cls-22" d="M423.13,369.73a139.64,139.64,0,0,1,17.46,9.6"/><path class="cls-22" d="M422.68,370.51a143.74,143.74,0,0,1,17.46,9.6c1,.63,1.88-.93.91-1.55A142.46,142.46,0,0,0,423.59,369c-1-.49-2,1.07-.91,1.56Z"/><path class="cls-22" d="M404,362.66l9.87,4.49"/><path class="cls-22" d="M403.49,363.43l9.87,4.5a.94.94,0,0,0,1.24-.32.92.92,0,0,0-.33-1.24l-9.87-4.49a.92.92,0,0,0-1.23.32.9.9,0,0,0,.32,1.23Z"/><path class="cls-22" d="M411.87,356.79a16.59,16.59,0,0,1,7.94,2.89"/><path class="cls-22" d="M411.87,357.7a15.76,15.76,0,0,1,7.48,2.76.9.9,0,1,0,.91-1.56,17.55,17.55,0,0,0-8.39-3,.91.91,0,0,0,0,1.81Z"/><path class="cls-22" d="M431.19,360.18q7.89,3.75,16,6.95"/><path class="cls-22" d="M430.74,361q8,3.8,16.24,7c1.08.42,1.55-1.32.48-1.74q-8-3.17-15.81-6.86c-1-.49-2,1.06-.91,1.56Z"/><path class="cls-22" d="M421.62,347.36a58.75,58.75,0,0,1,10.9,5.67"/><path class="cls-22" d="M421.38,348.23a58.42,58.42,0,0,1,10.69,5.58c1,.64,1.87-.92.91-1.56a61.36,61.36,0,0,0-11.12-5.76.91.91,0,0,0-1.11.63.93.93,0,0,0,.63,1.11Z"/><path class="cls-22" d="M414.87,348.14a118.61,118.61,0,0,0-14.32-8"/><path class="cls-22" d="M415.33,347.36a122.34,122.34,0,0,0-14.33-8c-1-.49-2,1.06-.91,1.56a122.34,122.34,0,0,1,14.33,8c1,.64,1.88-.92.91-1.56Z"/><path class="cls-22" d="M472,358.37a84.58,84.58,0,0,0-9.65-7.55"/><path class="cls-22" d="M472.6,357.73a86.14,86.14,0,0,0-9.84-7.69c-1-.64-1.87.92-.91,1.56a82.73,82.73,0,0,1,9.48,7.41c.86.77,2.14-.5,1.27-1.28Z"/><path class="cls-22" d="M441.46,347.5l15.77,7.14"/><path class="cls-22" d="M441,348.28l15.76,7.13c1.05.48,2-1.07.91-1.55l-15.76-7.14c-1.05-.47-2,1.08-.91,1.56Z"/><path class="cls-22" d="M440.87,341.7a41,41,0,0,1-9.79-3.08"/><path class="cls-22" d="M441.11,340.83a40.14,40.14,0,0,1-9.57-3,.94.94,0,0,0-1.24.33.91.91,0,0,0,.33,1.23,42.19,42.19,0,0,0,10,3.17.93.93,0,0,0,1.11-.63.91.91,0,0,0-.63-1.11Z"/><path class="cls-22" d="M423.07,337a72.3,72.3,0,0,0-15-4.84"/><path class="cls-22" d="M423.53,336.17a74.45,74.45,0,0,0-15.26-4.92c-1.13-.24-1.62,1.5-.48,1.73a72.12,72.12,0,0,1,14.82,4.75c1.06.47,2-1.08.92-1.56Z"/><path class="cls-22" d="M426.42,324.71a110.86,110.86,0,0,1,11.93,5.36"/><path class="cls-22" d="M426.18,325.58a111.71,111.71,0,0,1,11.71,5.27c1,.53,1.94-1,.91-1.56a114.76,114.76,0,0,0-12.14-5.45c-1.09-.41-1.56,1.33-.48,1.74Z"/><path class="cls-22" d="M449.55,337.75l9.61,5.76"/><path class="cls-22" d="M449.09,338.53l9.62,5.76a.9.9,0,0,0,.91-1.56L450,337a.9.9,0,0,0-.91,1.56Z"/><path class="cls-22" d="M447.92,378l9.62,5.76"/><path class="cls-22" d="M447.47,378.75l9.61,5.76A.9.9,0,0,0,458,383l-9.61-5.76a.9.9,0,0,0-.91,1.56Z"/><path class="cls-22" d="M430.19,384.21l9.62,5.76"/><path class="cls-22" d="M429.74,385l9.61,5.76a.9.9,0,0,0,.91-1.56l-9.61-5.76a.9.9,0,0,0-.91,1.56Z"/><path class="cls-22" d="M454.09,364.86l9.61,5.76"/><path class="cls-22" d="M453.63,365.64l9.62,5.76a.9.9,0,0,0,.91-1.56l-9.62-5.76a.9.9,0,0,0-.91,1.56Z"/><path class="cls-22" d="M407.72,386.62l9.62,5.77"/><path class="cls-22" d="M407.27,387.4l9.61,5.77a.9.9,0,0,0,.91-1.56l-9.61-5.76a.9.9,0,0,0-.91,1.55Z"/><path class="cls-22" d="M452.15,326.68a34.27,34.27,0,0,1-8.53-4.64"/><path class="cls-22" d="M452.39,325.81a33.76,33.76,0,0,1-8.31-4.55.91.91,0,0,0-1.24.32.93.93,0,0,0,.32,1.24,36,36,0,0,0,8.75,4.73.9.9,0,0,0,.48-1.74Z"/><path class="cls-22" d="M401.77,376.48a34.09,34.09,0,0,1-8.53-4.64"/><path class="cls-22" d="M402,375.61a33.82,33.82,0,0,1-8.32-4.55.9.9,0,0,0-1.23.32.93.93,0,0,0,.32,1.24,36,36,0,0,0,8.75,4.73.9.9,0,0,0,.48-1.74Z"/><path class="cls-22" d="M428.9,316.24l-14.34-9"/><path class="cls-22" d="M429.36,315.46l-14.35-9c-1-.62-1.89.94-.91,1.56l14.35,9c1,.62,1.89-.94.91-1.56Z"/><path class="cls-22" d="M395.46,314.22q10.44,5.41,21.25,10.1"/><path class="cls-22" d="M395,315q10.46,5.42,21.26,10.1c1.05.45,2-1.1.91-1.56q-10.8-4.68-21.26-10.1c-1-.53-1.94,1-.91,1.56Z"/><path class="cls-22" d="M398,358.08l-12-3.54"/><path class="cls-22" d="M398.19,357.21l-12-3.54a.9.9,0,0,0-.48,1.74l12,3.54a.9.9,0,0,0,.48-1.74Z"/><path class="cls-22" d="M386.22,339l11.94,7"/><path class="cls-22" d="M385.77,339.8l11.93,6.95a.9.9,0,0,0,.91-1.55l-11.93-7a.9.9,0,0,0-.91,1.56Z"/></g><path class="cls-23" d="M43.35,302.79c0,.16-.05.34.12.45a.87.87,0,0,0,.44.12,18.68,18.68,0,0,0,2.8,0l.87,0c.3,0,.66-.06.74-.24s-.09-.32-.26-.43a14.44,14.44,0,0,0-2.63-1.35c-.51-.22-1.1-.53-1.45-.09A4,4,0,0,0,43.35,302.79Z"/><path class="cls-24" d="M41.26,293.76a1.6,1.6,0,0,0-1.32-.1,4.18,4.18,0,0,0-1.19.65"/><path class="cls-24" d="M49.81,294.71a1.63,1.63,0,0,1,1.31.17,4.42,4.42,0,0,1,1,.9"/></svg>