<svg id="Layer_1" data-name="Layer 1" xmlns="http://www.w3.org/2000/svg" viewBox="0 0 59 57"><defs><style>.cls-1{fill:#e97632;}</style></defs><path class="cls-1" d="M29.61,22.83A4.63,4.63,0,1,0,25,18.2,4.64,4.64,0,0,0,29.61,22.83Zm0-7.23A2.6,2.6,0,1,1,27,18.2,2.6,2.6,0,0,1,29.61,15.6Z"/><path class="cls-1" d="M35.31,24H23.92a4,4,0,0,0-4,4V36.5A4,4,0,0,0,23,40.37V54.25H36V40.41a4,4,0,0,0,3.29-3.91V28A4,4,0,0,0,35.31,24ZM37.26,36.5a1.93,1.93,0,0,1-1.62,1.91,2,2,0,0,0-1.67,2V52.22H25.06V40.37a2,2,0,0,0-1.58-2A2,2,0,0,1,22,36.5V28a2,2,0,0,1,2-1.95H35.31A2,2,0,0,1,37.26,28Z"/><rect class="cls-1" x="28.6" y="3.48" width="2.03" height="6.4"/><rect class="cls-1" x="33.12" y="7.26" width="6.4" height="2.03" transform="translate(12.39 36.82) rotate(-62.86)"/><rect class="cls-1" x="21.47" y="5.08" width="2.03" height="6.4" transform="translate(-1.3 11.17) rotate(-27.15)"/></svg>