<svg id="Capa_1" data-name="Capa 1" xmlns="http://www.w3.org/2000/svg" viewBox="0 0 166.97 46.83"><defs><style>.cls-1{fill:#003863;}.cls-2{fill:#8ad2e5;}.cls-3{fill:#eb7631;}.cls-4{fill:#00a6cc;}</style></defs><path class="cls-1" d="M60.88,16.73h2.59a3.49,3.49,0,0,1,3.63,3.34v1.11a3.48,3.48,0,0,1-3.63,3.33H61.91v4.61a1,1,0,0,1-2.07,0V17.69A1,1,0,0,1,60.88,16.73Zm2.59,1.91H61.91v4h1.56A1.49,1.49,0,0,0,65,21.18V20.07A1.48,1.48,0,0,0,63.47,18.64Z"/><path class="cls-1" d="M74.57,26.76a1.46,1.46,0,0,0-.46-1.19l-3.45-3.26a3.13,3.13,0,0,1-1-2.58,3.32,3.32,0,0,1,1.43-2.4A3.92,3.92,0,0,1,74,16.71a3.64,3.64,0,0,1,2.42,1.61A.93.93,0,0,1,76,19.63a1.07,1.07,0,0,1-1.4-.36,1.69,1.69,0,0,0-1-.69,1.63,1.63,0,0,0-1.25.28,1.26,1.26,0,0,0-.6,1A1.25,1.25,0,0,0,72.15,21l3.43,3.25a3.26,3.26,0,0,1,1.06,2.66,3.41,3.41,0,0,1-1.47,2.49,4.09,4.09,0,0,1-3,.63,3.73,3.73,0,0,1-2.49-1.65.91.91,0,0,1,.37-1.31,1.12,1.12,0,0,1,1.43.36,1.62,1.62,0,0,0,1.1.73,1.77,1.77,0,0,0,1.34-.29A1.49,1.49,0,0,0,74.57,26.76Z"/><path class="cls-1" d="M80.09,29.12V17.61a1,1,0,0,1,1-1,1,1,0,0,1,1,1V29.12a1,1,0,0,1-1,.95A1,1,0,0,1,80.09,29.12Z"/><path class="cls-1" d="M86.19,26.74V20a3.38,3.38,0,0,1,2.68-3.22A3.77,3.77,0,0,1,93,18.32a.91.91,0,0,1-.37,1.31,1.11,1.11,0,0,1-1.43-.36,1.59,1.59,0,0,0-1.75-.65A1.44,1.44,0,0,0,88.27,20v6.75a1.47,1.47,0,0,0,1.14,1.39,1.64,1.64,0,0,0,1.75-.68,1.12,1.12,0,0,1,1.43-.36A.91.91,0,0,1,93,28.4,3.75,3.75,0,0,1,88.87,30,3.38,3.38,0,0,1,86.19,26.74Z"/><path class="cls-1" d="M96.07,26.74V20a3.64,3.64,0,0,1,7.26,0v6.75a3.64,3.64,0,0,1-7.26,0ZM98.14,20v6.75a1.56,1.56,0,0,0,3.11,0V20a1.56,1.56,0,0,0-3.11,0Z"/><path class="cls-1" d="M106.85,29.12V17.61a1,1,0,0,1,.8-.94,1,1,0,0,1,1.17.54l2.53,4.9,2.5-4.9a1.06,1.06,0,0,1,1.17-.54,1,1,0,0,1,.82.94V29.12a1,1,0,0,1-1,.95,1,1,0,0,1-1-.95V21.87c-.74,1.41-1.5,2.88-1.5,2.88a1,1,0,0,1-.92.56,1.05,1.05,0,0,1-.95-.56s-.76-1.47-1.47-2.88v7.25a1,1,0,0,1-1,.95A1,1,0,0,1,106.85,29.12Z"/><path class="cls-1" d="M120.94,16.73h4.32a1,1,0,0,1,1,1,1,1,0,0,1-1,.95H122v3.57h2.85a1,1,0,0,1,1,.95,1,1,0,0,1-1,1H122v4h3.28a1,1,0,1,1,0,1.9h-4.32a1,1,0,0,1-1-.95V17.69A1,1,0,0,1,120.94,16.73Z"/><path class="cls-1" d="M135.45,16.73a1,1,0,0,1,1,1,1,1,0,0,1-1,.95h-1.77V29.12a1,1,0,0,1-1,.95,1,1,0,0,1-1-.95V18.64h-1.77a1,1,0,0,1-1-.95,1,1,0,0,1,1-1Z"/><path class="cls-1" d="M144.49,24.14l1.88,4.64a.91.91,0,0,1-.6,1.23,1.07,1.07,0,0,1-1.34-.56l-2-4.94h-1.17v4.61a1,1,0,0,1-2.07,0V17.69a1,1,0,0,1,1-1h2.6a3.48,3.48,0,0,1,3.62,3.34v1.11A3.29,3.29,0,0,1,144.49,24.14Zm-3.24-1.53h1.56a1.49,1.49,0,0,0,1.55-1.43V20.07a1.48,1.48,0,0,0-1.55-1.43h-1.56Z"/><path class="cls-1" d="M150.21,29.12V17.61a1,1,0,0,1,1-1,1,1,0,0,1,1,1V29.12a1,1,0,0,1-1,.95A1,1,0,0,1,150.21,29.12Z"/><path class="cls-1" d="M155.57,28.7l3-5.54L155.79,18a.93.93,0,0,1,.45-1.29,1.09,1.09,0,0,1,1.4.44l2.1,3.85,2.1-3.85a1.07,1.07,0,0,1,1.38-.44.93.93,0,0,1,.47,1.29l-2.78,5.12,3,5.54a.91.91,0,0,1-.48,1.27,1.08,1.08,0,0,1-1.38-.42l-2.31-4.26-2.31,4.26A1.11,1.11,0,0,1,156,30,.92.92,0,0,1,155.57,28.7Z"/><path class="cls-2" d="M22.64,11.14l-.53-4.52A2.68,2.68,0,0,0,19.3,4.29L6.15,5.2A2.76,2.76,0,0,0,3.63,7.9V21a2,2,0,0,0,2.48,2.05l3.55-.66a12.14,12.14,0,0,1,.77-2.78C12.78,13.7,18.89,11.77,22.64,11.14Z"/><path class="cls-1" d="M25.92,10.84c.84,0,4.93-.06,7.4,3,2.24,2.73,1,3.25,2.72,6a4,4,0,0,0,1.35,1.14h7.42a2.33,2.33,0,0,0,2.35-2.57L45.9,4.14a2.86,2.86,0,0,0-2.8-2.57H25.47a2.19,2.19,0,0,0-2.23,2.55l.93,6.81c1-.1,1.57-.1,1.57-.1Z"/><path class="cls-3" d="M49.84,41.07l-.92-16.61A2.72,2.72,0,0,0,46,22L40,22.21c1,.5,1.81,1,2,1.64a1.89,1.89,0,0,1-.25,1.63c-.36.61-.89,1.14-1.1,1.58a.91.91,0,0,0-.1.29c-.09.8,1.69,5.57.84,7.24a2.46,2.46,0,0,1-.68.79c-1.56,1.27-4.88,2.17-5.71,2.35a1.1,1.1,0,0,0-.37.21,12.39,12.39,0,0,0-2.28,3.3,18.76,18.76,0,0,0-.73,2l15.75.42A2.32,2.32,0,0,0,49.84,41.07Z"/><path class="cls-4" d="M16.35,36.24a18.36,18.36,0,0,1-3.12-2.51A12.63,12.63,0,0,1,9.52,23.56l-4,.86A3.35,3.35,0,0,0,3,27.54V39.87a2.72,2.72,0,0,0,2.58,2.69l10.29.23a8,8,0,0,0,.58-1.6C16.87,39.35,17,37.55,16.35,36.24Z"/></svg>