<svg id="Layer_1" data-name="Layer 1" xmlns="http://www.w3.org/2000/svg" viewBox="0 0 59 57"><defs><style>.cls-1{fill:none;stroke:#00a7ce;stroke-linejoin:round;stroke-width:1.5px;}</style></defs><path class="cls-1" d="M31.85,6.27l-12.11,43,7.28.77L39.19,7ZM13.91,21.75c-1.84,0-2.34-1.1-2.34-3.07V15.55c0-2,.5-3,2.34-3s2.39,1,2.39,3v3.13C16.3,20.65,15.81,21.75,13.91,21.75Zm0,5.87c5.49,0,8-2.52,8-8.12V14.78c0-5.6-2.55-8.12-8-8.12S6,9.29,6,14.78V19.5C6,25.1,8.53,27.62,13.91,27.62ZM45,43.42c-1.85,0-2.34-1.1-2.34-3.07V37.22c0-2,.49-3,2.34-3s2.39,1,2.39,3v3.13C47.35,42.32,46.86,43.42,45,43.42Zm0,5.87c5.49,0,8-2.52,8-8.12V36.45c0-5.59-2.55-8.12-8-8.12S37,31,37,36.45v4.72C37,46.77,39.58,49.29,45,49.29Z"/></svg>