<svg id="Capa_1" data-name="Capa 1" xmlns="http://www.w3.org/2000/svg" viewBox="0 0 23 23"><defs><style>.cls-1{fill:#00a6cf;}</style></defs><path class="cls-1" d="M21.5,17.3h0v-.06a1.52,1.52,0,0,0-.52-.9,2.09,2.09,0,0,1-.2-.22c-.55-.61-1.08-1.23-1.64-1.82a2.49,2.49,0,0,1-.3-.38v0a.41.41,0,0,1,0-.09,2.64,2.64,0,0,1-.3-1.33c0-.71,0-1.42,0-2.13a12.84,12.84,0,0,0-.14-2.4,6.61,6.61,0,0,0-4.24-5.28,1.54,1.54,0,0,0-.43-.16l-.19-.07A1.64,1.64,0,0,1,13,2.21a1,1,0,0,1-.29-.49s0-.08,0-.13A1.21,1.21,0,0,0,11.55.47h-.12a1.23,1.23,0,0,0-1.19,1.12s0,.09,0,.13a1,1,0,0,1-.29.49,1.71,1.71,0,0,1-.47.21l-.19.07a1.36,1.36,0,0,0-.42.16A6.64,6.64,0,0,0,4.61,7.93a12.84,12.84,0,0,0-.13,2.4c0,.71,0,1.42,0,2.13a2.75,2.75,0,0,1-.3,1.33l0,.09v0c-.09.13-.19.25-.3.38-.56.59-1.1,1.21-1.64,1.82l-.2.22a1.47,1.47,0,0,0-.52.9v.06h0a1,1,0,0,0,.08.31c.25.57.79.52,1.29.52H20.22c.48,0,1,0,1.19-.52h0A1,1,0,0,0,21.5,17.3Z"/><path class="cls-1" d="M14,19.32c-.85,0-1.71,0-2.56,0s-1.76,0-2.63,0c-.47,0-.63.17-.55.65a3.24,3.24,0,0,0,3.1,2.56,3.2,3.2,0,0,0,3.24-2.45C14.74,19.57,14.61,19.31,14,19.32Z"/></svg>