<svg id="Capa_1" data-name="Capa 1" xmlns="http://www.w3.org/2000/svg" viewBox="0 0 150 162.52"><defs><style>.cls-1{fill:#d0eaf1;}.cls-2{fill:#d5afa7;}.cls-3{fill:#1a3744;}.cls-4{fill:#fff;}.cls-5{fill:#a8817e;}.cls-6{fill:#00a7ce;}.cls-7{fill:none;stroke:#00a7ce;stroke-miterlimit:10;}</style></defs><path class="cls-1" d="M54.41,115.57c32.33-4.87,61,4.14,90,19.22,2.32,1.2,4.88,2.86,5.14,5.45.17,1.75-.78,3.4-1.8,4.82-6.61,9.26-26.69,11.4-37.74,14.1s-22.56,2.66-33.93,2.28c-19.45-.65-29.73,1.25-48.41-4.53-6.92-2.14-22.16-5.92-26.59-12.1s12.43-14.33,17.28-16.7C28.08,123.37,43.78,117.18,54.41,115.57Z"/><path class="cls-2" d="M51.32,97.67c2.94-5.14,8.93-8,14.83-8.5C78.74,88,91.52,96.9,94.82,109.11s4.08,21.09-7.38,26.43c-4.22,2-12.32-7.49-17-7.38-10.51.23-20.09,10.9-21.72,1.22C47.53,122.07,47.74,104,51.32,97.67Z"/><path class="cls-2" d="M29,62c-1.09,2.14-.89,4.71-.57,7.1.4,3,1,6,2.56,8.56s4.46,4.38,7.33,3.91c1-.16,1.16-6.78,1.16-7.66a25.51,25.51,0,0,0-1.49-8.44C36.6,61.8,32.29,55.52,29,62Z"/><path class="cls-2" d="M112.35,56.19a6.34,6.34,0,0,1,3.21,3.93A16.27,16.27,0,0,1,112.74,76c-1,1.16-2.43,2.23-3.88,1.82-1.27-.36-2-1.72-2.47-3C105,70.81,103.08,52.57,112.35,56.19Z"/><path class="cls-2" d="M35.73,71c.71,12.49,6.75,23.36,14.47,33s16.66,14.09,28.55,12c8.69-1.54,23.12-12,26.94-26s4.18-29.32,2.65-43.76c-.7-6.61-1.5-13.45-4.81-19.15a31.09,31.09,0,0,0-10.3-10.26C84,10.82,72.52,8.36,61.92,10.88,34.93,17.3,34.39,47.27,35.73,71Z"/><path class="cls-3" d="M61.28,57.62c-1.37-.65-3.76.76-3.8,2.33a2.75,2.75,0,0,0,3.94,2.4,2.91,2.91,0,0,0-.14-4.73"/><path class="cls-3" d="M82.69,57.76a3.27,3.27,0,0,0,.13,4.92,2.74,2.74,0,0,0,4.09-2.07c.1-2.43-1.92-3.23-4.22-2.85"/><path class="cls-3" d="M65.77,48.87c-3.86-.58-7.82-1-11.68-.23a27.93,27.93,0,0,0-6.9,2.8,2.15,2.15,0,0,0-.77,2.93,2.18,2.18,0,0,0,2.93.76c1-.48,1.94-1,2.93-1.44.1,0,.57-.23,0,0l.4-.16.68-.25a14.26,14.26,0,0,1,1.7-.47l.89-.17c.42-.07-.23,0,0,0l.55-.06a21,21,0,0,1,2.24-.08,40.74,40.74,0,0,1,5.84.51,2.21,2.21,0,0,0,2.63-1.5,2.15,2.15,0,0,0-1.49-2.63Z"/><path class="cls-3" d="M79.12,53.14a22.07,22.07,0,0,1,9.3,1l.87.32c.36.14-.08,0,.13.06l.46.2c.55.26,1.1.54,1.64.83,1.08.59,2.12,1.25,3.16,1.91,2.33,1.48,4.48-2.23,2.16-3.7A35.07,35.07,0,0,0,89.56,50a26.16,26.16,0,0,0-10.44-1.12A2.19,2.19,0,0,0,77,51a2.16,2.16,0,0,0,2.14,2.14Z"/><path class="cls-4" d="M59.21,86,84,87s-4.53,8.49-12.76,8.16S59.21,86,59.21,86Z"/><path class="cls-3" d="M61.78,84.54a12.89,12.89,0,0,0-4.9,10.15c-3.53-1.8-4.91-7.91-2.62-11.61C56,80.26,59.1,79.23,62,78.59c7.93-1.78,16.35-2,23.83,1.64a11.83,11.83,0,0,1,4.52,3.47,10.52,10.52,0,0,1-.12,11.79c-.57-2.47-1.18-5-2.58-6.94a12.55,12.55,0,0,0-3.36-3C76.89,80.8,69.15,78.6,61.78,84.54Z"/><path class="cls-3" d="M56.24,92.84a3.11,3.11,0,0,1,.35.54c1.13,2.24.86,4.77,2.53,7.05a15.41,15.41,0,0,0,6.32,5c7.64,3.29,16,2.67,21.22-4.4,2.06-2.82,1.52-6.3,3-8.89s6.5-5,8.54-7.27a67.37,67.37,0,0,0,6.3-8.42c1-1.54,5.14-7,4.73-8.83a28.41,28.41,0,0,1-.08,10c0,3.44-1.17,7.37-2,10.69a32.31,32.31,0,0,1-4.62,9.92c-1.87,2.57-7.06,7.92-9.16,10.31-3.58,4.1-9,6.27-12.63,7.14-5.15,1.23-7.19,1.16-12.46.63-4.89-.48-9.22-3.14-13-6.33-4.23-3.53-8.49-7-11.7-11.66a29.23,29.23,0,0,1-4-7.25c-.33-1-3.78-19.14-4.21-19.28,4.44,1.46,7.41,9.22,10,12.84a16.25,16.25,0,0,0,5.14,5C52.4,90.69,54.77,91,56.24,92.84Z"/><path class="cls-3" d="M77.25,98.55a3.41,3.41,0,0,1-.38,1.71l-1.46,4.13c-.67,1.89-1.73,4.1-3.66,4.23a3.32,3.32,0,0,1-2.87-1.69,10.53,10.53,0,0,1-1.18-3.35L67,100.29c-.16-.69-.73-2.93-.35-3.52a1.32,1.32,0,0,1,1-.56,4,4,0,0,1,1.19.18c2.38.59,4.78,1.09,7.2,1.48C76.81,98,77.15,98.22,77.25,98.55Z"/><path class="cls-5" d="M78,77.08a1.49,1.49,0,0,1,0,.7,1.1,1.1,0,0,1-.62.56,12.86,12.86,0,0,1-12.7-.85,2,2,0,0,1-.89-1,2.8,2.8,0,0,1,0-1.35,52.6,52.6,0,0,1,3.79-13c.56-1.27,1.79-4.05,3.15-4.26,1.89-.29,2.4,2.62,3.21,4.6A54.64,54.64,0,0,1,78,77.08Z"/><path class="cls-3" d="M66.26,7.05A1.81,1.81,0,0,1,67,8.34,34.66,34.66,0,0,0,48,10.1l3.7,1.09A42.12,42.12,0,0,0,38.2,19.68l3.89.69c-1.53.41-3.18.9-4.09,2.23s-.39,3.71,1.18,3.85c-3.79,5.11-5.51,11.61-5.93,18s.38,12.87,1.18,19.27l1.42,11.45c.37,2.91,1,6.26,3.5,7.65-.24-9.78-1.86-20.51-1.23-30.28.22-3.44,2.3-6,3.24-9.27s1.12-7,2.59-9.88c.85-1.69,3-2.58,4.44-3.74,1.85-1.46,4.29-1.75,6.61-1.94a161.75,161.75,0,0,1,22.45-.24,30.25,30.25,0,0,0,8.29-.21,9.43,9.43,0,0,0,6.61-4.74C97.69,11.49,72.4,7.4,66.26,7.05Z"/><path class="cls-3" d="M94.14,18.35a10,10,0,0,0-4.7,7.44c5.64,1.59,9.88,6.29,12.22,11.5a48.54,48.54,0,0,1,3.72,16.56c1.16,16.6.13,16.6-.87,22.6,1.74-.5,5.28-5.64,5.23-7.39q-.33-13.14-.67-26.28c-.16-6.06-.37-12.34-3.18-17.76s-9-9.71-15.14-8.47a8.7,8.7,0,0,1-.58,5.77"/><polygon class="cls-2" points="68.53 127.9 71.86 128.16 69.47 140.5 68.53 127.9"/><path class="cls-6" d="M69.47,128.16S51,123.74,48.18,116.87c0,0-3.4,23.73,3.09,26.83Z"/><path class="cls-6" d="M97.07,116.87s-13.5,10.82-25.21,11.29L86.5,143.7s13.7-11.82,15.48-18.34Z"/><path class="cls-7" d="M69.48,139.77a96.57,96.57,0,0,0-1.14,22.4"/></svg>