<svg id="Layer_1" data-name="Layer 1" xmlns="http://www.w3.org/2000/svg" viewBox="0 0 59 57"><defs><style>.cls-1{fill:#00a7ce;}</style></defs><path class="cls-1" d="M46.73,36.27A2.41,2.41,0,0,1,46,38C41,41.76,35.84,45.41,30.73,49.09a3.2,3.2,0,0,1-.54.16c0-5.3,0-10.47,0-15.64a1.49,1.49,0,0,1,.45-1.09c5.25-3.82,10.52-7.61,16-11.53a11.76,11.76,0,0,1,.13,1.19c0,4.69,0,9.39,0,14.09M12.84,19.17,29.6,7.05,46.15,19.34,29.37,31.47,12.84,19.17M28.48,49.43c-3-2.2-5.66-4.19-8.34-6.19-2.36-1.76-4.72-3.51-7-5.3-.38-.29-.84-.79-.84-1.2-.06-5.22,0-10.45,0-16l7.89,5.84c2.48,1.84,5,3.66,7.42,5.57a2.46,2.46,0,0,1,.91,1.66c.07,5.08,0,10.15,0,15.63M48.13,20.16a2.75,2.75,0,0,0-.9-1.85c-5.44-4.13-11-8.17-16.42-12.28A1.72,1.72,0,0,0,28.4,6c-5.52,4-11.08,8-16.59,12.06a2.61,2.61,0,0,0-1,1.8c-.07,5.72-.06,11.44,0,17.17a2.26,2.26,0,0,0,.71,1.62Q19.92,45,28.39,51.22a2.11,2.11,0,0,0,1.94,0q8.43-6,16.73-12.14a3.3,3.3,0,0,0,1.06-2.24c.13-2.72.05-5.45.05-8.18s0-5.67,0-8.51"/></svg>