<svg id="Capa_1" data-name="Capa 1" xmlns="http://www.w3.org/2000/svg" xmlns:xlink="http://www.w3.org/1999/xlink" viewBox="0 0 516.72 696.57"><defs><style>.cls-1{fill:none;}.cls-2{clip-path:url(#clip-path);}.cls-3{fill:#f2f8f9;}.cls-4{clip-path:url(#clip-path-2);}</style><clipPath id="clip-path"><rect class="cls-1" x="-503.24" y="177.11" width="432.59" height="432.59"/></clipPath><clipPath id="clip-path-2"><rect class="cls-1" width="553.99" height="710.8"/></clipPath></defs><g class="cls-2"><path class="cls-3" d="M-303.43,104.45c-77.92,14.63-153.73,65.83-175.59,142-8.39,29.25-8.49,60.2-7.1,90.59,1.53,33.57,5,67.78,18.79,98.41,23.08,51.16,71.62,85.51,119,115.59,28.42,18,57.65,35.67,89.95,45.15,43.4,12.73,89.65,10,134.75,6.68,29.35-2.17,59.37-4.74,86.15-16.93C1.19,568.37,29,532.06,44.44,492.49S64.32,410,66.72,367.55c1.58-27.88,2.33-56.15-3.7-83.41C27,121.06-160.52,77.62-303.43,104.45Z"/></g><g class="cls-4"><path class="cls-3" d="M-26.74,616.18c18.07,18.08,40.64,31.12,64.19,41.05,139.17,58.66,347.18,38.91,432.43-98.77,54.2-87.55,59.21-229.37-38-290.1-54.47-34-126.36-29.88-180.76-64-42.59-26.74-68.28-72.94-102.66-109.65C105.11,48.35,46,17.79-16.38,6.83Z"/></g></svg>