<svg id="Capa_1" data-name="Capa 1" xmlns="http://www.w3.org/2000/svg" viewBox="0 0 150 162.52"><defs><style>.cls-1{fill:#eac4b0;}.cls-2{fill:#375971;}.cls-3{fill:#1a3744;}.cls-4{fill:#fff;}.cls-5{fill:#bc948e;}</style></defs><path class="cls-1" d="M28.94,64.41a8.17,8.17,0,0,0-1,4.32c-.14,3.1-.23,6.31,1,9.17s4.06,5.27,7.14,4.9a41.61,41.61,0,0,0-1-17.27A3.39,3.39,0,0,0,28.94,64.41Z"/><path class="cls-2" d="M142.27,143c1.77-.64,3.62-1,5.43-1.56-18.57-21.69-45.14-35.76-72.63-36.72A88.47,88.47,0,0,0,2.3,139.19c17.15,10,43.3,16.65,69,18.32S115,152.81,142.27,143Z"/><path class="cls-1" d="M54,94.35c2.94-5.14,8.93-7.95,14.83-8.49,12.6-1.16,25.38,7.72,28.67,19.93s-3.27,26.32-14.73,31.66a33.75,33.75,0,0,1-13.56,2.92c-10.51.24-16.15-4.62-17.77-14.31C50.17,118.75,50.38,100.63,54,94.35Z"/><path class="cls-1" d="M63.45,12.92c-9.11,1.45-17.8,6-23.19,13.06-7,9.2-7.77,21.31-7.34,32.64.46,12.28,2.1,24.81,7.86,35.83S55.13,113.6,68,115.78c3.76.64,9.28,1,13,0,8.71-2.38,15-9,19.06-16.66a83.72,83.72,0,0,0,7.89-57.17C103.13,20.61,86.59,9.23,63.45,12.92Z"/><path class="cls-3" d="M58,62.36a3.59,3.59,0,0,1-.14,1.54,2.21,2.21,0,0,1-2.21,1.51,2.68,2.68,0,0,1-2-3.47,2.35,2.35,0,0,1,1.93-1.63,2.45,2.45,0,0,1,2,.74A2.75,2.75,0,0,1,58,62.36Z"/><path class="cls-3" d="M82.9,58.31a2.54,2.54,0,1,0,.31.1"/><path class="cls-3" d="M57.09,52.33a9.59,9.59,0,0,0-7.74,2.32c-.68.61.32,1.6,1,1a8,8,0,0,1,6.37-2,.7.7,0,1,0,.37-1.36Z"/><path class="cls-3" d="M81.46,52.07a22,22,0,0,1,7.67,2.66.71.71,0,0,0,.72-1.22,22.9,22.9,0,0,0-8-2.8.75.75,0,0,0-.87.49.71.71,0,0,0,.5.87Z"/><path class="cls-3" d="M58.34,88.48c1.66-1.42,4-1.63,6.19-1.74,5.18-.26,10.38-.33,15.57-.2,1.88,0,3.92.19,5.31,1.45s1.7,3.63,1.5,5.65a19,19,0,0,1-1.69,6.74,10.41,10.41,0,0,1-4,4.15l-2,1.32a3.73,3.73,0,0,0,2.16-.28,11,11,0,0,0,1.91-1.1,16.14,16.14,0,0,0,4.68-4.56A22.26,22.26,0,0,0,89.5,97.2a5.7,5.7,0,0,0,.85-2.06,19.52,19.52,0,0,0,.38-7.87A8.86,8.86,0,0,0,89.09,83c-1.68-2.08-4.55-2.71-7.21-3a63.25,63.25,0,0,0-22.36,1.3,9.55,9.55,0,0,0-3.88,1.62C52.72,85.28,53.2,89.78,54,93.46c.4,2,6.12,11.1,7,8.54C61.87,99.65,55.69,90.74,58.34,88.48Z"/><path class="cls-3" d="M56.75,96.21c2.9,1.15,4.21,4.62,6.63,6.6a17.29,17.29,0,0,0,20.36.8,7.86,7.86,0,0,0,2.94-3.4c.89-2.25.15-5,1.4-7.07a5.15,5.15,0,0,1,2.69-2.44c6.66-2,11.24-7.53,16.86-11.3-2.7,10.19-5.82,18.91-12.39,27.2-7.7,9.73-24.58,12-35.39,7.55a30.65,30.65,0,0,1-9.71-6.81A50.73,50.73,0,0,1,36.56,83.89C42.28,89.7,49.85,93.48,56.75,96.21Z"/><path class="cls-4" d="M76.6,94.94a10.36,10.36,0,0,0,4.2-1.22,4.56,4.56,0,0,0,2.3-3.55c0,.94-9.84,2.07-10.91,2.18a73.34,73.34,0,0,1-11.19,0A29.29,29.29,0,0,0,76.6,94.94Z"/><path class="cls-5" d="M63.06,72c-.86,1.42-1.7,3.08-1.2,4.66a4.1,4.1,0,0,0,2.74,2.48c1.22.4,2.53,1.53,3.81,1.52l6,0c1.31,0,2.66-1.14,3.89-1.6a3.85,3.85,0,0,0,2.58-2.73c.27-1.53-.71-3-1.67-4.18a79.51,79.51,0,0,0-6.66-7.32C68.35,60.78,65,68.77,63.06,72Z"/><path class="cls-1" d="M111.36,58.88A23,23,0,0,1,111.77,75a6.06,6.06,0,0,1-1.46,2.53,2.48,2.48,0,0,1-2.71.54,3.44,3.44,0,0,1-1.42-1.85,18.54,18.54,0,0,1-.81-12.2C105.63,63.14,109.93,55.39,111.36,58.88Z"/><path class="cls-3" d="M37.12,28.54c5.21-9,8.54-12.72,18.66-15.08S82.9,9.74,93.23,10.92a4,4,0,0,0-1.36,2.74,18.69,18.69,0,0,1,10,3.12c-3,4.3.38,9.49,2.84,14.11,8.13,15.23,5.07,33.09,2.94,48.9.25-9.86.47-20-2.59-29.32a13.57,13.57,0,0,0-1.91-4c-.64-.84-1.43-1.56-2.08-2.39-1.35-1.73-2-3.88-3-5.86-2.28-4.76-6.51-7.62-10-11.41a31.24,31.24,0,0,0-16.85,1.49c.67-.25,1.39-2.4,1.61-3-5.6-.85-14.3,3.75-19.4,6.14a5.5,5.5,0,0,1,.63-3.64c-.69,1.21-5.5,2.74-6.88,4.12a25.75,25.75,0,0,0-4.72,7.31,66.21,66.21,0,0,0-6.23,21.11A72.29,72.29,0,0,0,36.4,72c.24,3.67-.08,8.17.16,11.85-1.35-4-.54-1.09-2.9-15.06a63.09,63.09,0,0,1-1.11-12.54C32.61,47,32.28,36.9,37.12,28.54Z"/></svg>