<svg id="Layer_1" data-name="Layer 1" xmlns="http://www.w3.org/2000/svg" viewBox="0 0 59 57"><defs><style>.cls-1{fill:#00a7ce;}</style></defs><path class="cls-1" d="M29.53,19.41a9,9,0,1,0,9,9A9,9,0,0,0,29.53,19.41Zm0,15.88a6.86,6.86,0,1,1,6.85-6.86A6.86,6.86,0,0,1,29.53,35.29Z"/><path class="cls-1" d="M52.52,25l-3.26-1-.14-.55A19.61,19.61,0,0,0,47,18.2l-.28-.49,1.6-3a1.09,1.09,0,0,0-.18-1.28L44.55,9.89a1.09,1.09,0,0,0-1.28-.18l-3,1.6L39.82,11a20.11,20.11,0,0,0-5.24-2.16L34,8.72l-1-3.25a1.08,1.08,0,0,0-1-.77H27a1.07,1.07,0,0,0-1,.77L25,8.73l-.55.14A20.12,20.12,0,0,0,19.2,11l-.48.29-3-1.61a1.06,1.06,0,0,0-1.27.18L10.9,13.45a1.09,1.09,0,0,0-.19,1.28l1.62,3-.28.49a19.9,19.9,0,0,0-2.12,5.19L9.79,24,6.48,25a1.06,1.06,0,0,0-.77,1v5a1.07,1.07,0,0,0,.77,1L9.8,33l.14.55a20.15,20.15,0,0,0,2.13,5.14l.29.48-1.65,3.06a1.08,1.08,0,0,0,.19,1.28l3.55,3.56a1.06,1.06,0,0,0,1.27.18l3.08-1.65.49.28A19.91,19.91,0,0,0,24.4,48l.54.15,1,3.37a1.07,1.07,0,0,0,1,.77h5a1.1,1.1,0,0,0,1-.77l1-3.36.55-.14a20.36,20.36,0,0,0,5.12-2.1l.49-.29,3.05,1.65a1.08,1.08,0,0,0,1.28-.18l3.56-3.56a1.07,1.07,0,0,0,.18-1.28l-1.63-3,.29-.48a20.32,20.32,0,0,0,2.15-5.18l.14-.55,3.28-1a1.07,1.07,0,0,0,.77-1V26A1.06,1.06,0,0,0,52.52,25Zm-1.39,5.25L48,31.15a1.08,1.08,0,0,0-.75.82,18,18,0,0,1-2.75,6.61,1.07,1.07,0,0,0-.06,1.12L46,42.59,43.59,45l-2.92-1.57a1.08,1.08,0,0,0-1.12.06,18,18,0,0,1-6.67,2.7,1,1,0,0,0-.82,1l0,.25-.81,2.7H27.79L27,47.56l0-.24a1.06,1.06,0,0,0-.88-1.12,18.09,18.09,0,0,1-6.74-2.73,1,1,0,0,0-1.2,0l-.1.05L15.41,45,13,42.59l1.57-2.93a1.08,1.08,0,0,0-.05-1.11A17.79,17.79,0,0,1,11.8,32a1.08,1.08,0,0,0-.76-.82l-3.17-.95V26.79L11,25.85a1.1,1.1,0,0,0,.76-.83,17.56,17.56,0,0,1,2.71-6.63,1.08,1.08,0,0,0,.05-1.11L13,14.41,15.41,12l2.86,1.54a1.08,1.08,0,0,0,1.11,0A18,18,0,0,1,26,10.72a1.11,1.11,0,0,0,.83-.75l.92-3.11h3.42L32.14,10a1.11,1.11,0,0,0,.83.75,17.77,17.77,0,0,1,6.67,2.75,1.07,1.07,0,0,0,1.13,0L43.59,12,46,14.42l-1.54,2.84a1.06,1.06,0,0,0,.06,1.11A18,18,0,0,1,47.26,25a1.06,1.06,0,0,0,.75.83l3.12.94Z"/></svg>