<svg id="Layer_1" data-name="Layer 1" xmlns="http://www.w3.org/2000/svg" viewBox="0 0 59 57"><defs><style>.cls-1{fill:#ef7622;}</style></defs><path class="cls-1" d="M39.17,15.83a9.67,9.67,0,0,0-19.34,0c-7.53,3.83-12.62,12-12.62,21.78v4a4.71,4.71,0,0,0,4.45,4.92,4.7,4.7,0,0,0,4.45-4.92v-4a17,17,0,0,1,2.13-8.3V45.77a1,1,0,1,0,2,0V26.43a1,1,0,0,0-1-1l-.13,0a1,1,0,0,0-.9.34,18.61,18.61,0,0,0-4.13,11.83v4a2.71,2.71,0,0,1-2.43,2.91A2.71,2.71,0,0,1,9.23,41.6v-4c0-8.64,4.35-16,10.84-19.6a9.66,9.66,0,0,0,18.86,0c6.49,3.64,10.84,11,10.84,19.6v4a2.71,2.71,0,0,1-2.43,2.91,2.71,2.71,0,0,1-2.43-2.91v-4a18.61,18.61,0,0,0-4.13-11.83,1,1,0,0,0-.9-.34l-.13,0a1,1,0,0,0-1,1V49.77a1,1,0,1,0,2,0V29.32a17,17,0,0,1,2.13,8.29v4a4.7,4.7,0,0,0,4.45,4.92,4.71,4.71,0,0,0,4.45-4.92v-4C51.79,27.87,46.7,19.66,39.17,15.83ZM29.5,23.55A7.65,7.65,0,0,1,22,17.09a6.75,6.75,0,0,1-.11-1.19,8,8,0,0,1,.07-1,7.65,7.65,0,0,1,15.18,0,8,8,0,0,1,.07,1,7.86,7.86,0,0,1-.11,1.19A7.65,7.65,0,0,1,29.5,23.55Z"/></svg>