<svg id="Capa_1" data-name="Capa 1" xmlns="http://www.w3.org/2000/svg" xmlns:xlink="http://www.w3.org/1999/xlink" viewBox="0 0 1200 1291.61"><defs><style>.cls-1,.cls-4{fill:none;}.cls-2{clip-path:url(#clip-path);}.cls-3{fill:#f2f8f9;}.cls-4{stroke:#00a6cc;stroke-miterlimit:10;}</style><clipPath id="clip-path"><rect class="cls-1" width="1200" height="1291.61"/></clipPath></defs><g class="cls-2"><path class="cls-3" d="M1313.53,1240.62c-116.84,30-244.29,12.27-349.55-48.51C784.12,1088.25,674.06,869.6,478.6,803.1c-65.89-22.42-136.16-25.22-205.27-30.58s-139.78-14-201.64-46.58S-42.28,632-47.43,560l6.64-479C-.88,46.23,54.15,38.6,106,35.37,364.26,19.3,621.49,77.26,880.14,81.71c129.87,2.23,268.62-12.44,370.41-96.58Z"/><path class="cls-4" d="M-10.06,40.28C126.74,17.94,267.05,7.2,403.76,30.07c68.41,11.44,135.18,31.17,203.43,43.52C689.13,88.42,772.67,92.51,856,92.68,989.16,93,1130.9,80.23,1237.24,0"/></g></svg>