<svg id="Capa_1" data-name="Capa 1" xmlns="http://www.w3.org/2000/svg" viewBox="0 0 165.9 48.93"><defs><style>.cls-1{fill:#fff;}</style></defs><path class="cls-1" d="M60.75,18.22h2.59A3.49,3.49,0,0,1,67,21.55v1.11A3.49,3.49,0,0,1,63.34,26H61.79v4.6a1,1,0,0,1-1,1,1,1,0,0,1-1-1V19.17A1,1,0,0,1,60.75,18.22Zm2.59,1.9H61.79v4h1.55a1.49,1.49,0,0,0,1.56-1.43V21.55A1.49,1.49,0,0,0,63.34,20.12Z"/><path class="cls-1" d="M74.44,28.24A1.51,1.51,0,0,0,74,27.05L70.53,23.8a3.13,3.13,0,0,1-1-2.58,3.26,3.26,0,0,1,1.42-2.4,3.93,3.93,0,0,1,2.92-.62,3.65,3.65,0,0,1,2.42,1.61.93.93,0,0,1-.39,1.31,1.08,1.08,0,0,1-1.41-.36,1.59,1.59,0,0,0-1-.69,1.68,1.68,0,0,0-1.26.27A1.36,1.36,0,0,0,72,22.47l3.44,3.25a3.33,3.33,0,0,1,1.06,2.66,3.42,3.42,0,0,1-1.47,2.48,4.08,4.08,0,0,1-3,.64,3.74,3.74,0,0,1-2.48-1.65.9.9,0,0,1,.37-1.31,1.1,1.1,0,0,1,1.42.36,1.71,1.71,0,0,0,1.1.73,1.76,1.76,0,0,0,1.34-.3A1.42,1.42,0,0,0,74.44,28.24Z"/><path class="cls-1" d="M80,30.6V19.09a1,1,0,0,1,1-.95,1,1,0,0,1,1,.95V30.6a1,1,0,0,1-2.07,0Z"/><path class="cls-1" d="M86.06,28.22V21.47a3.39,3.39,0,0,1,2.68-3.21,3.74,3.74,0,0,1,4.09,1.55.91.91,0,0,1-.37,1.31A1.1,1.1,0,0,1,91,20.76a1.6,1.6,0,0,0-1.75-.66,1.46,1.46,0,0,0-1.15,1.37v6.75a1.47,1.47,0,0,0,1.15,1.39A1.64,1.64,0,0,0,91,28.94a1.1,1.1,0,0,1,1.42-.36.91.91,0,0,1,.37,1.31,3.76,3.76,0,0,1-4.09,1.55A3.39,3.39,0,0,1,86.06,28.22Z"/><path class="cls-1" d="M95.94,28.22V21.47a3.64,3.64,0,0,1,7.26,0v6.75a3.64,3.64,0,0,1-7.26,0ZM98,21.47v6.75a1.57,1.57,0,0,0,3.12,0V21.47a1.57,1.57,0,0,0-3.12,0Z"/><path class="cls-1" d="M106.72,30.6V19.09a1,1,0,0,1,.8-.93,1,1,0,0,1,1.17.54s1.54,2.95,2.53,4.9c1-2,2.51-4.9,2.51-4.9a1,1,0,0,1,1.16-.54,1,1,0,0,1,.82.93V30.6a1,1,0,0,1-2.07,0V23.36c-.74,1.41-1.49,2.88-1.49,2.88a1.08,1.08,0,0,1-1.88,0s-.76-1.47-1.47-2.88V30.6a1,1,0,0,1-1,1A1,1,0,0,1,106.72,30.6Z"/><path class="cls-1" d="M120.82,18.22h4.32a1,1,0,0,1,1,1,1,1,0,0,1-1,.95h-3.29V23.7h2.86a1,1,0,0,1,1,.95,1,1,0,0,1-1,1h-2.86v4h3.29a1,1,0,0,1,1,.95,1,1,0,0,1-1,1h-4.32a1,1,0,0,1-1-1V19.17A1,1,0,0,1,120.82,18.22Z"/><path class="cls-1" d="M135.32,18.22a1,1,0,0,1,1,1,1,1,0,0,1-1,.95h-1.77V30.6a1,1,0,0,1-2.07,0V20.12h-1.77a1,1,0,0,1-1-.95,1,1,0,0,1,1-1Z"/><path class="cls-1" d="M144.36,25.62l1.88,4.65a.92.92,0,0,1-.6,1.23,1.08,1.08,0,0,1-1.34-.56l-2-4.94h-1.17v4.6a1,1,0,0,1-1,1,1,1,0,0,1-1-1V19.17a1,1,0,0,1,1-1h2.59a3.49,3.49,0,0,1,3.63,3.33v1.11A3.27,3.27,0,0,1,144.36,25.62Zm-3.24-1.53h1.56a1.48,1.48,0,0,0,1.55-1.43V21.55a1.49,1.49,0,0,0-1.55-1.43h-1.56Z"/><path class="cls-1" d="M150.09,30.6V19.09a1,1,0,0,1,1-.95,1,1,0,0,1,1,.95V30.6a1,1,0,0,1-2.07,0Z"/><path class="cls-1" d="M155.44,30.19l3-5.54-2.79-5.12a.94.94,0,0,1,.45-1.29,1.09,1.09,0,0,1,1.41.44l2.09,3.85,2.1-3.85a1.06,1.06,0,0,1,1.38-.44.93.93,0,0,1,.48,1.29l-2.79,5.12,3,5.54a.91.91,0,0,1-.47,1.27,1.09,1.09,0,0,1-1.39-.42l-2.31-4.27L157.3,31a1.09,1.09,0,0,1-1.4.42A.92.92,0,0,1,155.44,30.19Z"/><path class="cls-1" d="M22.51,12.62,22,8.1a2.68,2.68,0,0,0-2.81-2.33L6,6.69A2.74,2.74,0,0,0,3.51,9.38v13.1A2,2,0,0,0,6,24.54l3.55-.67a12.72,12.72,0,0,1,.76-2.78C12.65,15.19,18.76,13.26,22.51,12.62Z"/><path class="cls-1" d="M25.79,12.32c.84,0,4.93-.05,7.4,3,2.24,2.73,1,3.26,2.73,6a3.72,3.72,0,0,0,1.35,1.13h7.41A2.32,2.32,0,0,0,47,19.85L45.78,5.62A2.89,2.89,0,0,0,43,3.05H25.34a2.2,2.2,0,0,0-2.23,2.56l.94,6.8c1-.1,1.57-.1,1.57-.1Z"/><path class="cls-1" d="M49.71,42.56,48.8,26a2.72,2.72,0,0,0-2.92-2.49l-6.06.24c1,.49,1.81,1,2,1.63A1.87,1.87,0,0,1,41.6,27c-.35.62-.88,1.15-1.1,1.59a.91.91,0,0,0-.1.29c-.08.8,1.69,5.57.85,7.24a2.5,2.5,0,0,1-.69.79C39,38.14,35.69,39,34.85,39.22a.92.92,0,0,0-.36.21,11.84,11.84,0,0,0-2.28,3.29,19.79,19.79,0,0,0-.73,2l15.75.41A2.31,2.31,0,0,0,49.71,42.56Z"/><path class="cls-1" d="M16.23,37.72a17.59,17.59,0,0,1-3.13-2.5A12.65,12.65,0,0,1,9.39,25l-4,.87A3.34,3.34,0,0,0,2.83,29V41.35a2.73,2.73,0,0,0,2.57,2.7l10.3.23a8.77,8.77,0,0,0,.57-1.61C16.75,40.84,16.92,39,16.23,37.72Z"/></svg>