<svg id="Layer_1" data-name="Layer 1" xmlns="http://www.w3.org/2000/svg" viewBox="0 0 59 57"><defs><style>.cls-1{fill:#00a7ce;}</style></defs><path class="cls-1" d="M46,14.13A20.69,20.69,0,0,0,10.76,28.57a19.91,19.91,0,0,0,3.76,11.75,7.93,7.93,0,0,1-4.44,6,1,1,0,0,0-.48.57L7.09,48l2.76-.22a.94.94,0,0,0,.7.26,37.87,37.87,0,0,0,10-2.17,20.57,20.57,0,0,0,10.61,3h.07A20.66,20.66,0,0,0,51.91,28.43,20,20,0,0,0,46,14.13ZM31.2,47.3V47a18.68,18.68,0,0,1-9.65-2.69,1.89,1.89,0,0,0-1-.26,1.93,1.93,0,0,0-.67.12,32.48,32.48,0,0,1-6,1.61,10.76,10.76,0,0,0,2.45-5.07A1.83,1.83,0,0,0,16,39.23a18.16,18.16,0,0,1-3.41-10.66A18.8,18.8,0,0,1,31.47,10a18.53,18.53,0,0,1,13.21,5.45,18.1,18.1,0,0,1,5.35,13A18.77,18.77,0,0,1,31.26,47l-.06.93Z"/><path class="cls-1" d="M20.86,26H42.07a.94.94,0,0,0,0-1.88H20.86a.94.94,0,1,0,0,1.88Z"/><path class="cls-1" d="M43,31.61a.94.94,0,0,0-.94-.93H20.86a.94.94,0,1,0,0,1.87H42.07A.94.94,0,0,0,43,31.61Z"/></svg>