<svg id="Layer_1" data-name="Layer 1" xmlns="http://www.w3.org/2000/svg" viewBox="0 0 59 57"><defs><style>.cls-1{fill:#00a7ce;}</style></defs><path class="cls-1" d="M30.62,8.13a13.63,13.63,0,0,0-23.21,9.5,13.14,13.14,0,0,0,2.48,7.74A5.23,5.23,0,0,1,7,29.3a.63.63,0,0,0-.32.38L5,30.45l1.82-.14a.63.63,0,0,0,.46.17,25.16,25.16,0,0,0,6.61-1.43,13.53,13.53,0,0,0,7,1.94h0A13.59,13.59,0,0,0,34.5,17.55,13.2,13.2,0,0,0,30.62,8.13ZM20.87,30v-.2A12.26,12.26,0,0,1,14.52,28a1.27,1.27,0,0,0-.63-.17,1.11,1.11,0,0,0-.44.08,22.46,22.46,0,0,1-4,1.06,7.12,7.12,0,0,0,1.62-3.34,1.24,1.24,0,0,0-.21-1,12,12,0,0,1-2.24-7A12.37,12.37,0,0,1,21.05,5.42,12.19,12.19,0,0,1,29.74,9a11.94,11.94,0,0,1,3.53,8.54A12.37,12.37,0,0,1,20.91,29.76l0,.61Z"/><path class="cls-1" d="M14.06,15.93H28a.61.61,0,0,0,.62-.61A.62.62,0,0,0,28,14.7h-14a.61.61,0,0,0-.61.62A.61.61,0,0,0,14.06,15.93Z"/><path class="cls-1" d="M28.64,19.64A.62.62,0,0,0,28,19h-14a.62.62,0,0,0,0,1.24H28A.62.62,0,0,0,28.64,19.64Z"/><path class="cls-1" d="M44.44,46.85a.84.84,0,0,1-.35-.07l-9.76-4.14a.89.89,0,0,1-.47-1.16L44,17.36a.89.89,0,0,1,1.16-.47L55,21a.89.89,0,0,1,.47,1.16L45.25,46.31a.87.87,0,0,1-.48.48A1,1,0,0,1,44.44,46.85Zm-8.6-5.5L44,44.8l9.48-22.48-8.13-3.45Z"/><path class="cls-1" d="M36.3,52.45a.87.87,0,0,1-.35-.07.9.9,0,0,1-.52-.67L33.79,42a.88.88,0,0,1,1.21-1l9.76,4.14a.89.89,0,0,1,.54.73.88.88,0,0,1-.38.82L36.8,52.3A.89.89,0,0,1,36.3,52.45Zm-.5-9.14,1.14,6.74,5.64-3.86Z"/><path class="cls-1" d="M36.15,52.5h-21a.89.89,0,0,1,0-1.77h21a.89.89,0,1,1,0,1.77Z"/></svg>