<svg id="Capa_1" data-name="Capa 1" xmlns="http://www.w3.org/2000/svg" viewBox="0 0 23 23"><defs><style>.cls-1{fill:#00a6cf;}</style></defs><path class="cls-1" d="M6.33,18.33H16.67a.67.67,0,0,0,.67-.67v-1a5.91,5.91,0,0,0-3-5.14l-.4-.22.32-.33a3.74,3.74,0,0,0,1-2.59,3.79,3.79,0,0,0-3.75-3.82A3.86,3.86,0,0,0,7.72,8.35a3.67,3.67,0,0,0,1.07,2.59l.32.33-.4.23a5.91,5.91,0,0,0-3.05,5.13v1A.67.67,0,0,0,6.33,18.33Z"/><path class="cls-1" d="M21.17,7.22a.5.5,0,0,1-.5-.5V2.33H16.23a.5.5,0,0,1,0-1h4.94a.5.5,0,0,1,.5.5V6.72A.5.5,0,0,1,21.17,7.22Z"/><path class="cls-1" d="M1.83,7.11a.5.5,0,0,1-.5-.5V1.83a.5.5,0,0,1,.5-.5H6.56a.5.5,0,1,1,0,1H2.33V6.61A.5.5,0,0,1,1.83,7.11Z"/><path class="cls-1" d="M6.67,21.67H1.83a.5.5,0,0,1-.5-.5V16a.5.5,0,0,1,1,0v4.63H6.67a.5.5,0,1,1,0,1Z"/><path class="cls-1" d="M21.17,21.67H16.23a.5.5,0,0,1,0-1h4.44V16a.5.5,0,0,1,1,0v5.13A.5.5,0,0,1,21.17,21.67Z"/></svg>