<svg id="Capa_1" data-name="Capa 1" xmlns="http://www.w3.org/2000/svg" viewBox="0 0 31 31"><defs><style>.cls-1{fill:#83d1de;}</style></defs><path class="cls-1" d="M28.44,11.32c-1-1.25-2.77-1.52-4.84-1.59-3.67-.12-7.77-.12-8.1-.12s-4.43,0-8.1.12c-2.07.07-3.85.34-4.84,1.59C1.05,13.25,1.3,19.43,1.3,19.43s-.25,6.18,1.26,8.11c1,1.25,2.77,1.52,4.84,1.59,3.67.12,7.77.12,8.1.12s4.43,0,8.1-.12c2.07-.07,3.85-.34,4.84-1.59,1.51-1.93,1.26-8.11,1.26-8.11S30,13.25,28.44,11.32ZM12.69,23.74V15.28l7.39,4.23Z"/></svg>