<svg id="Capa_1" data-name="Capa 1" xmlns="http://www.w3.org/2000/svg" xmlns:xlink="http://www.w3.org/1999/xlink" viewBox="0 0 223.99 222.22"><defs><style>.cls-1{fill:none;}.cls-2{clip-path:url(#clip-path);}.cls-3{fill:#8bc8d4;}.cls-4,.cls-6{fill:#2f495f;}.cls-5{fill:#193a5f;}.cls-6{stroke:#2f495f;stroke-miterlimit:10;stroke-width:0.58px;}.cls-7,.cls-9{fill:#fff;}.cls-8,.cls-9{opacity:0.2;}.cls-10{fill:#4a7595;}.cls-11{fill:#eaf6f7;}.cls-12{fill:#ee975a;}</style><clipPath id="clip-path"><rect class="cls-1" width="223.99" height="222.3" rx="25.94"/></clipPath></defs><g class="cls-2"><rect class="cls-3" width="223.99" height="222.22"/><path class="cls-4" d="M97.85,106.46v4.15H97v-10h3a2.59,2.59,0,0,1,2,.81,3.49,3.49,0,0,1,0,4.27,2.61,2.61,0,0,1-2,.8Zm0-.72H100a1.7,1.7,0,0,0,1.45-.63,2.86,2.86,0,0,0,0-3.17,1.7,1.7,0,0,0-1.45-.63H97.85Z"/><path class="cls-4" d="M109.23,105.76h-3.94v4.15h4.53v.7h-5.36v-10h5.32v.73h-4.49v3.75h3.94Z"/><path class="cls-4" d="M112.17,106.07v4.54h-.82v-10h2.88a2.81,2.81,0,0,1,2.06.71,2.76,2.76,0,0,1,.72,2.06,2.67,2.67,0,0,1-.38,1.42,2.17,2.17,0,0,1-1.08.92,1.81,1.81,0,0,1,1.1.84,3,3,0,0,1,.34,1.51v1a3.61,3.61,0,0,0,.09.84,1.4,1.4,0,0,0,.3.61v.16h-.85a1.37,1.37,0,0,1-.29-.69,5.58,5.58,0,0,1-.08-.94v-.92a2.16,2.16,0,0,0-.46-1.45,1.58,1.58,0,0,0-1.27-.54Zm0-.7h2a2,2,0,0,0,1.55-.54,2.09,2.09,0,0,0,.49-1.47,2.2,2.2,0,0,0-.48-1.52,1.89,1.89,0,0,0-1.46-.53h-2.06Z"/><path class="cls-4" d="M124,105.94h-4v4.67h-.83v-10h5.38v.73H120v3.9h4Z"/><path class="cls-4" d="M127,110.61h-.83v-10H127Z"/><path class="cls-4" d="M130.25,109.91h4.05v.7h-4.89v-10h.84Z"/><path class="cls-4" d="M101.5,127.23H97.84L97,130h-.85l3.17-10h.75l3.14,10h-.85Zm-3.42-.76h3.19l-1.57-5.16h0Z"/><path class="cls-4" d="M110.11,120v7a3.12,3.12,0,0,1-.82,2.34,2.9,2.9,0,0,1-2.13.81,2.8,2.8,0,0,1-2.09-.81,3.19,3.19,0,0,1-.8-2.34v-7h.81v7a2.6,2.6,0,0,0,.58,1.81,1.93,1.93,0,0,0,1.5.63,2.07,2.07,0,0,0,1.55-.6,2.56,2.56,0,0,0,.58-1.84v-7Z"/><path class="cls-4" d="M117.76,120.71H115V130h-.83v-9.3h-2.8V120h6.43Z"/><path class="cls-4" d="M124.89,126.41a4.06,4.06,0,0,1-.85,2.78,3,3,0,0,1-2.33,1,2.88,2.88,0,0,1-2.29-1,4.16,4.16,0,0,1-.83-2.78V123.6a4.21,4.21,0,0,1,.83-2.8,2.85,2.85,0,0,1,2.28-1,2.92,2.92,0,0,1,2.33,1,4.07,4.07,0,0,1,.86,2.79Zm-.82-2.83a3.52,3.52,0,0,0-.61-2.24,2.15,2.15,0,0,0-1.76-.75,2,2,0,0,0-1.7.75,3.52,3.52,0,0,0-.59,2.24v2.83a3.59,3.59,0,0,0,.59,2.26,2,2,0,0,0,1.71.75,2.13,2.13,0,0,0,1.75-.75,3.52,3.52,0,0,0,.61-2.26Z"/><path class="cls-4" d="M132.22,127.1l0,0a3.16,3.16,0,0,1-.77,2.24,2.78,2.78,0,0,1-2.09.77,2.71,2.71,0,0,1-2.2-1,4.29,4.29,0,0,1-.81-2.79v-2.78a4.24,4.24,0,0,1,.82-2.79,2.68,2.68,0,0,1,2.19-1,2.82,2.82,0,0,1,2.09.76,3.1,3.1,0,0,1,.77,2.26l0,0h-.77a2.64,2.64,0,0,0-.55-1.76,1.94,1.94,0,0,0-1.52-.57,1.88,1.88,0,0,0-1.61.78,3.7,3.7,0,0,0-.58,2.25v2.8a3.76,3.76,0,0,0,.58,2.28,1.88,1.88,0,0,0,1.61.78,1.94,1.94,0,0,0,1.52-.56,2.65,2.65,0,0,0,.55-1.79Z"/><path class="cls-4" d="M140,126.41a4.11,4.11,0,0,1-.85,2.78,3,3,0,0,1-2.33,1,2.87,2.87,0,0,1-2.29-1,4.16,4.16,0,0,1-.83-2.78V123.6a4.21,4.21,0,0,1,.83-2.8,2.85,2.85,0,0,1,2.28-1,2.93,2.93,0,0,1,2.33,1,4.07,4.07,0,0,1,.86,2.79Zm-.82-2.83a3.52,3.52,0,0,0-.61-2.24,2.15,2.15,0,0,0-1.76-.75,2,2,0,0,0-1.7.75,3.52,3.52,0,0,0-.6,2.24v2.83a3.59,3.59,0,0,0,.6,2.26,2,2,0,0,0,1.71.75,2.13,2.13,0,0,0,1.75-.75,3.58,3.58,0,0,0,.61-2.26Z"/><path class="cls-4" d="M148,130h-.83l-4.47-8.4h-.05V130h-.83V120h.83l4.48,8.4h0V120H148Z"/><path class="cls-4" d="M156.13,126.41a4.06,4.06,0,0,1-.85,2.78,3,3,0,0,1-2.33,1,2.88,2.88,0,0,1-2.29-1,4.16,4.16,0,0,1-.83-2.78V123.6a4.21,4.21,0,0,1,.83-2.8,2.85,2.85,0,0,1,2.28-1,3,3,0,0,1,2.34,1,4.12,4.12,0,0,1,.85,2.79Zm-.82-2.83a3.46,3.46,0,0,0-.61-2.24,2.15,2.15,0,0,0-1.76-.75,2,2,0,0,0-1.7.75,3.52,3.52,0,0,0-.59,2.24v2.83a3.59,3.59,0,0,0,.59,2.26,2,2,0,0,0,1.71.75,2.13,2.13,0,0,0,1.75-.75,3.52,3.52,0,0,0,.61-2.26Z"/><path class="cls-4" d="M163.46,127.1l0,0a3.16,3.16,0,0,1-.77,2.24,2.78,2.78,0,0,1-2.09.77,2.73,2.73,0,0,1-2.2-1,4.29,4.29,0,0,1-.81-2.79v-2.78a4.24,4.24,0,0,1,.82-2.79,2.68,2.68,0,0,1,2.19-1,2.86,2.86,0,0,1,2.1.76,3.14,3.14,0,0,1,.76,2.26l0,0h-.77a2.64,2.64,0,0,0-.55-1.76,1.94,1.94,0,0,0-1.52-.57,1.89,1.89,0,0,0-1.61.78,3.7,3.7,0,0,0-.58,2.25v2.8a3.76,3.76,0,0,0,.58,2.28,1.89,1.89,0,0,0,1.61.78,1.94,1.94,0,0,0,1.52-.56,2.65,2.65,0,0,0,.55-1.79Z"/><path class="cls-4" d="M166.25,130h-.83V120h.83Z"/><path class="cls-4" d="M169.65,120l2.79,8.78h0l2.8-8.78h1.07v10h-.82v-4.4l.08-4.1h0L172.74,130h-.55l-2.83-8.49h0l.08,4.09V130h-.81V120Z"/><path class="cls-4" d="M179.52,130h-.83V120h.83Z"/><path class="cls-4" d="M186.67,125.16h-3.94v4.15h4.53v.7h-5.35V120h5.31v.73h-4.49v3.75h3.94Z"/><path class="cls-4" d="M195,130h-.82l-4.48-8.4h0V130h-.84V120h.84l4.47,8.4h0V120H195Z"/><path class="cls-4" d="M202.64,120.71h-2.81V130H199v-9.3h-2.8V120h6.43Z"/><path class="cls-4" d="M209.77,126.41a4.06,4.06,0,0,1-.86,2.78,2.94,2.94,0,0,1-2.33,1,2.85,2.85,0,0,1-2.28-1,4.16,4.16,0,0,1-.83-2.78V123.6a4.16,4.16,0,0,1,.83-2.8,2.85,2.85,0,0,1,2.28-1,3,3,0,0,1,2.33,1,4.07,4.07,0,0,1,.86,2.79Zm-.82-2.83a3.46,3.46,0,0,0-.62-2.24,2.13,2.13,0,0,0-1.75-.75,2.06,2.06,0,0,0-1.71.75,3.59,3.59,0,0,0-.59,2.24v2.83a3.65,3.65,0,0,0,.59,2.26,2.06,2.06,0,0,0,1.71.75,2.14,2.14,0,0,0,1.76-.75,3.58,3.58,0,0,0,.61-2.26Z"/><path class="cls-5" d="M20,40.79h0A4.16,4.16,0,0,0,17,42a.78.78,0,0,0-.17.88.92.92,0,0,0,.8.55.76.76,0,0,0,.56-.26,3.21,3.21,0,0,1,1.53-.9l.24,0a2.7,2.7,0,0,1,1.13.34l.07,0a1.92,1.92,0,0,0-.14.29h0l-.17.42q-.18.47-.45,1.11c-.19.44-.42,1-.69,1.46a7,7,0,0,1-.43.71,2.7,2.7,0,0,1-.48.56,2.13,2.13,0,0,1-.61.39h0l-.07,0-.09,0-.06,0-.1,0h0a1.5,1.5,0,0,1-.33.06h-.23a2.28,2.28,0,0,1-.45,0,4,4,0,0,1-.66-.18,5,5,0,0,1-.95-.49L15,46.91l0,0,0,0h0a.71.71,0,0,0-1,0,.7.7,0,0,0,0,1l0,0L14,48c.07.06.16.15.3.26a6.34,6.34,0,0,0,1.16.8,5.48,5.48,0,0,0,.91.38,4.48,4.48,0,0,0,1.16.21h.13a3.78,3.78,0,0,0,.51,0l.26,0,.07,0h.08l.07,0,.14,0A4.44,4.44,0,0,0,20,49a5,5,0,0,0,1.05-.78,4.48,4.48,0,0,0,.48-.49l.48.14a3.72,3.72,0,0,1,.88.43,1.22,1.22,0,0,1,.33.29h0l.06.07v0h0l0,.07,0,0,0,0,0,0a.16.16,0,0,1,0,.07,4.31,4.31,0,0,1,.17.59,5.15,5.15,0,0,1,.1.66,9.86,9.86,0,0,1,.07,1.26l0,.91c0,.21,0,.33,0,.33v0a.71.71,0,0,0,.53.74l.19,0a.71.71,0,0,0,.69-.52s0-.14.1-.38.16-.64.23-1a13.74,13.74,0,0,0,.21-1.43,8.51,8.51,0,0,0,0-.86,4.75,4.75,0,0,0-.09-1c0-.07,0-.14,0-.21l0,0c0-.09-.06-.21-.09-.3h0l0-.09v0h0a.08.08,0,0,0,0-.05l0-.06c-.05-.11-.1-.19-.14-.27a4,4,0,0,0-.67-.86,6.07,6.07,0,0,0-1.33-1l.44-.66.26-.41,0,0h0a4,4,0,0,0,1.35.24,4.22,4.22,0,0,0,2.2-.65,5.9,5.9,0,0,0,1.71-1.64.67.67,0,0,0,.07-.74,1,1,0,0,0-.82-.47.84.84,0,0,0-.7.37,3.54,3.54,0,0,1-1.6,1.27,2.69,2.69,0,0,1-.86.15,3,3,0,0,1-1.69-.62,1.73,1.73,0,0,0-.31-.22l-.14-.1c-.27-.2-.53-.38-.79-.54A4.83,4.83,0,0,0,20,40.79m0,.05a4.83,4.83,0,0,1,2.41.64c.3.18.61.41.93.64a1.61,1.61,0,0,1,.3.21,3,3,0,0,0,1.72.63,2.9,2.9,0,0,0,.88-.15,3.44,3.44,0,0,0,1.61-1.29.81.81,0,0,1,.67-.35c.57,0,1.13.56.71,1.15a4.91,4.91,0,0,1-3.87,2.27,4.08,4.08,0,0,1-1.34-.24l-.06,0,0,.06s-.09.15-.26.4l-.47.71a6.05,6.05,0,0,1,1.37,1,3.91,3.91,0,0,1,.66.86l.14.25,0,.07h0l0,0h0v0l0,.1c0,.08.07.21.09.3l.06.25a6.73,6.73,0,0,1,.09,1c0,.3,0,.58,0,.85a14.29,14.29,0,0,1-.21,1.43c-.09.41-.17.74-.23,1s-.1.38-.1.38a.67.67,0,0,1-.65.49l-.18,0a.67.67,0,0,1-.5-.69v0s0-.13,0-.34,0-.54,0-.91a11.54,11.54,0,0,0-.06-1.27c0-.22-.06-.45-.11-.66a3.26,3.26,0,0,0-.17-.6l-.06-.11,0-.07-.05-.09,0,0h0l0,0h0l0,0-.06-.08a1.66,1.66,0,0,0-.34-.3,4,4,0,0,0-.89-.43l-.51-.15c-.15.17-.32.34-.5.51A5.54,5.54,0,0,1,20,49a4.67,4.67,0,0,1-1.24.46l-.14,0h-.15l-.32.05a2.91,2.91,0,0,1-.51,0h-.13a4.37,4.37,0,0,1-1.14-.2,5.54,5.54,0,0,1-.91-.38,6.68,6.68,0,0,1-1.16-.79L14,48l-.11-.11,0,0a.66.66,0,0,1,0-.94.66.66,0,0,1,.95,0h0l.06,0,.25.18a5.07,5.07,0,0,0,1,.49,3.36,3.36,0,0,0,.66.18,2.4,2.4,0,0,0,.46.05h.24a2.05,2.05,0,0,0,.34-.07l.16,0,.1,0,.09,0a2.28,2.28,0,0,0,.62-.4,3,3,0,0,0,.49-.56,6.23,6.23,0,0,0,.43-.72c.27-.5.5-1,.69-1.46s.34-.84.45-1.11l.17-.43h0a1.29,1.29,0,0,1,.17-.33A3.09,3.09,0,0,0,20,42.23l-.25,0a3.21,3.21,0,0,0-1.55.91.73.73,0,0,1-.53.25.82.82,0,0,1-.6-1.36,4.15,4.15,0,0,1,3-1.21"/><path class="cls-5" d="M24.5,53.75a.69.69,0,0,1-.25,0,.93.93,0,0,1-.7-1l0-.38q0-.43,0-.9a11.92,11.92,0,0,0-.06-1.23,5.08,5.08,0,0,0-.1-.64,2.7,2.7,0,0,0-.16-.54L23.24,49h0l0,0-.05-.08-.06-.07a1.33,1.33,0,0,0-.3-.26,3.41,3.41,0,0,0-.82-.4l-.33-.1c-.14.15-.27.28-.41.41a5.5,5.5,0,0,1-1.09.81,4.87,4.87,0,0,1-1.31.49l-.16,0h-.05l-.11-.21.06.21-.08,0-.3,0a4.27,4.27,0,0,1-.54,0h-.14a4.53,4.53,0,0,1-1.22-.22,5.48,5.48,0,0,1-.94-.39,7.11,7.11,0,0,1-1.21-.83l-.3-.27-.09-.09,0,0a1,1,0,0,1-.29-.68.88.88,0,0,1,.28-.65,1,1,0,0,1,1.32,0h0l0,0,0,0,0,0,.25.17a4.91,4.91,0,0,0,.91.47,2.87,2.87,0,0,0,.62.17,2.15,2.15,0,0,0,.62,0l.29-.05.09,0,.15,0,.06,0a2.25,2.25,0,0,0,.57-.36,3,3,0,0,0,.45-.53,5.07,5.07,0,0,0,.41-.68c.26-.49.49-1,.68-1.45s.33-.79.45-1.1l.19-.48,0,0a1.89,1.89,0,0,0-1.09-.24,3,3,0,0,0-1.41.84,1,1,0,0,1-.72.32,1.12,1.12,0,0,1-1-.68,1,1,0,0,1,.21-1.12,4.36,4.36,0,0,1,3.2-1.3,5,5,0,0,1,2.54.68c.27.16.53.35.81.55l.14.1a1.78,1.78,0,0,1,.33.23,2.41,2.41,0,0,0,2.34.43,3.24,3.24,0,0,0,1.47-1.19,1.08,1.08,0,0,1,.89-.47,1.19,1.19,0,0,1,1,.59.92.92,0,0,1-.09,1,6.23,6.23,0,0,1-1.78,1.7,4.24,4.24,0,0,1-3.6.48l-.18.29-.31.47a5.93,5.93,0,0,1,1.17.89,4.88,4.88,0,0,1,.71.91l.14.28,0,0,0,.06,0,0,0,.11c0,.1.08.23.1.32v.05c0,.09,0,.16,0,.23a5.13,5.13,0,0,1,.09,1c0,.29,0,.58,0,.89a14.24,14.24,0,0,1-.22,1.45c-.07.34-.15.67-.23,1l-.1.38A1,1,0,0,1,24.5,53.75Zm-.95-5.24.08.14.05.08,0,.05.05.1a3.12,3.12,0,0,1,.18.62,5.88,5.88,0,0,1,.11.69,12.85,12.85,0,0,1,.06,1.29c0,.38,0,.7,0,.92l0,.39a.44.44,0,0,0,.33.45.46.46,0,0,0,.55-.31l.1-.38c.06-.22.15-.55.23-1a12.86,12.86,0,0,0,.21-1.4c0-.29,0-.56,0-.83a5.05,5.05,0,0,0-.08-.91c0-.07,0-.13,0-.19l0-.06a2.58,2.58,0,0,0-.08-.26l-.1-.24a1.79,1.79,0,0,0-.12-.24,4.14,4.14,0,0,0-.63-.81,5.34,5.34,0,0,0-1.31-.95l-.22-.12.14-.21.46-.7.39-.62.22.08a3.66,3.66,0,0,0,1.28.24,4.67,4.67,0,0,0,3.69-2.18.45.45,0,0,0,.06-.47.69.69,0,0,0-.59-.32.56.56,0,0,0-.48.25A3.69,3.69,0,0,1,26.34,43a2.88,2.88,0,0,1-2.79-.5,1.76,1.76,0,0,0-.29-.21l-.17-.12c-.27-.19-.52-.37-.77-.52A4.61,4.61,0,0,0,20,41.06a3.89,3.89,0,0,0-2.85,1.15.5.5,0,0,0-.11.58A.57.57,0,0,0,18,43a3.45,3.45,0,0,1,1.66-1,2.55,2.55,0,0,1,1.54.33l.37.17-.16.22a1,1,0,0,0-.14.28l-.17.43c-.11.27-.26.66-.45,1.11s-.43,1-.7,1.49a6,6,0,0,1-.45.74,3.08,3.08,0,0,1-.52.6,2.88,2.88,0,0,1-.67.44l-.11,0L18,48l-.13,0a2.17,2.17,0,0,1-.35.07,2.78,2.78,0,0,1-.77,0,3.64,3.64,0,0,1-.7-.19,5.32,5.32,0,0,1-1-.51l-.26-.19.09-.2-.13.18-.06-.05h0a.45.45,0,0,0-.63,0,.41.41,0,0,0-.14.31.48.48,0,0,0,.13.31l.13.13.28.25a6.34,6.34,0,0,0,1.12.76,5.87,5.87,0,0,0,.86.37,4.37,4.37,0,0,0,1.09.19h.12a3.33,3.33,0,0,0,.48,0l.23,0h.08l0,0h0v0l.1,0,.11,0a4.47,4.47,0,0,0,1.2-.45,5.16,5.16,0,0,0,1-.74,5.78,5.78,0,0,0,.48-.5l.09-.1.13,0a4.59,4.59,0,0,1,1.48.61,2.14,2.14,0,0,1,.38.33l.07.08Z"/><path class="cls-5" d="M24.5,53.81l-.27,0a1,1,0,0,1-.74-1v0h0l0-.34c0-.28,0-.59,0-.89a7.91,7.91,0,0,0-.06-1.22,4.76,4.76,0,0,0-.09-.63,4,4,0,0,0-.16-.54l0,0,0-.05s0,0,0-.06h0l0,0,0-.06a1.45,1.45,0,0,0-.29-.25,3.22,3.22,0,0,0-.81-.39,1.61,1.61,0,0,0-.29-.09l-.38.38a6,6,0,0,1-1.11.82,5,5,0,0,1-1.32.5l-.17,0h-.05l-.11-.27,0,.24h0v0h-.1l-.28,0a4.06,4.06,0,0,1-.54,0h-.14a5,5,0,0,1-1.24-.22,5.33,5.33,0,0,1-1-.41,6.57,6.57,0,0,1-1.21-.83c-.14-.11-.24-.21-.31-.27l-.1-.11h0a1,1,0,0,1-.31-.73,1,1,0,0,1,1.71-.71l0,0,0,0h0l0,0a2.27,2.27,0,0,0,.25.18,4.78,4.78,0,0,0,.9.46,3.33,3.33,0,0,0,.6.16,2,2,0,0,0,.6,0,1.26,1.26,0,0,0,.28-.05h.09l.2-.08A2.73,2.73,0,0,0,18.6,47a3.86,3.86,0,0,0,.44-.51c.13-.19.26-.42.41-.68.25-.48.48-1,.67-1.45s.33-.79.45-1.09l.16-.43,0,0a1.7,1.7,0,0,0-1-.2,2.82,2.82,0,0,0-1.37.82,1.05,1.05,0,0,1-.77.34A1.2,1.2,0,0,1,16.56,43a1.06,1.06,0,0,1,.22-1.2A4.43,4.43,0,0,1,20,40.5a5.21,5.21,0,0,1,2.58.69c.27.16.53.35.81.55l.14.1a2.29,2.29,0,0,1,.33.24,2.32,2.32,0,0,0,2.27.41,3.18,3.18,0,0,0,1.45-1.16,1.11,1.11,0,0,1,.94-.49,1.24,1.24,0,0,1,1.08.62,1,1,0,0,1-.09,1,6.51,6.51,0,0,1-1.8,1.72,4.3,4.3,0,0,1-3.61.5L24,45l-.27.42a5.45,5.45,0,0,1,1.13.87,4,4,0,0,1,.71.92,2.25,2.25,0,0,1,.15.28l0,0a.16.16,0,0,1,0,.07s0,0,0,0v0l0,.11c0,.1.08.23.11.32v.06c0,.08,0,.16,0,.23a5.16,5.16,0,0,1,.09,1c0,.29,0,.59,0,.89a13.87,13.87,0,0,1-.21,1.46c-.07.34-.15.68-.23,1l-.11.38A1,1,0,0,1,24.5,53.81Zm-1-5.42a.27.27,0,0,1,.07.08l0,0,.07.11,0,.07,0,.06,0,.1a3.66,3.66,0,0,1,.19.63c0,.21.08.44.11.7s.06.83.06,1.3,0,.7,0,.93l0,.33v0a.38.38,0,0,0,.28.38.39.39,0,0,0,.48-.26l.1-.37c.06-.23.14-.56.22-1a13.07,13.07,0,0,0,.21-1.39,5.86,5.86,0,0,0,0-.83,4.94,4.94,0,0,0-.08-.9,1.06,1.06,0,0,0,0-.19v-.05c0-.08-.06-.18-.08-.26l0-.11a0,0,0,0,1,0,0l-.05-.09c0-.08-.08-.16-.12-.24a4,4,0,0,0-.62-.79,5.69,5.69,0,0,0-1.3-1,.28.28,0,0,1-.14-.18.3.3,0,0,1,0-.23l.47-.71.26-.4,0,0a.29.29,0,0,1,.35-.13l.05,0a3.82,3.82,0,0,0,1.26.23A4.59,4.59,0,0,0,29,42.15a.38.38,0,0,0,.06-.4.64.64,0,0,0-.53-.29.51.51,0,0,0-.43.23,3.93,3.93,0,0,1-1.76,1.4,3,3,0,0,1-2.85-.52,1.26,1.26,0,0,0-.29-.2l-.17-.13c-.27-.19-.52-.36-.76-.51a4.49,4.49,0,0,0-2.26-.6,3.84,3.84,0,0,0-2.8,1.12.44.44,0,0,0-.1.51.49.49,0,0,0,.81.2,3.46,3.46,0,0,1,1.7-1,2.52,2.52,0,0,1,1.58.33l.12.06a.28.28,0,0,1,.16.19.29.29,0,0,1,0,.24.94.94,0,0,0-.14.26v0l-.16.4c-.11.28-.26.67-.45,1.12s-.43,1-.7,1.49a7.55,7.55,0,0,1-.45.74,3.31,3.31,0,0,1-.53.62,2.75,2.75,0,0,1-.69.45l-.12.05L18,48l-.14,0a2.37,2.37,0,0,1-1.14,0,3.58,3.58,0,0,1-.71-.2,5,5,0,0,1-1-.52l-.26-.18,0,0,0,0,0,0-.07,0h0a.38.38,0,0,0-.54,0,.36.36,0,0,0,0,.52l.13.13.27.25a6.09,6.09,0,0,0,1.11.75,4.81,4.81,0,0,0,.85.36,4.21,4.21,0,0,0,1.07.19h.12l.47,0,.23,0,.08,0,0,.05h0v0h.09l.11,0a4.32,4.32,0,0,0,1.18-.44,4.76,4.76,0,0,0,1-.73c.16-.15.32-.31.48-.49a.31.31,0,0,1,.29-.09l.53.15a4.21,4.21,0,0,1,1,.47,2,2,0,0,1,.4.35Z"/><path class="cls-5" d="M24.13,41.16a1.91,1.91,0,1,1,1.94-1.91A1.93,1.93,0,0,1,24.13,41.16Zm0-3.37a1.46,1.46,0,1,0,1.49,1.46A1.47,1.47,0,0,0,24.13,37.79Z"/><path class="cls-5" d="M24.13,41.23a2,2,0,1,1,2-2A2,2,0,0,1,24.13,41.23Zm0-3.38a1.4,1.4,0,1,0,0,2.79,1.4,1.4,0,1,0,0-2.79Z"/><path class="cls-5" d="M28.84,53.15a1.58,1.58,0,1,1,1.6-1.58A1.59,1.59,0,0,1,28.84,53.15Zm0-2.72A1.14,1.14,0,1,0,30,51.57,1.15,1.15,0,0,0,28.84,50.43Z"/><path class="cls-5" d="M28.84,53.22a1.65,1.65,0,1,1,1.67-1.65A1.66,1.66,0,0,1,28.84,53.22Zm0-2.72a1.07,1.07,0,1,0,0,2.13,1.07,1.07,0,1,0,0-2.13Z"/><path class="cls-5" d="M28.84,53.16a1.6,1.6,0,1,1,1.61-1.59A1.61,1.61,0,0,1,28.84,53.16Zm0-2.71A1.12,1.12,0,1,0,30,51.57,1.13,1.13,0,0,0,28.84,50.45Z"/><path class="cls-5" d="M28.84,53.23a1.67,1.67,0,1,1,1.68-1.66A1.68,1.68,0,0,1,28.84,53.23Zm0-2.71a1.05,1.05,0,1,0,1.07,1A1.06,1.06,0,0,0,28.84,50.52Z"/><circle class="cls-6" cx="81.66" cy="144.88" r="7.35"/><path class="cls-7" d="M80.13,149.62a1,1,0,0,1-1.29-.82c-.1-.6.29-1.06,1-1.17a8.15,8.15,0,0,1,2.26.43,8.62,8.62,0,0,1,2.07-1.16,1,1,0,0,1,1.23.87c0,.34,0,.94-.94,1.09a8.2,8.2,0,0,1-2.31-.42l-.11.08A8.9,8.9,0,0,1,80.13,149.62ZM79.89,148c-.19,0-.8.17-.71.77s.51.58.89.52a8.77,8.77,0,0,0,1.63-1A6.71,6.71,0,0,0,79.89,148Zm2.64.21a6.75,6.75,0,0,0,1.86.32c.66-.1.7-.42.65-.68-.07-.48-.33-.66-.83-.58A7.84,7.84,0,0,0,82.53,148.19Z"/><path class="cls-7" d="M84.6,146.35a.18.18,0,0,1-.2-.15,2.64,2.64,0,1,0-5.21.82.17.17,0,0,1-.15.2.18.18,0,0,1-.2-.14,3,3,0,1,1,5.91-.93A.18.18,0,0,1,84.6,146.35Z"/><path class="cls-1" d="M81.26,142.91a1.19,1.19,0,1,1,1-1.36,1.2,1.2,0,0,1-1,1.36"/><path class="cls-7" d="M81.29,143.08a1.36,1.36,0,1,1-.42-2.69,1.36,1.36,0,1,1,.42,2.69Zm-.37-2.35a1,1,0,1,0,1.18.84A1,1,0,0,0,80.92,140.73Z"/><g class="cls-8"><path class="cls-7" d="M54.37,60.27a16.81,16.81,0,0,1-8.7-2.42,30.68,30.68,0,0,1-8.23,1.78.77.77,0,0,1-.39-1.46,6.54,6.54,0,0,0,3.64-4.9,16.32,16.32,0,0,1-3.08-9.64A16.93,16.93,0,0,1,54.54,26.88a16.74,16.74,0,0,1,12,4.91,16.37,16.37,0,0,1,4.84,11.73A16.93,16.93,0,0,1,54.42,60.27Z"/></g><path class="cls-9" d="M69.34,151a11.19,11.19,0,0,0-1.29-3.16l1.08-2-2.77-2.78-2,1.08a10.72,10.72,0,0,0-3.16-1.31l-.65-2.18H56.62L56,142.87a11,11,0,0,0-3.15,1.31l-2-1.09L48,145.86l1.1,2A11,11,0,0,0,47.83,151l-2.21.66v3.92l2.22.67a11.12,11.12,0,0,0,1.29,3.1l-1.11,2,2.78,2.77,2.1-1.13A20.29,20.29,0,0,0,56,164.35l.64,2.26h3.93l.67-2.24a11.34,11.34,0,0,0,3.1-1.28l2,1.1,2.77-2.77-1.1-2a10.85,10.85,0,0,0,1.3-3.12l2.21-.66v-3.92Zm-10.75-2A4.59,4.59,0,1,1,54,153.62,4.59,4.59,0,0,1,58.59,149"/><path class="cls-10" d="M76.12,55.62A5.92,5.92,0,0,0,75.47,54L76,53l-1.39-1.39-1,.54A5.55,5.55,0,0,0,72,51.53l-.32-1.1h-2l-.32,1.1a5.63,5.63,0,0,0-1.58.66l-1-.55L65.44,53l.55,1a5.48,5.48,0,0,0-.65,1.56L64.23,56v2l1.12.33A5.35,5.35,0,0,0,66,59.8l-.55,1,1.39,1.38,1-.56a10.26,10.26,0,0,0,1.54.64l.32,1.13h2L72,62.3a5.4,5.4,0,0,0,1.55-.64l1,.55L76,60.83l-.55-1a5.11,5.11,0,0,0,.65-1.56l1.11-.33V56Zm-5.39-1a2.3,2.3,0,1,1-2.3,2.3,2.3,2.3,0,0,1,2.3-2.3"/><path class="cls-11" d="M3.51,76C-11.3,87.73-16.57,109.4-10.46,127-4,145.67,24,152.35,42.43,150.26c23.68-2.69,39.11-18.38,42.9-35.24,3.49-15.52-4.62-33.87-17.65-42.67S37.26,62.21,22.07,66.66A54.26,54.26,0,0,0,3.51,76Z"/><path class="cls-12" d="M51.53,116.48a.77.77,0,0,1-.59-.82A8.58,8.58,0,0,0,50,112a2.5,2.5,0,0,0-2.41-1.88,3,3,0,0,0-2.77,2.29,3.75,3.75,0,0,0-.07,2.45c.13.89,0,1.11-.92,1.1-1.59,0,.94.09-.65,0-1.43-.07-2.86-.06-4.28,0a8.53,8.53,0,0,1-1,0c-1.1-.1-1.42-.5-1.51-1.61-.15-1.65-.43-3.29-.5-5a29,29,0,0,1,0-3.84c0-.46,0-.61-.54-.52a10.06,10.06,0,0,1-5.16-.33c-2-.71-2.45-2.51-2.09-4.41a2.77,2.77,0,0,1,.26-.73C29.27,98,30,97.31,31.64,97a9.47,9.47,0,0,1,3.75.13c.44.09.54,0,.56-.45.09-2,.08-4.07.06-6.11a10.48,10.48,0,0,1,.11-1.94,23.61,23.61,0,0,1,.63-3.07c-.44,0-.88,0-1.31,0-6,.27-9.62.48-14.7,3.73a12.11,12.11,0,0,0-4.61,4.73c-1.74,3.42-2.1,9-2.21,12.85a13.25,13.25,0,0,1-3.66,9.67c-1,1.2-2.47,2.47-2.19,4,.52,2.93,4.38,2.38,5.84,4.29,1.61,2.08.94,7.3,1.32,9.88a5.6,5.6,0,0,0,1.06,3c2.18,2.52,7,.22,9.3,2.65a6,6,0,0,1,1.18,3.73A108.13,108.13,0,0,1,27,156.4a113.46,113.46,0,0,0,26.92-8.19A5.26,5.26,0,0,0,55.83,147a2.82,2.82,0,0,0,.29-2.49c-2.74-7.32-.66-19.41.88-27.85l-.4,0C56.28,116.75,51.84,116.58,51.53,116.48Z"/><path class="cls-4" d="M54.76,84.6c-4.09-2.3-9.1-2-13.68-.8a21.11,21.11,0,0,0,.08,2.58A9.42,9.42,0,0,0,41.45,88c.4,1.63.8,3.25,1.12,4.9.06.33,0,.45-.36.46a7.83,7.83,0,0,0-3,.61,3.23,3.23,0,0,0-2.08,2.71,2.31,2.31,0,0,0-.07.64c.08,1.58.77,2.94,2.52,3.13a8.34,8.34,0,0,0,4.18-.73c.41-.18.48-.07.53.31a24.87,24.87,0,0,0,.72,3.07c.37,1.32.91,2.57,1.34,3.87.29.86.62,1.12,1.52,1a7.19,7.19,0,0,0,.8-.2c1.13-.33,3.15-.76,4.43-1,.71-.16.79-.37.52-1.06a3,3,0,0,1-.41-2A2.48,2.48,0,0,1,55,101.29a2,2,0,0,1,2.28,1A7.13,7.13,0,0,1,58.67,105a.64.64,0,0,0,.63.55c.26,0,3.35-.62,3.6-.7l.31-.11c0-.65-.07-1.27-.1-1.86C62.71,95.92,60.87,88,54.76,84.6Z"/></g></svg>