<svg id="Layer_1" data-name="Layer 1" xmlns="http://www.w3.org/2000/svg" viewBox="0 0 59 57"><defs><style>.cls-1{fill:#00a7ce;}</style></defs><path class="cls-1" d="M44.4,13.32c-1.25-.32-2.88.32-3.49,2.46L39.82,20l-.4-.08.5-3.63c.32-2.3.59-4.26.69-5a2.93,2.93,0,0,0-2.22-3.57A2.82,2.82,0,0,0,35.15,10c-.23,1-1.34,6.88-1.68,8.65l-.4,0c0-2.09.1-4.29.14-6.12l.06-2.23c0-.89,0-1.46,0-1.56A3.31,3.31,0,0,0,30.5,5a3.16,3.16,0,0,0-3.45,2.93c0,.31-.27,5.06-.5,9.47l-.4,0-.74-5.53a3.18,3.18,0,0,0-1-2.3,2.75,2.75,0,0,0-2-.76c-1.35,0-2.71,1.06-2.71,3.31l.76,13.35a7.42,7.42,0,0,1-.6,4.33l-.19.33-.17-.34a.47.47,0,0,0-.06-.09l-.05-.11,0-.06c-.39-1-.79-2.1-1.17-3.17-.11-.29-.21-.61-.32-.92l0-.09a8.67,8.67,0,0,0-2-3.8,4.49,4.49,0,0,0-4.26-1,2.91,2.91,0,0,0-.91.61,2.2,2.2,0,0,0-.63,1.5c0,.12,2.47,15.27,6.74,22.74a10.1,10.1,0,0,0,2.3,2.75c1.19,1.12,2.23,2.1,2.24,3.42l1.69.13c.05-2.12-1.44-3.53-2.76-4.78a8.89,8.89,0,0,1-2-2.32C14.6,38.11,12,24.49,11.77,22.66a.51.51,0,0,1,.17-.35,1.2,1.2,0,0,1,.29-.19,2.83,2.83,0,0,1,2.5.7,7.6,7.6,0,0,1,1.49,3c.12.39.24.75.36,1.09C17,28,17.34,29,17.72,30l.1.28a1.09,1.09,0,0,0,.08.15l.06.12A2.05,2.05,0,0,0,19.62,32a.89.89,0,0,0,.36,0,2.11,2.11,0,0,0,.3-.1l.1-.06c.64-.41,2.18-2.37,1.77-6.42l-.76-13.27c0-1,.39-1.55,1-1.56A1.38,1.38,0,0,1,23.72,12l1.7,12.65a1.58,1.58,0,0,0,.6,1.41,1.16,1.16,0,0,0,1.21.13,1.32,1.32,0,0,0,.67-1.28c0-1.57.52-10.94.73-14.94.06-1.11.1-1.82.1-1.87.2-1.19,1-1.52,1.58-1.44s1.39.63,1.3,1.94c0,.12,0,1.56-.09,3.86l0,1.56c-.1,4.37-.23,9.82-.3,11.24a2,2,0,0,0,.59,1.58.86.86,0,0,0,.92.16,2,2,0,0,0,1.19-1.41A6.24,6.24,0,0,0,34,25v-.08c.41-2.18,2.49-13.13,2.79-14.52l0-.06a1.14,1.14,0,0,1,1.27-1c.65.12,1,.76.84,1.66-.35,2.48-2.16,15.82-2.17,15.86a2.79,2.79,0,0,0,.48,1.81,1,1,0,0,0,.83.46,1,1,0,0,0,.69-.2,1,1,0,0,0,.32-.27l.25-.35a.92.92,0,0,0,.14-.28l3.07-11.8c.27-.92.83-1.42,1.45-1.27s.92.69.71,1.66c-.49,2.26-3.1,15.23-3.48,18.8l0,.16c-.37,4.33-.89,10.26-3.79,13.61a10.21,10.21,0,0,0-1.9,3.09.74.74,0,0,0,0,.14l1.74.2A7.9,7.9,0,0,1,38.7,50.3c3.25-3.77,3.8-10,4.19-14.58v-.13c.38-3.46,3-16.45,3.46-18.62A2.89,2.89,0,0,0,44.4,13.32Z"/></svg>