<svg id="Capa_1" data-name="Capa 1" xmlns="http://www.w3.org/2000/svg" viewBox="0 0 1195.34 395.65"><defs><style>.cls-1{fill:#365870;}.cls-2{fill:#f2c362;}.cls-2,.cls-3,.cls-4,.cls-5,.cls-6,.cls-7{fill-rule:evenodd;}.cls-3,.cls-8{fill:#ee9b35;}.cls-4{fill:#2e4050;}.cls-5{fill:#16354a;}.cls-6{fill:#94a4a2;}.cls-7{fill:#ea7732;}.cls-10,.cls-9{fill:none;stroke:#009cca;stroke-linecap:round;}.cls-9{stroke-miterlimit:10;stroke-width:2.6px;stroke-dasharray:2.29 5.73;}.cls-10{stroke-linejoin:round;stroke-width:2.29px;}</style></defs><path class="cls-1" d="M-.5,246s46.23-221.61,603-221.61S1199.5,246,1199.5,246V400.16H-6.74Z"/><path class="cls-2" d="M213.25,221.89a2.13,2.13,0,0,1-.39-.9Z"/><path class="cls-3" d="M212.75,220.73a2.36,2.36,0,0,1-.38-.65,14.81,14.81,0,0,0-4.25-4.83,14.5,14.5,0,0,0-11-2.73,12.11,12.11,0,0,0-2.58.68c-.05,0-.1.06-.16,0l-.72.31-.76.33a.09.09,0,0,1,0,0,13,13,0,0,0-4,3c-4,4.55-4.85,9.71-2.92,15.39l.63,1.44a12.71,12.71,0,0,0,2.67,3.39,32.43,32.43,0,0,0,5.16,3.71,48.71,48.71,0,0,1,6,3.82l3.18-1.39-7.71-8.57c-1.29-1.43-2.57-2.86-3.87-4.29A.36.36,0,0,1,192,230c.31-.75.6-1.5.88-2.25.08-.19.14-.25.35-.16l2.29.91c.16.07.22,0,.28-.12.3-.78.61-1.54.9-2.32.07-.19.15-.2.32-.14.74.31,1.49.59,2.23.88.09,0,.17.1.28.06s.08-.16.12-.24c.29-.73.58-1.46.86-2.2.08-.21.15-.26.37-.17.75.31,1.51.59,2.27.9.18.07.25,0,.32-.14.29-.77.6-1.53.89-2.3.07-.17.14-.2.31-.13.73.3,1.48.59,2.22.87a.43.43,0,0,1,.33.43q.25,3,.53,5.95.51,5.55,1,11.09a.76.76,0,0,0,0,.15l2.83-1.23.32-.12a0,0,0,0,1,0,0c.07-.66.12-1.33.23-2,.26-1.5.62-3,.94-4.46a33.5,33.5,0,0,0,.91-6.6,13.73,13.73,0,0,0-.41-3.73,4.71,4.71,0,0,1-.22-.84l-.1-.22a2.13,2.13,0,0,1-.39-.9Z"/><path class="cls-4" d="M215.24,247.36l-5.39,2.35-.33.15h0l-5.73,2.49c.25.57.5,1.13.73,1.7.08.19.15.22.34.14.84-.38,1.69-.75,2.54-1.11l3-1.31c-.14-.31-.28-.63-.41-1,.13.32.27.64.41,1l3-1.28,2.56-1.12c.15-.06.2-.12.12-.28C215.74,248.52,215.49,247.93,215.24,247.36Z"/><path class="cls-5" d="M214.4,245.44l-5.73,2.49h0l.84,1.92h0l.33-.15,5.39-2.35Z"/><path class="cls-5" d="M203,250.43c.28.64.56,1.28.83,1.92l5.73-2.49-.84-1.92Z"/><path class="cls-5" d="M207.42,244l-.41.17h0l-5.72,2.49.84,1.92,5.71-2.49h0l5.72-2.5c-.27-.64-.55-1.28-.83-1.92Z"/><path class="cls-4" d="M207,244.13l-5.72,2.49-.85-1.92,3.18-1.39.8-.36.25-.09,1.51-.64c.28.63.56,1.26.83,1.9Z"/><path class="cls-4" d="M207,244.12c-.27-.64-.55-1.27-.83-1.9v0c.59-.23,1.17-.49,1.74-.76l.82-.35,2.83-1.23.32-.12h0c.28.63.56,1.26.83,1.89L207.42,244Z"/><path class="cls-4" d="M207.85,246.05h0l-5.71,2.49.82,1.89,5.72-2.49h0l5.73-2.49-.83-1.89Z"/><path class="cls-5" d="M207.39,253.08l3-1.31,3-1.28a4.13,4.13,0,0,1-1.77,3,2.86,2.86,0,0,1-1.64.45A4.49,4.49,0,0,1,207.39,253.08Z"/><path class="cls-6" d="M211.91,239.74h0a0,0,0,0,1,0,0S211.91,239.73,211.91,239.74Z"/><path class="cls-7" d="M208.73,241.09l-.82.35c0-.09,0-.18,0-.26l-1-11.41c-.14-1.56-.28-3.13-.41-4.69a.34.34,0,0,0-.27-.35c-.24-.07-.48-.15-.71-.24s-.23-.05-.3.14c-.29.78-.6,1.55-.9,2.33-.07.16-.16.2-.33.12-.75-.3-1.51-.58-2.25-.89-.21-.09-.29,0-.37.17-.32.82-.65,1.63-1,2.45l-.26-.08c-.75-.3-1.5-.58-2.25-.89-.19-.08-.25,0-.32.15-.28.75-.59,1.5-.87,2.25-.08.2-.15.24-.35.16-.77-.32-1.55-.61-2.32-.92-.16-.06-.23,0-.29.12a2.66,2.66,0,0,1-.28.65.41.41,0,0,0,.09.56c.78.84,1.54,1.69,2.31,2.54q3.62,4,7.22,8c.47.52,1,1,1.4,1.58l-.8.36-7.71-8.57c-1.29-1.43-2.57-2.86-3.87-4.29A.36.36,0,0,1,192,230c.31-.75.6-1.5.88-2.25.08-.19.14-.25.35-.16l2.29.91c.16.07.22,0,.28-.12.3-.78.61-1.54.9-2.32.07-.19.15-.2.32-.14.74.31,1.49.59,2.23.88.09,0,.17.1.28.06s.08-.16.12-.24c.29-.73.58-1.46.86-2.2.08-.21.15-.26.37-.17.75.31,1.51.59,2.27.9.18.07.25,0,.32-.14.29-.77.6-1.53.89-2.3.07-.17.14-.2.31-.13.73.3,1.48.59,2.22.87a.43.43,0,0,1,.33.43q.25,3,.53,5.95.51,5.55,1,11.09A.76.76,0,0,0,208.73,241.09Z"/><path class="cls-8" d="M206.17,224.73c-.24-.07-.48-.15-.71-.24s-.23-.05-.3.14c-.29.78-.6,1.55-.9,2.33-.07.16-.16.2-.33.12-.75-.3-1.51-.58-2.25-.89-.21-.09-.29,0-.37.17-.32.82-.65,1.63-1,2.45l-.26-.08c-.75-.3-1.5-.58-2.25-.89-.19-.08-.25,0-.32.15-.28.75-.59,1.5-.87,2.25-.08.2-.15.24-.35.16-.77-.32-1.55-.61-2.32-.92-.16-.06-.23,0-.29.12a2.66,2.66,0,0,1-.28.65.41.41,0,0,0,.09.56c.78.84,1.54,1.69,2.31,2.54q3.62,4,7.22,8c.47.52,1,1,1.4,1.58l.25-.09,1.51-.64v0c.59-.23,1.17-.49,1.74-.76,0-.09,0-.18,0-.26l-1-11.41c-.14-1.56-.28-3.13-.41-4.69A.34.34,0,0,0,206.17,224.73Z"/><path class="cls-9" d="M1046.47,150.69c2.2-19.51-.86-39-10.13-56.3s-36.69-31.23-62.16-22.88c-4.59,1.51-9.49,2.84-12.62,6.53S957.37,87.4,960,91.48c4.17,6.6,15.2,5,19.88-1.28s4.62-14.8,3.63-22.54c-1.06-8.33-3.21-17-9.15-23-8.07-8.06-20.86-8.86-32.18-7.41-22.62,2.91-47,12.68-61.7,30.7"/><polyline class="cls-10" points="894.35 68.55 879.24 69.48 876.71 55.26"/></svg>