<svg id="Capa_1" data-name="Capa 1" xmlns="http://www.w3.org/2000/svg" xmlns:xlink="http://www.w3.org/1999/xlink" viewBox="0 0 432.59 432.59"><defs><style>.cls-1{fill:none;}.cls-2{clip-path:url(#clip-path);}.cls-3{fill:#f2f8f9;}</style><clipPath id="clip-path"><rect class="cls-1" width="432.59" height="432.59"/></clipPath></defs><g class="cls-2"><path class="cls-3" d="M199.81-72.66C121.89-58,46.07-6.84,24.22,69.37c-8.39,29.25-8.49,60.2-7.11,90.6,1.53,33.57,5,67.78,18.8,98.4,23.08,51.17,71.62,85.51,119,115.6,28.42,18,57.65,35.67,90,45.14,43.4,12.74,89.64,10,134.75,6.69,29.34-2.18,59.36-4.74,86.15-16.94,38.66-17.61,66.46-53.91,81.92-93.49S567.55,232.85,570,190.43c1.58-27.87,2.32-56.14-3.71-83.4C530.19-56.06,342.72-99.49,199.81-72.66Z"/></g></svg>