<svg id="Layer_1" data-name="Layer 1" xmlns="http://www.w3.org/2000/svg" viewBox="0 0 59 57"><defs><style>.cls-1{fill:#ef7622;}</style></defs><path class="cls-1" d="M51,9.69H41.21a2.93,2.93,0,0,0-2.67,1.74l-1.38-.36a31.69,31.69,0,0,0-9.85-1.38H16.81a3.91,3.91,0,0,0-3.9,3.9,3.84,3.84,0,0,0,.66,2.17,3.92,3.92,0,0,0-2,5.86A3.91,3.91,0,0,0,9,25.3a3.84,3.84,0,0,0,.66,2.17A3.91,3.91,0,0,0,11,35.06h7.28a24.63,24.63,0,0,0-1.49,9.32,9.17,9.17,0,0,0,.07,1.12,3.9,3.9,0,0,0,7.8-.09v-1c0-6.17,7.93-9.64,13.91-11.13a2.91,2.91,0,0,0,2.68,1.76H51a1,1,0,0,0,1-1V10.67A1,1,0,0,0,51,9.69ZM38.28,31.35C31.22,33,22.67,37.14,22.67,44.43v1a2,2,0,0,1-3.9,0h0a22.94,22.94,0,0,1,1.59-10.35h3.29a1,1,0,0,0,0-2H11a1.95,1.95,0,0,1,0-3.9h4.88a1,1,0,0,0,0-1.95H12.91a2,2,0,0,1,0-3.91h4.88a1,1,0,1,0,0-2H14.86a1.95,1.95,0,1,1,0-3.9h4.88a1,1,0,1,0,0-1.95H16.81a2,2,0,0,1,0-3.91h10.5A29.62,29.62,0,0,1,36.66,13l1.62.42ZM50,33.11H41.21a1,1,0,0,1-1-1V12.62a1,1,0,0,1,1-1H50Z"/></svg>