<svg id="Capa_1" data-name="Capa 1" xmlns="http://www.w3.org/2000/svg" viewBox="0 0 150 162.52"><defs><style>.cls-1{fill:#234559;}.cls-2{fill:#f9d5bf;}.cls-3{fill:#1a3744;}.cls-4{fill:#5b452e;}.cls-5,.cls-7{fill:none;stroke:#1a3744;}.cls-5{stroke-linecap:round;stroke-linejoin:round;stroke-width:2px;}.cls-6{fill:#edad8c;}.cls-7{stroke-linecap:square;stroke-linejoin:bevel;stroke-width:2.09px;}</style></defs><path class="cls-1" d="M39.41,110.11c6.53-1.75,13.37-1.94,20.13-2,15.37,0,30.88.88,45.71,4.91s29.05,11.41,39.37,22.81c-19.37,16.33-46.81,18.44-72.13,17.61-20.16-.66-42.46-2.26-61-11-11.09-5.21-5.1-10.66,2.25-17.17S29.61,112.74,39.41,110.11Z"/><path class="cls-2" d="M52.75,93.07c2.94-5.14,8.93-7.95,14.83-8.49C80.17,83.42,93,92.3,96.25,104.51s1.21,22-10.25,27.31a33.75,33.75,0,0,1-13.56,2.92c-10.51.24-20.73-5.19-22.35-14.87C48.86,112.56,49.17,99.35,52.75,93.07Z"/><path class="cls-2" d="M36.76,57.29A.86.86,0,0,0,35.54,57a2.29,2.29,0,0,0-.82,1.15c-1.85,4.51-1.19,9.61-.36,14.42.28,1.61.65,3.35,1.9,4.41s3.64.78,4-.81"/><path class="cls-2" d="M107.63,55.91a2,2,0,0,1,2.6.7,5.44,5.44,0,0,1,.75,2.84,44.08,44.08,0,0,1-.37,9c-.4,2.79-1.45,6-4.13,6.87"/><path class="cls-2" d="M38.47,73.2C39.8,83.1,43,93,49.19,100.8s14.18,11.62,24.16,11.77c3.39.06,8.18.35,11.47-.5,4.63-1.21,6.1-2.32,9.61-5.58a31.05,31.05,0,0,0,9-16c2-9.62,4.61-19.48,4.18-29.27-.21-4.92-.62-9.83-1.13-14.73-.44-4.33-.61-8.89-2.08-13-2.15-6-7-10.83-12.75-13.71A42.21,42.21,0,0,0,73,15.7a40.7,40.7,0,0,0-17.63,3.36C35.16,28.55,35.94,54.37,38.47,73.2Z"/><path class="cls-3" d="M59.53,59.18c-1.2-.65-3.27.77-3.31,2.33,0,1.93,2,3.39,3.43,2.41s1.32-3.86-.12-4.74"/><path class="cls-3" d="M85.54,59.33c-1.59,1-1.15,3.87.11,4.92s3.27-.17,3.33-2.08c.07-2.42-1.56-3.23-3.44-2.84"/><path class="cls-3" d="M61.59,49a22.25,22.25,0,0,0-7.46-.35c-2.14.2-4.65.21-6.5,1.45-.66.45,0,1.53.64,1.08,1.71-1.15,4.13-1.13,6.11-1.3a20.64,20.64,0,0,1,6.88.33A.63.63,0,0,0,61.59,49Z"/><path class="cls-3" d="M83.44,50.81a19.25,19.25,0,0,1,10.82,1.08c.75.3,1.07-.91.33-1.21A20.56,20.56,0,0,0,83.11,49.6c-.79.15-.46,1.36.33,1.21Z"/><path class="cls-4" d="M64,87.83c-2.07,2.55-4.61,9.25-5.79,12.33-1.95-1.09-1.77-1.94-2-4.21a24.79,24.79,0,0,1,.36-6.11,10.3,10.3,0,0,1,2.7-4.47,26.54,26.54,0,0,1,18.47-4.43c3.84.52,7.75,2,10.18,5.15s3.69,11.16,1,14.07c-1.8-.92-3-6.44-3.76-8.36a12.54,12.54,0,0,0-5.58-6.08C74,82.51,68.36,82.48,64,87.83Z"/><path class="cls-4" d="M58.22,100.16c6.94,2.5,21.93,3.58,28.67,0,9.88-5.24,13.71-8.74,17.21-21.86.13-.5.93-8.36,1.45-8.55,1.41-.51,1.73.76,1.75,2.13.18,9.84-3.92,23.26-9.63,30.83C93.33,108.46,88,112.68,81,113q-4.87.24-9.77.17a37.32,37.32,0,0,1-7.69-.71c-6.21-1.42-11.31-5.61-14.73-10.5A63.5,63.5,0,0,1,40.6,86,33.18,33.18,0,0,1,39,79.35c-.3-3.68,2.4-4.84,2.7-4C45,84.77,48.26,96.58,58.22,100.16Z"/><path class="cls-5" d="M67.91,92.17c5,0,10.3-1.06,13.84-4.58"/><path class="cls-4" d="M63.35,9c-6.63.27-13.76.72-18.94,4.88L47.7,16a19.54,19.54,0,0,0-7.33,6.77,1.81,1.81,0,0,1,2.26.71c-3.86,2.1-8.15,4.79-8.82,9.13l4.24-.84c-1.68.33-3.8,7.26-4.26,8.72-1,3.28-1.55,4.67,1.71,6a12.12,12.12,0,0,0-.42,7.89c.61,2.64,1.65,5.17,2.13,7.84.59,3.32.29,6.72.5,10.08a32.8,32.8,0,0,0,1.6,8.21,2.26,2.26,0,0,0,.48.92c1,1,2.66-.48,3-1.89s-1.57-4.33-1.62-5.89c-.15-5.18-.4-9.13-.55-14.31-.17-5.66,1.68-11.42,3.21-16.87S48.9,31.78,54.15,29.66a2,2,0,0,0-1,2.71A19.75,19.75,0,0,1,72.2,22.8l-2.15,2.79c6.71-2.31,14-1.44,21.07-.56,2.2.28-2.31-6.25-2.65-6.62a34.43,34.43,0,0,0-27.53-11A8.84,8.84,0,0,1,63.35,9Z"/><path class="cls-4" d="M106.3,40.88c-.18-1.33-.38-2.66-.63-4,.3.32.61.63.91.94a16.05,16.05,0,0,0-1.36-7.67l2,.11a30.31,30.31,0,0,0-3-5.74c-1-1.44-2.74-2.92-3.31-4.45a8.32,8.32,0,0,1,1.37-.68,19,19,0,0,0-10.12-3.63c-1.14-.07-4.12-.19-4.89.93s.19,2.44.67,3.41a15.1,15.1,0,0,0,5.72,6.29,32,32,0,0,1,3.62,2.16c2.37,1.88,3.42,4.94,3.82,7.91s.24,6,.76,8.93,1.76,5.9,2.55,8.88c2.06,7.66,1.24,15.75.4,23.63a3.13,3.13,0,0,0,2.18.32A163.16,163.16,0,0,0,106.3,40.88Zm-3.36-12.4v0a.39.39,0,0,0-.14-.05Z"/><path class="cls-6" d="M66.76,74.48c-1.2.92-2.78,1.44-4,2.33s-2,2.45-1.09,3.55a3.89,3.89,0,0,0,2.17,1.07,12.61,12.61,0,0,0,12.07-4c2.37-3,3.49-10-1.74-11.89C68.47,63.52,69.86,72.1,66.76,74.48Z"/><path class="cls-7" d="M103.4,55.19s-.66,3.63-1.24,9.12-4.24,10-10.23,10c-18.48,0-16.52-18.72-16.52-18.72s-4.81-3-5.6.75,1.31,18-14.07,17.59c-10.29-.25-12.15-9.81-13.1-13s-1.46-5.84-1.46-5.84"/><path class="cls-3" d="M38.69,57.15c8.66-.89,17.34-1.18,26-1.24s17.68-.21,26.51,0c5.11.14,10.22.44,15.29,1a2,2,0,0,0,2-2,2,2,0,0,0-2-2,216,216,0,0,0-26.68-1.14c-8.75,0-17.52,0-26.26.28-5,.17-10,.53-14.9,1a2,2,0,0,0-2,2,2,2,0,0,0,2,2Z"/></svg>