<?xml version="1.0" encoding="utf-8"?>
<!-- Generator: Adobe Illustrator 26.1.0, SVG Export Plug-In . SVG Version: 6.00 Build 0)  -->
<svg version="1.1" id="Capa_1" xmlns="http://www.w3.org/2000/svg" xmlns:xlink="http://www.w3.org/1999/xlink" x="0px" y="0px"
	 viewBox="0 0 150 162.5" style="enable-background:new 0 0 150 162.5;" xml:space="preserve">
<style type="text/css">
	.st0{fill:#CEB178;}
	.st1{fill:#F9D5BF;}
	.st2{fill:#1A3744;}
	.st3{fill:#EDAD8C;}
	.st4{fill:none;stroke:#1A3744;stroke-width:1.28;stroke-linecap:round;stroke-linejoin:round;}
	.st5{fill:#D1A795;}
	.st6{fill:#7A5638;}
	.st7{fill:#E5BDA8;}
	.st8{fill:#D0EAF1;}
	.st9{fill:#C1DEE5;}
</style>
<path class="st0" d="M37.9,106.5c1.7,4.5,2.9,9,2.1,13.7c1.9-1.2,3.8-2.4,5.7-3.5c0.2-0.1,0.5-0.3,0.7-0.3c0.9-0.1,1.3,1.1,1.7,1.9
	c0.9,1.7,3.1,2.2,5,2.4c15.1,1.4,30.6-5.9,45.3-1.8c0,0,2.8-22.5,2.9-24.1c0.4-8.8,0.4-17.7-0.2-26.5c0-0.8-0.2-1.6-0.7-2.4
	c-0.8-0.8-2-1.5-3.3-1.8c-3.3-1-6.8-1.8-10.3-2.2c-12.9-1.5-26.1,0.1-37.5,4.4c-5.6,2.1-11.8,5-15.6,8.6c-3.4,3.2-1.9,8.4-1.5,12.2
	C32.7,93,35.7,100.7,37.9,106.5z"/>
<path class="st1" d="M37.7,66c0,4.2,0.4,8.3,1.3,12.4c1.8,7.1,6.1,13.3,10.9,18.7c3.1,3.5,7,6.2,11.4,8c2.5,0.9,5.2,1.4,7.9,1.3
	c3.9,0.2,6.8,0.3,10.4-1.2c2.6-1.3,4.8-3.1,6.6-5.3c7.5-8.6,12.1-19.3,13.1-30.7c0.8-11.1-1.1-22.3-3.9-33.1
	C94,30.5,92.1,24.6,87.6,21c-2.9-2.4-6.7-3.5-10.5-4.1c-10.8-1.6-21.8,1-30.8,7.4C33.3,33.6,37.4,51.9,37.7,66z"/>
<path class="st2" d="M54,62.4c0.7-0.2,1.5-0.1,2,0.4c0.8,0.7,1.3,1.6,1.4,2.7c0.2,1.4-0.7,2.8-2.1,3.2c-1.4,0-2.6-1.1-2.7-2.4
	c-0.2-0.8-0.1-1.6,0.1-2.4c0.1-0.3,0.3-0.6,0.6-0.9C53.5,62.7,53.7,62.6,54,62.4z"/>
<path class="st2" d="M83.6,60.4c1.3,0.3,2.3,1.3,2.7,2.5c0.3,1.2-0.2,2.4-1.2,3c-1,0.5-2.2,0.2-2.8-0.7c-0.6-0.8-0.8-1.9-0.5-2.8
	c0.1-0.6,0.4-1.1,0.7-1.5C82.7,60.5,83.1,60.3,83.6,60.4z"/>
<path class="st3" d="M65.1,75.7c-0.5,1.1-0.6,2.4-0.3,3.6c0.3,0.7,0.8,1.4,1.5,1.8c2.7,1.7,6.1,1.6,8.7-0.2c0.7-0.4,1.3-1.1,1.6-1.8
	c0.8-2-0.3-4.3-1.4-6.1l-4.1-6.8C68,61,66,72.8,65.1,75.7z"/>
<path class="st4" d="M60.5,89c7.4,2.2,15.3,1.8,22.3-1.3"/>
<path class="st5" d="M86,71c0.4,0,0.7-0.3,0.7-0.7s-0.3-0.7-0.7-0.7s-0.7,0.3-0.7,0.7S85.6,71,86,71z"/>
<path class="st5" d="M86.5,77.5c0.4,0,0.6-0.4,0.6-0.8c0-0.3-0.3-0.6-0.6-0.6c-0.4,0-0.6,0.4-0.6,0.8C85.9,77.2,86.2,77.4,86.5,77.5
	z"/>
<path class="st5" d="M92.2,73.6c0.4,0,0.6-0.4,0.6-0.8c0-0.3-0.3-0.6-0.6-0.6c-0.4,0-0.6,0.4-0.6,0.8C91.6,73.4,91.9,73.6,92.2,73.6
	z"/>
<path class="st5" d="M55,72.9c0.4,0,0.6-0.4,0.6-0.8c0-0.3-0.3-0.6-0.6-0.6c-0.4,0-0.6,0.4-0.6,0.8C54.4,72.7,54.7,72.9,55,72.9z"/>
<path class="st5" d="M52.8,79.3c0.4,0,0.7-0.3,0.7-0.7s-0.3-0.7-0.7-0.7s-0.7,0.3-0.7,0.7S52.4,79.3,52.8,79.3z"/>
<path class="st5" d="M47.6,74.2c0.4,0,0.6-0.4,0.6-0.8c0-0.3-0.3-0.6-0.6-0.6c-0.4,0-0.6,0.4-0.6,0.8C47,73.9,47.3,74.2,47.6,74.2z"
	/>
<path class="st6" d="M78.8,53.8c0,0.7,0.5,1.3,1.1,1.5c1.2,0.4,2.4-0.7,3.7-1c4-1,8.2,0.9,12,2.2c-0.6-0.9-1.4-1.6-2.3-2.1
	c-1.9-1.1-4.1-1.9-6.3-2.3c-2-0.4-5.9-1.2-7.7,0.3C79,52.8,78.7,53.3,78.8,53.8z"/>
<path class="st6" d="M61,54.8c0,0.7-0.4,1.3-1,1.6c-1.2,0.5-2.5-0.5-3.8-0.7c-4.1-0.7-8.1,1.5-11.7,3.2c0.5-0.9,1.2-1.7,2.1-2.2
	c1.8-1.3,3.9-2.2,6.1-2.8c2-0.5,5.8-1.7,7.7-0.3C60.8,53.8,61,54.3,61,54.8z"/>
<path class="st1" d="M56.8,108.8c0.2-4,0.5-8.3,3.1-11.3c3.6-4.1,9.9-3.9,15.3-3.1c2.3,0.2,4.5,0.9,6.6,2c4.2,2.8,4.9,8.6,5.1,13.7
	l0.7,14.2c0.1,1.2,0,2.4-0.3,3.5c-0.8,2-3.2,3-5.3,3.5c-4.9,1.3-9.9,1.9-15,1.6C50.8,131.9,56.3,120.1,56.8,108.8z"/>
<path class="st7" d="M57.1,104.3c3.9,1,7.6,2.9,11.6,3.5c4.2,0.7,8.4-0.5,11.7-3.2c0.8-0.6-0.3-1.7-1.1-1.1
	c-3.2,2.6-7.4,3.5-11.4,2.6c-3.5-0.8-6.8-2.3-10.3-3.3c-0.4-0.1-0.8,0.1-0.9,0.5C56.4,103.8,56.7,104.2,57.1,104.3z"/>
<path class="st8" d="M25.7,128.2c3.9-1.5,7.9-2.6,12-3.3c17-3.4,34.5-5.2,51.7-3.6s34.4,6.8,48.9,16.4c-3.9,2.8-8.9,3.4-13.7,4
	c-30.3,3.5-60.7,5.8-91.2,5.4c-5.3-0.1-17.4,0.3-21-4.8C8.5,136.7,21.6,129.9,25.7,128.2z"/>
<path class="st0" d="M66.2,26c0.1,5.2-9,2.6-12.5,3.7c-1.3,0.4-2.5,1-3.5,1.9c-2.7,2.6-2.7,6.8-2.7,10.6c-0.2,7.5-1.8,14.9-4.7,21.7
	c-1,2.6-1.8,5.3-2.3,8c-0.7,3.4-0.8,6.9-0.2,10.4c0.7,5.5,6.1,9.2,4.4,14.5c-1,2.8-3.8,6.8-5.1,9.5c-1.5,3.1-1.4,5.5-1.8,8.9
	c-0.4,3-2.1,5.7-4.5,7.5c0.8-2.7-0.7-5.5-2.7-7.4c-2-1.9-4.5-3.3-6.5-5.2c-2-1.9-3.4-6.8-2.5-9.5c1.1-3.3,5.1-4.8,5.4-8.4
	c0.3-3.3-2.6-7.1-4.2-9.7c-1.9-3.2-3.3-7.6-0.9-10.4c0.8-0.7,1.5-1.5,2.2-2.3c0.6-1.1,0.8-2.4,0.6-3.7c-0.5-7.3,3.3-13.4,3.6-20.8
	s2.2-15,7.2-20.3c4.5-4.8,11-7.1,17.4-8.5c5.6-1.1,6.5-2.8,11.7-0.4C67.4,17.5,66.1,23.2,66.2,26z"/>
<path class="st0" d="M77,28.4c3.8,2.6,9.2,5.6,10.5,9c1.8,5-1.3,11.3,1.7,15.7c1.6,2.3,5,6,6.7,8.2c2.8,3.8,4,8.5,3.1,13.2
	c-0.4,2-1.1,4-0.9,6s1.7,4,1.8,6.1c0.4,4.5-4.5,8.2-4.3,12.8c0.2,4.1,2.7,11,4,14.9c1,3,3.7,5.4,6.8,5.9c-0.3-1.7-0.7-3.4-0.5-5.1
	c0.5-3.5,3.3-6.5,2.8-10c-0.6-4.5-2.6-9.5-2.5-14.4c0.1-5.3,1.5-10.4,2.5-15.5c1.4-7.1,2.3-15-1.3-21.3c-1.5-2.6-3.6-4.9-5-7.6
	c-2.5-4.9-2.1-10.7-3.4-16c-1.4-5.2-4.4-9.8-8.6-13.2c-4.4-3.6-8.1-3.8-13.8-3.8c-2-0.1-4,0.1-6,0.6c-2,0.5-4.1,1.7-4.5,3.7
	c-0.1,0.7-0.1,1.4-0.1,2.1l0.5,7c0,0.3,0.1,0.6,0.2,0.8c0.4,0.6,1.3,0.4,2,0.2c1.4-0.5,3-0.8,4.5-0.7C74.6,27.1,75.9,27.6,77,28.4z"
	/>
<path class="st9" d="M51.1,124.1c0,1,0.2,2,0.6,2.9c1,1.8,3.5,2.2,5.5,2.3c8.4,0.6,16.8,0.7,25.1,0.4c1.8,0,3.5-0.3,5.2-1
	c2-1.1,3.5-3,4.1-5.3c0.6-2.2,0.8-4.5,0.8-6.8c0-1.6-0.2-3.5-1.5-4.3c-0.8-0.4-1.7-0.5-2.6-0.4l-34.1,1.5
	C49.1,113.7,50.9,120.5,51.1,124.1z"/>
</svg>
