<svg id="Capa_1" data-name="Capa 1" xmlns="http://www.w3.org/2000/svg" viewBox="0 0 23 23"><defs><style>.cls-1{fill:#00a6cf;}</style></defs><path class="cls-1" d="M1.77,22H12.51a.7.7,0,0,0,.7-.7V20.25a6.14,6.14,0,0,0-3.13-5.34l-.41-.23.32-.35a3.85,3.85,0,0,0,1.08-2.68,3.94,3.94,0,0,0-3.9-4,4,4,0,0,0-4,4,3.83,3.83,0,0,0,1.12,2.69l.34.34-.42.24a6.13,6.13,0,0,0-3.17,5.33v1.07A.7.7,0,0,0,1.77,22Z"/><circle class="cls-1" cx="17.29" cy="6.12" r="5.16"/><polygon class="cls-1" points="12.76 8.59 11.81 10.42 13.79 9.9 13.79 8.59 12.76 8.59"/></svg>