<svg id="Capa_1" data-name="Capa 1" xmlns="http://www.w3.org/2000/svg" viewBox="0 0 659.53 315.23"><defs><style>.cls-1{fill:#f2f8f9;}.cls-2{fill:#fff;}.cls-3{fill:#ceebf1;opacity:0.63;}</style></defs><rect class="cls-1" y="79.66" width="659.53" height="235.57"/><polygon class="cls-1" points="451.42 315.23 194.34 315.23 194.34 48.97 322.88 0 451.42 48.97 451.42 315.23"/><circle class="cls-2" cx="322.88" cy="58.15" r="15.3"/><rect class="cls-3" x="246.37" y="257.94" width="159.67" height="57.29"/><rect class="cls-3" x="221.88" y="115.16" width="39.79" height="45.98"/><rect class="cls-3" x="276.97" y="115.16" width="39.79" height="45.98"/><rect class="cls-3" x="332.06" y="115.16" width="39.79" height="45.98"/><rect class="cls-3" x="387.15" y="115.16" width="39.79" height="45.98"/><rect class="cls-3" x="461.62" y="115.16" width="75.04" height="45.98"/><rect class="cls-3" x="554.46" y="115.16" width="75.04" height="45.98"/><rect class="cls-3" x="461.62" y="181.81" width="75.04" height="45.98"/><rect class="cls-3" x="554.46" y="181.81" width="75.04" height="45.98"/><rect class="cls-3" x="26.46" y="115.16" width="75.04" height="45.98"/><rect class="cls-3" x="119.3" y="115.16" width="75.04" height="45.98"/><rect class="cls-3" x="26.46" y="181.81" width="75.04" height="45.98"/><rect class="cls-3" x="119.3" y="181.81" width="75.04" height="45.98"/><rect class="cls-3" x="63.98" y="257.94" width="41.5" height="57.29"/><rect class="cls-3" x="115.32" y="257.94" width="41.5" height="57.29"/><rect class="cls-3" x="499.14" y="257.94" width="41.5" height="57.29"/><rect class="cls-3" x="550.48" y="257.94" width="41.5" height="57.29"/><rect class="cls-3" x="221.88" y="181.81" width="39.79" height="45.98"/><rect class="cls-3" x="276.97" y="181.81" width="39.79" height="45.98"/><rect class="cls-3" x="332.06" y="181.81" width="39.79" height="45.98"/><rect class="cls-3" x="387.15" y="181.81" width="39.79" height="45.98"/></svg>