<svg id="Layer_1" data-name="Layer 1" xmlns="http://www.w3.org/2000/svg" viewBox="0 0 59 57"><defs><style>.cls-1{fill:#00a7ce;}</style></defs><path class="cls-1" d="M40.58,35.68l0-.14c-.07-.27-.19-.63-.29-.92l-.09-.28a.14.14,0,0,1,0-.06.34.34,0,0,0,0-.1A1.24,1.24,0,0,0,40,34l-.06-.13a7.54,7.54,0,0,0-.41-.78,11.74,11.74,0,0,0-2-2.58,16.49,16.49,0,0,0-3.13-2.42l.75-1.16.44-.68a11.94,11.94,0,0,0,10.07-1.4,17.42,17.42,0,0,0,5-4.8,2.75,2.75,0,0,0,.26-2.93,3.47,3.47,0,0,0-3-1.73,3.13,3.13,0,0,0-2.62,1.37,9,9,0,0,1-4,3.25c-2.28.74-4.06.4-6.34-1.15a4.71,4.71,0,0,0-.93-.66l-.4-.29c-.77-.56-1.5-1.08-2.26-1.53a14.37,14.37,0,0,0-7.18-1.93,12.44,12.44,0,0,0-9.09,3.68,3,3,0,0,0-.62,3.34,3.37,3.37,0,0,0,3,2,3,3,0,0,0,2.16-1,8,8,0,0,1,3.82-2.28,4.77,4.77,0,0,1,2.77.56.45.45,0,0,0-.06.14l-.46,1.19c-.34.86-.74,1.87-1.24,3.06s-1.18,2.69-1.89,4a17.89,17.89,0,0,1-1.15,1.9,8.35,8.35,0,0,1-1.22,1.42,6.19,6.19,0,0,1-1.56,1l-.55.21-.16.05-.1,0a4.45,4.45,0,0,1-.76.14,5.72,5.72,0,0,1-1.7-.08,8.67,8.67,0,0,1-1.67-.46,13.34,13.34,0,0,1-2.52-1.29c-.23-.15-.45-.3-.69-.48l-.08.1,0,0,.08-.08s0,0-.05-.05a2.9,2.9,0,0,0-3.94,0,2.75,2.75,0,0,0-.84,2,2.84,2.84,0,0,0,.85,2l.06,0,.29.29c.18.18.47.45.85.77A19.08,19.08,0,0,0,11,39a16.78,16.78,0,0,0,2.68,1.13,13.41,13.41,0,0,0,3.46.61h.4a10.78,10.78,0,0,0,1.5-.09c.26,0,.52-.07.76-.12l.2,0,.09,0,0-.13h0v-.07h0L20,39.7h0l.32.76.13,0,.48-.1a13.91,13.91,0,0,0,3.68-1.39,15.74,15.74,0,0,0,3.1-2.3c.35-.32.7-.67,1.06-1.06l.81.25a9.8,9.8,0,0,1,2.25,1.09,3.88,3.88,0,0,1,.81.71.85.85,0,0,1,.14.16.36.36,0,0,0,.07.1l0,0c.05.11.09.18.1.16l.07.14.07.15a8.1,8.1,0,0,1,.44,1.49,14.8,14.8,0,0,1,.28,1.76A30.56,30.56,0,0,1,34,45.05c0,.84,0,1.68-.08,2.49l-.06.93h0a.62.62,0,0,0,0,.12,2.8,2.8,0,0,0,2.07,2.9,3.08,3.08,0,0,0,.75.09,2.81,2.81,0,0,0,2.71-2l.29-1.06c.24-.9.46-1.83.65-2.77a36.61,36.61,0,0,0,.6-4.08A23.43,23.43,0,0,0,41,39.14a16.89,16.89,0,0,0-.26-2.8C40.69,36.14,40.64,35.92,40.58,35.68ZM27.81,19.62l-.34-.16a7.26,7.26,0,0,0-4.41-.94,9.79,9.79,0,0,0-4.75,2.78,1.38,1.38,0,0,1-2.26-.56,1.24,1.24,0,0,1,.29-1.42,10.69,10.69,0,0,1,7.82-3.14,12.59,12.59,0,0,1,6.3,1.69c.67.4,1.37.9,2.1,1.43l.5.35a4.62,4.62,0,0,1,.79.56c2.87,2,5.15,2.35,8,1.44a10.78,10.78,0,0,0,4.92-3.9,1.39,1.39,0,0,1,1.19-.63,1.7,1.7,0,0,1,1.47.81A1,1,0,0,1,49.25,19c-2.7,3.82-6.4,6-10.14,6a10.33,10.33,0,0,1-3.52-.64l-.13-.05a.8.8,0,0,0-.55,0h0a.74.74,0,0,0-.41.35l-.08.14L33.68,26l-1.29,2a.82.82,0,0,0-.12.51l-.11.16.17.09a.79.79,0,0,0,.34.4,16,16,0,0,1,3.63,2.64A10.42,10.42,0,0,1,38,33.94c.12.21.23.43.34.66l.12.25,0,.09.11.31a7.17,7.17,0,0,1,.22.71l0,.16c0,.17.09.33.12.52a14.82,14.82,0,0,1,.23,2.52,23,23,0,0,1-.1,2.3,35.66,35.66,0,0,1-.58,3.89c-.22,1.12-.45,2-.62,2.67l-.28,1a1.11,1.11,0,0,1-1.32.74,1,1,0,0,1-.79-1.07V48.6l.07-1c0-.62.08-1.52.08-2.59a31.64,31.64,0,0,0-.17-3.62,18,18,0,0,0-.31-1.94,10.21,10.21,0,0,0-.53-1.77l-.12-.28-.08-.16a1.76,1.76,0,0,0-.13-.2l-.18-.3a.67.67,0,0,1-.06-.12,1,1,0,0,0-.21-.21l0,0a5.72,5.72,0,0,0-1.1-1,10.8,10.8,0,0,0-2.69-1.31,14.28,14.28,0,0,0-1.49-.43.81.81,0,0,0-.79.25c-.46.5-.9.95-1.34,1.36a14,14,0,0,1-2.76,2,12,12,0,0,1-3.29,1.23l-.31.07-.26,0,0,.12-.11,0,0-.12-.23,0-.65.11a9.62,9.62,0,0,1-1.29.07H17.2a11.21,11.21,0,0,1-3-.53,13.75,13.75,0,0,1-2.39-1,17.79,17.79,0,0,1-3.09-2.11c-.34-.29-.6-.53-.76-.69l-.36-.36a1,1,0,0,1,0-1.47,1.1,1.1,0,0,1,1.51,0h0a1.27,1.27,0,0,0,.2.16l.07-.1L9.5,33l-.06.12.74.51A15.3,15.3,0,0,0,13,35a10.26,10.26,0,0,0,2,.55,8,8,0,0,0,2.2.1,5.21,5.21,0,0,0,1-.19,1.74,1.74,0,0,0,.39-.11l.48-.17.32-.14a7.84,7.84,0,0,0,1.93-1.25,9.74,9.74,0,0,0,1.48-1.71A20.35,20.35,0,0,0,24.06,30c.74-1.39,1.38-2.82,2-4.16s1-2.35,1.26-3.11l.44-1.14,0-.07a2.87,2.87,0,0,1,.39-.73.82.82,0,0,0,.12-.51l.15-.21L28.17,20A.76.76,0,0,0,27.81,19.62Z"/><path class="cls-1" d="M35.6,16.45A5.52,5.52,0,1,0,30,10.94,5.56,5.56,0,0,0,35.6,16.45ZM35.6,7a3.9,3.9,0,1,1-4,3.9A3.94,3.94,0,0,1,35.6,7Z"/></svg>