<?xml version="1.0" encoding="utf-8"?>
<!-- Generator: Adobe Illustrator 26.1.0, SVG Export Plug-In . SVG Version: 6.00 Build 0)  -->
<svg version="1.1" id="Capa_1" xmlns="http://www.w3.org/2000/svg" xmlns:xlink="http://www.w3.org/1999/xlink" x="0px" y="0px"
	 viewBox="0 0 150 162.5" style="enable-background:new 0 0 150 162.5;" xml:space="preserve">
<style type="text/css">
	.st0{fill:#775F40;}
	.st1{fill:#F1A43D;}
	.st2{fill:#F9D5BF;}
	.st3{fill:#1A3744;}
	.st4{fill:#EDAD8C;}
	.st5{fill:#EFC9B4;}
	.st6{fill:#E5BDA8;}
</style>
<path class="st0" d="M81.6,5.7c4.3,0.2,8.8,0.3,12.7,2.1c2.7,1.4,5.2,3.1,7.4,5.2l18.5,15.8c1.7,1.4,3.4,3,4.2,5
	c1.3,3.7-1.3,7.5-1.6,11.4c-0.6,7.9,8.3,15.4,5,22.7c-1.2,2.8-4.2,5-4,8c0.1,2.3,2,4.2,3.1,6.3c2.9,5.4,0.1,11.8-2.6,17.3
	s-5.2,12-2.1,17.3c1.3,2.2,3.5,3.9,4.5,6.2c1.4,3.2,0.5,6.8-0.1,10.3s-0.6,7.4,2.3,9.7c-2.9-0.3-5.8,0.4-8.3,1.9
	c-1.1,0.8-2.3,1.5-3.5,2.1c-2.5,0.9-5.4-0.1-8.1-0.1c-3.9-0.1-7.4,1.8-11.2,2.6c-4.1,0.8-8.3,0.4-12.4-0.3
	c-5.1-0.9-10.3-2.1-15.5-1.9c-4.3,0.1-8.5,1.2-12.8,0.8c-5.2-0.5-10-3.3-15.2-3.2c-3.8,0.1-7.6,1.6-11.2,0.7c-1-0.2-1.9-0.7-2.5-1.4
	c-1.5-1.7-0.8-4.2,0.2-6.2s2.5-3.9,2.3-6.1c-0.3-4-5.6-6-7.1-9.7c-1.9-4.8,3.1-10,1.8-14.9c-0.5-1.8-1.9-3.4-2.3-5.2
	c-1.3-5.1,4.2-10,3-15.2c-0.6-2.4-2.7-4.4-3.4-6.8c-1.4-4.5,2.2-9.1,1.5-13.7c-0.3-1.9-1.3-3.6-1.3-5.5c0.1-1.7,0.6-3.4,1.5-4.9
	L30,43.6c1-2.1,2-4.3,1.8-6.5c-0.1-1.2-0.5-2.5-0.3-3.7c0.5-2.4,3.5-3.6,5.1-5.6c1.2-1.4,1.6-3.2,2.3-4.8c2.2-4.7,7.1-7.7,11.7-10.4
	c2.9-1.7,5.3-1.8,8.3-2.7c2.2-0.7,4-2.2,6.2-2.9C70.4,5.3,76.1,5.5,81.6,5.7z"/>
<path class="st1" d="M145.2,132.9c-8,10.2-20.1,17.1-32.9,20.8s-26.4,4.5-39.9,4.3c-12.2-0.2-24.5-1.3-36.1-4.7
	c-6.7-2-27.4-8.6-25.4-17.5c1.9-8.6,21.1-12.5,28.5-14.5c22.6-6,46.3-6.7,69.2-1.8C121.3,122.1,133.7,126.7,145.2,132.9z"/>
<path class="st2" d="M57.5,102.4c0.2-4,0.5-8.3,3.7-11.3c4.3-4,11.8-3.9,18.2-3.1c2.7,0.2,5.3,0.8,7.8,2c5,2.8,5.8,8.6,6.1,13.7
	l0.8,14.2c0.2,1.2,0,2.4-0.4,3.5c-1,2-17.5,23.8-21.1,24c-2.4,0.1-12.6-20.6-14.5-22.8C54,118,57.1,110.1,57.5,102.4z"/>
<path class="st2" d="M43.3,45.6c-1.7,10.6-1.5,21.6,1.4,31.9s8.7,19.8,16.9,26.1c3.8,2.9,8.3,5.1,13,5.1c4.2,0,8.3-1.8,11.9-4.1
	c9.1-6,15.6-15.9,18.7-26.7s2.7-22.5,0.1-33.5c-2.5-10.3-7.3-20.3-15-27C82.7,10.8,65.9,11,57,17.8C47.8,24.8,45,34.5,43.3,45.6z"/>
<path class="st3" d="M58.5,55.2c-0.7,0.2-1,1-1.1,1.8c-0.2,0.9-0.1,1.8,0.1,2.6c0.3,0.9,1,1.5,1.9,1.6c0.9,0,1.7-0.5,2-1.4
	c0.3-0.8,0.3-1.7,0-2.6C61,56,60,54.8,58.7,55"/>
<path class="st3" d="M86.3,55.6c-1.2-0.5-2.5,0.8-2.9,2c-0.5,1-0.5,2.2,0,3.3c0.5,1.1,1.8,1.6,2.9,1.2c0.7-0.4,1.3-1.1,1.4-1.9
	c0.4-0.9,0.4-2,0.1-2.9c-0.3-1-1.1-1.7-2.1-1.8"/>
<path class="st4" d="M67.9,62l-0.8,8.1c0,0.9-0.2,1.8-0.6,2.6c-0.5,1.1-1.6,2-1.6,3.3c0,0.9,0.4,1.7,1.2,2.2c0.7,0.5,1.5,0.8,2.3,1
	c0.7,0.2,1.4,0.3,2.2,0.3c2.3-0.3,3.6-3,4.1-5.3c0.9-4.3,0.9-9.6-0.9-13.6C71.5,55.4,68.4,57.1,67.9,62z"/>
<path class="st3" d="M63.7,48c-4.6-0.4-9.2,0.2-13.6,1.9c-1,0.4-0.6,2,0.4,1.6c4.2-1.6,8.7-2.2,13.1-1.8
	C64.7,49.8,64.7,48.1,63.7,48z"/>
<path class="st3" d="M82.7,50c4.3,0,8.6,1,12.5,2.8c1,0.4,1.8-1,0.8-1.5c-4.2-1.9-8.7-2.9-13.3-3c-0.5,0-0.8,0.4-0.8,0.8
	S82.3,50,82.7,50L82.7,50z"/>
<path class="st3" d="M66.7,89.9c3.3,0.8,6.9,1.4,10.2,0.2c2.7-0.9,4.9-2.9,5.9-5.6c0.4-1-1.3-1.5-1.6-0.4c-0.9,2.2-2.8,3.9-5.1,4.5
	c-2.9,0.9-6,0.4-8.9-0.3c-0.5-0.1-0.9,0.2-1,0.6C66,89.3,66.3,89.7,66.7,89.9z"/>
<path class="st5" d="M91.2,63.5c-1-0.1-2,0-3,0.3c-1.1,0.4-2,1-2.8,1.9c-2,1.9-3,4.6-2.9,7.4c0.2,2.8,2,5.2,4.6,6.2
	c1,0.3,2,0.5,3,0.5c3,0.3,6.5,0.4,8.5-1.8c1.6-1.7,1.8-4.4,1.6-6.7c-0.1-1.4-0.4-2.8-0.9-4.1C97.7,64,94.5,63.6,91.2,63.5z"/>
<path class="st5" d="M44.3,70.7c-0.3,1.6-0.1,3.2,0.7,4.6c0.7,0.9,1.6,1.6,2.6,2.2c1.2,0.9,2.6,1.4,4,1.7c1.1,0,2.2-0.1,3.2-0.5
	c1.1-0.3,2.1-0.8,3-1.5c3.4-3,2-10.7-2.1-12.6c-4.1-1.8-9,0.1-10.8,4.2C44.6,69.4,44.4,70,44.3,70.7z"/>
<path class="st0" d="M76.1,52.1l2.9-7.2c1.8,0.3,2.7,2.8,4.5,3.1c2.6,0.5,4.2-3.7,6.8-3.5c0.7,1.5,1.6,2.8,2.8,4
	c0.2,0.2,0.5,0.5,0.9,0.4c0.5-0.1,0.5-0.9,0.8-1.3c0.5-0.7,1.4-0.8,2.1-0.3c0.6,0.5,1.1,1.1,1.4,1.9c4.1,7.5,6.8,14.7,14.6,17.8
	c0.8-13-1.4-26.5-7.7-37.8c-1.6-3.2-3.7-6.1-6.1-8.8c-2.3-2.1-4.9-4-7.7-5.4c-5.5-3.1-11.8-5.9-18-4.8c-2.1,0.4-4.1,1.1-6.1,2
	c-2.7,1.1-5.4,2.4-7.1,4.7c-2.4,3.3-1.4,6.2-0.3,9.6s1.4,6.9,2.8,10.2c1.4,3.2,3.3,6.2,5.6,8.9C68.9,46.1,76,52.4,76.1,52.1z"/>
<path class="st0" d="M38,56.7c0-0.1,2.3-2.2,2.5-2.5c0.9-1.1,1.6-2.3,2.2-3.5c1.4-2.6,2.5-5.3,3.6-8.1c2.1-5.4,8.2-9.3,12.3-13.4
	c2.7-2.7,3.9-6.9,4.7-10.5c0.7-3.5,1.5-6.5-2.9-5.4c-3.5,0.9-6.6,3.7-8.9,6.3c-3.2,3.9-5.3,8.5-7.4,13.1L41.3,39
	C39.4,43.2,36.9,52.1,38,56.7z"/>
<path class="st2" d="M43.1,58.8c-1.5-1-3.8-0.1-4.8,1.5c-0.9,1.6-1.2,3.5-1,5.4c0,1.9,0.5,3.7,1.4,5.4c0.9,1.7,2.7,2.7,4.6,2.6"/>
<path class="st2" d="M107,60.8c0.3-0.9,1.2-1.4,2.1-1.1c0,0,0.1,0,0.1,0c0.9,0.4,1.5,1.1,1.8,2c0.5,1.5,0.8,3.1,0.8,4.8
	c0.1,2.1,0.2,4.3-0.8,6.2s-3.1,3.3-5.1,2.5"/>
<path class="st6" d="M58,102.1c3.2,3.8,7.6,6.3,12.5,7.2c5.1,0.7,10.3-0.7,14.4-3.7c0.8-0.6,0-1.9-0.8-1.3
	c-3.9,2.9-8.8,4.2-13.7,3.5c-4.4-1-8.4-3.3-11.3-6.8C58.4,100.3,57.3,101.4,58,102.1z"/>
<path class="st0" d="M120.7,109.4c-1.5,5.8,2.3,11.8,1.7,17.8c-0.2,1.3-0.5,2.6-0.7,3.9c-0.5,4.4,1.6,7.8,2.5,11.8
	c-5.1,1.2-13-1.9-17.2-4.9c-1.9-1.2-3.3-3-4-5.2c-0.5-2,0.1-4.1,0.3-6.2c0.6-4.8-2.7-6.1-5.2-9.5c-1.3-1.8-2.3-4-1.8-6.1
	c0.6-1.8,1.9-3.3,3.7-3.9c1.8-0.7,3.6-1,5.5-1c3.2-0.1,6.4,0,9.6,0.3C117.3,107,119.2,108,120.7,109.4z"/>
<path class="st0" d="M32.5,106.8c-3.1,1.2-4.2,5-3.9,8.2s1.7,6.3,1.6,9.5c-0.1,5-3.3,9.4-6.4,13.4c5.2,0.9,10.5,0.7,15.7-0.6
	c2.6-0.5,5-1.6,7-3.2c2-1.6,3-4.2,2.6-6.7c-0.4-1.6-1.5-3.1-1.2-4.7s1.4-2.6,2.3-3.8c2.5-3.2,3.3-7.4,2.1-11.2"/>
</svg>
