<svg id="Layer_1" data-name="Layer 1" xmlns="http://www.w3.org/2000/svg" viewBox="0 0 59 57"><defs><style>.cls-1{fill:#00a7ce;}</style></defs><path class="cls-1" d="M28.53,50.54a.92.92,0,0,1-.29,0,1,1,0,0,1-.67-1.25,17.69,17.69,0,0,1,2.79-4.87A15.41,15.41,0,0,1,34.17,41l.34.7-.34-.7a2.26,2.26,0,0,1,.91-.23c1.34.05,4.62-.11,6.25-.9a2.13,2.13,0,0,0,.65-.45c.75-.88,1-4.11,1.05-5.84a9.88,9.88,0,0,1,.29-2.45,2.16,2.16,0,0,1,.36-.57,6.56,6.56,0,0,1,.9-.83,7.74,7.74,0,0,0,.81-.72,1.46,1.46,0,0,0,.53-1.07c0-.61-1.16-1.69-2.07-2.57-1.19-1.13-2.42-2.31-2.74-3.63a10.16,10.16,0,0,1-.27-3.85,7.05,7.05,0,0,0-.54-3.74c-1.41-3.73-5.25-4.8-6-5h0L34,9.09A21.51,21.51,0,0,0,24.32,9c-2,.48-11.81,3.27-11.21,11.22a1,1,0,0,1-.92,1.08,1,1,0,0,1-1.08-.93C10.39,10.78,21.6,7.57,23.85,7a23.26,23.26,0,0,1,10.76.14l.18.06c1,.24,5.64,1.59,7.38,6.21a9,9,0,0,1,.66,4.61,8.38,8.38,0,0,0,.22,3.21c.18.75,1.25,1.76,2.18,2.66,1.36,1.29,2.64,2.52,2.69,3.94a3.4,3.4,0,0,1-1.08,2.53,10.83,10.83,0,0,1-1,.88,5.88,5.88,0,0,0-.64.56A11.44,11.44,0,0,0,45,33.69c-.19,3.08-.43,5.73-1.53,7a3.77,3.77,0,0,1-1.29.95c-2.4,1.17-6.48,1.12-7.11,1.11l-.05,0a13.67,13.67,0,0,0-3.15,2.87,15.78,15.78,0,0,0-2.42,4.17A1,1,0,0,1,28.53,50.54Z"/></svg>