<svg id="Capa_1" data-name="Capa 1" xmlns="http://www.w3.org/2000/svg" xmlns:xlink="http://www.w3.org/1999/xlink" viewBox="0 0 1200 622.87"><defs><style>.cls-1,.cls-6,.cls-8,.cls-9{fill:none;}.cls-2{clip-path:url(#clip-path);}.cls-3{clip-path:url(#clip-path-2);}.cls-4{fill:#365870;}.cls-5{fill:#2f495f;}.cls-6,.cls-8,.cls-9{stroke:#009cca;stroke-miterlimit:10;}.cls-7{fill:#ef9c00;}.cls-8,.cls-9{stroke-linecap:round;stroke-width:2.33px;}.cls-8{stroke-dasharray:2.05 5.13;}.cls-10{opacity:0.52;}.cls-11{fill:#fff;}</style><clipPath id="clip-path"><rect class="cls-1" width="1200" height="622.87"/></clipPath><clipPath id="clip-path-2"><path class="cls-1" d="M1221.71,561.65c-86.14,39.85-184,45.34-278.89,43.25C674.77,599,408.13,538.08,140.73,557.73c-53.79,3.95-109.15,11.78-155.18,39.88V-13.95H1221.71Z"/></clipPath></defs><g class="cls-2"><g class="cls-3"><path class="cls-4" d="M1221.71,561.65c-86.14,39.85-184,45.34-278.89,43.25C674.77,599,408.13,538.08,140.73,557.73c-53.79,3.95-109.15,11.78-155.18,39.88V-13.95H1221.71Z"/><path class="cls-5" d="M125.69,426c-36.4.18-73.27,3.52-107.46,16a210,210,0,0,0-58.86,33C-55,486.47-68.08,500.13-76.2,516.66-84.1,532.77-87,551-86.79,568.93-86,644-29.31,712.49,41.86,736.45c30.81,10.36,63.55,13.38,96,15.54,86.5,5.74,173.83,5.8,259.37-8.34,20.5-3.38,41.23-7.71,59.43-17.74s33.77-26.61,38-46.95C508.13,614.47,431,533.59,381.89,499.38,306.43,446.83,217,425.49,125.69,426Z"/><path class="cls-5" d="M951.87,82.06c3.54,41.53,29.64,79.25,64.4,102.24s77.3,32.3,119,32.1c31.46-.16,64.61-6.28,88.36-26.91C1238,177,1247.81,160.18,1256,143c10.5-22,18.83-45.54,19.92-69.91s-5.75-49.8-22.33-67.69c-21.84-23.55-56-30.38-88-33.42a616.44,616.44,0,0,0-82.32-2.32c-23.17.89-53-.36-74.78,8.27C969.47-6.64,948.51,42.69,951.87,82.06Z"/></g></g><path class="cls-6" d="M-12.06,559.65a1210.9,1210.9,0,0,1,331.69-8.87c111.26,12.36,220.93,35.52,332,47.81,101.05,11.17,203.43,13.57,304.71,3.89,95.46-9.12,187.92-29.14,274.59-71.38"/><polygon class="cls-7" points="1009.09 229.08 982.36 262.06 969.05 249.79 965.49 254.59 983.04 272.06 1013.89 233.4 1009.09 229.08"/><path class="cls-8" d="M149.44,260c9.63-19.09,22.15-35.19,30.49-54a98.51,98.51,0,0,1,22.43,23.26A506.48,506.48,0,0,0,251,166.2"/><polyline class="cls-9" points="242.1 159.31 256.14 159.31 259.89 172.41"/><g class="cls-10"><path class="cls-11" d="M1032.59,383.06l-4-.68a23.61,23.61,0,0,0-1.6-3.86l2.34-3.28a3.48,3.48,0,0,0-.38-4.51l-3.53-3.53a3.48,3.48,0,0,0-4.5-.38l-3.29,2.35a22.46,22.46,0,0,0-4-1.65l-.67-3.93a3.5,3.5,0,0,0-3.45-2.93h-5a3.5,3.5,0,0,0-3.46,2.93l-.69,4a22.29,22.29,0,0,0-3.85,1.62l-3.25-2.35a3.53,3.53,0,0,0-2-.65,3.46,3.46,0,0,0-2.47,1l-3.55,3.53a3.51,3.51,0,0,0-.37,4.51l2.36,3.33a22,22,0,0,0-1.57,3.88l-3.93.66a3.49,3.49,0,0,0-2.93,3.46v5a3.49,3.49,0,0,0,2.93,3.46l4,.69a22,22,0,0,0,1.63,3.85L985,402.86a3.49,3.49,0,0,0,.38,4.51L989,410.9a3.45,3.45,0,0,0,2.48,1,3.4,3.4,0,0,0,2-.65l3.33-2.37a22.13,22.13,0,0,0,3.74,1.54l.67,4a3.49,3.49,0,0,0,3.45,2.93h5a3.49,3.49,0,0,0,3.46-2.93l.68-4a22.72,22.72,0,0,0,3.86-1.59l3.28,2.34a3.43,3.43,0,0,0,2,.65,3.49,3.49,0,0,0,2.48-1l3.53-3.53a3.51,3.51,0,0,0,.38-4.51l-2.35-3.29a22.63,22.63,0,0,0,1.6-3.86l4-.67a3.5,3.5,0,0,0,2.93-3.46v-5A3.46,3.46,0,0,0,1032.59,383.06Zm-25.44,17.57A11.63,11.63,0,1,1,1018.78,389,11.63,11.63,0,0,1,1007.15,400.63Z"/><path class="cls-11" d="M1054,337.82l-3-.51a17.54,17.54,0,0,0-1.19-2.87l1.74-2.44a2.61,2.61,0,0,0-.28-3.37l-2.63-2.63a2.58,2.58,0,0,0-1.84-.76,2.61,2.61,0,0,0-1.51.48l-2.45,1.75a17.16,17.16,0,0,0-3-1.23l-.5-2.93a2.6,2.6,0,0,0-2.57-2.17h-3.72a2.59,2.59,0,0,0-2.57,2.17l-.52,3a16.69,16.69,0,0,0-2.86,1.21l-2.43-1.74a2.58,2.58,0,0,0-1.52-.49,2.55,2.55,0,0,0-1.84.77l-2.64,2.63a2.61,2.61,0,0,0-.28,3.36l1.76,2.48a16.4,16.4,0,0,0-1.17,2.88l-2.93.5a2.6,2.6,0,0,0-2.18,2.57v3.72a2.6,2.6,0,0,0,2.18,2.57l3,.51a16.79,16.79,0,0,0,1.21,2.87l-1.74,2.42a2.61,2.61,0,0,0,.28,3.36l2.63,2.63a2.63,2.63,0,0,0,1.85.77,2.59,2.59,0,0,0,1.51-.49l2.47-1.76a17.76,17.76,0,0,0,2.79,1.14l.5,3a2.6,2.6,0,0,0,2.57,2.18h3.72a2.61,2.61,0,0,0,2.58-2.18l.5-3a16.48,16.48,0,0,0,2.88-1.19l2.44,1.75a2.62,2.62,0,0,0,3.36-.28l2.63-2.63a2.61,2.61,0,0,0,.29-3.36l-1.75-2.46a16.7,16.7,0,0,0,1.19-2.87l3-.5a2.59,2.59,0,0,0,2.18-2.57v-3.72A2.56,2.56,0,0,0,1054,337.82Zm-19,13.09a8.66,8.66,0,1,1,8.66-8.66A8.67,8.67,0,0,1,1035,350.91Z"/></g></svg>