<svg id="Capa_1" data-name="Capa 1" xmlns="http://www.w3.org/2000/svg" xmlns:xlink="http://www.w3.org/1999/xlink" viewBox="0 0 953.89 625.81"><defs><style>.cls-1{fill:none;}.cls-2{clip-path:url(#clip-path);}.cls-3{fill:#f2f8f9;}</style><clipPath id="clip-path"><rect class="cls-1" x="14.68" width="939.21" height="652.23"/></clipPath></defs><g class="cls-2"><path class="cls-3" d="M55,159.67c27.92,35.89,73.1,54.84,107.16,85.38,59.66,53.5,79.27,136.09,123.29,202.25,42.7,64.17,109.1,112.4,183.24,138.55S624.27,616.62,702,603.65c39-6.51,77.1-17.3,114.52-29.72,22.3-7.39,44.47-15.41,65.17-26.31a249.46,249.46,0,0,0,77.1-62.95c5.62-6.91,10.92-14.24,13.82-22.57,3.48-10,3.28-20.86,3-31.44C971.8,264.22,968.84,151.26,965-15.18Q528.68-21.42,92.4-10.45C35.66-9,31.65-22.83,26.54,23.62,21.38,70.36,24.75,120.78,55,159.67Z"/></g></svg>