<svg id="Capa_1" data-name="Capa 1" xmlns="http://www.w3.org/2000/svg" viewBox="0 0 611.77 315.23"><defs><style>.cls-1{fill:#f2f8f9;}.cls-2{fill:#e9f5f8;}.cls-3,.cls-6{opacity:0.63;}.cls-4,.cls-6{fill:#ceebf1;}.cls-5,.cls-7{fill:none;}.cls-7{stroke:#ceebf1;stroke-miterlimit:10;stroke-width:2px;opacity:0.7;}</style></defs><rect class="cls-1" x="187.2" y="60.11" width="232.18" height="34.74"/><polyline class="cls-1" points="133.97 111.15 0 111.15 0 317.25 133.97 317.25"/><polygon class="cls-1" points="449.38 62.57 157.89 62.57 304.37 0 449.38 62.57"/><rect class="cls-1" x="134.34" y="88.33" width="339.34" height="228.92" transform="translate(608.01 405.58) rotate(-180)"/><line class="cls-2" x1="419.94" y1="63.22" x2="419.94" y2="88.33"/><line class="cls-2" x1="187.34" y1="63.22" x2="187.33" y2="88.33"/><line class="cls-2" x1="474.41" y1="242.91" x2="133.6" y2="242.91"/><polyline class="cls-1" points="474.41 111.15 608.38 111.15 608.38 317.25 474.41 317.25"/><line class="cls-2" x1="420.67" y1="242.83" x2="420.67" y2="316.52"/><line class="cls-2" x1="187.7" y1="242.83" x2="187.7" y2="316.52"/><g class="cls-3"><rect class="cls-4" x="433.19" y="110.41" width="13.25" height="27.97" transform="translate(879.62 248.8) rotate(-180)"/><rect class="cls-4" x="433.19" y="162.42" width="13.25" height="27.97" transform="translate(879.62 352.81) rotate(-180)"/><rect class="cls-4" x="360.31" y="88.65" width="24.29" height="153.52" transform="translate(744.92 330.83) rotate(-180)"/><rect class="cls-4" x="314.68" y="88.65" width="24.29" height="153.52" transform="translate(653.65 330.83) rotate(-180)"/><rect class="cls-4" x="558.32" y="140.59" width="16.19" height="16.19" transform="translate(1132.84 297.38) rotate(-180)"/><rect class="cls-4" x="508.56" y="140.59" width="16.19" height="16.19" transform="translate(1033.31 297.38) rotate(-180)"/><rect class="cls-4" x="558.32" y="183.29" width="16.19" height="16.19" transform="translate(1132.84 382.77) rotate(-180)"/><rect class="cls-4" x="508.56" y="183.29" width="16.19" height="16.19" transform="translate(1033.31 382.77) rotate(-180)"/><rect class="cls-4" x="161.94" y="110.41" width="13.25" height="27.97"/><rect class="cls-4" x="161.94" y="162.42" width="13.25" height="27.97"/><rect class="cls-4" x="223.77" y="88.65" width="24.29" height="153.52"/><rect class="cls-4" x="269.41" y="88.65" width="24.29" height="153.52"/><rect class="cls-4" x="33.86" y="140.59" width="16.19" height="16.19"/><rect class="cls-4" x="83.62" y="140.59" width="16.19" height="16.19"/><rect class="cls-4" x="33.86" y="183.29" width="16.19" height="16.19"/><rect class="cls-4" x="83.62" y="183.29" width="16.19" height="16.19"/></g><line class="cls-5" x1="407.42" y1="88.33" x2="407.42" y2="242.91"/><line class="cls-5" x1="200.58" y1="88.33" x2="200.58" y2="242.91"/><rect class="cls-6" x="131.58" y="247.9" width="55.62" height="69.36"/><rect class="cls-6" x="421.57" y="247.9" width="55.62" height="69.36"/><circle class="cls-6" cx="552.73" cy="260.78" r="22.72"/><line class="cls-7" x1="552.42" y1="283.93" x2="552.42" y2="314.86"/><circle class="cls-6" cx="56.58" cy="260.78" r="22.72"/><line class="cls-7" x1="56.27" y1="283.93" x2="56.27" y2="314.86"/></svg>