<?xml version="1.0" encoding="utf-8"?>
<!-- Generator: Adobe Illustrator 26.1.0, SVG Export Plug-In . SVG Version: 6.00 Build 0)  -->
<svg version="1.1" id="Capa_1" xmlns="http://www.w3.org/2000/svg" xmlns:xlink="http://www.w3.org/1999/xlink" x="0px" y="0px"
	 viewBox="0 0 150 162.5" style="enable-background:new 0 0 150 162.5;" xml:space="preserve">
<style type="text/css">
	.st0{fill:#966442;}
	.st1{fill:#EAC4B0;}
	.st2{fill:#FFFFFF;}
	.st3{fill:#1A3744;}
	.st4{fill:#D68A79;}
	.st5{fill:#CC9E96;}
	.st6{fill:#375971;}
</style>
<path class="st0" d="M87.7,139c1.8,0.1,3.7,0,5.5-0.4c4.4-1.2,7.3-5.4,9.5-9.4c6.6-12.2,10.8-25.6,14.7-38.9c1-3.2,1.8-6.5,2.3-9.8
	c0.4-3.5,0.3-7.1-0.5-10.5c-0.2-0.9-0.5-1.7-1-2.4c-1-1-2.3-1.5-3.7-1.6c-17.6-3.4-35.7-3-53.6-2.7c-3.1-0.1-6.1,0.3-9.1,1
	c-5.4,1.7-9.6,6-11.2,11.4c-0.8,3.3-1,6.8-0.7,10.2c0.8,9,2,18,3.8,26.8c0.9,5.2,1.9,10.5,4.4,15c1.5,2.8,3.7,7.2,6.3,9.2
	c2,1.5,4.5,1.2,6.9,1.2C70.1,138.3,78.9,138.7,87.7,139z"/>
<path class="st1" d="M64,106.9c0-2.1,0-4.3,1.1-6.2c0.8-1.2,1.7-2.2,2.9-3c3.2-2.4,7.2-4.4,11.2-3.8c2.9,0.4,5.5,2,8,3.6
	c1.2,0.7,2.3,1.5,3.2,2.6c1.6,1.9,1.9,4.5,2.3,6.9l1.2,8.5c0.3,1.1,0.2,2.3-0.2,3.4c-0.6,1.1-1.5,2-2.7,2.5
	c-5.5,2.8-12.1,2-18.2,1.2c-3.3-0.4-7.2,0.1-8.6-3.2C62.8,116.2,64,110.1,64,106.9z"/>
<path class="st1" d="M57.3,29.2c-4.6,5.4-6.7,12.2-8.1,20.4c-1.7,9.5-2.8,19.5-0.7,29.1c2.5,11.4,7.1,17.3,16.3,23.9
	c7.4,5.3,17.8,7.7,25.9,4c16.5-7.6,24.1-26,24.8-42.7c0.7-18.6-9.7-38.7-26.3-43.5c-8-2.4-16.7-1.5-24,2.5
	C62.2,24.6,59.5,26.7,57.3,29.2z"/>
<path class="st2" d="M69.2,87.6l22.2,2.7c-2.6,3.5-6.7,5.4-11,5.4C73.1,95.4,69.2,87.6,69.2,87.6z"/>
<path class="st3" d="M72.1,63.5c-0.6-1-2-1.3-3-0.7c0,0,0,0,0,0c-0.7,0.8-1,1.9-0.9,2.9c-0.1,0.7,0.1,1.4,0.5,2c0.8,1,2.4,0.6,3-0.5
	C72.3,66.1,72.5,64.8,72.1,63.5"/>
<path class="st3" d="M92.4,65.2c-1.4,0.1-2.2,2.6-1.7,4.1c0.5,1.3,1.9,2,3.2,1.5c0.1,0,0.3-0.1,0.4-0.2c1.1-0.8,1.6-2.3,1.2-3.6
	C95,65.7,93.7,64.9,92.4,65.2"/>
<path class="st4" d="M52.4,66.8c-1.5,1.9-1.8,4.7-1.5,7.2c0.1,1.2,0.4,2.4,1,3.5c1.2,1.8,3.2,2.8,5.4,2.7c2.5,0.1,4.8-1.3,5.9-3.6
	c0.3-0.9,0.5-1.8,0.6-2.8c0.2-1.8,0-3.6-0.7-5.3C61.3,65.2,54.8,63.8,52.4,66.8z"/>
<path class="st4" d="M101.2,72.7c-1.4,1.6-2.1,3.6-2.2,5.8c-0.2,1.9,0.3,3.7,1.4,5.2c1.6,1.9,4.4,2.5,6.6,1.2
	c2.2-1.3,3.7-3.6,4.2-6.1c0.4-1.7,0.3-3.6-0.4-5.2C109,70,103.6,70.1,101.2,72.7z"/>
<path class="st3" d="M77.1,59.3c-2.6-1.8-5.6-2.8-8.7-3c-3-0.2-6.2,0.2-8.6,2.1c-0.6,0.5,0.3,1.4,0.9,0.9c2.2-1.8,5.2-2,7.9-1.7
	c2.8,0.2,5.5,1.2,7.9,2.8C77.1,60.9,77.8,59.8,77.1,59.3L77.1,59.3z"/>
<path class="st3" d="M90.3,62.2c4.5-1.7,10.7-1,13.6,3.2c0.5,0.7,1.5,0,1.1-0.6c-3.2-4.6-10-5.7-15-3.8
	C89.3,61.3,89.6,62.5,90.3,62.2L90.3,62.2z"/>
<path class="st5" d="M80.2,66.4c-0.3,1.3-0.8,2.5-1.4,3.6c-0.8,1-1.7,2-2.6,2.9c-1,1.1-1.4,2.6-1.1,4c0.2,0.6,0.6,1.2,1.2,1.6
	c1.7,1.5,3.8,2.4,6,2.6c1.3,0.1,3.7-0.4,4.8-1.8c1.8-2.3-1-4.5-1.6-6.7c-0.6-2-0.3-4.1-0.8-6.1C83.9,62.9,81.8,61.9,80.2,66.4z"/>
<path class="st0" d="M85.3,50.5c-1.8,3.6-1.5,2-3.3,5.6c-2.7-6.5-9.4-9.1-14.9-5.9c-1.2,0.7-2.2,1.6-3.1,2.7c0,0-1.8-2.7-2.2-4.3
	c-5.2,2.6-9,8.3-11.2,14.4s-3.1,12.8-3.9,19.4c0.3-2.6-2.6-8.5-3.1-11.4c-0.8-4.2-1.1-8.5-1.1-12.8c0.1-8.9,2.8-14,5.7-21.8
	c2.4-6.5,5.1-13.1,9.6-17.3c6.2-6,14.5-6.1,22.1-5.6c8.4,0.6,17.2,2,24,8.4s10.1,16.4,12,26.1c2,10.1,4.4,21.8-2.4,30.1
	c-0.4-9.7-3.4-18.9-8.5-26.6c-0.2-0.3-0.4-0.5-0.7-0.6c-0.3,0-0.6,0.2-0.8,0.4l-4.1,4C99,49.5,95.9,48,94,42.5
	c-1.9-5.3-3.2-2.6-5.3,1.5C87.5,46.2,86.4,48.3,85.3,50.5z"/>
<path class="st5" d="M63.6,102.7c5.9,3.8,12.5,7.7,19.8,6.4c0.9-0.2,0.5-1.5-0.4-1.3c-6.9,1.3-13.2-2.7-18.7-6.2
	C63.5,101,62.8,102.2,63.6,102.7z"/>
<path class="st6" d="M84.1,116.3l9.8-5c1.3,3,1.8,6.2,1.6,9.5c0,0.9-0.3,1.9-0.9,2.6c-0.7,0.6-1.5,0.9-2.3,1c-9.5,2-19.9,2-28.6-2.2
	c-1-0.4-1.9-1.1-2.5-2c-0.3-0.7-0.4-1.5-0.3-2.3V114c0-0.3,0-0.7,0.2-1c0.4-0.6,1.3-0.6,2-0.4c6.2,1.5,10.3,5.2,14.9,9.2
	C79.3,119.4,81.5,117.4,84.1,116.3z"/>
<path class="st6" d="M48.5,120.4c3.8-0.3,7.7-0.3,11.5-0.3c15.9,0,31.9-0.1,47.2,3.4c16,3.6,23,10.4,37.2,17.9
	c-11.5,4.2-16.1,7.6-28.4,9.2c-14,1.7-28.3,1.7-42.4,1.3c-15.3-0.4-30.8-1.2-45.5-5.1c-6.4-1.7-15.8-4.1-20.7-8.3
	c-3.6-3.1-0.9-3.9,3.1-5.8c3.6-1.8,7.3-3.5,11.1-5.1C30,124,39,121.2,48.5,120.4z"/>
<path class="st0" d="M58,32.6c-7,12.2-9,27.7-10.8,42.5C46.3,80.8,46,86.7,46,92.5c0.6,18.9,10,35.5,12.8,54
	c-7.9,3.1-16.4-4.1-20-13.2c-3.8-9.1-6.9-19-7.2-29.1c-0.3-14.9,1.2-30.8,2.9-45.6C36.2,43.8,42,32.5,51,22.5
	c3.9-4.4,8.7-7.6,14-9.3c3.6-1.2,21.5-2.5,24.6,1.3c3.3,3.9-15.7,2-18.7,4C65.8,21.9,61.3,26.8,58,32.6z"/>
<path class="st0" d="M119.6,49c4.2,16.3,6.9,38.2,4.6,55.2c-1.4,10.8-4.9,20.9-9.5,30.3c-4.6,9.4-15.4,13.4-24.2,14.1
	c2-8.5,6.7-15.5,10.4-23c5.9-11.9,9.2-25.5,11.4-39.2c1.5-9.3,2.5-18.9,1.1-28.2c-1.3-8.6-4.7-16.4-8.8-23.4
	c-3.9-6.6-10.2-12.3-13.4-19.2C104.4,16.7,116,34.6,119.6,49z"/>
</svg>
