<svg id="Capa_1" data-name="Capa 1" xmlns="http://www.w3.org/2000/svg" xmlns:xlink="http://www.w3.org/1999/xlink" viewBox="0 0 1200 622.87"><defs><style>.cls-1,.cls-13,.cls-14,.cls-6{fill:none;}.cls-2{clip-path:url(#clip-path);}.cls-3{clip-path:url(#clip-path-2);}.cls-4{fill:#365870;}.cls-5{fill:#2f495f;}.cls-13,.cls-14,.cls-6{stroke:#009cca;}.cls-12,.cls-13,.cls-6{stroke-miterlimit:10;}.cls-7{fill:#9cd5ea;}.cls-8{fill:#f6c74f;}.cls-10,.cls-11,.cls-8,.cls-9{fill-rule:evenodd;}.cls-9{fill:#ef9c00;}.cls-10,.cls-12{fill:#1f344b;}.cls-11{fill:#9ea9a7;}.cls-12{stroke:#1f344b;stroke-width:2.19px;}.cls-13,.cls-14{stroke-linecap:round;}.cls-13{stroke-width:1.74px;stroke-dasharray:1.53 3.83;}.cls-14{stroke-linejoin:round;stroke-width:1.53px;}</style><clipPath id="clip-path"><rect class="cls-1" width="1200" height="622.87"/></clipPath><clipPath id="clip-path-2"><path class="cls-1" d="M1221.71,561.65c-86.14,39.85-184,45.34-278.89,43.25C674.77,599,408.13,538.08,140.73,557.73c-53.79,3.95-109.15,11.78-155.18,39.88V-13.95H1221.71Z"/></clipPath></defs><g class="cls-2"><g class="cls-3"><path class="cls-4" d="M1221.71,561.65c-86.14,39.85-184,45.34-278.89,43.25C674.77,599,408.13,538.08,140.73,557.73c-53.79,3.95-109.15,11.78-155.18,39.88V-13.95H1221.71Z"/><path class="cls-5" d="M125.69,426c-36.4.18-73.27,3.52-107.46,16a210,210,0,0,0-58.86,33C-55,486.47-68.08,500.13-76.2,516.66-84.1,532.77-87,551-86.79,568.93-86,644-29.31,712.49,41.86,736.45c30.81,10.36,63.55,13.38,96,15.54,86.5,5.74,173.83,5.8,259.37-8.34,20.5-3.38,41.23-7.71,59.43-17.74s33.77-26.61,38-46.95C508.13,614.47,431,533.59,381.89,499.38,306.43,446.83,217,425.49,125.69,426Z"/><path class="cls-5" d="M951.87,82.06c3.54,41.53,29.64,79.25,64.4,102.24s77.3,32.3,119,32.1c31.46-.16,64.61-6.28,88.36-26.91C1238,177,1247.81,160.18,1256,143c10.5-22,18.83-45.54,19.92-69.91s-5.75-49.8-22.33-67.69c-21.84-23.55-56-30.38-88-33.42a616.44,616.44,0,0,0-82.32-2.32c-23.17.89-53-.36-74.78,8.27C969.47-6.64,948.51,42.69,951.87,82.06Z"/></g></g><path class="cls-6" d="M-12.06,559.65a1210.9,1210.9,0,0,1,331.69-8.87c111.26,12.36,220.93,35.52,332,47.81,101.05,11.17,203.43,13.57,304.71,3.89,95.46-9.12,187.92-29.14,274.59-71.38"/><path class="cls-7" d="M215,221.81l.28,1.92a1.35,1.35,0,0,0,1.32,1.17l1.57,0a9,9,0,0,0,.83,1.4l-.72,1.4a1.37,1.37,0,0,0,.4,1.71l1.56,1.16a1.35,1.35,0,0,0,1,.26,1.37,1.37,0,0,0,.75-.37l1.13-1.09a7.87,7.87,0,0,0,1.57.4l.49,1.5a1.36,1.36,0,0,0,1.49.93l1.93-.29a1.34,1.34,0,0,0,1.16-1.32l0-1.56a8.87,8.87,0,0,0,1.36-.81l1.41.73a1.36,1.36,0,0,0,.82.13,1.32,1.32,0,0,0,.89-.53l1.16-1.56a1.35,1.35,0,0,0-.11-1.76l-1.08-1.12a7.89,7.89,0,0,0,.41-1.57l1.51-.49a1.36,1.36,0,0,0,.93-1.5l-.28-1.92a1.34,1.34,0,0,0-1.32-1.16l-1.55,0a8.54,8.54,0,0,0-.82-1.4l.72-1.41a1.38,1.38,0,0,0-.4-1.72l-1.56-1.16a1.35,1.35,0,0,0-1-.25,1.39,1.39,0,0,0-.75.36L229,213a8.64,8.64,0,0,0-1.57-.41l-.5-1.51a1.34,1.34,0,0,0-1.49-.93l-1.92.28a1.37,1.37,0,0,0-1.17,1.32l0,1.55a9.22,9.22,0,0,0-1.45.86l-1.4-.72a1.33,1.33,0,0,0-.81-.13,1.36,1.36,0,0,0-.9.53l-1.16,1.56a1.36,1.36,0,0,0,.11,1.76l1.09,1.13a8.51,8.51,0,0,0-.4,1.58l-1.49.48A1.33,1.33,0,0,0,215,221.81Zm6.57,0a4.52,4.52,0,1,1,5.13,3.82A4.52,4.52,0,0,1,221.54,221.83Z"/><path class="cls-8" d="M142.23,205.82a2.28,2.28,0,0,0-.41-1Z"/><path class="cls-9" d="M164.49,195.57a.4.4,0,0,0-.28-.39q-1.22-.47-2.4-1c-.21-.09-.3-.07-.38.15-.32.83-.66,1.64-1,2.46-.06.17-.13.2-.29.13l-2.48-1c-.2-.09-.27,0-.34.15-.27.69-.55,1.38-.83,2.08l-.12.3a.58.58,0,0,1-.43.18c-.79-.32-1.57-.62-2.35-.95-.22-.09-.32-.07-.41.16-.31.82-.65,1.62-1,2.44-.08.19-.16.22-.35.14-.81-.33-1.64-.65-2.45-1"/><path class="cls-9" d="M169.43,212.58a53.19,53.19,0,0,1,1.43-7.49,34,34,0,0,0,.89-6.74,13.43,13.43,0,0,0-.68-4.58l-.66-1.55c-3-5.67-7.68-8.77-14.15-9a13.91,13.91,0,0,0-5.33.9.08.08,0,0,1,0,0l-.82.35-.77.33c0,.07-.08.08-.13.11a12.45,12.45,0,0,0-2.42,1.52,15.46,15.46,0,0,0-6,10.57,15.86,15.86,0,0,0,.65,6.87,2.47,2.47,0,0,1,.22.76l.13.29a2.28,2.28,0,0,1,.41,1l.1.24a4.25,4.25,0,0,1,.49.78,14.69,14.69,0,0,0,2.61,3.06,36.12,36.12,0,0,0,5.82,4.14c1.39.84,2.81,1.65,4.16,2.54.6.4,1.15.85,1.72,1.28a0,0,0,0,1,0,0Z"/><path class="cls-10" d="M159.76,224l6.15-2.64h0c.3.68.59,1.37.88,2.06h0l-.36.15-5.79,2.47C160.34,225.38,160.05,224.7,159.76,224Z"/><path class="cls-10" d="M172.06,218.74c.3.69.59,1.38.88,2.07l-6.15,2.63c-.29-.69-.58-1.38-.88-2.06Z"/><path class="cls-10" d="M163.72,217.47l.43-.19h0l6.15-2.63.88,2.07L165,219.34h0L158.89,222l-.89-2.06Z"/><path class="cls-10" d="M171,221.46l-4.26,1.81-4.25,1.82a5.86,5.86,0,0,0,4.84,1.1,4,4,0,0,0,2.09-1.27A6.34,6.34,0,0,0,171,221.46Z"/><path class="cls-11" d="M157.14,217.89l0,0a0,0,0,0,0,0,0A0,0,0,0,0,157.14,217.89Z"/><line class="cls-12" x1="155.47" y1="176.81" x2="154.4" y2="170.85"/><line class="cls-12" x1="165.73" y1="177.98" x2="168.38" y2="172.67"/><line class="cls-12" x1="173.67" y1="184.81" x2="179.4" y2="182.01"/><path class="cls-13" d="M1049.53,257.21a64,64,0,0,0-6.76-37.63c-6.2-11.57-24.52-20.86-41.54-15.28-3.07,1-6.35,1.89-8.44,4.36s-2.8,6.25-1.08,9c2.79,4.41,10.16,3.32,13.29-.86s3.08-9.88,2.43-15.06c-.71-5.57-2.15-11.38-6.12-15.35-5.39-5.39-13.94-5.92-21.5-5-15.12,1.94-31.43,8.47-41.24,20.51"/><polyline class="cls-14" points="947.88 202.31 937.78 202.94 936.09 193.44"/><polygon class="cls-7" points="223.18 381.18 211.85 395.16 206.21 389.96 204.7 392 212.14 399.4 225.22 383.01 223.18 381.18"/></svg>