<svg id="Capa_1" data-name="Capa 1" xmlns="http://www.w3.org/2000/svg" viewBox="0 0 150 162.52"><defs><style>.cls-1{fill:#234559;}.cls-2{fill:#9b7d5a;}.cls-3{fill:#f9d5bf;}.cls-4{fill:#1a3744;}.cls-5{fill:#edad8c;}.cls-6{fill:#f5b38f;}.cls-7{fill:#375971;}</style></defs><path class="cls-1" d="M122.46,110.51c9.93,5.95,17.19,15.4,19.88,25.86.45,1.74.76,3.66-.14,5.26s-3,2.6-4.92,3.34c-38.6,15-82.92,7.95-123.95-.29-1.68-.34-3.47-.74-4.63-1.87a5.82,5.82,0,0,1-1.47-4.22c-.16-8.62,7-15.81,14-21.72q11.16-9.47,23.28-17.94"/><path class="cls-2" d="M58.93,86.66c2.74,1.92,5.72,4.18,6.3,7.49.68,3.85-2.55,7.66-6.38,8.48S51,101.76,48.1,99.14a12.31,12.31,0,0,1-3.4-4.77A16.31,16.31,0,0,1,44,89c0-2.48-.93-10.75,3.29-10.3,1.8.19,4.41,2.89,5.88,3.92Z"/><path class="cls-3" d="M96.89,100.29a7.29,7.29,0,0,1,.08,2.23,7.13,7.13,0,0,1-1.07,2.37,75,75,0,0,0-10.74,39.59,32.9,32.9,0,0,0-4.88-12.79c-3-4.52-7.36-8-10.82-12.18a78.07,78.07,0,0,1-7.55-11.75A15,15,0,0,1,60,103.22a14.78,14.78,0,0,1-.06-3.76l1.7-25.3A33.11,33.11,0,0,0,96.67,82C98,87.81,96.08,94.31,96.89,100.29Z"/><path class="cls-3" d="M61.93,94.86c7.23,5.75,17.24,8.34,26,5.5,10.07-3.26,17-13,19.67-23.24s1.83-21.05.8-31.59c-.83-8.46-2.39-18-9.44-22.75-3.7-2.48-8.3-3.15-12.74-3.58s-9.24-.7-13.69.38c-9.64,2.36-16.87,10.78-20.45,20C44.85,58.42,45,81.38,61.93,94.86Z"/><path class="cls-4" d="M70.3,54.39a3.56,3.56,0,0,0-2.85,1.82,3.66,3.66,0,0,0,.08,3.64,2.17,2.17,0,0,0,3,.68,3.91,3.91,0,0,0,1.26-2.25A4.69,4.69,0,0,0,71.92,56a1.89,1.89,0,0,0-1.41-1.5"/><path class="cls-4" d="M93,54.39A3.13,3.13,0,0,1,95.51,56a3.26,3.26,0,0,1-.07,3.23,1.88,1.88,0,0,1-2.65.61,3.58,3.58,0,0,1-1.1-2,4.28,4.28,0,0,1-.09-2,1.67,1.67,0,0,1,1.23-1.33"/><path class="cls-4" d="M75.23,47.41a23.45,23.45,0,0,0-15.49,3.05.63.63,0,0,0,.63,1.08,22.11,22.11,0,0,1,14.52-2.93c.79.12,1.13-1.08.34-1.2Z"/><path class="cls-4" d="M89.71,50.28a16.58,16.58,0,0,1,13.14,2.09c.68.44,1.31-.64.63-1.08a17.82,17.82,0,0,0-14.1-2.22.63.63,0,0,0,.33,1.21Z"/><path class="cls-4" d="M85.61,83.05a25.68,25.68,0,0,1-14.9-2.63c-.72-.37-1.35.71-.63,1.08a26.78,26.78,0,0,0,15.53,2.8c.79-.1.8-1.35,0-1.25Z"/><path class="cls-5" d="M85.15,66.16a21.8,21.8,0,0,1,1.2,3.4,5,5,0,0,1-.41,3.51c-1.1,1.85-3.62,2.3-5.74,2a5.29,5.29,0,0,1-3.86-2.19c-.81-1.38-.55-3.12-.22-4.69.5-2.4,1.42-8.61,4.3-9.36C84,57.86,84.36,64.12,85.15,66.16Z"/><path class="cls-6" d="M60.87,94.14A30.2,30.2,0,0,0,90.2,98.69c.74-.29.42-1.5-.34-1.21a28.91,28.91,0,0,1-28.11-4.23c-.62-.49-1.51.39-.88.89Z"/><path class="cls-2" d="M100.74,24.8c2.31,1.89,3,3.11,4.08,5.88a55.14,55.14,0,0,1,3.89,17.76c.09,2.33.7,4.13.65,6.45-.13,6.69-.08,13.66-1.26,20.24a35.6,35.6,0,0,1-9.32,18c-1.26,1.25-2,.77-2.4,2.51-1.21,5.21,7,6.46,10.39,8.07,5.09,2.42,10.5,6.53,15.17,10,2.33,1.76,7.08,1,8.6,2.89.58-4.31-5.16-6.19-6-10.32-.89-4.41-.16-9,.36-13.41a140.14,140.14,0,0,0-5.66-58.36,49.39,49.39,0,0,0-3.55-8.8c-4.84-8.86-14.88-15.07-24.92-14A8.27,8.27,0,0,0,86.93,13a3.79,3.79,0,0,0-1.8,3.41,5.91,5.91,0,0,0,1,2.24c1.62,2.72,2.52,5.77,5.69,5C94.65,22.88,98.09,22.65,100.74,24.8Z"/><path class="cls-7" d="M118.47,111.1c-2.51-.29-4.68,1.63-6.46,3.42q-10.92,11-21.6,22.16a44.42,44.42,0,0,0-5.94,7.2,68.87,68.87,0,0,1,7.12-31.36,77.65,77.65,0,0,0,4.67-10.26c1-3.16-1-5.53,2.6-4.09,3.22,1.29,9,4,11.74,6,1.47,1.09,2.9,2.24,4.27,3.45C115.57,108.28,117.64,111,118.47,111.1Z"/><path class="cls-7" d="M34.86,111.43c19.7,5.42,35.52,19.76,50.45,33.71-.66-6.88-3.78-13.32-7.67-19S69,115.3,64.73,109.89a27,27,0,0,1-4.53-7.28c-.78-2.11,1.59-7.69.06-8.21-2.16-.73-8.62,2.61-10.39,3.67C44.1,101.54,39.39,106.52,34.86,111.43Z"/><path class="cls-2" d="M69.92,23.48C64.61,26,60.37,30.41,57,35.25s-5.89,10.33-5.18,16c.29,2.31,1.12,4.65.59,6.93-.38,1.65-1.44,3.06-1.93,4.69-1.76,5.91,4.49,12.17,2.4,18-.58,1.61-1.79,3.06-1.79,4.78,0,2.24,2.07,4,2.39,6.23.27,1.92-.8,3.78-.85,5.71-.1,3.26,2.58,5.83,4.09,8.71A13.08,13.08,0,0,1,58,115.05c-.4,1.84-1.19,3.67-.89,5.52.57,3.5,4.79,5.67,5,9.21a10.51,10.51,0,0,1-.82,3.67,24.88,24.88,0,0,0,0,15.15c-4.77,1.51-9.81-.88-14.23-3.21-4.88-2.57-9.81-5.18-13.82-8.95s-7-8.93-7.07-14.43c0-4.16,1.64-8.12,2.24-12.23a24.26,24.26,0,0,0-1-11.34c-1-2.85-2.48-5.51-3.37-8.4-1.83-6-.84-12.54,1.41-18.38,1.33-3.48,3.1-6.79,4.06-10.39a57.79,57.79,0,0,0,1.35-10.68,151.15,151.15,0,0,1,2.75-19.51,23.4,23.4,0,0,1,6.7-12.26c3-3.11,6.56-6.05,10.78-7.13a70.33,70.33,0,0,1,23.3-1.95,13.59,13.59,0,0,1,5.17,1.2,14.73,14.73,0,0,1,3.16,2.47l6.78,6.36c1.13,1.06,2.33,2.27,2.42,3.82,0,.7-9.55-2-10.21-2.09A20.89,20.89,0,0,0,69.92,23.48Z"/></svg>