<svg id="Capa_1" data-name="Capa 1" xmlns="http://www.w3.org/2000/svg" xmlns:xlink="http://www.w3.org/1999/xlink" viewBox="0 0 223.99 222.22"><defs><style>.cls-1{fill:none;}.cls-2{clip-path:url(#clip-path);}.cls-3{fill:#1d828d;}.cls-4{fill:#348f99;}.cls-5{fill:#fff;}.cls-6{fill:#206b8f;}.cls-7{fill:#ecf7f8;}.cls-8{fill:#c6e4e8;}.cls-9{fill:#f3c461;}.cls-10,.cls-11,.cls-12,.cls-13,.cls-14,.cls-9{fill-rule:evenodd;}.cls-10,.cls-15{fill:#ef9c34;}.cls-11{fill:#2e3f4f;}.cls-12{fill:#17354b;}.cls-13{fill:#96a5a4;}.cls-14{fill:#eb7732;}.cls-16{fill:#266d8e;}.cls-17{fill:#153f62;}</style><clipPath id="clip-path"><rect class="cls-1" width="223.99" height="222.3" rx="25.94"/></clipPath></defs><g class="cls-2"><rect class="cls-3" width="223.99" height="222.22"/><path class="cls-4" d="M64.9,87.58a5,5,0,0,0,9.83-2l0-.19a7.79,7.79,0,0,0,7.12-3.25,7.31,7.31,0,0,0,.72-1.31,6.3,6.3,0,0,0,.53-2.11A6.94,6.94,0,0,0,83,76.92,10.19,10.19,0,0,0,86.12,74a9.66,9.66,0,0,0-1-12.33A9.59,9.59,0,0,0,85.89,60a6.07,6.07,0,0,0,.54-2.5,9.55,9.55,0,0,0-.16-2.66,9.74,9.74,0,0,0-4.5-6.39A6.14,6.14,0,0,0,82,45.8a8.84,8.84,0,0,0-.18-1.45,9.89,9.89,0,0,0-8.29-7.79A7.4,7.4,0,0,0,65.24,31a.66.66,0,0,0-.14,0,4.8,4.8,0,0,0-.75.09l-.53.14-.15-.73a5,5,0,0,0-9.82,2l3.36,16.76Z"/><path class="cls-4" d="M60.87,88.39a5,5,0,0,1-9.82,2l0-.2a7.78,7.78,0,0,1-7.83-.25A7.51,7.51,0,0,1,42,89a6.32,6.32,0,0,1-1.31-1.74,6.72,6.72,0,0,1-.65-1.7,10.44,10.44,0,0,1-4-1.51,9.68,9.68,0,0,1-3.83-11.76A9.45,9.45,0,0,1,30.86,71a6.06,6.06,0,0,1-1.46-2.09,10,10,0,0,1-.88-2.51,9.75,9.75,0,0,1,1.69-7.64A6.15,6.15,0,0,1,29,56.44a9.76,9.76,0,0,1,4.24-11.79,7.41,7.41,0,0,1,5.52-8.3l.13-.06a6.44,6.44,0,0,1,.72-.2l.55-.08L40,35.29a5,5,0,0,1,9.82-2l3.36,16.76Z"/><path class="cls-5" d="M99.67,106.46v4.15h-.83v-10h3a2.59,2.59,0,0,1,2,.81,3.53,3.53,0,0,1,0,4.27,2.61,2.61,0,0,1-2,.8Zm0-.72h2.14a1.73,1.73,0,0,0,1.45-.63,2.86,2.86,0,0,0,0-3.17,1.73,1.73,0,0,0-1.45-.63H99.67Z"/><path class="cls-5" d="M111.05,105.76h-3.94v4.15h4.52v.7h-5.35v-10h5.31v.73h-4.48v3.75h3.94Z"/><path class="cls-5" d="M114,106.07v4.54h-.83v-10H116a2.84,2.84,0,0,1,2.07.71,2.76,2.76,0,0,1,.71,2.06,2.66,2.66,0,0,1-.37,1.42,2.26,2.26,0,0,1-1.08.92,1.81,1.81,0,0,1,1.1.84,3.15,3.15,0,0,1,.33,1.51v1a3.61,3.61,0,0,0,.09.84,1.31,1.31,0,0,0,.31.61v.16h-.85a1.37,1.37,0,0,1-.29-.69A4.64,4.64,0,0,1,118,109v-.92a2.21,2.21,0,0,0-.46-1.45,1.58,1.58,0,0,0-1.27-.54Zm0-.7h2a2,2,0,0,0,1.56-.54,2.09,2.09,0,0,0,.49-1.47,2.2,2.2,0,0,0-.48-1.52,1.9,1.9,0,0,0-1.47-.53H114Z"/><path class="cls-5" d="M125.8,105.94h-4v4.67H121v-10h5.37v.73h-4.55v3.9h4Z"/><path class="cls-5" d="M128.85,110.61H128v-10h.84Z"/><path class="cls-5" d="M132.06,109.91h4.06v.7h-4.89v-10h.83Z"/><path class="cls-5" d="M140.56,110.61v-10H143a3.13,3.13,0,0,1,2.55,1.23,4.87,4.87,0,0,1,1,3.15v1.29a4.83,4.83,0,0,1-1,3.15,3.14,3.14,0,0,1-2.55,1.21Zm.82-9.3v8.6H143a2.31,2.31,0,0,0,2-1,4.26,4.26,0,0,0,.76-2.62v-1.32a4.22,4.22,0,0,0-.76-2.6,2.33,2.33,0,0,0-2-1Z"/><path class="cls-5" d="M153.14,105.76H149.2v4.15h4.52v.7h-5.35v-10h5.31v.73H149.2v3.75h3.94Z"/><path class="cls-5" d="M103.32,127.23H99.66L98.81,130H98l3.18-10h.75L105,130h-.86Zm-3.43-.76h3.2l-1.57-5.16h0Z"/><path class="cls-5" d="M107.22,125.86V130h-.83V120h3a2.59,2.59,0,0,1,2,.81,3.51,3.51,0,0,1,0,4.26,2.59,2.59,0,0,1-2,.81Zm0-.73h2.14a1.73,1.73,0,0,0,1.45-.63,2.51,2.51,0,0,0,.48-1.57,2.55,2.55,0,0,0-.48-1.59,1.73,1.73,0,0,0-1.45-.63h-2.14Z"/><path class="cls-5" d="M114.64,125.47V130h-.82V120h2.88a2.5,2.5,0,0,1,2.78,2.77,2.72,2.72,0,0,1-.38,1.42,2.24,2.24,0,0,1-1.07.92,1.78,1.78,0,0,1,1.09.84,3,3,0,0,1,.34,1.51v1a3.61,3.61,0,0,0,.09.84,1.31,1.31,0,0,0,.3.6V130H119a1.46,1.46,0,0,1-.29-.69,5.67,5.67,0,0,1-.08-.94v-.92a2.14,2.14,0,0,0-.46-1.45,1.58,1.58,0,0,0-1.27-.54Zm0-.7h2a2,2,0,0,0,1.55-.54,2.09,2.09,0,0,0,.5-1.47,2.19,2.19,0,0,0-.49-1.52,1.89,1.89,0,0,0-1.46-.53h-2.06Z"/><path class="cls-5" d="M126.43,125.16h-3.94v4.15H127v.7h-5.35V120H127v.73h-4.48v3.75h3.94Z"/><path class="cls-5" d="M134.74,130h-.83l-4.48-8.4h0V130h-.83V120h.83l4.48,8.4h0V120h.83Z"/><path class="cls-5" d="M137,130V120h2.46a3.13,3.13,0,0,1,2.55,1.23,4.82,4.82,0,0,1,1,3.14v1.3a4.82,4.82,0,0,1-1,3.14,3.14,3.14,0,0,1-2.55,1.22Zm.82-9.3v8.6h1.64a2.34,2.34,0,0,0,2-1,4.28,4.28,0,0,0,.76-2.62v-1.32a4.27,4.27,0,0,0-.76-2.61,2.33,2.33,0,0,0-2-1Z"/><path class="cls-5" d="M145.76,130h-.83V120h.83Z"/><path class="cls-5" d="M148.48,129.31h4.82v.7h-5.69v-.65l4.62-8.66h-4.51V120h5.4v.62Z"/><path class="cls-5" d="M159.56,127.23h-3.65l-.86,2.78h-.85l3.17-10h.75l3.15,10h-.86Zm-3.42-.76h3.2l-1.57-5.16h0Z"/><path class="cls-5" d="M166.16,120H167v7.19a3.27,3.27,0,0,1-.68,2.18,2.22,2.22,0,0,1-1.78.8,2.45,2.45,0,0,1-1.87-.73,2.91,2.91,0,0,1-.66-2.14l0,0h.78a2.56,2.56,0,0,0,.45,1.64,1.53,1.53,0,0,0,1.28.56,1.41,1.41,0,0,0,1.17-.61,2.68,2.68,0,0,0,.46-1.66Z"/><path class="cls-5" d="M174,125.16H170v4.15h4.52v.7H169.2V120h5.31v.73H170v3.75H174Z"/><circle class="cls-6" cx="82.84" cy="53.95" r="9.51"/><path class="cls-5" d="M85.26,59.24l.57-.32a.53.53,0,0,0,.25-.68L84.7,55.83a.47.47,0,0,0-.56-.2l-.41-.72a3.54,3.54,0,0,0,.94-1,3.65,3.65,0,0,0,.38-.91,3.49,3.49,0,0,0-.37-2.64,3.43,3.43,0,0,0-2.12-1.6,3.5,3.5,0,0,0-3.87,1.58,3.74,3.74,0,0,0-.38.9,3.47,3.47,0,0,0,4.63,4.12l.42.73a.48.48,0,0,0-.18.63l1.37,2.41A.51.51,0,0,0,85.26,59.24Zm-4.18-4.82a2.39,2.39,0,0,1-1.71-2.92,2,2,0,0,1,.26-.62,2.39,2.39,0,0,1,2.65-1.09A2.39,2.39,0,0,1,84,52.71a2,2,0,0,1-.26.62A2.4,2.4,0,0,1,81.08,54.42Z"/><path class="cls-7" d="M15.85,67.57C.21,74.06-11.48,88.32-12.25,106.71c-.74,17.4,10.26,36.64,26.9,43,18.41,7,42.68-.77,57.56-11.61,13.4-9.77,17.59-40.25,5.32-55.54C67.71,70.27,51.68,64,36,63.73A50.62,50.62,0,0,0,15.85,67.57Z"/><path class="cls-8" d="M56.64,144.75c-3.06-8.17-.23-22.16,1.31-30.75s1.61-18.67-4.79-24.61c-4.6-4.26-11.39-5.17-17.66-4.88s-9.83.49-15,3.81a12.58,12.58,0,0,0-4.71,4.84c-1.78,3.5-2.15,9.26-2.26,13.14a13.61,13.61,0,0,1-3.74,9.89c-1.07,1.23-2.53,2.53-2.25,4.13.53,3,4.48,2.43,6,4.38,1.64,2.13,1,7.46,1.34,10.1a5.87,5.87,0,0,0,1.09,3.08c2.23,2.57,7.19.22,9.51,2.7a6,6,0,0,1,1.21,3.81,110.78,110.78,0,0,1,.22,12.49,116.19,116.19,0,0,0,27.52-8.37,5.49,5.49,0,0,0,2-1.22A2.83,2.83,0,0,0,56.64,144.75Z"/><path class="cls-9" d="M53.13,94.33a1.58,1.58,0,0,1,.24-.73Z"/><path class="cls-10" d="M53.45,93.38a1.42,1.42,0,0,1,.12-.57,11.81,11.81,0,0,0,0-5.09,11.42,11.42,0,0,0-5-7.4,9.29,9.29,0,0,0-1.88-1s-.09,0-.1-.07l-.58-.2-.63-.21s0,0,0,0a10.24,10.24,0,0,0-4-.33,11.66,11.66,0,0,0-9.84,7.49l-.39,1.18a9.72,9.72,0,0,0-.22,3.4,24.07,24.07,0,0,0,1.07,4.9,39.2,39.2,0,0,1,1.5,5.42l2.6.85v-9.1c0-1.52,0-3,0-4.55a.29.29,0,0,1,.18-.3c.58-.28,1.15-.56,1.71-.86.15-.07.21-.07.29.09.28.59.58,1.16.86,1.75.06.12.11.14.23.07.58-.3,1.17-.58,1.76-.88.14-.08.19,0,.26.09.27.56.56,1.13.84,1.69,0,.07,0,.15.13.18s.13,0,.2-.08l1.67-.84c.15-.07.22-.07.3.1.28.58.58,1.15.86,1.73.07.14.13.15.27.08l1.73-.87c.13-.07.19,0,.25.08.27.57.55,1.13.85,1.69a.35.35,0,0,1,0,.43q-1.43,1.88-2.83,3.77-2.64,3.51-5.27,7l-.07.09,2.31.78.25.1h0c.39-.35.77-.71,1.18-1,.94-.74,1.93-1.42,2.91-2.12a27.1,27.1,0,0,0,4-3.4,11.1,11.1,0,0,0,1.73-2.4,2.92,2.92,0,0,1,.31-.61l.06-.18a1.58,1.58,0,0,1,.24-.73Z"/><path class="cls-11" d="M40.84,110.33l-4.4-1.47-.28-.08h0l-4.68-1.56c-.16.46-.31.93-.47,1.38-.05.15,0,.21.13.26.69.22,1.38.46,2.07.69l2.43.8c.09-.26.17-.52.26-.78-.09.26-.17.52-.26.78l2.42.81,2.09.7c.12,0,.18,0,.23-.1Z"/><path class="cls-12" d="M41.36,108.76l-4.68-1.56h0c-.18.52-.35,1-.52,1.57h0l.28.08,4.4,1.47C41,109.81,41.19,109.28,41.36,108.76Z"/><path class="cls-12" d="M32,105.64c-.17.53-.35,1-.52,1.57l4.68,1.56c.17-.52.34-1,.52-1.57Z"/><path class="cls-12" d="M38.05,104.2l-.33-.12h0L33,102.53c-.18.52-.35,1-.52,1.57l4.67,1.55h0l4.68,1.55c.17-.52.35-1,.52-1.56Z"/><path class="cls-11" d="M37.72,104.09,33,102.53l.52-1.57,2.6.85.66.22.19.07,1.23.43c-.17.52-.34,1-.52,1.55Z"/><path class="cls-11" d="M37.72,104.08c.18-.52.35-1,.52-1.55v0c.47.18.95.33,1.43.48l.66.22,2.31.78.25.1h0l-.51,1.55-4.35-1.45Z"/><path class="cls-11" d="M37.2,105.66h0l-4.67-1.55L32,105.64l4.68,1.56h0l4.68,1.56.52-1.55Z"/><path class="cls-12" d="M33.21,109.54l2.43.8,2.42.81a3.23,3.23,0,0,1-2.61.83,2.26,2.26,0,0,1-1.21-.61A3.61,3.61,0,0,1,33.21,109.54Z"/><path class="cls-13" d="M42.91,104.1h0S42.92,104.1,42.91,104.1Z"/><path class="cls-14" d="M40.33,103.21l-.66-.22.11-.18,5.43-7.24c.74-1,1.49-2,2.24-3a.27.27,0,0,0,0-.35c-.1-.17-.2-.34-.29-.52s-.11-.15-.25-.08c-.58.31-1.17.6-1.76.89-.13.07-.2,0-.26-.1-.28-.57-.57-1.13-.85-1.71-.08-.16-.15-.18-.3-.1-.62.32-1.25.62-1.87.93l-.1-.18c-.29-.57-.58-1.14-.86-1.71-.07-.15-.13-.16-.26-.09-.57.3-1.14.57-1.71.87-.15.07-.21.06-.29-.1-.28-.59-.58-1.17-.87-1.76-.06-.12-.11-.14-.23-.08a2.34,2.34,0,0,1-.51.23c-.19,0-.25.18-.25.38,0,.9,0,1.8,0,2.71,0,2.84,0,5.68,0,8.52,0,.56,0,1.11,0,1.67l-.66-.22v-9.1c0-1.52,0-3,0-4.55a.29.29,0,0,1,.18-.3c.58-.28,1.15-.56,1.71-.86.15-.07.21-.07.29.09.28.59.58,1.16.86,1.75.06.12.11.14.23.07.58-.3,1.17-.58,1.76-.88.14-.08.19,0,.26.09.27.56.56,1.13.84,1.69,0,.07,0,.15.13.18s.13,0,.2-.08l1.67-.84c.15-.07.22-.07.3.1.28.58.58,1.15.86,1.73.07.14.13.15.27.08l1.73-.87c.13-.07.19,0,.25.08.27.57.55,1.13.85,1.69a.35.35,0,0,1,0,.43q-1.43,1.88-2.83,3.77-2.64,3.51-5.27,7Z"/><path class="cls-15" d="M47.47,92.26c-.1-.17-.2-.34-.29-.52s-.11-.15-.25-.08c-.58.31-1.17.6-1.76.89-.13.07-.2,0-.26-.1-.28-.57-.57-1.13-.85-1.71-.08-.16-.15-.18-.3-.1-.62.32-1.25.62-1.87.93l-.1-.18c-.29-.57-.58-1.14-.86-1.71-.07-.15-.13-.16-.26-.09-.57.3-1.14.57-1.71.87-.15.07-.21.06-.29-.1-.28-.59-.58-1.17-.87-1.76-.06-.12-.11-.14-.23-.08a2.34,2.34,0,0,1-.51.23c-.19,0-.25.18-.25.38,0,.9,0,1.8,0,2.71,0,2.84,0,5.68,0,8.52,0,.56,0,1.11,0,1.67l.19.07,1.23.43v0c.47.18.95.33,1.43.48l.11-.18,5.43-7.24c.74-1,1.49-2,2.24-3A.27.27,0,0,0,47.47,92.26Z"/><circle class="cls-6" cx="59.38" cy="147.74" r="8.54"/><path class="cls-5" d="M63.62,147.63c-.07-.1-1.85-2.5-4.12-2.5s-4,2.4-4.12,2.5a.29.29,0,0,0,0,.33c.07.1,1.85,2.5,4.12,2.5s4-2.4,4.12-2.5A.29.29,0,0,0,63.62,147.63Z"/><path class="cls-16" d="M60.19,145.45a1.65,1.65,0,1,0,1.65,1.65A1.65,1.65,0,0,0,60.19,145.45Zm0,2.75a1.1,1.1,0,1,1,1.1-1.1A1.1,1.1,0,0,1,60.19,148.2Z"/><path class="cls-17" d="M27,43.23a3.37,3.37,0,1,1,2.81-3.85A3.37,3.37,0,0,1,27,43.23Zm-.91-5.85A2.55,2.55,0,1,0,29,39.5,2.55,2.55,0,0,0,26.09,37.38Z"/><path class="cls-17" d="M32.54,53.16a.4.4,0,0,1-.47-.34L31,45.73a.4.4,0,0,1,.12-.36c2.54-2.4,3.66-5.13,3.22-7.9L34,35.72a.75.75,0,0,0-.85-.63.76.76,0,0,0-.63.86l.28,1.75a6.32,6.32,0,0,1-5.26,7.21L27,45a6.31,6.31,0,0,1-7.21-5.26L19.46,38a.74.74,0,1,0-1.47.23L18.26,40c.43,2.77,2.33,5,5.48,6.54a.39.39,0,0,1,.23.31l1,6.06a.4.4,0,0,1-.34.47.41.41,0,0,1-.47-.34l-.92-5.85c-3.29-1.63-5.28-4.07-5.74-7.06l-.28-1.75a1.57,1.57,0,1,1,3.11-.49l.27,1.75a5.49,5.49,0,0,0,6.27,4.57l.62-.09A5.49,5.49,0,0,0,32,37.83l-.27-1.75a1.57,1.57,0,1,1,3.1-.49l.28,1.75c.47,3-.68,5.92-3.32,8.48l1.08,6.87A.4.4,0,0,1,32.54,53.16Z"/><path class="cls-17" d="M18.15,45.47h0L17,45.58a.43.43,0,0,1-.45-.37.41.41,0,0,1,.38-.45L18,44.65a.41.41,0,0,1,.45.37A.42.42,0,0,1,18.15,45.47Z"/><path class="cls-17" d="M20,51.37a.42.42,0,0,1-.28-.76l1-.59a.4.4,0,0,1,.56.13.42.42,0,0,1-.13.57l-1,.59A.47.47,0,0,1,20,51.37Z"/><path class="cls-17" d="M35.09,45.52a.4.4,0,0,1-.46-.32.41.41,0,0,1,.31-.49l1.11-.24a.39.39,0,0,1,.49.31.41.41,0,0,1-.31.49l-1.11.25Z"/><path class="cls-17" d="M29.41,35.63a.47.47,0,0,1-.23,0,.41.41,0,0,1-.21-.54L29.43,34a.41.41,0,1,1,.75.33l-.46,1A.4.4,0,0,1,29.41,35.63Z"/><path class="cls-17" d="M36.1,51.83a.43.43,0,0,1-.16,0l-1.11-.27a.4.4,0,0,1-.3-.49.41.41,0,0,1,.5-.31l1.11.27a.41.41,0,0,1,0,.8Z"/><path class="cls-17" d="M112.22,35.9h.14a2,2,0,0,0,.07-4h-.14a2,2,0,0,0-2,1.9,2,2,0,0,0,.51,1.45A2,2,0,0,0,112.22,35.9Zm.18-3.35A1.33,1.33,0,0,1,113.67,34a1.35,1.35,0,0,1-1.32,1.27h-.09a1.34,1.34,0,1,1,.14-2.68Z"/><path class="cls-17" d="M114.12,43l-1.29,1.17-1.17-1.3a.33.33,0,0,0-.46,0,.3.3,0,0,0-.11.23.31.31,0,0,0,.08.24l1.17,1.29L111,45.76a.3.3,0,0,0-.11.23.37.37,0,0,0,.08.24.34.34,0,0,0,.47,0l1.3-1.16,1.16,1.29a.34.34,0,0,0,.47,0,.33.33,0,0,0,0-.47l-1.17-1.3,1.3-1.16a.38.38,0,0,0,.11-.23.34.34,0,0,0-.09-.24A.35.35,0,0,0,114.12,43Z"/><path class="cls-17" d="M103,39.92l1.29-1.16,1.17,1.3a.33.33,0,1,0,.49-.45l-1.16-1.29,1.29-1.17a.33.33,0,0,0,0-.47.34.34,0,0,0-.47,0l-1.3,1.16-1.16-1.29a.33.33,0,0,0-.47,0,.3.3,0,0,0-.11.23.36.36,0,0,0,.09.24l1.16,1.3-1.3,1.16a.38.38,0,0,0-.11.23.36.36,0,0,0,.09.24A.34.34,0,0,0,103,39.92Z"/><path class="cls-17" d="M113.53,39.38a.37.37,0,0,0,.2-.07.35.35,0,0,0,.12-.22.36.36,0,0,0-.06-.25L112.33,37a.34.34,0,0,0-.47-.06L110,38.37a.38.38,0,0,0-.13.25.34.34,0,0,0,.07.22.34.34,0,0,0,.47.06l1.29-1,0,.29a6.9,6.9,0,0,1-3,4.69,7.6,7.6,0,0,1-2.36,1.06l-.11,0,0-.11a2,2,0,0,0-1.83-1.49h-.14a2,2,0,0,0-2,1.9,2,2,0,0,0,.51,1.45,2,2,0,0,0,1.39.66,2,2,0,0,0,2.08-1.66l0-.07.07,0A8.29,8.29,0,0,0,109,43.44a7.63,7.63,0,0,0,3.3-5.13l0-.25.92,1.19A.35.35,0,0,0,113.53,39.38Zm-9.29,6.33h-.1a1.37,1.37,0,1,1,.1,0Z"/></g></svg>