<svg id="Layer_1" data-name="Layer 1" xmlns="http://www.w3.org/2000/svg" viewBox="0 0 59 57"><defs><style>.cls-1{fill:#ef7622;}</style></defs><path class="cls-1" d="M51.68,27.85l-2.89-3a1,1,0,0,0-.69-.3,1,1,0,0,0-.69,1.63l1.37,1.43H45.22A15.76,15.76,0,0,0,30.37,12.78V9.22l1.43,1.37a1,1,0,1,0,1.33-1.38l-3-2.89a1,1,0,0,0-.67-.27.93.93,0,0,0-.66.27l-3,2.88a1,1,0,0,0,1.33,1.4l1.34-1.28v3.47A15.76,15.76,0,0,0,13.79,27.45H10.32l1.28-1.34a1,1,0,0,0,0-1.36.93.93,0,0,0-.66-.27,1,1,0,0,0-.7.3l-2.88,3a1,1,0,0,0,0,1.33l2.89,3a1,1,0,1,0,1.38-1.33l-1.37-1.43h3.56A15.76,15.76,0,0,0,28.63,44.22v3.56L27.2,46.41a.93.93,0,0,0-.66-.27.94.94,0,0,0-.7.29,1,1,0,0,0,0,1.36l3,2.89a1,1,0,0,0,1.33,0l3-2.88a1,1,0,0,0-1.33-1.4l-1.34,1.28V44.21A15.76,15.76,0,0,0,45.21,29.55h3.47L47.4,30.89a1,1,0,0,0,0,1.36,1,1,0,0,0,1.37,0l2.88-3A1,1,0,0,0,51.68,27.85ZM30.55,42.61V34.15a1,1,0,0,0-1.92,0v8.47A14.17,14.17,0,0,1,15.38,29.37h8.47a1,1,0,1,0,0-1.92H15.39A14.18,14.18,0,0,1,28.45,14.39v8.46a1,1,0,0,0,1.92,0V14.38A14.17,14.17,0,0,1,43.62,27.63H35.15a1,1,0,0,0,0,1.92h8.46A14.18,14.18,0,0,1,30.55,42.61Z"/><circle class="cls-1" cx="29.5" cy="28.5" r="1.26"/></svg>