<?xml version="1.0" encoding="utf-8"?>
<!-- Generator: Adobe Illustrator 26.1.0, SVG Export Plug-In . SVG Version: 6.00 Build 0)  -->
<svg version="1.1" id="Capa_1" xmlns="http://www.w3.org/2000/svg" xmlns:xlink="http://www.w3.org/1999/xlink" x="0px" y="0px"
	 viewBox="0 0 224 222.2" style="enable-background:new 0 0 224 222.2;" xml:space="preserve">
<style type="text/css">
	.st0{clip-path:url(#SVGID_00000153677703386260537940000015219745686631136949_);fill:#2F495F;}
	
		.st1{opacity:0.6;clip-path:url(#SVGID_00000153677703386260537940000015219745686631136949_);fill:#38799A;enable-background:new    ;}
	.st2{opacity:0.6;clip-path:url(#SVGID_00000153677703386260537940000015219745686631136949_);}
	.st3{fill:#4281A0;}
	.st4{clip-path:url(#SVGID_00000153677703386260537940000015219745686631136949_);fill:#7FC6D1;}
	
		.st5{clip-path:url(#SVGID_00000153677703386260537940000015219745686631136949_);fill:#7FC6D1;stroke:#7FC6D1;stroke-width:0.3912;stroke-miterlimit:10;}
	.st6{clip-path:url(#SVGID_00000153677703386260537940000015219745686631136949_);fill:#E9F5F7;}
	.st7{clip-path:url(#SVGID_00000153677703386260537940000015219745686631136949_);fill:#62ACC1;}
	.st8{clip-path:url(#SVGID_00000153677703386260537940000015219745686631136949_);fill:#FFFFFF;}
	.st9{clip-path:url(#SVGID_00000153677703386260537940000015219745686631136949_);fill:#26445A;}
	.st10{clip-path:url(#SVGID_00000153677703386260537940000015219745686631136949_);fill:#F39665;}
	
		.st11{clip-path:url(#SVGID_00000153677703386260537940000015219745686631136949_);fill:none;stroke:#FFFFFF;stroke-width:0.3437;stroke-miterlimit:10;}
	.st12{clip-path:url(#SVGID_00000153677703386260537940000015219745686631136949_);fill:#C7E4E8;}
	.st13{clip-path:url(#SVGID_00000153677703386260537940000015219745686631136949_);}
	.st14{fill:#FFFFFF;}
</style>
<g>
	<defs>
		<path id="SVGID_1_" d="M25.9,0H198c14.4,0,26,11.6,26,25.9v170.4c0,14.3-11.6,25.9-25.9,25.9H25.9C11.6,222.3,0,210.7,0,196.4
			V25.9C0,11.6,11.6,0,25.9,0z"/>
	</defs>
	<clipPath id="SVGID_00000181083012437011899350000018419637452602939283_">
		<use xlink:href="#SVGID_1_"  style="overflow:visible;"/>
	</clipPath>
	
		<rect x="-1.1" y="-3" style="clip-path:url(#SVGID_00000181083012437011899350000018419637452602939283_);fill:#2F495F;" width="227.1" height="229.9"/>
	
		<path style="opacity:0.6;clip-path:url(#SVGID_00000181083012437011899350000018419637452602939283_);fill:#38799A;enable-background:new    ;" d="
		M56.4,31.3l-33.9,2.6c-0.5,0-0.9,0.5-0.8,1l2,26.5c0,0.5,0.5,0.9,1,0.8l12.8-1l0,0.3l-2.9,2.4c-0.3,0.2-0.4,0.6-0.3,1
		c0.1,0.4,0.5,0.6,0.9,0.6l13.5-1c0.4,0,0.7-0.3,0.8-0.7c0.1-0.4-0.1-0.8-0.4-1l-3.4-2l0-0.3l12.9-1c0.5,0,0.9-0.5,0.8-1l-2-26.5
		C57.3,31.6,56.9,31.2,56.4,31.3z M57.4,52.6l-32.6,2.5l-1.5-19.8l32.6-2.5L57.4,52.6z"/>
	<g style="opacity:0.6;clip-path:url(#SVGID_00000181083012437011899350000018419637452602939283_);">
		<path class="st3" d="M11.8,151.2c1.1,0,1.9-0.9,1.9-1.9c0-1.1-0.9-1.9-1.9-1.9c-1.1,0-1.9,0.9-1.9,1.9
			C9.9,150.3,10.7,151.2,11.8,151.2z"/>
		<path class="st3" d="M14.2,151.7H9.4c-0.9,0-1.7,0.7-1.7,1.7v3.6c0,0.8,0.5,1.4,1.3,1.6v5.3c0,0.2,0.2,0.4,0.4,0.4H14
			c0.2,0,0.4-0.2,0.4-0.4v-5.3c0.8-0.1,1.4-0.8,1.4-1.6v-3.6C15.8,152.4,15.1,151.7,14.2,151.7z"/>
		<path class="st3" d="M22.8,157.5c1.1,0,1.9-0.9,1.9-1.9s-0.9-1.9-1.9-1.9c-1.1,0-1.9,0.9-1.9,1.9l0,0
			C20.9,156.6,21.7,157.5,22.8,157.5z"/>
		<path class="st3" d="M25.2,157.9h-4.7c-0.9,0-1.7,0.7-1.7,1.7v3.6c0,0.8,0.5,1.4,1.3,1.6v5.3c0,0.2,0.2,0.4,0.4,0.4H25
			c0.2,0,0.4-0.2,0.4-0.4v-5.3c0.8-0.1,1.4-0.8,1.4-1.6v-3.6C26.8,158.7,26.1,158,25.2,157.9z"/>
	</g>
	<path style="clip-path:url(#SVGID_00000181083012437011899350000018419637452602939283_);fill:#7FC6D1;" d="M30.5,38.9h-4.8
		c0-0.1,0-0.2,0-0.2c-0.1-2.8-2.4-5-5.2-4.8c-2.6,0.1-4.7,2.2-4.8,4.8c0,1.3,0.6,2.6,1.5,3.5c0,0.6-0.4,1-0.9,1.3
		c-0.1,0-0.2,0.2-0.2,0.3c0,0.2,0.1,0.3,0.3,0.3c0.1,0,0.2,0,0.4,0c0.6,0,1.5-0.1,2.1-0.8c0.6,0.2,1.2,0.3,1.9,0.3v0.6
		c0,1.3,1.1,2.4,2.4,2.4h4.6c0.3,0.6,0.9,1.1,1.6,1.3h0.1l0,0c0.2,0,0.3-0.1,0.3-0.3c0,0,0,0,0,0c0-0.1,0-0.1-0.1-0.2
		c-0.1-0.2-0.1-0.5-0.1-0.8h0.9c1.3,0,2.4-1.1,2.4-2.4v-2.8C32.9,40,31.9,38.9,30.5,38.9z M18.9,42.5c-0.2-0.1-0.3,0-0.4,0.1l0,0
		c-0.2,0.4-0.6,0.6-1,0.7c0.3-0.4,0.4-0.8,0.5-1.3c0-0.1,0-0.2-0.1-0.3c-0.9-0.8-1.4-1.9-1.4-3.1c0-2.4,2-4.4,4.4-4.4s4.4,2,4.4,4.4
		c0,0.1,0,0.2,0,0.2h-2c-1.3,0-2.4,1.1-2.4,2.4c0,0,0,0,0,0v1.6C20.1,42.9,19.4,42.8,18.9,42.5z M32.3,44.1c0,1-0.8,1.8-1.8,1.8
		h-1.1c-0.1,0-0.2,0-0.3,0.1C29,46.3,28.9,46.6,29,47c-0.3-0.2-0.5-0.5-0.6-0.8c0-0.1-0.2-0.2-0.3-0.2h-4.9c-1,0-1.8-0.8-1.8-1.8
		v-2.8c0-1,0.8-1.8,1.8-1.8h7.4c1,0,1.8,0.8,1.8,1.8L32.3,44.1z"/>
	<path style="clip-path:url(#SVGID_00000181083012437011899350000018419637452602939283_);fill:#7FC6D1;" d="M82.9,69.3h-1.3
		c-0.2,0-0.3-0.1-0.4-0.3L81,68.2c-0.5-0.1-1-0.3-1.5-0.6L78.8,68c-0.1,0.1-0.3,0.1-0.4-0.1L77.4,67c-0.1-0.1-0.1-0.3-0.1-0.4
		l0.4-0.8c-0.3-0.5-0.5-1-0.6-1.5L76.3,64c-0.2,0-0.3-0.2-0.3-0.4v-1.3c0-0.2,0.1-0.3,0.3-0.4l0.8-0.2c0.1-0.5,0.3-1.1,0.6-1.6
		l-0.4-0.7c-0.1-0.1,0-0.3,0.1-0.4l0.9-0.9c0.1-0.1,0.3-0.1,0.4-0.1l0.7,0.4c0.5-0.3,1-0.5,1.5-0.6l0.2-0.8c0-0.2,0.2-0.3,0.4-0.3
		h1.3c0.2,0,0.3,0.1,0.4,0.3l0.2,0.8c0.5,0.1,1.1,0.3,1.5,0.6l0.7-0.4c0.1-0.1,0.3,0,0.4,0.1l0.9,0.9c0.1,0.1,0.1,0.3,0.1,0.4
		l-0.4,0.7c0.3,0.5,0.5,1,0.6,1.6l0.8,0.2c0.2,0,0.3,0.2,0.3,0.4v1.3c0,0.2-0.1,0.3-0.3,0.4l-0.8,0.2c-0.1,0.5-0.3,1.1-0.6,1.6
		l0.4,0.8c0.1,0.1,0,0.3-0.1,0.4l-0.9,0.9c-0.1,0.1-0.3,0.1-0.4,0.1L85,67.6c-0.5,0.3-1,0.5-1.5,0.6l-0.2,0.8
		C83.2,69.2,83,69.3,82.9,69.3z M81.9,68.6h0.7l0.2-0.7c0-0.2,0.1-0.3,0.3-0.3c0.6-0.1,1.2-0.3,1.7-0.7c0.1-0.1,0.3-0.1,0.4,0
		l0.7,0.4l0.5-0.5L86,66c-0.1-0.1-0.1-0.3,0-0.4c0.3-0.5,0.6-1.1,0.7-1.7c0-0.1,0.1-0.2,0.3-0.3l0.7-0.2v-0.8l-0.7-0.2
		c-0.1,0-0.2-0.1-0.3-0.3c-0.1-0.6-0.3-1.2-0.7-1.7c-0.1-0.1-0.1-0.3,0-0.4l0.4-0.7l-0.5-0.6l-0.7,0.4c-0.1,0.1-0.3,0.1-0.4,0
		c-0.5-0.3-1.1-0.6-1.7-0.7c-0.1,0-0.2-0.1-0.3-0.3l-0.2-0.7h-0.7l-0.2,0.7c0,0.1-0.1,0.2-0.3,0.3c-0.6,0.1-1.2,0.4-1.7,0.7
		c-0.1,0.1-0.3,0.1-0.4,0l-0.7-0.4l-0.5,0.5l0.4,0.7c0.1,0.1,0.1,0.3,0,0.4c-0.3,0.5-0.6,1.1-0.7,1.7c0,0.1-0.1,0.2-0.3,0.3
		l-0.7,0.2v0.8l0.7,0.2c0.1,0,0.2,0.1,0.3,0.3c0.1,0.6,0.3,1.2,0.7,1.7c0.1,0.1,0.1,0.2,0,0.4l-0.4,0.7l0.5,0.5l0.6-0.3
		c0.1-0.1,0.3-0.1,0.4,0c0.5,0.3,1.1,0.6,1.7,0.7c0.2,0,0.3,0.2,0.3,0.4c0,0,0,0,0,0L81.9,68.6z"/>
	
		<path style="clip-path:url(#SVGID_00000181083012437011899350000018419637452602939283_);fill:#7FC6D1;stroke:#7FC6D1;stroke-width:0.3912;stroke-miterlimit:10;" d="
		M82.2,61.4c-1,0-1.8,0.7-1.8,1.7c0,1,0.7,1.8,1.7,1.8c1,0,1.8-0.7,1.8-1.7c0,0,0,0,0,0C84,62.2,83.2,61.4,82.2,61.4
		C82.2,61.4,82.2,61.4,82.2,61.4 M82.2,65.4c-1.2,0-2.3-1-2.3-2.2c0-1.2,1-2.3,2.2-2.3c1.2,0,2.3,1,2.3,2.2c0,0,0,0,0,0.1
		C84.5,64.4,83.5,65.4,82.2,65.4C82.2,65.4,82.2,65.4,82.2,65.4"/>
	<path style="clip-path:url(#SVGID_00000181083012437011899350000018419637452602939283_);fill:#7FC6D1;" d="M88.2,56.1
		c-1,0-1.8-0.8-1.8-1.8c0-1,0.8-1.8,1.8-1.8c1,0,1.8,0.8,1.8,1.8c0,0,0,0,0,0C90,55.3,89.2,56.1,88.2,56.1z M88.2,53.3
		c-0.6,0-1,0.5-1,1c0,0.6,0.5,1,1,1c0.6,0,1-0.5,1-1c0,0,0,0,0,0C89.2,53.8,88.8,53.3,88.2,53.3z"/>
	<path style="clip-path:url(#SVGID_00000181083012437011899350000018419637452602939283_);fill:#7FC6D1;" d="M88.6,58.7h-0.9
		c-0.2,0-0.3-0.1-0.4-0.3L87.2,58c-0.3-0.1-0.7-0.2-0.9-0.4l-0.5,0.2c-0.1,0.1-0.3,0.1-0.4,0l-0.6-0.6c-0.1-0.1-0.1-0.3-0.1-0.4
		l0.2-0.5c-0.2-0.3-0.3-0.6-0.4-1l-0.5-0.1c-0.2,0-0.3-0.2-0.3-0.4v-0.9c0-0.2,0.1-0.3,0.3-0.4l0.5-0.1c0.1-0.3,0.2-0.7,0.4-1
		L84.7,52c-0.1-0.1-0.1-0.3,0.1-0.4l0.6-0.6c0.1-0.1,0.3-0.1,0.4-0.1l0.4,0.2c0.3-0.2,0.6-0.3,1-0.4l0.1-0.5c0-0.2,0.2-0.3,0.4-0.3
		h0.9c0.2,0,0.3,0.1,0.4,0.3l0.1,0.5c0.3,0.1,0.7,0.2,1,0.4l0.4-0.2c0.1-0.1,0.3-0.1,0.4,0.1l0.6,0.6c0.1,0.1,0.1,0.3,0.1,0.4
		l-0.2,0.4c0.2,0.3,0.3,0.6,0.4,1l0.5,0.1c0.2,0,0.3,0.2,0.3,0.4v0.9c0,0.2-0.1,0.3-0.3,0.4l-0.5,0.1c-0.1,0.3-0.2,0.7-0.4,1
		l0.2,0.4c0.1,0.1,0.1,0.3-0.1,0.4L91,57.8c-0.1,0.1-0.3,0.1-0.4,0.1l-0.4-0.2c-0.3,0.2-0.6,0.3-1,0.4L89,58.5
		C88.9,58.6,88.8,58.7,88.6,58.7z M88,58h0.3l0.1-0.4c0-0.2,0.1-0.3,0.3-0.3c0.4-0.1,0.8-0.2,1.1-0.5c0.1-0.1,0.2-0.1,0.4,0l0.4,0.2
		l0.2-0.2l-0.2-0.4c-0.1-0.1-0.1-0.3,0-0.4c0.2-0.3,0.4-0.7,0.5-1.1c0-0.1,0.1-0.2,0.3-0.3l0.4-0.1v-0.3l-0.4-0.1
		c-0.1,0-0.2-0.1-0.3-0.3c-0.1-0.4-0.2-0.8-0.5-1.1c-0.1-0.1-0.1-0.2,0-0.4l0.2-0.4l-0.2-0.2l-0.4,0.2c-0.1,0.1-0.3,0.1-0.4,0
		c-0.3-0.2-0.7-0.4-1.1-0.5c-0.1,0-0.2-0.1-0.3-0.3l-0.1-0.4H88l-0.1,0.4c0,0.1-0.1,0.2-0.3,0.3c-0.4,0.1-0.8,0.2-1.1,0.5
		c-0.1,0.1-0.3,0.1-0.4,0l-0.4-0.2l-0.2,0.2l0.2,0.4c0.1,0.1,0.1,0.3,0,0.4c-0.2,0.3-0.4,0.7-0.5,1.1c0,0.1-0.1,0.2-0.3,0.3
		l-0.4,0.1v0.3l0.4,0.1c0.1,0,0.2,0.1,0.3,0.3c0.1,0.4,0.2,0.8,0.5,1.1c0.1,0.1,0.1,0.2,0,0.4l-0.2,0.4l0.2,0.2l0.4-0.2
		c0.1-0.1,0.3-0.1,0.4,0c0.3,0.2,0.7,0.4,1.1,0.5c0.2,0,0.3,0.2,0.3,0.4l0,0L88,58z"/>
	<path style="clip-path:url(#SVGID_00000181083012437011899350000018419637452602939283_);fill:#E9F5F7;" d="M4.5,75.6
		c-14.7,11.7-20,33.3-13.9,50.8c13.8,39.7,78.7,33.3,92.8-2.6c7.1-18.2,1.5-40.7-15-51.9c-13-8.8-30.3-10.1-45.4-5.6
		C16.3,68.3,9.9,71.3,4.5,75.6z"/>
	
		<circle style="clip-path:url(#SVGID_00000181083012437011899350000018419637452602939283_);fill:#62ACC1;" cx="71" cy="146.8" r="8"/>
	<path style="clip-path:url(#SVGID_00000181083012437011899350000018419637452602939283_);fill:#FFFFFF;" d="M71,142.4
		c-2.4,0-4.4,2-4.4,4.4c0,2.4,2,4.4,4.4,4.4c2.4,0,4.4-2,4.4-4.4C75.4,144.3,73.4,142.4,71,142.4z M74.9,147.6
		c-0.5,0.3-1.1,0.5-1.7,0.7c0.1-0.4,0.1-0.8,0.1-1.2c0-0.4,0-0.8-0.1-1.2c0.5-0.1,1-0.3,1.5-0.6C75,146,75.1,146.8,74.9,147.6
		L74.9,147.6z M69.1,147.1c0-0.4,0-0.8,0.1-1.2c0.5,0.1,1,0.2,1.6,0.2v2.5c-0.5,0-1-0.1-1.6-0.2C69.1,148,69.1,147.5,69.1,147.1z
		 M71.2,142.8l0.3,0c0.6,0.8,1,1.7,1.2,2.7c-0.5,0.1-1,0.2-1.5,0.2V142.8z M70.8,145.7c-0.5,0-1-0.1-1.5-0.2c0.3-1,0.7-1.9,1.3-2.7
		c0.1,0,0.2,0,0.2,0V145.7z M70.8,149v1.8c-0.2,0-0.4,0-0.6-0.1c-0.4-0.6-0.7-1.2-0.9-1.8C69.8,148.9,70.3,149,70.8,149L70.8,149z
		 M71.2,149c0.5,0,1-0.1,1.5-0.2c-0.2,0.7-0.5,1.3-0.9,1.9c-0.2,0-0.4,0.1-0.6,0.1V149z M71.2,148.6v-2.5c0.5,0,1.1-0.1,1.6-0.2
		c0.1,0.4,0.1,0.7,0.1,1.1c0,0.4,0,0.9-0.1,1.3C72.3,148.5,71.7,148.6,71.2,148.6L71.2,148.6z M74.5,144.9c-0.4,0.2-0.9,0.4-1.4,0.5
		c-0.2-0.9-0.6-1.7-1.1-2.5C73.1,143.2,74,143.9,74.5,144.9L74.5,144.9z M70,142.9c-0.5,0.8-0.9,1.6-1.1,2.5c-0.5-0.1-1-0.3-1.4-0.5
		C68,143.9,68.9,143.2,70,142.9L70,142.9z M67.3,145.3c0.5,0.2,1,0.4,1.5,0.6c-0.1,0.4-0.1,0.8-0.1,1.2c0,0.4,0,0.8,0.1,1.2
		c-0.6-0.1-1.1-0.3-1.7-0.6C66.9,147,67,146.1,67.3,145.3L67.3,145.3z M67.3,148.3c0.5,0.2,1,0.4,1.6,0.5c0.1,0.6,0.4,1.2,0.7,1.8
		C68.6,150.1,67.7,149.3,67.3,148.3L67.3,148.3z M72.4,150.5c0.3-0.6,0.6-1.2,0.7-1.8c0.6-0.1,1.1-0.3,1.6-0.6
		C74.3,149.2,73.5,150.1,72.4,150.5L72.4,150.5z"/>
	<polygon style="clip-path:url(#SVGID_00000181083012437011899350000018419637452602939283_);fill:#26445A;" points="46.5,157 
		40.9,158.1 37.1,138.5 42.8,137.4 	"/>
	<path style="clip-path:url(#SVGID_00000181083012437011899350000018419637452602939283_);fill:#F39665;" d="M-1.7,113.2l25.4-38.3
		c1.5-2.2,4.4-2.8,6.6-1.3L68.7,99c2.2,1.5,2.8,4.4,1.3,6.6l-25.4,38.3c-1.5,2.2-4.4,2.8-6.6,1.3l-38.3-25.4
		C-2.5,118.3-3.1,115.3-1.7,113.2z"/>
	
		<path style="clip-path:url(#SVGID_00000181083012437011899350000018419637452602939283_);fill:none;stroke:#FFFFFF;stroke-width:0.3437;stroke-miterlimit:10;" d="
		M2.2,112.7l22.7-34.1c1.3-2,3.9-2.5,5.9-1.2l34.1,22.7c2,1.3,2.5,3.9,1.2,5.9l-22.7,34.1c-1.3,2-3.9,2.5-5.9,1.2L3.4,118.6
		C1.5,117.3,0.9,114.7,2.2,112.7z"/>
	
		<rect x="14.2" y="107" transform="matrix(0.9782 -0.2076 0.2076 0.9782 -22.2641 8.6743)" style="clip-path:url(#SVGID_00000181083012437011899350000018419637452602939283_);fill:#26445A;" width="32" height="6.9"/>
	<polygon style="clip-path:url(#SVGID_00000181083012437011899350000018419637452602939283_);fill:#26445A;" points="38.9,98.9 
		54.5,105.3 42.8,117.5 	"/>
	
		<circle style="clip-path:url(#SVGID_00000181083012437011899350000018419637452602939283_);fill:#C7E4E8;" cx="28.4" cy="80.9" r="0.8"/>
	
		<circle style="clip-path:url(#SVGID_00000181083012437011899350000018419637452602939283_);fill:#C7E4E8;" cx="39.9" cy="137.8" r="0.8"/>
	<g style="clip-path:url(#SVGID_00000181083012437011899350000018419637452602939283_);">
		<path class="st14" d="M103.7,91.2h-3.9v4.1h4.5V96h-5.3V86h5.3v0.7h-4.5v3.7h3.9V91.2z"/>
		<path class="st14" d="M106.6,95.3h4V96h-4.9V86h0.8V95.3z"/>
		<path class="st14" d="M116.9,91.2h-3.9v4.1h4.5V96h-5.3V86h5.3v0.7h-4.5v3.7h3.9V91.2z"/>
		<path class="st14" d="M124.5,93.1L124.5,93.1c0,1-0.2,1.8-0.7,2.3c-0.5,0.5-1.2,0.8-2.1,0.8c-0.9,0-1.7-0.3-2.2-1
			c-0.5-0.7-0.8-1.6-0.8-2.8v-2.8c0-1.2,0.3-2.1,0.8-2.8c0.5-0.7,1.3-1,2.2-1c0.9,0,1.6,0.3,2.1,0.8c0.5,0.5,0.8,1.3,0.8,2.3l0,0
			h-0.8c0-0.8-0.2-1.4-0.5-1.8c-0.3-0.4-0.9-0.6-1.5-0.6c-0.7,0-1.2,0.3-1.6,0.8s-0.6,1.3-0.6,2.2v2.8c0,1,0.2,1.8,0.6,2.3
			c0.4,0.5,0.9,0.8,1.6,0.8c0.7,0,1.2-0.2,1.5-0.6c0.3-0.4,0.5-1,0.5-1.8H124.5z"/>
		<path class="st14" d="M131.9,86.7h-2.8V96h-0.8v-9.3h-2.8V86h6.4V86.7z"/>
		<path class="st14" d="M134.3,96h-0.8V86h0.8V96z"/>
		<path class="st14" d="M139,94.3l0.2,0.6h0l0.2-0.6l2.4-8.3h0.9l-3.1,10h-0.7l-3.1-10h0.9L139,94.3z"/>
		<path class="st14" d="M145,96h-0.8V86h0.8V96z"/>
		<path class="st14" d="M147.4,96V86h2.5c1,0,1.9,0.4,2.5,1.2c0.7,0.8,1,1.9,1,3.1v1.3c0,1.3-0.3,2.3-1,3.1
			c-0.7,0.8-1.5,1.2-2.5,1.2H147.4z M148.2,86.7v8.6h1.6c0.8,0,1.5-0.3,2-1c0.5-0.7,0.8-1.6,0.8-2.6v-1.3c0-1.1-0.3-1.9-0.8-2.6
			c-0.5-0.7-1.2-1-2-1H148.2z"/>
		<path class="st14" d="M159.6,93.2H156l-0.9,2.8h-0.9l3.2-10h0.7l3.1,10h-0.9L159.6,93.2z M156.2,92.5h3.2l-1.6-5.1h0L156.2,92.5z"
			/>
		<path class="st14" d="M162.7,96V86h2.5c1,0,1.9,0.4,2.5,1.2c0.7,0.8,1,1.9,1,3.1v1.3c0,1.3-0.3,2.3-1,3.1
			c-0.7,0.8-1.5,1.2-2.5,1.2H162.7z M163.5,86.7v8.6h1.6c0.8,0,1.5-0.3,2-1c0.5-0.7,0.8-1.6,0.8-2.6v-1.3c0-1.1-0.3-1.9-0.8-2.6
			c-0.5-0.7-1.2-1-2-1H163.5z"/>
		<path class="st14" d="M104.5,103.9h-2.8v9.3h-0.8v-9.3h-2.8v-0.7h6.4V103.9z"/>
		<path class="st14" d="M110.7,108.3h-3.9v4.1h4.5v0.7h-5.3v-10h5.3v0.7h-4.5v3.7h3.9V108.3z M109.2,100.7h1l0,0l-1.5,1.8l-0.7,0
			L109.2,100.7z"/>
		<path class="st14" d="M118.3,110.3L118.3,110.3c0,1-0.2,1.8-0.7,2.3c-0.5,0.5-1.2,0.8-2.1,0.8c-0.9,0-1.7-0.3-2.2-1
			s-0.8-1.6-0.8-2.8v-2.8c0-1.2,0.3-2.1,0.8-2.8c0.5-0.7,1.3-1,2.2-1c0.9,0,1.6,0.3,2.1,0.8c0.5,0.5,0.8,1.3,0.8,2.3l0,0h-0.8
			c0-0.8-0.2-1.4-0.5-1.8c-0.3-0.4-0.9-0.6-1.5-0.6c-0.7,0-1.2,0.3-1.6,0.8c-0.4,0.5-0.6,1.3-0.6,2.2v2.8c0,1,0.2,1.8,0.6,2.3
			c0.4,0.5,0.9,0.8,1.6,0.8c0.7,0,1.2-0.2,1.5-0.6c0.3-0.4,0.5-1,0.5-1.8H118.3z"/>
		<path class="st14" d="M126.3,113.2h-0.8l-4.5-8.4l0,0v8.4h-0.8v-10h0.8l4.5,8.4l0,0v-8.4h0.8V113.2z"/>
		<path class="st14" d="M129.5,113.2h-0.8v-10h0.8V113.2z"/>
		<path class="st14" d="M137.3,110.3L137.3,110.3c0,1-0.2,1.8-0.7,2.3c-0.5,0.5-1.2,0.8-2.1,0.8c-0.9,0-1.7-0.3-2.2-1
			s-0.8-1.6-0.8-2.8v-2.8c0-1.2,0.3-2.1,0.8-2.8c0.5-0.7,1.3-1,2.2-1c0.9,0,1.6,0.3,2.1,0.8c0.5,0.5,0.8,1.3,0.8,2.3l0,0h-0.8
			c0-0.8-0.2-1.4-0.5-1.8c-0.3-0.4-0.9-0.6-1.5-0.6c-0.7,0-1.2,0.3-1.6,0.8c-0.4,0.5-0.6,1.3-0.6,2.2v2.8c0,1,0.2,1.8,0.6,2.3
			c0.4,0.5,0.9,0.8,1.6,0.8c0.7,0,1.2-0.2,1.5-0.6c0.3-0.4,0.5-1,0.5-1.8H137.3z"/>
		<path class="st14" d="M145,109.6c0,1.2-0.3,2.1-0.8,2.8c-0.6,0.6-1.3,1-2.3,1c-1,0-1.7-0.3-2.3-1c-0.6-0.6-0.8-1.6-0.8-2.8v-2.8
			c0-1.2,0.3-2.1,0.8-2.8c0.5-0.6,1.3-1,2.3-1c1,0,1.8,0.3,2.3,1c0.6,0.6,0.9,1.6,0.9,2.8V109.6z M144.2,106.8c0-1-0.2-1.7-0.6-2.2
			c-0.4-0.5-1-0.7-1.8-0.7c-0.7,0-1.3,0.2-1.7,0.7c-0.4,0.5-0.6,1.2-0.6,2.2v2.8c0,1,0.2,1.8,0.6,2.3c0.4,0.5,1,0.7,1.7,0.7
			c0.8,0,1.3-0.2,1.7-0.7c0.4-0.5,0.6-1.3,0.6-2.3V106.8z"/>
		<path class="st14" d="M99.7,126.2v4.1h-0.8v-10h3c0.9,0,1.6,0.3,2,0.8c0.5,0.5,0.7,1.2,0.7,2.1c0,0.9-0.2,1.6-0.7,2.1
			c-0.5,0.5-1.2,0.8-2,0.8H99.7z M99.7,125.5h2.1c0.6,0,1.1-0.2,1.4-0.6c0.3-0.4,0.5-0.9,0.5-1.6c0-0.6-0.2-1.2-0.5-1.6
			c-0.3-0.4-0.8-0.6-1.4-0.6h-2.1V125.5z"/>
		<path class="st14" d="M107.2,125.8v4.5h-0.8v-10h2.9c0.9,0,1.6,0.2,2.1,0.7c0.5,0.5,0.7,1.2,0.7,2.1c0,0.5-0.1,1-0.4,1.4
			c-0.3,0.4-0.6,0.7-1.1,0.9c0.5,0.2,0.9,0.4,1.1,0.8c0.2,0.4,0.3,0.9,0.3,1.5v0.9c0,0.3,0,0.6,0.1,0.8c0.1,0.2,0.2,0.4,0.3,0.6v0.2
			h-0.8c-0.1-0.2-0.2-0.4-0.3-0.7c-0.1-0.3-0.1-0.6-0.1-0.9v-0.9c0-0.6-0.2-1.1-0.5-1.4c-0.3-0.4-0.7-0.5-1.3-0.5H107.2z
			 M107.2,125.1h2c0.7,0,1.2-0.2,1.5-0.5c0.3-0.4,0.5-0.8,0.5-1.5c0-0.7-0.2-1.2-0.5-1.5c-0.3-0.4-0.8-0.5-1.5-0.5h-2V125.1z"/>
		<path class="st14" d="M120,126.8c0,1.2-0.3,2.1-0.8,2.8c-0.6,0.6-1.3,1-2.3,1c-1,0-1.7-0.3-2.3-1c-0.6-0.6-0.8-1.6-0.8-2.8V124
			c0-1.2,0.3-2.1,0.8-2.8c0.5-0.6,1.3-1,2.3-1c1,0,1.8,0.3,2.3,1c0.6,0.6,0.9,1.6,0.9,2.8V126.8z M119.2,123.9c0-1-0.2-1.7-0.6-2.2
			c-0.4-0.5-1-0.7-1.8-0.7c-0.7,0-1.3,0.2-1.7,0.7c-0.4,0.5-0.6,1.2-0.6,2.2v2.8c0,1,0.2,1.8,0.6,2.3c0.4,0.5,1,0.7,1.7,0.7
			c0.8,0,1.3-0.2,1.7-0.7c0.4-0.5,0.6-1.3,0.6-2.3V123.9z"/>
		<path class="st14" d="M126.7,125.7h-4v4.7h-0.8v-10h5.4v0.7h-4.5v3.9h4V125.7z"/>
		<path class="st14" d="M133.5,125.5h-3.9v4.1h4.5v0.7h-5.3v-10h5.3v0.7h-4.5v3.7h3.9V125.5z"/>
		<path class="st14" d="M140.3,127.9c0-0.5-0.2-1-0.5-1.3c-0.3-0.3-0.9-0.6-1.7-0.9c-0.9-0.3-1.6-0.6-2.1-1.1
			c-0.5-0.4-0.7-1-0.7-1.8c0-0.8,0.3-1.4,0.8-1.9c0.5-0.5,1.2-0.7,2-0.7c0.9,0,1.6,0.3,2.1,0.9c0.5,0.6,0.8,1.3,0.8,2.1l0,0h-0.8
			c0-0.7-0.2-1.2-0.6-1.6c-0.4-0.4-0.9-0.6-1.5-0.6c-0.6,0-1.1,0.2-1.5,0.5c-0.3,0.4-0.5,0.8-0.5,1.3c0,0.5,0.2,0.9,0.5,1.2
			c0.3,0.3,0.9,0.6,1.7,0.9c0.9,0.3,1.6,0.6,2,1.1c0.5,0.5,0.7,1.1,0.7,1.9c0,0.8-0.3,1.4-0.8,1.9c-0.5,0.5-1.2,0.7-2.1,0.7
			c-0.8,0-1.6-0.3-2.2-0.8c-0.6-0.5-0.9-1.2-0.9-2.2l0,0h0.8c0,0.8,0.2,1.4,0.7,1.7c0.5,0.4,1,0.6,1.6,0.6c0.6,0,1.1-0.2,1.5-0.5
			C140.1,128.9,140.3,128.5,140.3,127.9z"/>
		<path class="st14" d="M143.8,130.4h-0.8v-10h0.8V130.4z"/>
		<path class="st14" d="M152,126.8c0,1.2-0.3,2.1-0.8,2.8c-0.6,0.6-1.3,1-2.3,1c-1,0-1.7-0.3-2.3-1c-0.6-0.6-0.8-1.6-0.8-2.8V124
			c0-1.2,0.3-2.1,0.8-2.8c0.5-0.6,1.3-1,2.3-1c1,0,1.8,0.3,2.3,1c0.6,0.6,0.9,1.6,0.9,2.8V126.8z M151.2,123.9c0-1-0.2-1.7-0.6-2.2
			c-0.4-0.5-1-0.7-1.8-0.7c-0.7,0-1.3,0.2-1.7,0.7c-0.4,0.5-0.6,1.2-0.6,2.2v2.8c0,1,0.2,1.8,0.6,2.3c0.4,0.5,1,0.7,1.7,0.7
			c0.8,0,1.3-0.2,1.7-0.7c0.4-0.5,0.6-1.3,0.6-2.3V123.9z"/>
		<path class="st14" d="M160,130.4h-0.8l-4.5-8.4l0,0v8.4h-0.8v-10h0.8l4.5,8.4l0,0v-8.4h0.8V130.4z"/>
		<path class="st14" d="M166.7,127.6h-3.6l-0.9,2.8h-0.9l3.2-10h0.7l3.1,10h-0.9L166.7,127.6z M163.3,126.8h3.2l-1.6-5.1h0
			L163.3,126.8z"/>
		<path class="st14" d="M170.6,129.7h4v0.7h-4.9v-10h0.8V129.7z"/>
	</g>
</g>
</svg>
