<svg id="Capa_1" data-name="Capa 1" xmlns="http://www.w3.org/2000/svg" viewBox="0 0 31 31"><defs><style>.cls-1{fill:#83d1de;}</style></defs><path class="cls-1" d="M20.6,27.58H10.4a7,7,0,0,1-7-7V10.4a7,7,0,0,1,7-7H20.6a7,7,0,0,1,7,7V20.6A7,7,0,0,1,20.6,27.58ZM10.4,5.85A4.55,4.55,0,0,0,5.85,10.4V20.6a4.55,4.55,0,0,0,4.55,4.55H20.6a4.55,4.55,0,0,0,4.55-4.55V10.4A4.55,4.55,0,0,0,20.6,5.85Z"/><path class="cls-1" d="M15.5,21.61a6.11,6.11,0,1,1,6.11-6.11A6.12,6.12,0,0,1,15.5,21.61Zm0-10.19a4.08,4.08,0,1,0,4.08,4.08A4.08,4.08,0,0,0,15.5,11.42Z"/><circle class="cls-1" cx="21.73" cy="9.08" r="1.43"/></svg>