<svg id="Capa_1" data-name="Capa 1" xmlns="http://www.w3.org/2000/svg" xmlns:xlink="http://www.w3.org/1999/xlink" viewBox="0 0 223.99 222.22"><defs><style>.cls-1,.cls-11,.cls-13{fill:none;}.cls-2{clip-path:url(#clip-path);}.cls-3{fill:#216b8f;}.cls-4{fill:#003764;}.cls-5{opacity:0.14;}.cls-6{fill:#fff;}.cls-7{fill:#85d0db;opacity:0.64;}.cls-8{opacity:0.09;}.cls-9{fill:#eaf6f7;}.cls-10{fill:#254359;}.cls-11{stroke:#254359;stroke-width:4.51px;}.cls-11,.cls-13{stroke-miterlimit:10;}.cls-12{fill:#c6e4e8;}.cls-13{stroke:#224259;stroke-width:0.38px;}.cls-14{fill:#ee975a;}.cls-15{fill:#497596;}</style><clipPath id="clip-path"><rect class="cls-1" x="-0.21" width="223.99" height="222.3" rx="25.94"/></clipPath></defs><g class="cls-2"><rect class="cls-3" width="223.85" height="222.08"/><path class="cls-4" d="M26.56,46.67a.33.33,0,0,1-.41-.21L23.7,39.08a.33.33,0,1,1,.63-.21l2.44,7.38A.33.33,0,0,1,26.56,46.67Z"/><path class="cls-4" d="M24.88,39.19h0a5.4,5.4,0,0,1-.8.2l-.28,0-.08-.26c-1.88-5.66,2.11-7.47,3.38-7.89a4.58,4.58,0,0,1,.49-.13l.29-.06.09.28c.78,2.36.69,4.29-.27,5.75A5.33,5.33,0,0,1,24.88,39.19Zm-.63-.5.42-.12h0a4.7,4.7,0,0,0,2.48-1.8c.81-1.22.9-2.87.29-4.89l-.13,0C25.9,32.39,22.83,34,24.25,38.69Z"/><path class="cls-4" d="M25.06,41.9l-.29.1a5.33,5.33,0,0,1-4.38-.14A4.87,4.87,0,0,1,18.24,39l-.06-.3.28-.09a5.28,5.28,0,0,1,4.32.14A4.94,4.94,0,0,1,25,41.61ZM19,39.1a4.16,4.16,0,0,0,1.75,2.19,4.48,4.48,0,0,0,3.53.18,4.19,4.19,0,0,0-1.79-2.19A4.47,4.47,0,0,0,19,39.1Z"/><g class="cls-5"><path class="cls-6" d="M21.24,152.76a.46.46,0,0,1,0,.48l-1.49,2.37,2.36,1.5a.43.43,0,0,1,.14.62l-2.43,3.85a.45.45,0,0,1-.63.14l-2.36-1.5-1.5,2.37a.46.46,0,0,1-.29.2.42.42,0,0,1-.34-.06l-3.85-2.43a.47.47,0,0,1-.14-.63l1.5-2.37-2.37-1.49a.47.47,0,0,1-.14-.63l2.43-3.85a.47.47,0,0,1,.63-.14l2.37,1.5,1.5-2.37a.45.45,0,0,1,.28-.2.5.5,0,0,1,.34.06l3.85,2.44A.5.5,0,0,1,21.24,152.76Z"/></g><g class="cls-5"><path class="cls-6" d="M25.76,165.13l.11,0,10.31-3.49a.46.46,0,0,1,.58.29l1,2.83a.46.46,0,0,1-.29.58l-10.31,3.49a.41.41,0,0,1-.34,0,.42.42,0,0,1-.23-.26l-1-2.83A.47.47,0,0,1,25.76,165.13Z"/></g><path class="cls-6" d="M99.62,106.39v4.15h-.83v-10h3a2.6,2.6,0,0,1,2,.81,3,3,0,0,1,.72,2.12,3.08,3.08,0,0,1-.72,2.14,2.59,2.59,0,0,1-2,.8Zm0-.72h2.14a1.7,1.7,0,0,0,1.44-.63,2.45,2.45,0,0,0,.49-1.57,2.49,2.49,0,0,0-.49-1.59,1.7,1.7,0,0,0-1.44-.63H99.62Z"/><path class="cls-6" d="M111,105.7h-3.94v4.14h4.53v.7h-5.35v-10h5.3v.73h-4.48V105H111Z"/><path class="cls-6" d="M113.93,106v4.53h-.83v-10H116a2.49,2.49,0,0,1,2.78,2.77,2.63,2.63,0,0,1-.38,1.42,2.3,2.3,0,0,1-1.07.92,1.74,1.74,0,0,1,1.1.84,3.1,3.1,0,0,1,.33,1.51v.94a3.61,3.61,0,0,0,.09.84,1.4,1.4,0,0,0,.3.61v.16h-.84a1.37,1.37,0,0,1-.29-.69,4.64,4.64,0,0,1-.08-.94V108a2.17,2.17,0,0,0-.46-1.45,1.58,1.58,0,0,0-1.27-.54Zm0-.71h2a2,2,0,0,0,1.55-.54,2.09,2.09,0,0,0,.49-1.47,2.17,2.17,0,0,0-.48-1.51,1.9,1.9,0,0,0-1.47-.53h-2Z"/><path class="cls-6" d="M125.73,105.87h-4v4.67H121v-10h5.37v.73h-4.55v3.89h4Z"/><path class="cls-6" d="M128.78,110.54H128v-10h.83Z"/><path class="cls-6" d="M132,109.84h4v.7h-4.88v-10H132Z"/><path class="cls-6" d="M99.62,125.78v4.15h-.83v-10h3a2.6,2.6,0,0,1,2,.81,3.09,3.09,0,0,1,.72,2.13,3.05,3.05,0,0,1-.72,2.13,2.6,2.6,0,0,1-2,.81Zm0-.73h2.14a1.7,1.7,0,0,0,1.44-.63,2.45,2.45,0,0,0,.49-1.57,2.49,2.49,0,0,0-.49-1.59,1.7,1.7,0,0,0-1.44-.63H99.62Z"/><path class="cls-6" d="M107,125.39v4.54h-.83v-10h2.88a2.84,2.84,0,0,1,2.07.71,2.8,2.8,0,0,1,.71,2.06,2.6,2.6,0,0,1-.38,1.42,2.24,2.24,0,0,1-1.07.92,1.84,1.84,0,0,1,1.1.84,3.12,3.12,0,0,1,.33,1.51v.94a3.63,3.63,0,0,0,.09.85,1.36,1.36,0,0,0,.3.6v.17h-.84a1.46,1.46,0,0,1-.3-.69,5.69,5.69,0,0,1-.07-.94v-.92a2.14,2.14,0,0,0-.47-1.45,1.56,1.56,0,0,0-1.26-.54Zm0-.7H109a2,2,0,0,0,1.56-.54,2.14,2.14,0,0,0,.49-1.47,2.2,2.2,0,0,0-.48-1.52,1.9,1.9,0,0,0-1.47-.53h-2Z"/><path class="cls-6" d="M118.82,125.08h-3.94v4.15h4.52v.7h-5.35v-10h5.31v.73h-4.48v3.75h3.94Z"/><path class="cls-6" d="M123.34,128.19l.17.62h0l.17-.62,2.38-8.29H127l-3.09,10h-.75l-3.09-10H121Z"/><path class="cls-6" d="M134.16,126.33a4.11,4.11,0,0,1-.85,2.78,3,3,0,0,1-2.33,1,2.88,2.88,0,0,1-2.29-1,4.16,4.16,0,0,1-.83-2.78v-2.81a4.17,4.17,0,0,1,.83-2.79,2.82,2.82,0,0,1,2.28-1,2.93,2.93,0,0,1,2.33,1,4.1,4.1,0,0,1,.86,2.79Zm-.82-2.83a3.48,3.48,0,0,0-.62-2.24,2.12,2.12,0,0,0-1.75-.75,2,2,0,0,0-1.7.75,3.54,3.54,0,0,0-.59,2.24v2.83a3.56,3.56,0,0,0,.59,2.25,2,2,0,0,0,1.71.76,2.11,2.11,0,0,0,1.75-.76,3.55,3.55,0,0,0,.61-2.25Z"/><path class="cls-6" d="M141.48,127l0,0a3.12,3.12,0,0,1-.77,2.24,2.79,2.79,0,0,1-2.08.77,2.68,2.68,0,0,1-2.2-1,4.25,4.25,0,0,1-.81-2.78v-2.78a4.26,4.26,0,0,1,.81-2.78,2.71,2.71,0,0,1,2.2-1,2.8,2.8,0,0,1,2.09.76,3.1,3.1,0,0,1,.76,2.25l0,0h-.76a2.73,2.73,0,0,0-.55-1.76,2,2,0,0,0-1.52-.57,1.91,1.91,0,0,0-1.62.78,3.78,3.78,0,0,0-.57,2.25v2.8a3.82,3.82,0,0,0,.57,2.27,1.91,1.91,0,0,0,1.62.78,2,2,0,0,0,1.52-.56,2.76,2.76,0,0,0,.55-1.79Z"/><path class="cls-6" d="M147.79,127.15h-3.65l-.85,2.78h-.86l3.18-10h.75l3.14,10h-.86Zm-3.42-.76h3.2L146,121.23h0Z"/><path class="cls-6" d="M156.26,127l0,0a3.12,3.12,0,0,1-.77,2.24,2.79,2.79,0,0,1-2.08.77,2.68,2.68,0,0,1-2.2-1,4.25,4.25,0,0,1-.81-2.78v-2.78a4.26,4.26,0,0,1,.81-2.78,2.71,2.71,0,0,1,2.2-1,2.8,2.8,0,0,1,2.09.76,3.1,3.1,0,0,1,.76,2.25l0,0h-.76a2.73,2.73,0,0,0-.55-1.76,2,2,0,0,0-1.52-.57,1.91,1.91,0,0,0-1.62.78,3.78,3.78,0,0,0-.57,2.25v2.8a3.82,3.82,0,0,0,.57,2.27,1.91,1.91,0,0,0,1.62.78,2,2,0,0,0,1.52-.56,2.76,2.76,0,0,0,.55-1.79Z"/><path class="cls-6" d="M159.05,129.93h-.83v-10h.83Z"/><path class="cls-6" d="M167.32,126.33a4.11,4.11,0,0,1-.85,2.78,3,3,0,0,1-2.33,1,2.85,2.85,0,0,1-2.28-1,4.1,4.1,0,0,1-.83-2.78v-2.81a4.17,4.17,0,0,1,.82-2.79,2.82,2.82,0,0,1,2.28-1,2.91,2.91,0,0,1,2.33,1,4.1,4.1,0,0,1,.86,2.79Zm-.82-2.83a3.54,3.54,0,0,0-.61-2.24,2.15,2.15,0,0,0-1.76-.75,2,2,0,0,0-1.7.75,3.61,3.61,0,0,0-.59,2.24v2.83a3.62,3.62,0,0,0,.59,2.25,2,2,0,0,0,1.71.76,2.11,2.11,0,0,0,1.75-.76,3.49,3.49,0,0,0,.61-2.25Z"/><path class="cls-6" d="M175.35,129.93h-.83L170,121.54h0v8.39h-.83v-10H170l4.48,8.4h0V119.9h.83Z"/><path class="cls-6" d="M182.2,127.15h-3.65l-.86,2.78h-.85l3.17-10h.75l3.14,10h-.85Zm-3.42-.76H182l-1.57-5.16h0Z"/><path class="cls-6" d="M186.11,129.23h4v.7h-4.88v-10h.84Z"/><path class="cls-7" d="M89.18,68.25l-1.46-6.66a10.76,10.76,0,0,0,2.36-1A1.94,1.94,0,0,0,91,59.46,1.86,1.86,0,0,0,90.78,58a1.93,1.93,0,0,0-2.59-.71,6.21,6.21,0,0,1-1.29.56l-.8-3.61a2.94,2.94,0,0,0,1.68-1.93,3,3,0,0,0-1.71-3.54l.25-.93.31.09a.42.42,0,0,0,.51-.29l.58-2.15a.42.42,0,0,0-.29-.51L86,44.61a.42.42,0,0,0-.51.29l-.58,2.15a.42.42,0,0,0,.29.51l.33.09-.26.93a3,3,0,0,0-2.8,4.7L80,56a7.5,7.5,0,0,1-.82-1.13,1.93,1.93,0,0,0-2.59-.71,1.87,1.87,0,0,0-.89,1.15,1.9,1.9,0,0,0,.18,1.44,10.51,10.51,0,0,0,1.54,2l-4.66,5a.42.42,0,0,0,0,.58.41.41,0,0,0,.58,0l4.65-5a10.34,10.34,0,0,0,4.19,2.27,10.22,10.22,0,0,0,4.76.17l1.47,6.65a.4.4,0,0,0,.29.31.34.34,0,0,0,.2,0A.41.41,0,0,0,89.18,68.25Zm1-9a1,1,0,0,1-.5.65,9.62,9.62,0,0,1-13.12-3.57,1.07,1.07,0,0,1,1.86-1.07A7.49,7.49,0,0,0,88.61,58a1.07,1.07,0,0,1,.81-.1,1.1,1.1,0,0,1,.65.5A1,1,0,0,1,90.17,59.24ZM85.31,54.5l.79,3.57A6.4,6.4,0,0,1,83.15,58a6.6,6.6,0,0,1-2.61-1.39L83,53.88A3,3,0,0,0,85.31,54.5ZM82.8,51a2.17,2.17,0,1,1,1.53,2.66A2.16,2.16,0,0,1,82.8,51Zm4-5.29L86.45,47l-.64-.17.37-1.36Z"/><g class="cls-8"><path class="cls-6" d="M33.39,64.6c-2.85,0-5.15-6-5.17-6.11a5.41,5.41,0,0,1,.18-2.86,5.82,5.82,0,0,0,.26-2,9.15,9.15,0,0,0-2.07.63,9,9,0,0,1-2.87.79,1.45,1.45,0,0,1-1.57-1.35c-.23-2.55,1-7.88,2.62-9.84a2.17,2.17,0,0,1,1.76-.73,9.49,9.49,0,0,1,3.47,1,4.2,4.2,0,0,1,1.83,1.78c.39.59.64.93,1.08,1.07a.66.66,0,0,0,.22,0,7.83,7.83,0,0,0,1.43-.22,8.18,8.18,0,0,1,4.25,0,3.12,3.12,0,0,1,1.53,2.08c.61,1.73,1.07,5,.3,6.3A5.32,5.32,0,0,1,38,56.93a4.84,4.84,0,0,0-1.86,1.16,4.59,4.59,0,0,0-.16,2c.06,1.61.15,4-2.21,4.48a1.55,1.55,0,0,1-.37,0"/><path class="cls-6" d="M55.08,63.73a1.75,1.75,0,0,1-1.14-.43c-1.09-.87-.95-2.38-.81-3.85.15-1.63.19-2.74-.6-3.22a4,4,0,0,0-2-.67A4.19,4.19,0,0,0,48,56.62a3.31,3.31,0,0,1-1.85.84,1.72,1.72,0,0,1-1.31-.65c-1.42-1.65-.16-3.52.85-5a6.45,6.45,0,0,0,1.42-3,12,12,0,0,0-.54-2.48c-.63-2.26-1.27-4.59.13-5.64a2.82,2.82,0,0,1,1.7-.56c1.72,0,3.35,1.53,4.23,2.36.32.29.71.73,1.17,1.24.92,1,2.82,3.13,3.63,3.15h0c1.81,0,2.42-2.43,2.43-2.46l.2-.81.81.23c.64.19,2.75,1.42,2.76,9.39,0,6.17-2,9.05-2,9.17l-.35.5-.57-.2a10.38,10.38,0,0,0-2.48-.59.44.44,0,0,0-.15,0,4.06,4.06,0,0,0-1.12.72,3.11,3.11,0,0,1-1.88.92"/><path class="cls-6" d="M43,33.65a19.34,19.34,0,0,0,0,38.67v.8l0-.8c12.7,0,19.33-9.75,19.31-19.36A19.36,19.36,0,0,0,43,33.65m0,40.28A20.94,20.94,0,0,1,28.18,38.2,20.76,20.76,0,0,1,43,32.05,21,21,0,0,1,63.94,53,20.47,20.47,0,0,1,43,73.93Z"/></g><path class="cls-9" d="M3.51,75.93c-14.8,11.75-20.07,33.4-14,51,13.82,39.87,79.06,33.41,93.18-2.57,7.16-18.23,1.52-40.87-15.08-52.09-13.11-8.85-30.4-10.13-45.58-5.68A54.28,54.28,0,0,0,3.51,75.93Z"/><line class="cls-1" x1="29.49" y1="124.53" x2="28.4" y2="128.4"/><line class="cls-1" x1="39.96" y1="87.2" x2="39.02" y2="90.55"/><line class="cls-1" x1="17.45" y1="103.11" x2="13.58" y2="102.02"/><line class="cls-1" x1="54.78" y1="113.58" x2="51.43" y2="112.64"/><circle class="cls-10" cx="31.3" cy="110.16" r="33.38"/><circle class="cls-11" cx="14.43" cy="75.71" r="6.36"/><circle class="cls-12" cx="31.3" cy="110.16" r="26.61"/><line class="cls-13" x1="15.66" y1="118.95" x2="12.04" y2="120.99"/><line class="cls-13" x1="50.57" y1="99.34" x2="47.44" y2="101.1"/><line class="cls-13" x1="22.51" y1="94.52" x2="20.48" y2="90.9"/><line class="cls-13" x1="42.13" y1="129.43" x2="40.37" y2="126.3"/><polygon class="cls-14" points="33.38 111.29 29.21 109.07 41.95 90.11 33.38 111.29"/><polyline class="cls-15" points="33.4 111.26 20.66 130.22 29.23 109.04"/><circle class="cls-4" cx="70.28" cy="147.37" r="8.05"/><path class="cls-6" d="M70.86,151.91H69.42l-.23-.82a7,7,0,0,1-1.13-.48l-.77.42-1-1,.41-.75a3.81,3.81,0,0,1-.47-1.14l-.82-.24v-1.44l.81-.24a4.15,4.15,0,0,1,.47-1.15l-.4-.75,1-1,.74.4a3.8,3.8,0,0,1,1.16-.48l.24-.81h1.43l.24.8a3.84,3.84,0,0,1,1.16.48l.74-.39,1,1-.4.73a3.78,3.78,0,0,1,.47,1.16l.81.24v1.44l-.81.24a3.83,3.83,0,0,1-.48,1.14L74,150l-1,1-.75-.41a3.77,3.77,0,0,1-1.14.47Zm-1-.6h.53l.22-.74.18,0a3.53,3.53,0,0,0,1.25-.52l.16-.1.67.36.38-.38-.37-.67.11-.15a3.34,3.34,0,0,0,.52-1.26l0-.18.72-.21v-.54l-.72-.21,0-.18a3.51,3.51,0,0,0-.53-1.28l-.1-.15.36-.66-.38-.37-.66.35-.15-.1a3.4,3.4,0,0,0-1.27-.53l-.18,0-.22-.72h-.53l-.22.72-.18,0a3.54,3.54,0,0,0-1.27.53l-.15.1L67.4,144l-.38.37.36.67-.1.15a3.4,3.4,0,0,0-.52,1.26l0,.18-.73.22v.54l.73.21,0,.18a3.5,3.5,0,0,0,.52,1.26l.11.15-.37.67.38.38.66-.35.14.07a6.5,6.5,0,0,0,1.29.54l.18,0Zm.27-1.87a2.29,2.29,0,0,1,0-4.58h0a2.29,2.29,0,0,1,0,4.58Zm0-4.28v.31a1.68,1.68,0,1,0,1.68,1.68,1.68,1.68,0,0,0-1.68-1.68Z"/></g></svg>