<?xml version="1.0" encoding="utf-8"?>
<!-- Generator: Adobe Illustrator 26.1.0, SVG Export Plug-In . SVG Version: 6.00 Build 0)  -->
<svg version="1.1" id="Capa_1" xmlns="http://www.w3.org/2000/svg" xmlns:xlink="http://www.w3.org/1999/xlink" x="0px" y="0px"
	 viewBox="0 0 240 74" style="enable-background:new 0 0 240 74;" xml:space="preserve">
<style type="text/css">
	.st0{fill:#FFFFFF;stroke:#666A69;stroke-width:0.75;}
	.st1{fill-rule:evenodd;clip-rule:evenodd;fill:#FFFFFF;}
	.st2{filter:url(#Adobe_OpacityMaskFilter);}
	.st3{mask:url(#b_00000014608725291926852990000005355977382846900901_);fill-rule:evenodd;clip-rule:evenodd;fill:#FFFFFF;}
	.st4{filter:url(#Adobe_OpacityMaskFilter_00000168818248071299298880000000355039568844261766_);}
	.st5{mask:url(#b_00000007424532671067826890000000668467420209159829_);fill-rule:evenodd;clip-rule:evenodd;fill:#FFFFFF;}
</style>
<path class="st0" d="M0.3,60.5h239.1H0.3z"/>
<path class="st1" d="M1.4,40.3c0,4.9,2.8,14.1,14.5,14.1h14.2l0-23.6h-6.3c0,5.3,0,17.6,0,17.6h-7.4c-4.9,0-7.6-2.3-8.4-5.7
	c-0.3-1.2-0.4-2.1-0.4-5.1l0-13H1.4C1.4,24.5,1.4,40.3,1.4,40.3z M79.2,48.3H62.1L62,48V31.1C68.8,31.1,77.6,35.8,79.2,48.3
	L79.2,48.3z M55.8,48.3H38.6V31.1C45.3,31.1,54.2,35.8,55.8,48.3z M85.9,54c0-14.1-6.2-30.5-30.1-29.4v8.3
	c-4.6-5.3-11.9-8.9-23.4-8.3v29.7l29.7,0l0,0l23.4,0l0.3-0.1L85.9,54z"/>
<path class="st1" d="M95.9,26.5h5.5l5.6,21.5h0.1l5.8-21.5h5.2l-8.5,27.9h-5.4L95.9,26.5z M133.4,53.3c-1,0.4-3.2,1.3-6.1,1.3
	c-6.6,0-9.4-4.8-9.4-10.3c0-6.1,3.2-10.9,8.4-10.9c4.4,0,8.2,2.6,8.2,11v1h-11.8c0,3.5,1.4,5.6,5.2,5.6c3,0,4.4-0.9,5.4-1.6
	L133.4,53.3L133.4,53.3z M129.7,42.3c0-3.6-1.2-5.5-3.4-5.5c-2.6,0-3.7,2.8-3.7,5.5H129.7z M138.3,37.2c0-1.3,0-2.5-0.2-3.4h4.6
	c0,1,0.2,2.1,0.2,3.2h0.1c0.7-1.2,2.1-3.5,5.4-3.5c4.6,0,6,3.5,6,7.6v13.3h-4.9V42c0-3.2-0.8-4.5-2.8-4.5c-2.6,0-3.5,2.2-3.5,4.8v12
	h-4.9L138.3,37.2L138.3,37.2z M160.7,29.5l4.9-1.5v5.8h4.1v3.6h-4.1v10.7c0,2.2,0.8,2.8,2.2,2.8c0.9,0,1.5-0.2,1.9-0.4V54
	c-0.8,0.4-1.8,0.7-3.3,0.7c-3.7,0-5.7-1.7-5.7-6V37.4h-3.3v-3.6h3.3L160.7,29.5L160.7,29.5z M189,50.9c0,1.3,0,2.5,0.2,3.4h-4.6
	c0-1-0.2-2.1-0.2-3.2l-0.1,0l0,0c-1,1.5-2.2,3.5-5.4,3.5c-4.6,0-6-3.5-6-7.6V33.8h4.9v12.3c0,3.2,0.9,4.5,2.9,4.5
	c2.6,0,3.4-2.4,3.4-5V33.8h4.9V50.9z M193.6,37.1c0-1.3,0-2.5-0.2-3.4h4.4c0,1.2,0.2,2.5,0.2,3.8h0.1c0.6-1.6,2.1-4.1,5.2-4.1
	c0.3,0,0.6,0.1,0.8,0.1v4.6c-0.5-0.1-0.9-0.2-1.4-0.2c-2,0-4.2,1.2-4.2,5.1v11.3h-4.9C193.6,54.3,193.6,37.2,193.6,37.1z M222,53.3
	c-1,0.4-3.2,1.3-6.1,1.3c-6.6,0-9.4-4.8-9.4-10.3c0-6.1,3.2-10.9,8.4-10.9c4.4,0,8.2,2.6,8.2,11v1h-11.8c0,3.5,1.4,5.6,5.2,5.6
	c3,0,4.4-0.9,5.4-1.6L222,53.3L222,53.3z M218.2,42.3c0-3.6-1.2-5.5-3.4-5.5c-2.6,0-3.7,2.8-3.7,5.5H218.2z M226.3,49.5
	c0.8,0.3,2.8,1.4,5.1,1.4c1.8,0,3.2-0.4,3.2-2c0-0.8-0.4-1.6-2.2-2.6l-2-1.2c-2.1-1.2-4.3-2.6-4.3-5.8c0-2.8,2.7-5.8,7.1-5.8
	c2.6,0,4.6,0.7,5.1,0.8l-0.3,3.8c-1.2-0.5-2.5-0.9-4.3-0.9c-2,0-2.8,0.8-2.8,2c0,1.1,0.9,1.7,2.3,2.6l2.4,1.6
	c2.5,1.6,3.8,2.8,3.8,5.2c0,3.8-3.2,6.1-7.6,6.1c-2.5,0-4.6-0.6-5.7-1C226,53.6,226.3,49.5,226.3,49.5z"/>
<path class="st1" d="M191.2,69.8l-0.7-2.3c-0.2-0.5-0.3-1-0.4-1.5h0c-0.1,0.5-0.2,1-0.4,1.5l-0.7,2.4H191.2z M188.9,70.6l-0.7,2.6
	h-1l2.4-8.1h1.1l2.4,8.1h-1l-0.8-2.6H188.9z M197.7,73c-0.2,0.1-0.8,0.3-1.5,0.3c-1.6,0-2.6-1.2-2.6-3c0-1.8,1.1-3.1,2.8-3.1
	c0.6,0,1,0.2,1.3,0.3l-0.2,0.8c-0.2-0.1-0.6-0.3-1.1-0.3c-1.2,0-1.8,1-1.8,2.2c0,1.4,0.8,2.2,1.8,2.2c0.5,0,0.9-0.2,1.1-0.3
	L197.7,73L197.7,73z M202,69.7c0-0.7-0.2-1.7-1.3-1.7c-0.9,0-1.4,1-1.4,1.7H202z M199.3,70.5c0,1.4,0.8,2,1.8,2
	c0.7,0,1.1-0.1,1.4-0.3l0.2,0.8c-0.3,0.2-0.9,0.4-1.7,0.4c-1.6,0-2.5-1.2-2.5-2.9c0-1.8,0.9-3.1,2.4-3.1c1.7,0,2.1,1.7,2.1,2.7
	c0,0.2,0,0.4,0,0.5L199.3,70.5L199.3,70.5z"/>
<defs>
	<filter id="Adobe_OpacityMaskFilter" filterUnits="userSpaceOnUse" x="204.1" y="64.6" width="35.4" height="8.7">
		<feColorMatrix  type="matrix" values="1 0 0 0 0  0 1 0 0 0  0 0 1 0 0  0 0 0 1 0"/>
	</filter>
</defs>
<mask maskUnits="userSpaceOnUse" x="204.1" y="64.6" width="35.4" height="8.7" id="b_00000014608725291926852990000005355977382846900901_">
	<g class="st2">
		<path id="a_00000039852900215121795850000005629475539411224762_" class="st1" d="M0,73.3h239.5V0H0V73.3z"/>
	</g>
</mask>
<path class="st3" d="M204.1,73.2h0.9v-8.6h-0.9V73.2z M209.9,69.7c0-0.7-0.2-1.7-1.3-1.7c-0.9,0-1.4,1-1.4,1.7H209.9L209.9,69.7z
	 M207.1,70.5c0,1.4,0.8,2,1.8,2c0.7,0,1.1-0.1,1.4-0.3l0.2,0.8c-0.3,0.2-0.9,0.4-1.7,0.4c-1.6,0-2.5-1.2-2.5-2.9
	c0-1.8,0.9-3.1,2.4-3.1c1.7,0,2.1,1.7,2.1,2.7c0,0.2,0,0.4,0,0.5L207.1,70.5L207.1,70.5z M211.9,69.2c0-0.7,0-1.3,0-1.8h0.8l0,1.1h0
	c0.2-0.8,0.8-1.3,1.4-1.3c0.1,0,0.2,0,0.3,0v1c-0.1,0-0.2,0-0.3,0c-0.7,0-1.1,0.6-1.3,1.4c0,0.1,0,0.3,0,0.5v3.1h-0.9L211.9,69.2
	L211.9,69.2z M218.1,70.2c-1,0-2.2,0.2-2.2,1.3c0,0.7,0.4,1,0.9,1c0.7,0,1.1-0.5,1.2-1c0-0.1,0.1-0.2,0.1-0.3L218.1,70.2L218.1,70.2
	z M218.2,73.2l-0.1-0.7h0c-0.3,0.5-0.8,0.9-1.6,0.9c-1,0-1.6-0.8-1.6-1.7c0-1.4,1.1-2.2,3.1-2.2v-0.1c0-0.5-0.1-1.3-1.2-1.3
	c-0.5,0-1,0.2-1.3,0.4l-0.2-0.7c0.4-0.3,1-0.5,1.7-0.5c1.6,0,2,1.2,2,2.4v2.2c0,0.5,0,1,0.1,1.4L218.2,73.2L218.2,73.2z M224,69.7
	c0-0.1,0-0.3,0-0.4c-0.1-0.7-0.6-1.2-1.3-1.2c-1,0-1.5,1-1.5,2.3c0,1.2,0.5,2.2,1.5,2.2c0.6,0,1.2-0.5,1.4-1.3c0-0.2,0-0.3,0-0.5
	L224,69.7L224,69.7z M224.9,64.6v7.1c0,0.5,0,1.1,0,1.5h-0.8l0-1h0c-0.3,0.7-1,1.2-1.8,1.1c-1.2,0-2.2-1.2-2.2-3
	c0-1.9,1.1-3.1,2.3-3.1c0.8,0,1.3,0.4,1.6,0.9h0v-3.5L224.9,64.6L224.9,64.6z M227.1,70.3c0,1.3,0.6,2.2,1.6,2.2
	c0.9,0,1.6-1,1.6-2.3c0-1-0.4-2.2-1.5-2.2C227.5,68,227.1,69.2,227.1,70.3 M231.1,70.2c0,2.2-1.3,3.1-2.6,3.1c-1.4,0-2.5-1.2-2.5-3
	c0-2,1.1-3.1,2.6-3.1C230.1,67.2,231.1,68.4,231.1,70.2 M232.3,69.2c0-0.7,0-1.3,0-1.8h0.8l0,1.1h0c0.2-0.8,0.8-1.3,1.4-1.3
	c0.1,0,0.2,0,0.3,0v1c-0.1,0-0.2,0-0.3,0c-0.7,0-1.1,0.6-1.3,1.4c0,0.2,0,0.3,0,0.5v3.1h-0.9L232.3,69.2L232.3,69.2z M238.5,70.2
	c-1,0-2.2,0.2-2.2,1.3c0,0.7,0.4,1,0.9,1c0.7,0,1.1-0.5,1.2-1c0-0.1,0.1-0.2,0.1-0.3C238.5,71.2,238.5,70.2,238.5,70.2z M238.6,73.2
	l-0.1-0.7h0c-0.3,0.5-0.8,0.9-1.6,0.9c-1,0-1.6-0.8-1.6-1.7c0-1.4,1.1-2.2,3.1-2.2v-0.1c0-0.5-0.1-1.3-1.2-1.3c-0.5,0-1,0.2-1.3,0.4
	l-0.2-0.7c0.4-0.3,1-0.5,1.7-0.5c1.6,0,2,1.2,2,2.4v2.2c0,0.5,0,1,0.1,1.4L238.6,73.2L238.6,73.2z"/>
<defs>
	
		<filter id="Adobe_OpacityMaskFilter_00000116229180373170643810000003261803754491291554_" filterUnits="userSpaceOnUse" x="1.1" y="-1.5" width="146" height="11.7">
		<feColorMatrix  type="matrix" values="1 0 0 0 0  0 1 0 0 0  0 0 1 0 0  0 0 0 1 0"/>
	</filter>
</defs>
<mask maskUnits="userSpaceOnUse" x="1.1" y="-1.5" width="146" height="11.7" id="b_00000007424532671067826890000000668467420209159829_">
	<g style="filter:url(#Adobe_OpacityMaskFilter_00000116229180373170643810000003261803754491291554_);">
		<path id="a_00000057845001765407330020000012599459741810773904_" class="st1" d="M0,73.3h239.5V0H0V73.3z"/>
	</g>
</mask>
<path class="st5" d="M1.1,7.9v-8.7h2.4c1.1,0,1.8,0.2,2.3,0.5C6.2,0,6.5,0.6,6.5,1.4c0,0.9-0.3,1.7-0.9,2.2C4.9,4.1,4,4.4,2.9,4.4
	H2.4v3.5H1.1L1.1,7.9z M2.4,3.4h0.5c0.7,0,1.3-0.2,1.7-0.5C5,2.6,5.2,2.1,5.2,1.5C5.2,1,5,0.6,4.7,0.4C4.4,0.2,3.9,0,3.1,0H2.4
	C2.4,0,2.4,3.4,2.4,3.4z M7.7,7.9V1.4h1.2v1.2c0.5-0.9,1.1-1.3,2-1.3c0.1,0,0.2,0,0.4,0v1.1c-0.2-0.1-0.4-0.1-0.5-0.1
	c-0.7,0-1.4,0.4-1.8,1.3v4.2H7.7z M15,8c-0.9,0-1.6-0.3-2.2-0.9C12.2,6.5,12,5.7,12,4.6c0-1,0.3-1.8,0.8-2.4s1.3-0.9,2.2-0.9
	c0.9,0,1.7,0.3,2.2,0.9s0.8,1.4,0.8,2.4c0,1-0.3,1.9-0.8,2.5C16.7,7.7,16,8,15,8z M15,7.1c1.2,0,1.8-0.8,1.8-2.5
	c0-1.6-0.6-2.5-1.8-2.5c-1.2,0-1.8,0.8-1.8,2.5C13.2,6.3,13.8,7.1,15,7.1L15,7.1z M20.2,10.2l1-2.3l-2.5-6.4H20l1.8,4.8l2-4.8h1.1
	l-3.5,8.7H20.2z M30.7,7.6c-0.8,0.2-1.4,0.4-2,0.4c-0.9,0-1.7-0.3-2.3-0.9c-0.6-0.6-0.9-1.4-0.9-2.4c0-1,0.3-1.8,0.8-2.4
	c0.5-0.6,1.2-0.9,2-0.9c0.8,0,1.4,0.3,1.8,0.8c0.4,0.5,0.6,1.3,0.6,2.3l0,0.4h-4c0.2,1.5,0.9,2.3,2.2,2.3c0.5,0,1.1-0.1,1.8-0.4V7.6
	z M26.7,4h2.8c0-1.2-0.4-1.8-1.3-1.8C27.3,2.2,26.9,2.8,26.7,4z M35.3,8c-0.9,0-1.6-0.3-2.2-1c-0.6-0.6-0.9-1.4-0.9-2.4
	c0-1,0.3-1.9,0.8-2.4c0.6-0.6,1.4-0.9,2.4-0.9c0.5,0,1.1,0.1,1.7,0.2v1c-0.7-0.2-1.2-0.3-1.6-0.3c-0.6,0-1.1,0.2-1.4,0.7
	c-0.4,0.4-0.5,1-0.5,1.8c0,0.7,0.2,1.3,0.6,1.7c0.4,0.4,0.9,0.7,1.5,0.7c0.5,0,1.1-0.1,1.6-0.4v1C36.5,7.9,35.8,8,35.3,8z M41,8
	c-0.6,0-1.1-0.2-1.4-0.5c-0.3-0.3-0.5-0.8-0.5-1.4V2.3h-0.8V1.4h0.8V0.3l1.2-0.1v1.3H42v0.9h-1.7v3.6c0,0.8,0.4,1.3,1.1,1.3
	c0.2,0,0.3,0,0.6-0.1v0.8C41.7,7.9,41.3,8,41,8L41,8z M46.1,8c-0.9,0-1.7-0.3-2.2-0.9C43.3,6.5,43,5.7,43,4.6c0-1,0.3-1.8,0.8-2.4
	c0.5-0.6,1.3-0.9,2.2-0.9c0.9,0,1.7,0.3,2.2,0.9c0.5,0.6,0.8,1.4,0.8,2.4c0,1-0.3,1.9-0.8,2.5C47.8,7.7,47,8,46.1,8z M46.1,7.1
	c1.2,0,1.8-0.8,1.8-2.5c0-1.6-0.6-2.5-1.8-2.5c-1.2,0-1.8,0.8-1.8,2.5C44.3,6.3,44.9,7.1,46.1,7.1L46.1,7.1z M54.8,10.2V1.4H56v1.2
	c0.5-0.9,1.2-1.3,2.1-1.3c0.8,0,1.4,0.3,1.8,0.8c0.4,0.6,0.7,1.3,0.7,2.3c0,1.1-0.2,1.9-0.8,2.6c-0.5,0.7-1.2,1-2,1
	c-0.8,0-1.4-0.3-1.9-0.9v3.1C56,10.2,54.8,10.2,54.8,10.2z M56,6.3c0.6,0.5,1.2,0.8,1.7,0.8c1.1,0,1.7-0.9,1.7-2.6
	c0-1.5-0.5-2.3-1.5-2.3c-0.7,0-1.3,0.4-1.9,1.1L56,6.3L56,6.3z M65.7,7c-0.7,0.6-1.4,1-2,1c-0.5,0-1-0.2-1.3-0.5s-0.5-0.8-0.5-1.3
	c0-0.7,0.3-1.2,0.9-1.6c0.6-0.4,1.4-0.6,2.5-0.6h0.3V3.3c0-0.7-0.4-1.1-1.1-1.1c-0.6,0-1.3,0.2-2,0.6v-1c0.8-0.3,1.5-0.5,2.2-0.5
	c0.7,0,1.2,0.2,1.6,0.5c0.3,0.3,0.5,0.8,0.5,1.5v2.9c0,0.7,0.2,1,0.6,1c0.1,0,0.1,0,0.2,0l0.1,0.6C67.4,7.9,67.1,8,66.8,8
	C66.2,8,65.9,7.7,65.7,7L65.7,7z M65.5,6.4V4.7l-0.4,0c-0.6,0-1.2,0.1-1.5,0.4S63,5.7,63,6.1c0,0.3,0.1,0.5,0.3,0.7
	C63.5,7,63.8,7.1,64,7.1C64.5,7.1,65,6.8,65.5,6.4z M71,8c-0.6,0-1.1-0.2-1.4-0.5c-0.3-0.3-0.5-0.8-0.5-1.4V2.3h-0.8V1.4h0.8V0.3
	l1.2-0.1v1.3h1.7v0.9h-1.7v3.6c0,0.8,0.4,1.3,1.1,1.3c0.2,0,0.3,0,0.6-0.1v0.8C71.6,7.9,71.3,8,71,8L71,8z M73.6,7.9V1.4h1.2v1.2
	c0.5-0.9,1.1-1.3,2-1.3c0.1,0,0.2,0,0.4,0v1.1c-0.2-0.1-0.4-0.1-0.5-0.1c-0.7,0-1.4,0.4-1.8,1.3v4.2C74.7,7.9,73.6,7.9,73.6,7.9z
	 M80.9,8c-0.9,0-1.7-0.3-2.2-0.9c-0.5-0.6-0.8-1.4-0.8-2.4c0-1,0.3-1.8,0.8-2.4c0.5-0.6,1.3-0.9,2.2-0.9c0.9,0,1.7,0.3,2.2,0.9
	S84,3.6,84,4.6c0,1-0.3,1.9-0.8,2.5C82.6,7.7,81.9,8,80.9,8L80.9,8z M80.9,7.1c1.2,0,1.8-0.8,1.8-2.5c0-1.6-0.6-2.5-1.8-2.5
	c-1.2,0-1.8,0.8-1.8,2.5C79.1,6.3,79.7,7.1,80.9,7.1L80.9,7.1z M88.3,8c-0.9,0-1.6-0.3-2.2-1s-0.9-1.4-0.9-2.4c0-1,0.3-1.9,0.8-2.4
	c0.6-0.6,1.4-0.9,2.4-0.9c0.5,0,1.1,0.1,1.7,0.2v1c-0.7-0.2-1.2-0.3-1.6-0.3c-0.6,0-1.1,0.2-1.4,0.7c-0.4,0.4-0.5,1-0.5,1.8
	c0,0.7,0.2,1.3,0.6,1.7c0.4,0.4,0.9,0.7,1.5,0.7c0.5,0,1.1-0.1,1.6-0.4v1C89.5,7.9,88.9,8,88.3,8z M92,7.9V1.4h1.2v6.4L92,7.9
	L92,7.9z M92,0.3v-1.2h1.2v1.2L92,0.3L92,0.3z M95.5,7.9V1.4h1.2v1.2c0.6-0.9,1.4-1.3,2.3-1.3c0.6,0,1,0.2,1.3,0.5
	c0.3,0.4,0.5,0.8,0.5,1.4v4.6h-1.2V3.6c0-0.5-0.1-0.8-0.2-1S99,2.3,98.7,2.3c-0.7,0-1.4,0.5-2,1.4v4.2H95.5z M106.3,7
	c-0.7,0.6-1.4,1-2,1c-0.5,0-1-0.2-1.3-0.5c-0.3-0.3-0.5-0.8-0.5-1.3c0-0.7,0.3-1.2,0.9-1.6c0.6-0.4,1.4-0.6,2.5-0.6h0.3V3.3
	c0-0.7-0.4-1.1-1.1-1.1c-0.6,0-1.3,0.2-2,0.6v-1c0.8-0.3,1.5-0.5,2.2-0.5c0.7,0,1.2,0.2,1.6,0.5c0.3,0.3,0.5,0.8,0.5,1.5v2.9
	c0,0.7,0.2,1,0.6,1c0.1,0,0.1,0,0.2,0l0.1,0.6C108,7.9,107.7,8,107.4,8C106.8,8,106.5,7.7,106.3,7L106.3,7z M106.1,6.4V4.7l-0.4,0
	c-0.6,0-1.2,0.1-1.5,0.4c-0.4,0.2-0.6,0.6-0.6,1c0,0.3,0.1,0.5,0.3,0.7c0.2,0.2,0.5,0.3,0.7,0.3C105.1,7.1,105.6,6.8,106.1,6.4z
	 M113.8,7.9V6.6c-0.5,0.9-1.2,1.4-2.1,1.4c-0.8,0-1.4-0.3-1.8-0.8c-0.4-0.6-0.7-1.3-0.7-2.3c0-1.1,0.3-1.9,0.8-2.6
	c0.5-0.6,1.2-1,2-1c0.8,0,1.4,0.3,1.9,0.9v-3.6h1.2v9.3L113.8,7.9L113.8,7.9z M113.8,3c-0.6-0.5-1.2-0.8-1.7-0.8
	c-1.1,0-1.7,0.9-1.7,2.6c0,1.5,0.5,2.2,1.5,2.2c0.6,0,1.3-0.4,1.9-1.1C113.8,5.9,113.8,3,113.8,3z M119.8,8c-0.9,0-1.7-0.3-2.2-0.9
	s-0.8-1.4-0.8-2.4c0-1,0.3-1.8,0.8-2.4c0.6-0.6,1.3-0.9,2.2-0.9c0.9,0,1.7,0.3,2.2,0.9c0.6,0.6,0.8,1.4,0.8,2.4c0,1-0.3,1.9-0.8,2.5
	C121.5,7.7,120.8,8,119.8,8z M119.8,7.1c1.2,0,1.8-0.8,1.8-2.5c0-1.6-0.6-2.5-1.8-2.5c-1.2,0-1.8,0.8-1.8,2.5
	C118,6.3,118.6,7.1,119.8,7.1L119.8,7.1z M128.5,10.2V1.4h1.2v1.2c0.5-0.9,1.2-1.3,2.1-1.3c0.8,0,1.4,0.3,1.8,0.8
	c0.4,0.6,0.7,1.3,0.7,2.3c0,1.1-0.2,1.9-0.8,2.6c-0.5,0.7-1.2,1-2,1c-0.8,0-1.4-0.3-1.9-0.9v3.1H128.5z M129.7,6.3
	c0.6,0.5,1.2,0.8,1.7,0.8c1.1,0,1.7-0.9,1.7-2.6c0-1.5-0.5-2.3-1.5-2.3c-0.6,0-1.3,0.4-1.9,1.1V6.3L129.7,6.3z M138.7,8
	c-0.9,0-1.6-0.3-2.2-0.9c-0.5-0.6-0.8-1.4-0.8-2.4c0-1,0.3-1.8,0.8-2.4c0.6-0.6,1.3-0.9,2.2-0.9c0.9,0,1.7,0.3,2.2,0.9
	c0.6,0.6,0.8,1.4,0.8,2.4c0,1-0.3,1.9-0.8,2.5C140.4,7.7,139.6,8,138.7,8L138.7,8z M138.7,7.1c1.2,0,1.8-0.8,1.8-2.5
	c0-1.6-0.6-2.5-1.8-2.5c-1.2,0-1.8,0.8-1.8,2.5C136.9,6.3,137.5,7.1,138.7,7.1L138.7,7.1z M143.6,7.9V1.4h1.2v1.2
	c0.5-0.9,1.1-1.3,2-1.3c0.1,0,0.2,0,0.4,0v1.1c-0.2-0.1-0.3-0.1-0.5-0.1c-0.7,0-1.4,0.4-1.8,1.3v4.2C144.7,7.9,143.6,7.9,143.6,7.9z
	"/>
</svg>
